<?xml version="1.0" encoding="iso-8859-1"?>
<!-- Generator: Adobe Illustrator 19.0.0, SVG Export Plug-In . SVG Version: 6.00 Build 0)  -->
<svg version="1.1" id="Capa_1" xmlns="http://www.w3.org/2000/svg" xmlns:xlink="http://www.w3.org/1999/xlink" x="0px" y="0px"
	 viewBox="0 0 512.001 512.001" style="enable-background:new 0 0 512.001 512.001;" xml:space="preserve">
<g>
	<g>
		<path d="M511.932,224.817c-6.694-56.889-32.779-110.618-73.45-151.291C397.811,32.853,344.083,6.765,287.194,0.068
			c-2.839-0.332-5.679,0.562-7.813,2.459c-2.134,1.898-3.355,4.618-3.355,7.473v87.086c0,5.522,4.478,10,10,10
			c5.522,0,10-4.478,10-10V21.51c100.071,16.546,177.925,94.404,194.465,194.476H296.026v-49.909c0-5.522-4.478-10-10-10
			c-5.522,0-10,4.478-10,10v59.909c0,5.522,4.478,10,10,10h215.976c2.855,0,5.575-1.22,7.471-3.355
			C511.37,230.497,512.266,227.654,511.932,224.817z"/>
	</g>
</g>
<g>
	<g>
		<path d="M286.026,121.03c-5.522,0-10,4.478-10,10v0.264c0,5.522,4.478,10,10,10c5.523,0,10-4.478,10-10v-0.264
			C296.026,125.508,291.548,121.03,286.026,121.03z"/>
	</g>
</g>
<g>
	<g>
		<path d="M235.572,442.778c-40.36-0.976-78.566-14.74-110.487-39.804c-4.346-3.413-10.631-2.656-14.041,1.689
			c-3.412,4.344-2.655,10.63,1.689,14.041c35.339,27.748,77.649,42.986,122.356,44.067c0.082,0.002,0.164,0.003,0.246,0.003
			c5.41,0,9.86-4.319,9.993-9.758C245.462,447.496,241.093,442.912,235.572,442.778z"/>
	</g>
</g>
<g>
	<g>
		<path d="M273.852,450.208c-0.655-5.484-5.636-9.398-11.114-8.745l-0.213,0.025c-5.483,0.654-9.399,5.63-8.745,11.114
			c0.606,5.082,4.923,8.816,9.917,8.816c0.396,0,0.795-0.024,1.197-0.071l0.213-0.025
			C270.59,460.668,274.506,455.692,273.852,450.208z"/>
	</g>
</g>
<g>
	<g>
		<path d="M474,260c-0.177,0-0.353,0.005-0.527,0.014H252V38c0-5.522-4.478-10-10-10c-64.641,0-125.412,25.173-171.12,70.88
			C25.173,144.588,0,205.359,0,270s25.173,125.412,70.88,171.12C116.588,486.827,177.359,512,242,512s125.412-25.173,171.12-70.88
			C458.827,395.412,484,334.641,484,270C484,264.477,479.522,260,474,260z M242,492c-122.411,0-222-99.589-222-222
			c0-119.057,94.216-216.525,212-221.777v221.791c0,3.331,1.635,6.273,4.139,8.09c-0.001,0.003-0.003,0.006-0.004,0.009
			l179.53,130.016C374.957,459.205,312.24,492,242,492z M427.416,391.945L272.858,280.014h190.919
			C461.939,321.221,448.803,359.534,427.416,391.945z"/>
	</g>
</g>
<g>
</g>
<g>
</g>
<g>
</g>
<g>
</g>
<g>
</g>
<g>
</g>
<g>
</g>
<g>
</g>
<g>
</g>
<g>
</g>
<g>
</g>
<g>
</g>
<g>
</g>
<g>
</g>
<g>
</g>
</svg>
