<svg id="Capa_1" enable-background="new 0 0 512 512" height="512" viewBox="0 0 512 512" width="512" xmlns="http://www.w3.org/2000/svg"><g><path d="m439 15c0-8.284-6.716-15-15-15h-336c-8.284 0-15 6.716-15 15v369c0 5.016 2.507 9.699 6.68 12.48l168 113c5.039 3.359 11.601 3.359 16.641 0l168-113c4.173-2.781 6.68-7.465 6.68-12.48-.001-20.612-.001-356.759-.001-369zm-336 269.027 144.68 96.453c5.039 3.359 11.601 3.359 16.641 0l144.679-96.453v27.945l-153 102-153-102zm306-254.027v217.973l-153 102-153-102v-217.973zm-153 448.973-153-103v-27.945l144.68 96.453c5.039 3.359 11.601 3.359 16.641 0l144.679-96.454v27.945z"/><path d="m156.529 158 47.21 34.3-18.032 55.498c-2.009 6.181.191 12.951 5.449 16.771 5.256 3.818 12.377 3.818 17.633 0l47.211-34.3 47.211 34.301c5.257 3.819 12.377 3.818 17.633 0 5.258-3.82 7.458-10.591 5.449-16.771l-18.032-55.499 47.21-34.3c5.258-3.82 7.458-10.591 5.449-16.771-2.008-6.181-7.768-10.365-14.266-10.365h-58.355l-18.033-55.499c-2.008-6.18-7.768-10.365-14.266-10.365s-12.258 4.185-14.266 10.365l-18.033 55.499h-58.355c-6.498 0-12.258 4.185-14.266 10.365-2.009 6.18.191 12.951 5.449 16.771zm78.071 2.864c6.498 0 12.258-4.185 14.266-10.365l7.134-21.958 7.135 21.958c2.008 6.181 7.768 10.365 14.266 10.365h23.089l-18.679 13.57c-5.258 3.82-7.458 10.591-5.449 16.771l7.135 21.958-18.68-13.571c-5.257-3.819-12.377-3.818-17.633 0l-18.68 13.571 7.135-21.958c2.009-6.18-.191-12.95-5.449-16.771l-18.679-13.57z"/></g></svg>