<svg id="Layer_1" height="512" viewBox="0 0 512 512" width="512" xmlns="http://www.w3.org/2000/svg" data-name="Layer 1"><path d="m255.749 120.094c19.489 0 35.345-15.606 35.345-34.788s-15.856-34.788-35.345-34.788-35.349 15.606-35.349 34.788 15.858 34.788 35.349 34.788zm0-57.576c12.873 0 23.345 10.222 23.345 22.788s-10.472 22.788-23.345 22.788-23.349-10.223-23.349-22.788 10.475-22.788 23.349-22.788z"/><path d="m310.368 196.8v-30.328a40.239 40.239 0 0 0 -40.194-40.193h-28.852a40.239 40.239 0 0 0 -40.194 40.193v30.328a6 6 0 0 0 6 6h97.24a6 6 0 0 0 6-6zm-12-6h-85.24v-24.328a28.225 28.225 0 0 1 28.194-28.193h28.852a28.225 28.225 0 0 1 28.194 28.193z"/><path d="m494 346.46h-42.2v-38.7a26.029 26.029 0 0 0 -26-26h-164.047v-36.397c3.645-.219 7.309-.589 10.988-1.156a116.034 116.034 0 0 0 76.533-46.316 112.276 112.276 0 0 0 20.606-84.075c-9.661-62.134-68.944-104.749-132.168-94.992a116.034 116.034 0 0 0 -76.533 46.316 112.277 112.277 0 0 0 -20.606 84.075c8.477 54.519 55.159 94 109.18 96.276v36.265h-167.853a26.029 26.029 0 0 0 -26 26v38.7h-37.9a8.009 8.009 0 0 0 -8 8v96.044a8.009 8.009 0 0 0 8 8h122.11a8.009 8.009 0 0 0 8-8v-96.04a8.009 8.009 0 0 0 -8-8h-72.21v-38.7a14.016 14.016 0 0 1 14-14h167.853v52.7h-54.808a8.009 8.009 0 0 0 -8 8v96.04a8.009 8.009 0 0 0 8 8h122.11a8.009 8.009 0 0 0 8-8v-96.04a8.009 8.009 0 0 0 -8-8h-55.3v-52.7h164.045a14.016 14.016 0 0 1 14 14v38.7h-67.91a8.009 8.009 0 0 0 -8 8v96.04a8.009 8.009 0 0 0 8 8h122.11a8.009 8.009 0 0 0 8-8v-96.04a8.009 8.009 0 0 0 -8-8zm-341.57-199.088a100.355 100.355 0 0 1 18.434-75.145 104.11 104.11 0 0 1 68.678-41.543 106.347 106.347 0 0 1 16.229-1.25c50.27 0 94.438 35.974 102.252 86.225a100.358 100.358 0 0 1 -18.434 75.146 104.112 104.112 0 0 1 -68.678 41.542c-56.68 8.747-109.834-29.371-118.481-84.975zm-16.32 299.128h-114.11v-88.04h114.11zm176.945 0h-114.11v-88.04h114.11zm176.945 0h-114.11v-88.04h114.11z"/></svg>