<?xml version="1.0" encoding="iso-8859-1"?>
<!-- Generator: Adobe Illustrator 19.0.0, SVG Export Plug-In . SVG Version: 6.00 Build 0)  -->
<svg version="1.1" id="Capa_1" xmlns="http://www.w3.org/2000/svg" xmlns:xlink="http://www.w3.org/1999/xlink" x="0px" y="0px"
	 viewBox="0 0 511.999 511.999" style="enable-background:new 0 0 511.999 511.999;" xml:space="preserve">
<g>
	<g>
		<path d="M417.987,135.47c-4.487-3.222-10.735-2.198-13.956,2.289c-3.221,4.485-2.197,10.733,2.289,13.955
			c33.588,24.123,53.641,63.108,53.641,104.286c0,31.35-11.478,61.554-32.319,85.048c-3.665,4.131-3.286,10.451,0.845,14.116
			c1.904,1.69,4.273,2.52,6.632,2.52c2.76,0,5.508-1.137,7.485-3.365c24.09-27.156,37.357-62.073,37.357-98.319
			C479.961,208.399,456.793,163.34,417.987,135.47z"/>
	</g>
</g>
<g>
	<g>
		<path d="M421.959,366.45c-0.13-0.631-0.32-1.261-0.57-1.87c-0.25-0.601-0.56-1.181-0.92-1.721c-0.37-0.55-0.78-1.06-1.24-1.52
			c-0.46-0.46-0.98-0.88-1.52-1.25c-0.55-0.36-1.13-0.67-1.73-0.92c-0.6-0.25-1.23-0.44-1.87-0.57c-1.29-0.26-2.62-0.26-3.91,0
			c-0.64,0.13-1.27,0.32-1.87,0.57c-0.6,0.25-1.19,0.56-1.73,0.92c-0.54,0.37-1.06,0.79-1.52,1.25c-0.46,0.46-0.88,0.97-1.24,1.52
			c-0.36,0.54-0.67,1.12-0.92,1.721c-0.25,0.609-0.44,1.239-0.57,1.87c-0.13,0.649-0.19,1.31-0.19,1.96
			c0,0.649,0.06,1.309,0.19,1.949c0.13,0.641,0.32,1.27,0.57,1.87c0.25,0.61,0.56,1.19,0.92,1.73c0.36,0.55,0.78,1.06,1.24,1.52
			c1.86,1.861,4.44,2.931,7.08,2.931c2.63,0,5.21-1.07,7.06-2.931c0.47-0.46,0.88-0.97,1.25-1.52c0.36-0.54,0.67-1.12,0.92-1.73
			c0.25-0.599,0.44-1.229,0.57-1.87c0.13-0.639,0.19-1.3,0.19-1.949C422.149,367.76,422.089,367.099,421.959,366.45z"/>
	</g>
</g>
<g>
	<g>
		<path d="M388.726,163.801c-4.69-2.911-10.857-1.472-13.771,3.219c-2.914,4.691-1.473,10.857,3.219,13.771
			c26.26,16.31,41.937,44.425,41.937,75.209c0,30.784-15.677,58.899-41.937,75.209c-4.692,2.914-6.133,9.08-3.219,13.771
			c1.894,3.049,5.161,4.725,8.504,4.725c1.801,0,3.624-0.486,5.267-1.506c32.176-19.984,51.385-54.451,51.385-92.199
			S420.902,183.785,388.726,163.801z"/>
	</g>
</g>
<g>
	<g>
		<path d="M357.769,192.538c-5.109-2.104-10.951,0.332-13.055,5.438c-2.104,5.107,0.331,10.951,5.437,13.055
			c18.29,7.535,30.109,25.187,30.109,44.969s-11.818,37.434-30.109,44.969c-5.106,2.104-7.541,7.949-5.437,13.055
			c1.59,3.861,5.319,6.194,9.25,6.194c1.269,0,2.559-0.243,3.805-0.758c25.812-10.634,42.491-35.544,42.491-63.461
			C400.26,228.082,383.582,203.172,357.769,192.538z"/>
	</g>
</g>
<g>
	<g>
		<path d="M279.746,0H80.606C53.825,0,32.038,21.788,32.038,48.568v414.863c0,26.78,21.788,48.568,48.568,48.568h199.14
			c26.781,0,48.569-21.788,48.569-48.568V48.568C328.315,21.788,306.527,0,279.746,0z M308.315,463.432
			c0,15.753-12.816,28.568-28.569,28.568H80.606c-15.752,0-28.568-12.815-28.568-28.568v-39.775h256.277V463.432z M308.315,403.656
			H52.038V88.342h256.277V403.656z M308.315,68.341H52.038V48.568C52.038,32.815,64.853,20,80.606,20h199.14
			c15.753,0,28.569,12.815,28.569,28.568V68.341z"/>
	</g>
</g>
<g>
	<g>
		<path d="M205.522,447.828H154.83c-5.523,0-10,4.478-10,10c0,5.522,4.477,10,10,10h50.692c5.523,0,10-4.478,10-10
			C215.522,452.306,211.045,447.828,205.522,447.828z"/>
	</g>
</g>
<g>
	<g>
		<path d="M264.299,42.221c-0.13-0.64-0.32-1.269-0.57-1.87c-0.25-0.609-0.56-1.189-0.92-1.729c-0.37-0.551-0.79-1.061-1.25-1.521
			c-0.46-0.46-0.97-0.88-1.52-1.24c-0.54-0.359-1.12-0.67-1.72-0.92c-0.61-0.25-1.24-0.439-1.88-0.569c-1.29-0.261-2.61-0.261-3.9,0
			c-0.64,0.13-1.27,0.319-1.87,0.569c-0.61,0.25-1.19,0.561-1.73,0.92c-0.55,0.36-1.06,0.78-1.52,1.24
			c-0.46,0.46-0.88,0.97-1.24,1.521c-0.36,0.54-0.67,1.12-0.92,1.729c-0.25,0.6-0.44,1.231-0.57,1.87c-0.13,0.639-0.2,1.3-0.2,1.95
			c0,0.649,0.07,1.309,0.2,1.95c0.13,0.64,0.32,1.269,0.57,1.87c0.25,0.609,0.56,1.189,0.92,1.729c0.36,0.55,0.78,1.061,1.24,1.521
			c0.46,0.46,0.97,0.88,1.52,1.239c0.54,0.37,1.12,0.67,1.73,0.92c0.6,0.25,1.23,0.45,1.87,0.58c0.64,0.12,1.3,0.19,1.95,0.19
			c0.65,0,1.31-0.07,1.95-0.19c0.64-0.13,1.27-0.33,1.88-0.58c0.6-0.25,1.18-0.55,1.72-0.92c0.55-0.359,1.06-0.779,1.52-1.239
			c0.46-0.46,0.88-0.971,1.25-1.521c0.36-0.54,0.67-1.12,0.92-1.729c0.25-0.6,0.44-1.23,0.57-1.87c0.13-0.64,0.19-1.301,0.19-1.95
			C264.489,43.521,264.429,42.861,264.299,42.221z"/>
	</g>
</g>
<g>
	<g>
		<path d="M217.489,34.171H105.862c-5.523,0-10,4.478-10,10c0,5.522,4.477,10,10,10H217.49c5.523,0,9.999-4.478,9.999-10
			C227.489,38.649,223.012,34.171,217.489,34.171z"/>
	</g>
</g>
<g>
	<g>
		<path d="M266.724,287.356c-2.807-2.984-19.412-19.466-21.287-21.326c-5.78-5.807-12.646-8.88-19.856-8.888
			c-0.009,0-0.018,0-0.027,0c-7.212,0-14.09,3.067-19.884,8.863l-0.882,0.874c-2.016,1.994-4.245,4.206-6.285,6.261
			c-8.3-5.204-16.649-12.755-19.67-15.76c-3.035-3.052-10.592-11.407-15.798-19.709c2.054-2.04,4.266-4.268,6.261-6.285l0.865-0.873
			c5.812-5.811,8.88-12.698,8.872-19.92c-0.008-7.21-3.081-14.076-8.843-19.811c-1.904-1.919-18.385-18.525-21.37-21.332
			c-5.501-5.441-12.21-8.315-19.414-8.315c-7.162,0-13.937,2.873-19.59,8.308c-0.044,0.042-0.088,0.085-0.131,0.128l-13.152,13.114
			c-6.522,6.522-10.234,14.474-11.041,23.72c-0.784,9.927,0.956,20.242,5.477,32.468c8.651,23.364,22.465,44.331,42.235,64.099
			c19.77,19.768,40.736,33.584,64.103,42.236c10.327,3.819,19.292,5.653,27.861,5.653c1.573,0,3.134-0.061,4.686-0.184
			c9.163-0.8,17.115-4.513,23.646-11.045l13.104-13.142c0.043-0.043,0.086-0.087,0.128-0.131c5.434-5.654,8.307-12.428,8.307-19.59
			C275.039,299.565,272.165,292.856,266.724,287.356z M252.369,312.441l-13.021,13.06c-3.149,3.148-6.823,4.866-11.152,5.245
			c-6.933,0.548-14.544-0.817-23.947-4.295c-20.888-7.734-38.969-19.689-56.902-37.622c-17.933-17.932-29.888-36.012-37.621-56.897
			c-3.479-9.406-4.844-17.016-4.303-23.87c0.385-4.411,2.103-8.085,5.242-11.224l13.069-13.031c1.864-1.773,3.772-2.671,5.672-2.672
			c1.894,0,3.661,0.847,5.402,2.588c0.095,0.094,0.191,0.187,0.29,0.278c1.636,1.509,13.684,13.6,20.938,20.912
			c1.366,1.358,2.995,3.451,2.997,5.702c0.002,2.264-1.637,4.378-3.021,5.762l-0.936,0.945c-2.128,2.151-8.604,8.699-11.186,11.046
			c-3.218,2.926-4.176,7.595-2.371,11.551c6.803,14.911,21.481,29.904,23.172,31.604c1.66,1.652,16.654,16.33,31.564,23.133
			c3.956,1.806,8.624,0.849,11.55-2.371c2.347-2.582,8.895-9.058,11.046-11.186l0.954-0.944c1.374-1.375,3.486-3.013,5.749-3.013
			c0.002,0,0.004,0,0.005,0c2.251,0.003,4.344,1.631,5.747,3.041c7.267,7.21,19.358,19.258,20.867,20.894
			c0.09,0.099,0.183,0.195,0.278,0.29c1.742,1.741,2.588,3.507,2.588,5.402C255.039,308.67,254.141,310.578,252.369,312.441z"/>
	</g>
</g>
<g>
</g>
<g>
</g>
<g>
</g>
<g>
</g>
<g>
</g>
<g>
</g>
<g>
</g>
<g>
</g>
<g>
</g>
<g>
</g>
<g>
</g>
<g>
</g>
<g>
</g>
<g>
</g>
<g>
</g>
</svg>
