<svg xmlns="http://www.w3.org/2000/svg" xmlns:xlink="http://www.w3.org/1999/xlink" width="24" height="24" viewBox="0 0 24 24">
  <defs>
    <clipPath id="clip-path">
      <rect id="Rectangle_11029" data-name="Rectangle 11029" width="24" height="24" transform="translate(370 1013)" fill="#fff" stroke="#707070" stroke-width="1"/>
    </clipPath>
  </defs>
  <g id="Mask_Group_19474" data-name="Mask Group 19474" transform="translate(-370 -1013)" clip-path="url(#clip-path)">
    <g id="shop" transform="translate(370.382 1013)">
      <path id="Path_63787" data-name="Path 63787" d="M19.353,39.031H13.325c-5.514,0-7.859-2.355-7.859-7.859V26.16a.837.837,0,1,1,1.674,0v5.012c0,4.566,1.619,6.184,6.184,6.184h6.017c4.566,0,6.184-1.619,6.184-6.184V26.16a.837.837,0,0,1,1.674,0v5.012C27.211,36.675,24.856,39.031,19.353,39.031Z" transform="translate(-4.692 -15.031)" fill="#fff"/>
      <path id="Path_63788" data-name="Path 63788" d="M24.123,15.86a4.135,4.135,0,0,1-4.175-4.621L20.7,3.782a.846.846,0,0,1,.837-.759h5.213a.837.837,0,0,1,.837.759l.748,7.457a4.175,4.175,0,0,1-1.038,3.26,4.277,4.277,0,0,1-3.17,1.362ZM22.281,4.7l-.67,6.709a2.5,2.5,0,0,0,.614,1.965,2.681,2.681,0,0,0,3.8,0,2.522,2.522,0,0,0,.614-1.965L25.965,4.7Z" transform="translate(-12.477 -3.023)" fill="#fff"/>
      <path id="Path_63789" data-name="Path 63789" d="M38.094,15.86a4.647,4.647,0,0,1-4.521-4.086L32.792,3.95A.862.862,0,0,1,33,3.3a.82.82,0,0,1,.625-.279h3.4c3.282,0,4.811,1.373,5.269,4.744l.313,3.1a4.478,4.478,0,0,1-4.521,4.99ZM34.556,4.7l.692,6.91a2.967,2.967,0,0,0,2.847,2.579,2.8,2.8,0,0,0,2.858-3.148l-.313-3.07C40.293,5.446,39.478,4.7,37.034,4.7Z" transform="translate(-19.404 -3.023)" fill="#fff"/>
      <path id="Path_63790" data-name="Path 63790" d="M8.335,15.86a4.478,4.478,0,0,1-4.521-4.99l.3-3.07c.469-3.4,2-4.778,5.28-4.778h3.4a.856.856,0,0,1,.625.279.82.82,0,0,1,.212.647l-.781,7.825A4.647,4.647,0,0,1,8.335,15.86ZM9.4,4.7c-2.445,0-3.26.737-3.617,3.293l-.3,3.047a2.8,2.8,0,0,0,2.858,3.148,2.958,2.958,0,0,0,2.847-2.579l.692-6.91H9.4Z" transform="translate(-3.788 -3.023)" fill="#fff"/>
      <path id="Path_63791" data-name="Path 63791" d="M27.581,46.558H22a.843.843,0,0,1-.837-.837V42.93A3.268,3.268,0,0,1,24.791,39.3a3.268,3.268,0,0,1,3.628,3.628v2.791A.843.843,0,0,1,27.581,46.558Zm-4.744-1.674h3.907V42.93c0-1.407-.547-1.953-1.953-1.953s-1.953.547-1.953,1.953Z" transform="translate(-13.144 -22.558)" fill="#fff"/>
    </g>
  </g>
</svg>
