<svg width="89" height="88" viewBox="0 0 89 88" fill="none" xmlns="http://www.w3.org/2000/svg">
<g clip-path="url(#clip0_4799_3084)">
<path d="M70.9 0H18.1C8.37979 0 0.5 7.87979 0.5 17.6V70.4C0.5 80.1202 8.37979 88 18.1 88H70.9C80.6202 88 88.5 80.1202 88.5 70.4V17.6C88.5 7.87979 80.6202 0 70.9 0Z" fill="url(#paint0_linear_4799_3084)"/>
<path d="M58.4331 26.4H32.0331V59.4H58.4331V26.4Z" fill="#FEF8E8"/>
<path d="M29.3749 23.375H44.4999H59.6249C61.2291 25.6666 65.6749 30.25 70.6249 30.25C70.6248 36.9486 70.0328 44.8313 67.0634 52.25C65.8329 55.3242 64.1941 58.3188 62.02 61.1165C58.1331 66.1181 52.5351 70.4902 44.4999 73.5625C36.4647 70.4902 30.8667 66.1181 26.9798 61.1165C24.8057 58.3188 23.1669 55.3242 21.9364 52.25C18.967 44.8313 18.375 36.9486 18.3749 30.25C23.3249 30.25 27.7707 25.6666 29.3749 23.375Z" fill="#FEF8E8"/>
<path d="M21.9364 52.25C23.1773 55.3503 24.8334 58.3695 27.0351 61.1875M67.0634 52.25C65.8225 55.3503 64.1664 58.3695 61.9647 61.1875M44.4999 23.375H29.3749C27.7707 25.6666 23.3249 30.25 18.3749 30.25C18.3751 44.6875 21.1248 64.625 44.4999 73.5625C67.875 64.625 70.6248 44.6875 70.6249 30.25C65.6749 30.25 61.2291 25.6666 59.6249 23.375H44.4999Z" stroke="#FFCC00" stroke-width="1.1"/>
<path d="M50.6874 30.25L51.9222 34.0504H55.9182L52.6854 36.3991L53.9202 40.1995L50.6874 37.8508L47.4546 40.1995L48.6894 36.3991L45.4566 34.0504H49.4526L50.6874 30.25Z" fill="url(#paint1_linear_4799_3084)"/>
<path d="M21.9364 52.25C23.1773 55.3503 24.8334 58.3695 27.0351 61.1875M67.0634 52.25C65.8225 55.3503 64.1664 58.3695 61.9647 61.1875M44.4999 23.375H29.3749C27.7707 25.6666 23.3249 30.25 18.3749 30.25C18.3751 44.6875 21.1248 64.625 44.4999 73.5625C67.875 64.625 70.6248 44.6875 70.6249 30.25C65.6749 30.25 61.2291 25.6666 59.6249 23.375H44.4999Z" stroke="#FEF8E8" stroke-width="1.1"/>
<path d="M32.0265 43.1157L31.9049 43.1765V43.3125V53.625V53.652L31.9115 53.6783C32.1699 54.7121 33.4037 55.9508 36.096 56.589C38.7984 57.2297 43.0168 57.2812 49.3591 55.9024L49.3861 55.8966L49.4108 55.8842L50.7858 55.1967L50.9074 55.1359V55V49.5V49.0725L50.5595 49.3209C46.8906 51.9416 42.068 52.6682 39.9074 52.715V43.3125V43.1539L39.757 43.1037L37.8449 42.4664V37.7575H38.9999H39.2199V37.5375V35.475V35.255H38.9999H37.8449V33.22H39.6874H39.9074V33V30.25V30.03H39.6874H39.2163L38.9449 13.7463L38.9413 13.53H38.7249H37.8999H37.6845L37.68 13.7453L37.4095 26.5925H34.8749C34.6105 26.5925 34.2189 26.67 33.887 26.9089C33.5439 27.156 33.2799 27.5658 33.2799 28.1875C33.2799 28.8092 33.5439 29.219 33.887 29.466C34.1356 29.645 34.4178 29.7334 34.6549 29.7665V30.3613L33.4367 30.7267L33.3006 30.7676L33.2818 30.9084L33.0068 32.9709L32.9736 33.22H33.2249H34.6549V35.255H32.8124H32.5924V35.475V36.2175H32.1249H31.9531L31.9115 36.3841L31.224 39.1341L31.1556 39.4075H31.4374H33.2799V42.489L32.0265 43.1157Z" fill="url(#paint2_linear_4799_3084)" stroke="#FEF8E8" stroke-width="0.44"/>
<path d="M51.3879 56.3426C51.388 55.2561 51.3947 54.3057 52.0754 53.625C52.0754 54.0833 52.3504 55 53.4504 55C54.8254 55 56.2004 54.3125 56.8879 55C57.5754 55.6875 57.5754 56.375 56.8879 57.0625C56.3379 57.6125 54.3671 57.2916 53.4504 57.0625C52.9681 56.8695 52.161 56.5954 51.3879 56.3426Z" fill="url(#paint3_linear_4799_3084)"/>
<path d="M35.5754 57.0625C34.6587 57.2916 32.6879 57.6125 32.1379 57.0625L34.0699 60.9264L35.5754 63.9375C37.1796 63.4791 41.2129 62.5625 44.5129 62.5625C47.8129 62.5625 51.8462 63.4791 53.4504 63.9375L54.9559 60.9264L56.8879 57.0625C56.3379 57.6125 54.3671 57.2916 53.4504 57.0625C52.9681 56.8695 52.161 56.5954 51.3879 56.3426C50.3244 55.9948 49.3254 55.6875 49.3254 55.6875C49.3254 55.6875 46.5754 55 44.5129 55C42.4504 55 39.7004 55.6875 39.7004 55.6875C39.7004 55.6875 38.7014 55.9948 37.6379 56.3426C36.8649 56.5954 36.0577 56.8695 35.5754 57.0625Z" fill="url(#paint4_linear_4799_3084)"/>
<path d="M36.9504 53.625C36.9504 54.0833 36.6754 55 35.5754 55C34.2004 55 32.8254 54.3125 32.1379 55C31.4504 55.6875 31.4504 56.375 32.1379 57.0625C32.6879 57.6125 34.6587 57.2916 35.5754 57.0625C36.0577 56.8695 36.8649 56.5954 37.6379 56.3426C37.6378 55.2561 37.6312 54.3057 36.9504 53.625Z" fill="url(#paint5_linear_4799_3084)"/>
<path d="M21.9494 52.25C23.1903 55.3503 24.8464 58.3695 27.0481 61.1875C28.4003 61.1875 29.6424 61.2053 30.7492 61.1844C31.8934 61.1629 32.8986 61.0999 34.0699 60.9264L32.1379 57.0625C31.4504 56.375 31.4504 55.6875 32.1379 55C32.8254 54.3125 34.2004 55 35.5754 55C36.6754 55 36.9504 54.0833 36.9504 53.625C36.4921 53.1666 35.1629 52.3875 33.5129 52.9375C31.4504 53.625 29.3879 53.625 28.0129 53.625C26.9129 53.625 23.3244 52.7083 21.9494 52.25Z" fill="url(#paint6_linear_4799_3084)"/>
<path d="M61.9777 61.1875C64.1794 58.3695 65.8355 55.3503 67.0765 52.25C65.7015 52.7083 62.1129 53.625 61.0129 53.625C59.6379 53.625 57.5754 53.625 55.5129 52.9375C53.8629 52.3875 52.5337 53.1666 52.0754 53.625C52.0754 54.0833 52.3504 55 53.4504 55C54.8254 55 56.2004 54.3125 56.8879 55C57.5754 55.6875 57.5754 56.375 56.8879 57.0625L54.9559 60.9264C57.2603 61.2676 59.2277 61.1875 61.9777 61.1875Z" fill="url(#paint7_linear_4799_3084)"/>
<path d="M36.9504 53.625C36.4921 53.1666 35.1629 52.3875 33.5129 52.9375C31.4504 53.625 29.3879 53.625 28.0129 53.625C26.9129 53.625 23.3244 52.7083 21.9494 52.25C23.1903 55.3503 24.8464 58.3695 27.0481 61.1875M36.9504 53.625C36.9504 54.0833 36.6754 55 35.5754 55C34.2004 55 32.8254 54.3125 32.1379 55C31.4504 55.6875 31.4504 56.375 32.1379 57.0625M36.9504 53.625C37.6312 54.3057 37.6378 55.2561 37.6379 56.3426M37.6379 56.375C37.6379 56.3642 37.6379 56.3534 37.6379 56.3426M32.1379 57.0625C32.6879 57.6125 34.6587 57.2916 35.5754 57.0625C36.0577 56.8695 36.8649 56.5954 37.6379 56.3426M32.1379 57.0625L34.0699 60.9264M27.0481 61.1875C28.4003 61.1875 29.6424 61.2053 30.7492 61.1844M27.0481 61.1875C28.0125 61.1875 28.8807 61.1973 29.7009 61.1954M34.0699 60.9264L35.5754 63.9375C37.1796 63.4791 41.2129 62.5625 44.5129 62.5625C47.8129 62.5625 51.8462 63.4791 53.4504 63.9375L54.9559 60.9264M34.0699 60.9264C32.8986 61.0999 31.8934 61.1629 30.7492 61.1844M34.0699 60.9264C32.9256 61.0959 31.8644 61.1614 30.7492 61.1844M52.0754 53.625C52.5337 53.1666 53.8629 52.3875 55.5129 52.9375C57.5754 53.625 59.6379 53.625 61.0129 53.625C62.1129 53.625 65.7015 52.7083 67.0765 52.25C65.8355 55.3503 64.1794 58.3695 61.9777 61.1875C59.2277 61.1875 57.2603 61.2676 54.9559 60.9264M52.0754 53.625C51.3947 54.3057 51.388 55.2561 51.3879 56.3426M52.0754 53.625C52.0754 54.0833 52.3504 55 53.4504 55C54.8254 55 56.2004 54.3125 56.8879 55C57.5754 55.6875 57.5754 56.375 56.8879 57.0625M51.3879 56.3426C51.3879 56.3534 51.3879 56.3642 51.3879 56.375M51.3879 56.3426C52.161 56.5954 52.9681 56.8695 53.4504 57.0625C54.3671 57.2916 56.3379 57.6125 56.8879 57.0625M51.3879 56.3426C50.3244 55.9948 49.3254 55.6875 49.3254 55.6875C49.3254 55.6875 46.5754 55 44.5129 55C42.4504 55 39.7004 55.6875 39.7004 55.6875C39.7004 55.6875 38.7014 55.9948 37.6379 56.3426M56.8879 57.0625L54.9559 60.9264M29.7009 61.1954C30.0307 61.1946 30.4318 61.1904 30.7492 61.1844M29.7009 61.1954L30.7492 61.1844M30.7492 61.1844C30.7229 61.185 30.7756 61.1839 30.7492 61.1844Z" stroke="#FEF8E8" stroke-width="1.1"/>
<circle cx="34.8755" cy="28.1875" r="0.6875" fill="#FEF8E8"/>
<path fill-rule="evenodd" clip-rule="evenodd" d="M26.3147 41.2329C25.8412 40.8463 25.4942 40.3287 25.3137 39.7448C25.2794 39.3896 25.3201 39.0311 25.4403 38.6951C25.5604 38.3591 25.753 38.0534 26.0048 37.8004C26.2677 37.53 26.4681 37.2052 26.5922 36.8491C26.5626 37.1982 26.6567 37.5474 26.8533 37.8374C27.0534 38.123 27.1772 38.4518 27.2224 38.7976C27.2676 39.1433 27.2299 39.4956 27.11 39.823C26.8383 40.4233 26.3147 41.2329 26.3147 41.2329Z" fill="url(#paint8_linear_4799_3084)"/>
<path fill-rule="evenodd" clip-rule="evenodd" d="M26.0278 43.7263C26.0175 43.0055 26.1297 42.2874 26.3602 41.6043C26.8213 40.8818 27.4396 40.2721 28.1672 39.819C28.2618 40.5008 28.194 41.1945 27.9729 41.8464C27.4663 42.6048 26.8034 43.2464 26.0278 43.7263Z" fill="url(#paint9_linear_4799_3084)"/>
<path fill-rule="evenodd" clip-rule="evenodd" d="M25.9063 46.355C25.9218 45.6322 26.0577 44.918 26.3023 44.2377C26.7842 43.5369 27.4161 42.9536 28.1546 42.5319C28.2309 43.2158 28.1465 43.9087 27.905 44.5531C27.376 45.2897 26.6926 45.9031 25.9063 46.355Z" fill="url(#paint10_linear_4799_3084)"/>
<path fill-rule="evenodd" clip-rule="evenodd" d="M26.1783 48.8073C26.2164 48.0867 25.8181 47.4973 26.0839 46.8264C26.5916 46.1347 27.2436 45.5626 28.0008 45.1591C28.0545 45.8452 27.9438 46.5342 27.6764 47.1683C27.1249 47.894 26.9812 48.3759 26.1783 48.8073Z" fill="url(#paint11_linear_4799_3084)"/>
<path fill-rule="evenodd" clip-rule="evenodd" d="M26.5543 50.6467C26.3661 49.7269 26.3754 49.6071 26.5834 48.9158C27.0177 48.1757 27.5643 47.637 28.2807 47.1645C28.2807 47.1645 28.4979 48.5656 28.1507 49.2166C27.667 49.9848 27.3098 50.1435 26.5543 50.6467Z" fill="url(#paint12_linear_4799_3084)"/>
<path fill-rule="evenodd" clip-rule="evenodd" d="M27.67 52.4399C27.3195 51.6395 26.7117 51.2642 27.0618 50.6607C27.4119 50.0572 27.887 50.0126 28.1988 49.6615C28.1988 49.6615 28.3944 50.2699 28.1775 51.0815C28.0691 51.4871 27.8591 51.7342 27.67 52.4399Z" fill="url(#paint13_linear_4799_3084)"/>
<path fill-rule="evenodd" clip-rule="evenodd" d="M25.7418 43.9483C25.9062 43.2448 25.9559 42.5197 25.8841 41.8009C25.5919 40.9949 25.1209 40.2649 24.5074 39.6659C24.264 40.3096 24.1746 41.0017 24.2445 41.6863C24.5778 42.5387 25.0865 43.3093 25.7418 43.9483Z" fill="url(#paint14_linear_4799_3084)"/>
<path fill-rule="evenodd" clip-rule="evenodd" d="M25.9201 46.5272C25.9139 45.8058 25.7934 45.0894 25.561 44.4065C25.0868 43.6912 24.4573 43.0907 23.7216 42.6489C23.6318 43.3323 23.7078 44.0274 23.9392 44.6767C24.4599 45.4283 25.1343 46.0598 25.9201 46.5272Z" fill="url(#paint15_linear_4799_3084)"/>
<path fill-rule="evenodd" clip-rule="evenodd" d="M26.0696 49.2127C25.9705 48.4995 25.8823 47.3355 25.5547 46.6943C24.9876 46.0508 24.2794 45.5448 23.4876 45.2151C23.501 45.9048 23.6762 46.5821 23.9986 47.192C24.6148 47.8567 25.236 48.8567 26.0696 49.2127Z" fill="url(#paint16_linear_4799_3084)"/>
<path fill-rule="evenodd" clip-rule="evenodd" d="M26.4458 51.0523C26.2784 50.3532 26.3351 50.0508 25.9508 49.4433C25.3256 48.8574 24.5823 48.4201 23.7656 48.1608C23.8314 48.8445 24.0587 49.5007 24.436 50.0746C25.114 50.6847 25.576 50.778 26.4458 51.0523Z" fill="url(#paint17_linear_4799_3084)"/>
<path fill-rule="evenodd" clip-rule="evenodd" d="M28.0848 53.2785C27.7789 52.628 27.3688 52.0328 26.8691 51.516C26.138 51.0692 25.3214 50.7919 24.4691 50.7039C24.6724 51.36 25.0281 51.9563 25.5141 52.4417C26.3018 52.9014 27.1774 53.1866 28.0848 53.2785Z" fill="url(#paint18_linear_4799_3084)"/>
<path fill-rule="evenodd" clip-rule="evenodd" d="M63.3142 41.2329C63.7876 40.8463 64.1346 40.3287 64.3151 39.7448C64.3494 39.3896 64.3087 39.0311 64.1885 38.6951C64.0684 38.3591 63.8758 38.0534 63.624 37.8004C63.3611 37.53 63.1607 37.2052 63.0366 36.8491C63.0662 37.1982 62.9721 37.5474 62.7755 37.8374C62.5755 38.123 62.4516 38.4518 62.4064 38.7976C62.3612 39.1433 62.3989 39.4956 62.5188 39.823C62.7905 40.4233 63.3142 41.2329 63.3142 41.2329Z" fill="url(#paint19_linear_4799_3084)"/>
<path fill-rule="evenodd" clip-rule="evenodd" d="M63.601 43.7263C63.6114 43.0055 63.4992 42.2874 63.2686 41.6043C62.8076 40.8818 62.1892 40.2721 61.4616 39.819C61.367 40.5008 61.4348 41.1945 61.6559 41.8464C62.1626 42.6048 62.8254 43.2464 63.601 43.7263Z" fill="url(#paint20_linear_4799_3084)"/>
<path fill-rule="evenodd" clip-rule="evenodd" d="M63.7226 46.355C63.7071 45.6322 63.5712 44.918 63.3266 44.2377C62.8446 43.5369 62.2128 42.9536 61.4742 42.5319C61.3979 43.2158 61.4823 43.9087 61.7239 44.5531C62.2528 45.2897 62.9363 45.9031 63.7226 46.355Z" fill="url(#paint21_linear_4799_3084)"/>
<path fill-rule="evenodd" clip-rule="evenodd" d="M63.4505 48.8073C63.4125 48.0867 63.8108 47.4973 63.5449 46.8264C63.0372 46.1347 62.3853 45.5626 61.628 45.1591C61.5743 45.8452 61.685 46.5342 61.9525 47.1683C62.5039 47.894 62.6476 48.3759 63.4505 48.8073Z" fill="url(#paint22_linear_4799_3084)"/>
<path fill-rule="evenodd" clip-rule="evenodd" d="M63.074 50.6467C63.2622 49.7269 63.2528 49.6071 63.0448 48.9159C62.6105 48.1757 62.064 47.637 61.3476 47.1645C61.3476 47.1645 61.1303 48.5656 61.4776 49.2167C61.9613 49.9848 62.3184 50.1435 63.074 50.6467Z" fill="url(#paint23_linear_4799_3084)"/>
<path fill-rule="evenodd" clip-rule="evenodd" d="M61.9588 52.4399C62.3093 51.6395 62.9171 51.2642 62.567 50.6607C62.2169 50.0572 61.7419 50.0126 61.43 49.6615C61.43 49.6615 61.2344 50.2699 61.4513 51.0815C61.5597 51.4871 61.7697 51.7342 61.9588 52.4399Z" fill="url(#paint24_linear_4799_3084)"/>
<path fill-rule="evenodd" clip-rule="evenodd" d="M63.8871 43.9483C63.7226 43.2448 63.673 42.5197 63.7447 41.8009C64.037 40.9949 64.508 40.2649 65.1214 39.6659C65.3649 40.3096 65.4542 41.0017 65.3844 41.6863C65.0511 42.5387 64.5424 43.3093 63.8871 43.9483Z" fill="url(#paint25_linear_4799_3084)"/>
<path fill-rule="evenodd" clip-rule="evenodd" d="M63.7087 46.5272C63.715 45.8058 63.8355 45.0894 64.0679 44.4065C64.5421 43.6912 65.1715 43.0907 65.9072 42.6489C65.9971 43.3323 65.921 44.0274 65.6897 44.6767C65.169 45.4283 64.4946 46.0598 63.7087 46.5272Z" fill="url(#paint26_linear_4799_3084)"/>
<path fill-rule="evenodd" clip-rule="evenodd" d="M63.5587 49.2127C63.6578 48.4995 63.7461 47.3355 64.0736 46.6943C64.6407 46.0508 65.3489 45.5448 66.1408 45.2151C66.1273 45.9048 65.9521 46.5821 65.6297 47.192C65.0136 47.8567 64.3923 48.8567 63.5587 49.2127Z" fill="url(#paint27_linear_4799_3084)"/>
<path fill-rule="evenodd" clip-rule="evenodd" d="M63.1825 51.0523C63.3499 50.3532 63.2932 50.0508 63.6775 49.4433C64.3027 48.8574 65.046 48.4201 65.8626 48.1608C65.7968 48.8445 65.5696 49.5007 65.1922 50.0746C64.5143 50.6847 64.0523 50.778 63.1825 51.0523Z" fill="url(#paint28_linear_4799_3084)"/>
<path fill-rule="evenodd" clip-rule="evenodd" d="M61.5436 53.2785C61.8494 52.628 62.2596 52.0328 62.7592 51.516C63.4903 51.0692 64.307 50.7919 65.1592 50.7039C64.956 51.36 64.6002 51.9563 64.1142 52.4417C63.3265 52.9014 62.451 53.1866 61.5436 53.2785Z" fill="url(#paint29_linear_4799_3084)"/>
</g>
<defs>
<linearGradient id="paint0_linear_4799_3084" x1="44.5" y1="0" x2="44.5" y2="88" gradientUnits="userSpaceOnUse">
<stop stop-color="#FF6C58"/>
<stop offset="1" stop-color="#C61F1B"/>
</linearGradient>
<linearGradient id="paint1_linear_4799_3084" x1="50.6874" y1="30.25" x2="50.6874" y2="41.25" gradientUnits="userSpaceOnUse">
<stop stop-color="#FF6C58"/>
<stop offset="1" stop-color="#C61F1B"/>
</linearGradient>
<linearGradient id="paint2_linear_4799_3084" x1="41.0624" y1="13.75" x2="41.0624" y2="56.8022" gradientUnits="userSpaceOnUse">
<stop stop-color="#FF6C58"/>
<stop offset="1" stop-color="#C61F1B"/>
</linearGradient>
<linearGradient id="paint3_linear_4799_3084" x1="44.5129" y1="52.25" x2="44.5129" y2="63.9375" gradientUnits="userSpaceOnUse">
<stop stop-color="#FF6C58"/>
<stop offset="1" stop-color="#C61F1B"/>
</linearGradient>
<linearGradient id="paint4_linear_4799_3084" x1="44.5129" y1="52.25" x2="44.5129" y2="63.9375" gradientUnits="userSpaceOnUse">
<stop stop-color="#FF6C58"/>
<stop offset="1" stop-color="#C61F1B"/>
</linearGradient>
<linearGradient id="paint5_linear_4799_3084" x1="44.5129" y1="52.25" x2="44.5129" y2="63.9375" gradientUnits="userSpaceOnUse">
<stop stop-color="#FF6C58"/>
<stop offset="1" stop-color="#C61F1B"/>
</linearGradient>
<linearGradient id="paint6_linear_4799_3084" x1="44.5129" y1="52.25" x2="44.5129" y2="63.9375" gradientUnits="userSpaceOnUse">
<stop stop-color="#FF6C58"/>
<stop offset="1" stop-color="#C61F1B"/>
</linearGradient>
<linearGradient id="paint7_linear_4799_3084" x1="44.5129" y1="52.25" x2="44.5129" y2="63.9375" gradientUnits="userSpaceOnUse">
<stop stop-color="#FF6C58"/>
<stop offset="1" stop-color="#C61F1B"/>
</linearGradient>
<linearGradient id="paint8_linear_4799_3084" x1="26.8992" y1="36.9314" x2="25.7847" y2="41.0909" gradientUnits="userSpaceOnUse">
<stop stop-color="#FF6C58"/>
<stop offset="1" stop-color="#C61F1B"/>
</linearGradient>
<linearGradient id="paint9_linear_4799_3084" x1="27.7809" y1="39.7017" x2="26.5135" y2="43.8739" gradientUnits="userSpaceOnUse">
<stop stop-color="#FF6C58"/>
<stop offset="1" stop-color="#C61F1B"/>
</linearGradient>
<linearGradient id="paint10_linear_4799_3084" x1="27.9346" y1="42.4385" x2="26.2157" y2="46.4864" gradientUnits="userSpaceOnUse">
<stop stop-color="#FF6C58"/>
<stop offset="1" stop-color="#C61F1B"/>
</linearGradient>
<linearGradient id="paint11_linear_4799_3084" x1="28.1577" y1="45.2741" x2="25.7812" y2="48.5161" gradientUnits="userSpaceOnUse">
<stop stop-color="#FF6C58"/>
<stop offset="1" stop-color="#C61F1B"/>
</linearGradient>
<linearGradient id="paint12_linear_4799_3084" x1="28.7587" y1="47.6521" x2="26.1375" y2="50.2215" gradientUnits="userSpaceOnUse">
<stop stop-color="#FF6C58"/>
<stop offset="1" stop-color="#C61F1B"/>
</linearGradient>
<linearGradient id="paint13_linear_4799_3084" x1="28.7651" y1="50.4657" x2="27.1037" y2="51.6356" gradientUnits="userSpaceOnUse">
<stop stop-color="#FF6C58"/>
<stop offset="1" stop-color="#C61F1B"/>
</linearGradient>
<linearGradient id="paint14_linear_4799_3084" x1="25.608" y1="39.9608" x2="24.6201" y2="43.6477" gradientUnits="userSpaceOnUse">
<stop stop-color="#FF6C58"/>
<stop offset="1" stop-color="#C61F1B"/>
</linearGradient>
<linearGradient id="paint15_linear_4799_3084" x1="24.8097" y1="42.6524" x2="24.7972" y2="46.5236" gradientUnits="userSpaceOnUse">
<stop stop-color="#FF6C58"/>
<stop offset="1" stop-color="#C61F1B"/>
</linearGradient>
<linearGradient id="paint16_linear_4799_3084" x1="24.8925" y1="45.2986" x2="24.6647" y2="49.1291" gradientUnits="userSpaceOnUse">
<stop stop-color="#FF6C58"/>
<stop offset="1" stop-color="#C61F1B"/>
</linearGradient>
<linearGradient id="paint17_linear_4799_3084" x1="25.3774" y1="48.5927" x2="24.834" y2="50.6205" gradientUnits="userSpaceOnUse">
<stop stop-color="#FF6C58"/>
<stop offset="1" stop-color="#C61F1B"/>
</linearGradient>
<linearGradient id="paint18_linear_4799_3084" x1="26.3447" y1="50.8116" x2="26.2092" y2="53.1709" gradientUnits="userSpaceOnUse">
<stop stop-color="#FF6C58"/>
<stop offset="1" stop-color="#C61F1B"/>
</linearGradient>
<linearGradient id="paint19_linear_4799_3084" x1="62.7296" y1="36.9314" x2="63.8441" y2="41.0909" gradientUnits="userSpaceOnUse">
<stop stop-color="#FF6C58"/>
<stop offset="1" stop-color="#C61F1B"/>
</linearGradient>
<linearGradient id="paint20_linear_4799_3084" x1="61.8479" y1="39.7017" x2="63.1153" y2="43.8739" gradientUnits="userSpaceOnUse">
<stop stop-color="#FF6C58"/>
<stop offset="1" stop-color="#C61F1B"/>
</linearGradient>
<linearGradient id="paint21_linear_4799_3084" x1="61.6942" y1="42.4385" x2="63.4132" y2="46.4864" gradientUnits="userSpaceOnUse">
<stop stop-color="#FF6C58"/>
<stop offset="1" stop-color="#C61F1B"/>
</linearGradient>
<linearGradient id="paint22_linear_4799_3084" x1="61.4711" y1="45.2741" x2="63.8477" y2="48.5161" gradientUnits="userSpaceOnUse">
<stop stop-color="#FF6C58"/>
<stop offset="1" stop-color="#C61F1B"/>
</linearGradient>
<linearGradient id="paint23_linear_4799_3084" x1="60.8696" y1="47.6521" x2="63.4907" y2="50.2215" gradientUnits="userSpaceOnUse">
<stop stop-color="#FF6C58"/>
<stop offset="1" stop-color="#C61F1B"/>
</linearGradient>
<linearGradient id="paint24_linear_4799_3084" x1="60.8637" y1="50.4657" x2="62.5251" y2="51.6356" gradientUnits="userSpaceOnUse">
<stop stop-color="#FF6C58"/>
<stop offset="1" stop-color="#C61F1B"/>
</linearGradient>
<linearGradient id="paint25_linear_4799_3084" x1="64.0209" y1="39.9608" x2="65.0088" y2="43.6477" gradientUnits="userSpaceOnUse">
<stop stop-color="#FF6C58"/>
<stop offset="1" stop-color="#C61F1B"/>
</linearGradient>
<linearGradient id="paint26_linear_4799_3084" x1="64.8192" y1="42.6524" x2="64.8317" y2="46.5236" gradientUnits="userSpaceOnUse">
<stop stop-color="#FF6C58"/>
<stop offset="1" stop-color="#C61F1B"/>
</linearGradient>
<linearGradient id="paint27_linear_4799_3084" x1="64.7359" y1="45.2986" x2="64.9636" y2="49.1291" gradientUnits="userSpaceOnUse">
<stop stop-color="#FF6C58"/>
<stop offset="1" stop-color="#C61F1B"/>
</linearGradient>
<linearGradient id="paint28_linear_4799_3084" x1="64.2509" y1="48.5927" x2="64.7942" y2="50.6205" gradientUnits="userSpaceOnUse">
<stop stop-color="#FF6C58"/>
<stop offset="1" stop-color="#C61F1B"/>
</linearGradient>
<linearGradient id="paint29_linear_4799_3084" x1="63.2837" y1="50.8116" x2="63.4191" y2="53.1709" gradientUnits="userSpaceOnUse">
<stop stop-color="#FF6C58"/>
<stop offset="1" stop-color="#C61F1B"/>
</linearGradient>
<clipPath id="clip0_4799_3084">
<rect x="0.5" width="88" height="88" rx="44" fill="white"/>
</clipPath>
</defs>
</svg>
