<svg id="Group_43324" data-name="Group 43324" xmlns="http://www.w3.org/2000/svg" xmlns:xlink="http://www.w3.org/1999/xlink" width="40" height="40" viewBox="0 0 40 40">
  <defs>
    <linearGradient id="linear-gradient" x1="0.5" x2="0.5" y2="1" gradientUnits="objectBoundingBox">
      <stop offset="0" stop-color="#00b368"/>
      <stop offset="1" stop-color="#009556"/>
    </linearGradient>
    <linearGradient id="linear-gradient-2" x1="0.5" x2="0.5" y2="1" gradientUnits="objectBoundingBox">
      <stop offset="0" stop-color="#00dd80"/>
      <stop offset="1" stop-color="#007443"/>
    </linearGradient>
    <clipPath id="clip-path">
      <rect id="Rectangle_15183" data-name="Rectangle 15183" width="11.531" height="11.531" stroke="#62687f" stroke-width="1" fill="url(#linear-gradient)"/>
    </clipPath>
  </defs>
  <rect id="Rectangle_13918" data-name="Rectangle 13918" width="40" height="40" rx="20" fill="url(#linear-gradient-2)"/>
  <g id="Group_34954" data-name="Group 34954" transform="translate(7.371 5.17)">
    <path id="Path_77184" data-name="Path 77184" d="M81.838,4.536C77.224,4.536,72.443.259,72.4.216a.834.834,0,0,0-1.12,0c-.048.043-4.816,4.319-9.442,4.319A.834.834,0,0,0,61,5.369v9.982c0,8.086,6.014,11.318,10.538,13.045a.833.833,0,0,0,.595,0c6.343-2.422,10.538-6.2,10.538-13.045V5.369A.834.834,0,0,0,81.838,4.536Z" transform="translate(-59.041 0.427)" fill="#fff" stroke="#fff" stroke-linecap="round" stroke-linejoin="round" stroke-width="2"/>
    <g id="Group_42568" data-name="Group 42568">
      <path id="Path_84774" data-name="Path 84774" d="M24.424,19.807A14.965,14.965,0,0,1,20.84,25.39a18.76,18.76,0,0,1-7,4.15,2.143,2.143,0,0,1-.681.12h-.026a2.178,2.178,0,0,1-.418-.041,2.253,2.253,0,0,1-.287-.078,18.757,18.757,0,0,1-7.012-4.148,14.934,14.934,0,0,1-3.583-5.582C.381,15.883.463,11.555.53,8.078V8.024c.013-.287.022-.589.027-.922a3.143,3.143,0,0,1,2.96-3.08,12.2,12.2,0,0,0,8.3-3.5l.02-.018a1.9,1.9,0,0,1,2.579,0l.019.018a12.2,12.2,0,0,0,8.3,3.5A3.143,3.143,0,0,1,25.7,7.1c0,.335.013.637.027.922v.023c.066,3.484.148,7.82-1.3,11.76Zm0,0" transform="translate(-0.5 0)" fill="#fff"/>
    </g>
    <g id="Mask_Group_24163" data-name="Mask Group 24163" transform="translate(6.863 7.887)" clip-path="url(#clip-path)">
      <g id="lock" transform="translate(0.731)">
        <path id="Path_77205" data-name="Path 77205" d="M9.137,5.117H8.589V3.472a3.472,3.472,0,0,0-6.944,0V5.117H1.1A1.1,1.1,0,0,0,0,6.213V10.6a1.1,1.1,0,0,0,1.1,1.1h8.04a1.1,1.1,0,0,0,1.1-1.1V6.213A1.1,1.1,0,0,0,9.137,5.117Zm-2.376,0H3.472V3.472a1.645,1.645,0,0,1,3.289,0Z" transform="translate(0)" fill="url(#linear-gradient)"/>
      </g>
    </g>
  </g>
</svg>
