<svg id="Group_19614" data-name="Group 19614" xmlns="http://www.w3.org/2000/svg" xmlns:xlink="http://www.w3.org/1999/xlink" width="100" height="100" viewBox="0 0 100 100">
  <defs>
    <clipPath id="clip-path">
      <rect id="Rectangle_10984" data-name="Rectangle 10984" width="52" height="52" transform="translate(123 877)" fill="#fff" stroke="#707070" stroke-width="1"/>
    </clipPath>
  </defs>
  <rect id="Rectangle_10619" data-name="Rectangle 10619" width="100" height="100" rx="24" fill="#ff483d"/>
  <g id="Mask_Group_19445" data-name="Mask Group 19445" transform="translate(-99 -853)" clip-path="url(#clip-path)">
    <g id="restaurant_menu" data-name="restaurant menu" transform="translate(124.608 877.051)">
      <g id="Layer_2" data-name="Layer 2">
        <g id="Layer_1" data-name="Layer 1">
          <g id="restaurant_menu-2" data-name="restaurant menu">
            <path id="Path_63566" data-name="Path 63566" d="M33.855,24.275a8.585,8.585,0,0,1-6.568-14.088L35.149.792a2.2,2.2,0,1,1,3.372,2.826l-7.863,9.368a4.191,4.191,0,1,0,6.419,5.389L44.9,9.007a2.2,2.2,0,0,1,3.372,2.835L40.45,21.211a8.55,8.55,0,0,1-5.829,3.038q-.379.026-.766.026Z" fill="#fff"/>
            <path id="Path_63567" data-name="Path 63567" d="M34.621,16.993a2.175,2.175,0,0,1-1.418-.519,2.2,2.2,0,0,1-.264-3.1L40.045,4.9a2.2,2.2,0,0,1,3.372,2.826L36.311,16.2a2.219,2.219,0,0,1-1.691.792Z" fill="#fff"/>
            <path id="Path_63568" data-name="Path 63568" d="M5.283,51.949a2.21,2.21,0,0,1-1.691-3.61L28.079,19.168a2.206,2.206,0,0,1,3.372,2.844L6.965,51.165a2.192,2.192,0,0,1-1.682.784Z" fill="#fff"/>
            <path id="Path_63569" data-name="Path 63569" d="M39.516,21.132a2.166,2.166,0,0,1-1.409-.511l-9.8-8.294a2.2,2.2,0,1,1,2.835-3.372l9.791,8.224a2.2,2.2,0,0,1-1.418,3.953Z" fill="#fff"/>
            <path id="Path_63570" data-name="Path 63570" d="M11.763,20.709c-2.641,0-5.635-1.268-8.189-4.323A15.276,15.276,0,0,1,.053,8.18C-.238,5.124.5,2.641,2.1,1.268,5.415-1.523,12.67.493,16.729,5.345c4.4,5.283,3.416,10.795.141,13.542A7.924,7.924,0,0,1,11.763,20.709ZM6.947,13.56c2.641,3.2,5.556,3.249,7.106,1.955s1.99-4.147-.687-7.343c-3.117-3.707-7.634-4.2-8.435-3.522-.194.158-.678,1.2-.484,3.091a11.024,11.024,0,0,0,2.5,5.82Z" fill="#fff"/>
            <path id="Path_63571" data-name="Path 63571" d="M42.783,51.949a2.192,2.192,0,0,1-1.682-.792l-27.3-32.578a2.2,2.2,0,1,1,3.372-2.835l27.3,32.578a2.21,2.21,0,0,1-1.691,3.628Z" fill="#fff"/>
          </g>
        </g>
      </g>
    </g>
  </g>
</svg>
