<svg xmlns="http://www.w3.org/2000/svg" xmlns:xlink="http://www.w3.org/1999/xlink" width="100" height="100" viewBox="0 0 100 100">
  <defs>
    <linearGradient id="linear-gradient" x1="0.5" x2="0.5" y2="1" gradientUnits="objectBoundingBox">
      <stop offset="0" stop-color="#5856d6"/>
      <stop offset="1" stop-color="#2c2b6b"/>
    </linearGradient>
  </defs>
  <g id="Group_19656" data-name="Group 19656" transform="translate(-1009 -393)">
    <rect id="Rectangle_10596" data-name="Rectangle 10596" width="100" height="100" rx="24" transform="translate(1009 393)" fill="url(#linear-gradient)"/>
    <g id="task-square" transform="translate(1029.977 414.977)">
      <path id="Path_63814" data-name="Path 63814" d="M42.616,23.267h-12.7a1.814,1.814,0,0,1,0-3.628h12.7a1.814,1.814,0,1,1,0,3.628Z" fill="#fff"/>
      <path id="Path_63815" data-name="Path 63815" d="M17.22,25.105a1.794,1.794,0,0,1-1.282-.532l-1.814-1.814A1.813,1.813,0,0,1,16.688,20.2l.532.532,4.16-4.16a1.813,1.813,0,0,1,2.564,2.564L18.5,24.573a1.814,1.814,0,0,1-1.282.532Z" fill="#fff"/>
      <path id="Path_63816" data-name="Path 63816" d="M42.616,40.2h-12.7a1.814,1.814,0,1,1,0-3.628h12.7a1.814,1.814,0,0,1,0,3.628Z" fill="#fff"/>
      <path id="Path_63817" data-name="Path 63817" d="M17.22,42.035a1.794,1.794,0,0,1-1.282-.532l-1.814-1.814a1.813,1.813,0,0,1,2.564-2.564l.532.532,4.16-4.16a1.813,1.813,0,0,1,2.564,2.564L18.5,41.5a1.814,1.814,0,0,1-1.282.532Z" fill="#fff"/>
      <path id="Path_63818" data-name="Path 63818" d="M36.279,55.023H21.767c-13.133,0-18.744-5.611-18.744-18.744V21.767c0-13.133,5.611-18.744,18.744-18.744H36.279c13.133,0,18.744,5.611,18.744,18.744V36.279C55.023,49.412,49.412,55.023,36.279,55.023ZM21.767,6.651c-11.15,0-15.116,3.967-15.116,15.116V36.279c0,11.15,3.967,15.116,15.116,15.116H36.279c11.15,0,15.116-3.967,15.116-15.116V21.767c0-11.15-3.967-15.116-15.116-15.116Z" fill="#fff"/>
    </g>
  </g>
</svg>
