<svg width="89" height="88" viewBox="0 0 89 88" fill="none" xmlns="http://www.w3.org/2000/svg">
<g clip-path="url(#clip0_4799_3278)">
<path d="M70.9 0H18.1C8.37979 0 0.5 7.87979 0.5 17.6V70.4C0.5 80.1202 8.37979 88 18.1 88H70.9C80.6202 88 88.5 80.1202 88.5 70.4V17.6C88.5 7.87979 80.6202 0 70.9 0Z" fill="url(#paint0_linear_4799_3278)"/>
<mask id="mask0_4799_3278" style="mask-type:luminance" maskUnits="userSpaceOnUse" x="16" y="16" width="57" height="56">
<path d="M60.3407 16H28.4565C21.8531 16 16.4999 21.3726 16.4999 28V60C16.4999 66.6274 21.8531 72 28.4565 72H60.3407C66.9442 72 72.2973 66.6274 72.2973 60V28C72.2973 21.3726 66.9442 16 60.3407 16Z" fill="white"/>
</mask>
<g mask="url(#mask0_4799_3278)">
<path d="M44.3732 53.7517C42.4502 53.7517 40.5705 53.1794 38.9716 52.1071C37.3727 51.0348 36.1265 49.5106 35.3906 47.7274C34.6547 45.9442 34.4622 43.982 34.8373 42.089C35.2125 40.196 36.1385 38.4571 37.4982 37.0923C38.858 35.7275 40.5904 34.798 42.4764 34.4215C44.3624 34.0449 46.3173 34.2382 48.0939 34.9768C49.8705 35.7154 51.389 36.9663 52.4573 38.5711C53.5257 40.1759 54.0959 42.0627 54.0959 43.9929C54.0948 46.5808 53.0702 49.0623 51.247 50.8923C49.4239 52.7222 46.9515 53.7507 44.3732 53.7517ZM44.3732 38.1363C43.2192 38.1363 42.0911 38.4798 41.1316 39.1233C40.172 39.7669 39.4242 40.6815 38.9825 41.7517C38.5409 42.8218 38.4254 43.9994 38.6505 45.1354C38.8756 46.2715 39.4314 47.315 40.2474 48.1341C41.0634 48.9531 42.1031 49.5109 43.2349 49.7369C44.3667 49.9628 45.5399 49.8469 46.6061 49.4036C47.6723 48.9603 48.5835 48.2097 49.2247 47.2466C49.8658 46.2835 50.208 45.1512 50.208 43.9929C50.2059 42.4403 49.5905 40.9519 48.4967 39.854C47.4029 38.7561 45.9201 38.1384 44.3732 38.1363Z" fill="#FEF8E8"/>
<path d="M52.6964 70.5081C52.1458 70.5057 51.5974 70.4386 51.0624 70.3081C49.4669 69.8775 48.1002 68.8421 47.2502 67.4201L46.9393 66.9002C45.4089 64.2461 43.3085 64.2461 41.7801 66.9002L41.4951 67.3941C41.0834 68.1089 40.5345 68.7345 39.8801 69.2347C39.2257 69.7349 38.4789 70.0998 37.6829 70.3081C36.8895 70.5284 36.0597 70.5843 35.244 70.4726C34.4283 70.3609 33.6438 70.0838 32.9382 69.6581L28.4784 67.0721C27.6948 66.6215 27.0074 66.0203 26.4556 65.3028C25.9037 64.5853 25.4982 63.7657 25.2622 62.8908C25.0263 62.0159 24.9644 61.1029 25.0803 60.204C25.1962 59.3051 25.4875 58.438 25.9376 57.6521C26.289 57.1922 26.5204 56.6515 26.6108 56.0791C26.7013 55.5067 26.648 54.9206 26.4557 54.3741C26.0826 53.9312 25.6046 53.5892 25.0657 53.3795C24.5268 53.1699 23.9441 53.0993 23.3709 53.1741C21.5496 53.171 19.8037 52.4434 18.5159 51.1508C17.228 49.8583 16.503 48.1061 16.4999 46.2781V41.6981C16.503 39.8702 17.228 38.118 18.5159 36.8254C19.8037 35.5329 21.5496 34.8053 23.3709 34.8021C23.9441 34.877 24.5268 34.8064 25.0657 34.5968C25.6046 34.3871 26.0826 34.0451 26.4557 33.6021C26.6547 33.0567 26.7115 32.4693 26.6208 31.8956C26.5302 31.3219 26.295 30.781 25.9376 30.3241C25.0358 28.7393 24.7937 26.8612 25.264 25.0981C25.4896 24.2181 25.8907 23.3931 26.4432 22.6733C26.9957 21.9534 27.6881 21.3536 28.4784 20.9101L32.9641 18.3341C34.3994 17.5019 36.1044 17.2729 37.7072 17.697C39.3101 18.1211 40.681 19.1639 41.521 20.5981L41.8319 21.1181C43.3623 23.7721 45.4627 23.7721 46.9911 21.1181L47.2761 20.6241C47.69 19.9083 48.2408 19.2816 48.8968 18.7801C49.5528 18.2786 50.3011 17.9121 51.0987 17.7017C51.8962 17.4914 52.7273 17.4412 53.5443 17.5542C54.3612 17.6672 55.1478 17.9411 55.8589 18.3601L60.3187 20.9361C61.1023 21.3868 61.7897 21.988 62.3415 22.7055C62.8934 23.423 63.2989 24.2426 63.5349 25.1175C63.7709 25.9924 63.8327 26.9054 63.7168 27.8043C63.6009 28.7032 63.3096 29.5703 62.8595 30.3561C62.5082 30.8169 62.2771 31.3585 62.1873 31.9316C62.0975 32.5048 62.1518 33.0914 62.3454 33.6381C62.7185 34.0811 63.1965 34.4231 63.7354 34.6328C64.2743 34.8424 64.857 34.913 65.4302 34.8381C67.2515 34.8413 68.9974 35.5689 70.2853 36.8614C71.5731 38.154 72.2981 39.9062 72.3012 41.7341V46.3141C72.2981 48.1421 71.5731 49.8943 70.2853 51.1868C68.9974 52.4794 67.2515 53.207 65.4302 53.2101C64.857 53.1353 64.2743 53.2059 63.7354 53.4155C63.1965 53.6252 62.7185 53.9672 62.3454 54.4101C62.1464 54.9556 62.0896 55.543 62.1803 56.1167C62.2709 56.6904 62.5061 57.2313 62.8635 57.6881C63.3167 58.4696 63.6101 59.334 63.7264 60.2306C63.8427 61.1273 63.7797 62.0382 63.541 62.9101C63.3158 63.7906 62.9147 64.6159 62.3622 65.3361C61.8097 66.0564 61.1172 66.6565 60.3267 67.1001L55.841 69.6761C54.8831 70.2171 53.8035 70.5034 52.7044 70.5081H52.6964ZM44.3727 60.8801C45.6311 60.9594 46.8455 61.3754 47.8898 62.0847C48.934 62.7941 49.7701 63.771 50.3111 64.9141L50.5961 65.4081C50.9136 65.9446 51.428 66.3348 52.0288 66.4952C52.6297 66.6556 53.2692 66.5734 53.8104 66.2661L58.2961 63.6661C58.9808 63.2698 59.4819 62.6183 59.6905 61.8531C59.8991 61.088 59.7983 60.2711 59.41 59.5801C58.6978 58.5363 58.2745 57.3213 58.1834 56.0595C58.0924 54.7976 58.3369 53.5341 58.8919 52.3981C59.5911 51.3437 60.5582 50.4958 61.6934 49.9424C62.8285 49.3889 64.0904 49.1499 65.3485 49.2501C65.7419 49.2533 66.132 49.1779 66.4961 49.0283C66.8602 48.8787 67.191 48.6578 67.4692 48.3786C67.7474 48.0994 67.9675 47.7674 68.1166 47.402C68.2657 47.0365 68.3408 46.645 68.3376 46.2501V41.6701C68.3376 40.8745 68.0227 40.1114 67.4621 39.5488C66.9016 38.9862 66.1413 38.6701 65.3485 38.6701C64.0904 38.7704 62.8285 38.5314 61.6934 37.9779C60.5582 37.4244 59.5911 36.5766 58.8919 35.5221C58.3369 34.3862 58.0924 33.1227 58.1834 31.8608C58.2745 30.599 58.6978 29.384 59.41 28.3401C59.6037 28.0002 59.7286 27.6252 59.7775 27.2367C59.8264 26.8481 59.7984 26.4538 59.695 26.0761C59.4899 25.3126 58.9967 24.6592 58.32 24.2541L53.8363 21.6901C53.2896 21.3703 52.6388 21.281 52.0266 21.4419C51.4144 21.6027 50.8906 22.0005 50.5701 22.5481L50.2852 23.0421C49.7441 24.1853 48.9081 25.1622 47.8639 25.8716C46.8196 26.5809 45.6052 26.9969 44.3467 27.0761C43.0879 26.9965 41.8732 26.58 40.8289 25.8699C39.7846 25.1598 38.9488 24.182 38.4083 23.0381L38.1234 22.5181C37.8012 21.9865 37.285 21.602 36.6846 21.4466C36.0843 21.2913 35.4472 21.3772 34.909 21.6861L30.4233 24.2861C29.737 24.6825 29.2347 25.3351 29.0261 26.1017C28.8174 26.8683 28.9192 27.6866 29.3094 28.3781C30.0216 29.422 30.4449 30.637 30.536 31.8988C30.627 33.1607 30.3825 34.4242 29.8275 35.5601C29.1283 36.6146 28.1612 37.4624 27.026 38.0159C25.8909 38.5694 24.629 38.8084 23.3709 38.7081C22.9775 38.7049 22.5874 38.7804 22.2233 38.93C21.8592 39.0796 21.5284 39.3005 21.2502 39.5797C20.972 39.8589 20.7519 40.1909 20.6028 40.5563C20.4537 40.9217 20.3786 41.3133 20.3818 41.7081V46.2881C20.3818 47.0838 20.6967 47.8469 21.2573 48.4095C21.8179 48.9721 22.5782 49.2881 23.3709 49.2881C24.629 49.1879 25.8909 49.4269 27.026 49.9804C28.1612 50.5338 29.1283 51.3817 29.8275 52.4361C30.3825 53.5721 30.627 54.8356 30.536 56.0975C30.4449 57.3593 30.0216 58.5743 29.3094 59.6181C29.1157 59.9581 28.9908 60.3331 28.9419 60.7216C28.893 61.1101 28.921 61.5045 29.0244 61.8821C29.2295 62.6457 29.7227 63.2991 30.3994 63.7041L34.8851 66.2801C35.1508 66.4435 35.4468 66.5507 35.7552 66.5954C36.0635 66.6401 36.3777 66.6213 36.6786 66.5401C37.2978 66.375 37.8283 65.9739 38.1572 65.4221L38.4422 64.9281C38.9876 63.7883 39.8248 62.8143 40.8681 62.1056C41.9115 61.3968 43.1236 60.9788 44.3806 60.8941L44.3727 60.8801Z" fill="#FEF8E8"/>
</g>
</g>
<defs>
<linearGradient id="paint0_linear_4799_3278" x1="44.5" y1="0" x2="44.5" y2="88" gradientUnits="userSpaceOnUse">
<stop stop-color="#FF6C58"/>
<stop offset="1" stop-color="#C61F1B"/>
</linearGradient>
<clipPath id="clip0_4799_3278">
<rect x="0.5" width="88" height="88" rx="44" fill="white"/>
</clipPath>
</defs>
</svg>
