<svg xmlns="http://www.w3.org/2000/svg" xmlns:xlink="http://www.w3.org/1999/xlink" width="24" height="24" viewBox="0 0 24 24">
  <defs>
    <clipPath id="clip-path">
      <rect id="Rectangle_11011" data-name="Rectangle 11011" width="24" height="24" transform="translate(1621 24)" fill="#fff" stroke="#fff" stroke-width="1"/>
    </clipPath>
  </defs>
  <g id="Mask_Group_19451" data-name="Mask Group 19451" transform="translate(-1621 -24)" clip-path="url(#clip-path)">
    <g id="setting-2" transform="translate(1619.606 22.614)">
      <path id="Path_63716" data-name="Path 63716" d="M13.383,17.565a4.182,4.182,0,1,1,4.182-4.182A4.184,4.184,0,0,1,13.383,17.565Zm0-6.691a2.509,2.509,0,1,0,2.509,2.509A2.513,2.513,0,0,0,13.383,10.874Z" fill="#fff"/>
      <path id="Path_63717" data-name="Path 63717" d="M16.963,24.747a3.033,3.033,0,0,1-.7-.089,2.739,2.739,0,0,1-1.639-1.238l-.134-.223c-.658-1.138-1.561-1.138-2.219,0l-.123.212a2.674,2.674,0,0,1-1.639,1.249,2.611,2.611,0,0,1-2.041-.279l-1.918-1.1a2.955,2.955,0,0,1-1.093-4.037,1.492,1.492,0,0,0,.223-1.405,1.486,1.486,0,0,0-1.327-.513,2.96,2.96,0,0,1-2.955-2.955V12.4A2.96,2.96,0,0,1,4.349,9.446a1.486,1.486,0,0,0,1.327-.513,1.462,1.462,0,0,0-.223-1.405,2.968,2.968,0,0,1-.29-2.242,2.877,2.877,0,0,1,1.383-1.8l1.929-1.1a2.7,2.7,0,0,1,3.68.97l.134.223c.658,1.138,1.561,1.138,2.219,0l.123-.212a2.692,2.692,0,0,1,3.691-.97l1.918,1.1a2.955,2.955,0,0,1,1.093,4.037,1.492,1.492,0,0,0-.223,1.405,1.486,1.486,0,0,0,1.327.513,2.96,2.96,0,0,1,2.955,2.955v1.963a2.96,2.96,0,0,1-2.955,2.955,1.486,1.486,0,0,0-1.327.513,1.462,1.462,0,0,0,.223,1.405,2.918,2.918,0,0,1,.29,2.242,2.877,2.877,0,0,1-1.383,1.8l-1.929,1.1a2.775,2.775,0,0,1-1.349.357Zm-3.58-4.126a3.039,3.039,0,0,1,2.554,1.729l.123.212a1.022,1.022,0,0,0,1.383.368l1.929-1.115a1.29,1.29,0,0,0,.48-1.751,3.062,3.062,0,0,1-.223-3.078,3.047,3.047,0,0,1,2.777-1.349,1.276,1.276,0,0,0,1.283-1.283V12.39a1.283,1.283,0,0,0-1.283-1.283,3.047,3.047,0,0,1-2.777-1.349,3.062,3.062,0,0,1,.223-3.078,1.275,1.275,0,0,0,.123-.97,1.3,1.3,0,0,0-.591-.781l-1.929-1.1a1.026,1.026,0,0,0-1.405.368l-.123.212a3.039,3.039,0,0,1-2.554,1.729,3.039,3.039,0,0,1-2.554-1.729L10.7,4.182a1.024,1.024,0,0,0-1.383-.357L7.383,4.941A1.29,1.29,0,0,0,6.9,6.691,3.062,3.062,0,0,1,7.126,9.77a3.047,3.047,0,0,1-2.777,1.349A1.276,1.276,0,0,0,3.067,12.4v1.963a1.283,1.283,0,0,0,1.283,1.283A3.047,3.047,0,0,1,7.126,17,3.062,3.062,0,0,1,6.9,20.074a1.275,1.275,0,0,0-.123.97,1.3,1.3,0,0,0,.591.781l1.929,1.1a.986.986,0,0,0,.77.112,1.058,1.058,0,0,0,.636-.48l.123-.212a3.061,3.061,0,0,1,2.554-1.729Z" fill="#fff"/>
    </g>
  </g>
</svg>
