<svg width="89" height="88" viewBox="0 0 89 88" fill="none" xmlns="http://www.w3.org/2000/svg">
<path d="M70.9 0H18.1C8.37979 0 0.5 7.87979 0.5 17.6V70.4C0.5 80.1202 8.37979 88 18.1 88H70.9C80.6202 88 88.5 80.1202 88.5 70.4V17.6C88.5 7.87979 80.6202 0 70.9 0Z" fill="url(#paint0_linear_4907_3072)"/>
<path d="M70.9 0H18.1C8.37979 0 0.5 7.87979 0.5 17.6V70.4C0.5 80.1202 8.37979 88 18.1 88H70.9C80.6202 88 88.5 80.1202 88.5 70.4V17.6C88.5 7.87979 80.6202 0 70.9 0Z" fill="url(#paint1_linear_4907_3072)"/>
<mask id="mask0_4907_3072" style="mask-type:luminance" maskUnits="userSpaceOnUse" x="23" y="23" width="43" height="42">
<path d="M65.0335 23.4666H23.9668V64.5333H65.0335V23.4666Z" fill="white"/>
</mask>
<g mask="url(#mask0_4907_3072)">
<path d="M44.4534 43.953C46.4793 43.953 48.4598 43.3523 50.1443 42.2267C51.8287 41.1012 53.1416 39.5014 53.9169 37.6297C54.6922 35.758 54.8951 33.6985 54.4998 31.7115C54.1046 29.7245 53.129 27.8993 51.6965 26.4668C50.2639 25.0342 48.4388 24.0587 46.4518 23.6634C44.4648 23.2682 42.4052 23.4711 40.5335 24.2463C38.6618 25.0216 37.0621 26.3345 35.9365 28.019C34.811 29.7035 34.2102 31.6839 34.2102 33.7098C34.2101 35.055 34.475 36.387 34.9898 37.6298C35.5045 38.8726 36.259 40.0019 37.2102 40.9531C38.1614 41.9043 39.2906 42.6588 40.5334 43.1735C41.7762 43.6882 43.1083 43.9531 44.4534 43.953ZM51.624 46.5138H50.2878C48.4586 47.3573 46.4682 47.794 44.4538 47.794C42.4394 47.794 40.449 47.3573 38.6198 46.5138H37.2829C34.4306 46.5146 31.6953 47.6481 29.6785 49.665C27.6617 51.682 26.5284 54.4173 26.5278 57.2696V60.599C26.528 61.6176 26.9328 62.5946 27.6531 63.3149C28.3734 64.0352 29.3503 64.44 30.369 64.4402H58.5378C59.5565 64.44 60.5334 64.0352 61.2538 63.3149C61.9741 62.5946 62.3788 61.6176 62.379 60.599V57.2696C62.3785 54.4173 61.2452 51.682 59.2283 49.665C57.2115 47.6481 54.4763 46.5146 51.624 46.5138Z" fill="#FEF8E8"/>
</g>
<defs>
<linearGradient id="paint0_linear_4907_3072" x1="5.604" y1="3.872" x2="75.74" y2="88" gradientUnits="userSpaceOnUse">
<stop stop-color="#00C7BE"/>
<stop offset="1" stop-color="#00645F"/>
</linearGradient>
<linearGradient id="paint1_linear_4907_3072" x1="44.5" y1="0" x2="44.5" y2="88" gradientUnits="userSpaceOnUse">
<stop stop-color="#FF6C58"/>
<stop offset="1" stop-color="#C61F1B"/>
</linearGradient>
</defs>
</svg>
