<svg xmlns="http://www.w3.org/2000/svg" xmlns:xlink="http://www.w3.org/1999/xlink" width="100" height="100" viewBox="0 0 100 100">
  <defs>
    <linearGradient id="linear-gradient" x1="0.5" x2="0.5" y2="1" gradientUnits="objectBoundingBox">
      <stop offset="0" stop-color="#5856d6"/>
      <stop offset="1" stop-color="#5e5ce6"/>
    </linearGradient>
    <clipPath id="clip-path">
      <rect id="Rectangle_11031" data-name="Rectangle 11031" width="52" height="52" transform="translate(587 856)" fill="#fff" stroke="#707070" stroke-width="1"/>
    </clipPath>
  </defs>
  <g id="Group_19661" data-name="Group 19661" transform="translate(-527 -627)">
    <rect id="Rectangle_10618" data-name="Rectangle 10618" width="100" height="100" rx="24" transform="translate(527 627)" fill="url(#linear-gradient)"/>
    <g id="Mask_Group_19477" data-name="Mask Group 19477" transform="translate(-36 -205)" clip-path="url(#clip-path)">
      <g id="calendar-remove" transform="translate(584.111 853.111)">
        <path id="Path_63804" data-name="Path 63804" d="M18.489,13.289a1.746,1.746,0,0,1-1.733-1.733V4.622a1.733,1.733,0,0,1,3.467,0v6.933A1.746,1.746,0,0,1,18.489,13.289Z" fill="#fff"/>
        <path id="Path_63805" data-name="Path 63805" d="M36.978,13.289a1.746,1.746,0,0,1-1.733-1.733V4.622a1.733,1.733,0,0,1,3.467,0v6.933A1.746,1.746,0,0,1,36.978,13.289Z" fill="#fff"/>
        <path id="Path_63806" data-name="Path 63806" d="M19.644,33.511A2.43,2.43,0,0,1,18,32.841a3.641,3.641,0,0,1-.277-.347,1.75,1.75,0,0,1-.208-.416,1.468,1.468,0,0,1-.139-.416,3.473,3.473,0,0,1-.046-.462,2.311,2.311,0,0,1,3.952-1.641,2.43,2.43,0,0,1,.67,1.641,3.473,3.473,0,0,1-.046.462,1.469,1.469,0,0,1-.139.416,1.75,1.75,0,0,1-.208.416l-.277.347a2.43,2.43,0,0,1-1.641.67Z" fill="#fff"/>
        <path id="Path_63807" data-name="Path 63807" d="M27.733,33.511a2.3,2.3,0,0,1-.878-.185,2.156,2.156,0,0,1-.763-.485,3.641,3.641,0,0,1-.277-.347,1.749,1.749,0,0,1-.208-.416,1.47,1.47,0,0,1-.139-.416,3.473,3.473,0,0,1-.046-.462,2.43,2.43,0,0,1,.67-1.641,2.157,2.157,0,0,1,.763-.485,2.316,2.316,0,0,1,2.519.485,2.43,2.43,0,0,1,.67,1.641,3.473,3.473,0,0,1-.046.462,1.469,1.469,0,0,1-.139.416,1.75,1.75,0,0,1-.208.416l-.277.347a2.43,2.43,0,0,1-1.641.67Z" fill="#fff"/>
        <path id="Path_63808" data-name="Path 63808" d="M19.644,41.6A2.387,2.387,0,0,1,18,40.93a2.344,2.344,0,0,1,0-3.282,3.641,3.641,0,0,1,.347-.277,1.75,1.75,0,0,1,.416-.208,1.469,1.469,0,0,1,.416-.139,2.21,2.21,0,0,1,1.34.139,2.386,2.386,0,0,1,.763.485,2.344,2.344,0,0,1,0,3.282,2.386,2.386,0,0,1-.763.485,2.3,2.3,0,0,1-.878.185Z" fill="#fff"/>
        <path id="Path_63809" data-name="Path 63809" d="M47.378,22.741H8.089a1.733,1.733,0,0,1,0-3.467H47.378a1.733,1.733,0,0,1,0,3.467Z" fill="#fff"/>
        <path id="Path_63810" data-name="Path 63810" d="M41.6,54.889A10.978,10.978,0,1,1,52.578,43.911,10.988,10.988,0,0,1,41.6,54.889Zm0-18.489a7.511,7.511,0,1,0,7.511,7.511A7.526,7.526,0,0,0,41.6,36.4Z" fill="#fff"/>
        <path id="Path_63811" data-name="Path 63811" d="M44.073,48.21a1.714,1.714,0,0,1-1.225-.508l-4.876-4.876a1.732,1.732,0,0,1,2.45-2.45L45.3,45.252a1.744,1.744,0,0,1,0,2.45,1.714,1.714,0,0,1-1.225.508Z" fill="#fff"/>
        <path id="Path_63812" data-name="Path 63812" d="M39.127,48.279a1.714,1.714,0,0,1-1.225-.508,1.743,1.743,0,0,1,0-2.45l4.876-4.876a1.732,1.732,0,0,1,2.45,2.45l-4.876,4.876a1.816,1.816,0,0,1-1.225.508Z" fill="#fff"/>
        <path id="Path_63813" data-name="Path 63813" d="M35.522,52.578H18.489C10.053,52.578,5.2,47.724,5.2,39.289V19.644c0-8.436,4.853-13.289,13.289-13.289H36.978c8.436,0,13.289,4.853,13.289,13.289V37.81a1.74,1.74,0,0,1-3.051,1.132,7.516,7.516,0,0,0-13.15,4.969,7.323,7.323,0,0,0,1.086,3.86,6.789,6.789,0,0,0,1.456,1.756,1.718,1.718,0,0,1,.508,1.918,1.653,1.653,0,0,1-1.595,1.132ZM18.489,9.822c-6.61,0-9.822,3.212-9.822,9.822V39.289c0,6.61,3.212,9.822,9.822,9.822H31.94a10.862,10.862,0,0,1-1.317-5.2A10.966,10.966,0,0,1,46.8,34.251V19.644c0-6.61-3.212-9.822-9.822-9.822Z" fill="#fff"/>
      </g>
    </g>
  </g>
</svg>
