<svg xmlns="http://www.w3.org/2000/svg" xmlns:xlink="http://www.w3.org/1999/xlink" width="24" height="24" viewBox="0 0 24 24">
  <defs>
    <clipPath id="clip-path">
      <rect id="Platter" width="24" height="24" rx="3" transform="translate(16 16)" fill="#e4e4e4"/>
    </clipPath>
    <clipPath id="clip-path-2">
      <rect id="Rectangle_11032" data-name="Rectangle 11032" width="24" height="24" transform="translate(365.538 395.077)" fill="#fff" stroke="#707070" stroke-width="0.462"/>
    </clipPath>
  </defs>
  <g id="Mask_Group_19500" data-name="Mask Group 19500" transform="translate(-16 -16)" clip-path="url(#clip-path)">
    <g id="Mask_Group_19476" data-name="Mask Group 19476" transform="translate(-349.539 -379.077)" clip-path="url(#clip-path-2)">
      <g id="calendar-tick" transform="translate(364.205 393.744)">
        <path id="Path_63795" data-name="Path 63795" d="M8.533,6.133a.806.806,0,0,1-.8-.8v-3.2a.8.8,0,0,1,1.6,0v3.2a.806.806,0,0,1-.8.8Z" fill="#fff"/>
        <path id="Path_63796" data-name="Path 63796" d="M17.067,6.133a.806.806,0,0,1-.8-.8v-3.2a.8.8,0,0,1,1.6,0v3.2a.806.806,0,0,1-.8.8Z" fill="#fff"/>
        <path id="Path_63797" data-name="Path 63797" d="M9.066,15.467a1.122,1.122,0,0,1-.759-.309A1.1,1.1,0,0,1,8,14.4a1.062,1.062,0,0,1,.085-.405,1.232,1.232,0,0,1,.224-.352,1.067,1.067,0,0,1,1.825.757,1.6,1.6,0,0,1-.021.213.678.678,0,0,1-.064.192.808.808,0,0,1-.1.192l-.128.16a1.122,1.122,0,0,1-.757.309Z" fill="#fff"/>
        <path id="Path_63798" data-name="Path 63798" d="M12.8,15.467a1.062,1.062,0,0,1-.405-.085,1.024,1.024,0,0,1-.661-.981,1.062,1.062,0,0,1,.085-.405,1.232,1.232,0,0,1,.224-.352,1.1,1.1,0,0,1,.352-.224,1.085,1.085,0,0,1,1.163.224,1.122,1.122,0,0,1,.309.757,1.6,1.6,0,0,1-.021.213.678.678,0,0,1-.064.192.808.808,0,0,1-.1.192,1.68,1.68,0,0,1-.128.16A1.122,1.122,0,0,1,12.8,15.467Z" fill="#fff"/>
        <path id="Path_63799" data-name="Path 63799" d="M9.066,19.2a1.062,1.062,0,0,1-.405-.085.962.962,0,0,1-.576-.576,1,1,0,0,1,0-.81.962.962,0,0,1,.576-.576,1.02,1.02,0,0,1,.81,0,.962.962,0,0,1,.576.576,1,1,0,0,1,0,.81.962.962,0,0,1-.576.576,1.062,1.062,0,0,1-.405.085Z" fill="#fff"/>
        <path id="Path_63800" data-name="Path 63800" d="M21.867,10.5H3.733a.8.8,0,1,1,0-1.6H21.867a.8.8,0,1,1,0,1.6Z" fill="#fff"/>
        <path id="Path_63801" data-name="Path 63801" d="M19.2,25.333a4.95,4.95,0,0,1-3.339-1.269,4.594,4.594,0,0,1-1-1.194,5.008,5.008,0,0,1-.726-2.6,5.067,5.067,0,1,1,10.133,0,4.985,4.985,0,0,1-.736,2.613,5.049,5.049,0,0,1-4.33,2.453Zm0-8.533a3.474,3.474,0,0,0-3.467,3.467,3.38,3.38,0,0,0,.5,1.782,3.133,3.133,0,0,0,.672.81,3.384,3.384,0,0,0,2.293.877,3.472,3.472,0,0,0,3.467-3.467,3.543,3.543,0,0,0-.864-2.293A3.48,3.48,0,0,0,19.2,16.8Z" fill="#fff"/>
        <path id="Path_63802" data-name="Path 63802" d="M18.592,22.122a.791.791,0,0,1-.565-.234l-1.056-1.056A.8.8,0,0,1,18.1,19.7l.512.514,1.708-1.578a.8.8,0,1,1,1.088,1.173l-2.273,2.1a.834.834,0,0,1-.544.213Z" fill="#fff"/>
        <path id="Path_63803" data-name="Path 63803" d="M16.395,24.267H8.533c-3.894,0-6.133-2.24-6.133-6.133V9.066c0-3.894,2.24-6.133,6.133-6.133h8.533c3.894,0,6.133,2.24,6.133,6.133v8.384a.8.8,0,0,1-1.408.522,3.469,3.469,0,0,0-6.069,2.293,3.38,3.38,0,0,0,.5,1.782,3.133,3.133,0,0,0,.672.81.793.793,0,0,1,.234.885.763.763,0,0,1-.736.522ZM8.533,4.533C5.483,4.533,4,6.016,4,9.066v9.067c0,3.051,1.482,4.533,4.533,4.533h6.208A5.061,5.061,0,0,1,21.6,15.808V9.066c0-3.051-1.482-4.533-4.533-4.533Z" fill="#fff"/>
      </g>
    </g>
  </g>
</svg>
