<svg xmlns="http://www.w3.org/2000/svg" xmlns:xlink="http://www.w3.org/1999/xlink" width="100" height="100" viewBox="0 0 100 100">
  <defs>
    <linearGradient id="linear-gradient" x1="0.5" x2="0.5" y2="1" gradientUnits="objectBoundingBox">
      <stop offset="0" stop-color="#af52de"/>
      <stop offset="1" stop-color="#bf5af2"/>
    </linearGradient>
    <clipPath id="clip-path">
      <rect id="Rectangle_11032" data-name="Rectangle 11032" width="52" height="52" transform="translate(792 856)" fill="#fff" stroke="#707070" stroke-width="1"/>
    </clipPath>
  </defs>
  <g id="Group_19662" data-name="Group 19662" transform="translate(-768 -629)">
    <rect id="Rectangle_10618" data-name="Rectangle 10618" width="100" height="100" rx="24" transform="translate(768 629)" fill="url(#linear-gradient)"/>
    <g id="Mask_Group_19476" data-name="Mask Group 19476" transform="translate(0 -203)" clip-path="url(#clip-path)">
      <g id="calendar-tick" transform="translate(789.111 853.111)">
        <path id="Path_63795" data-name="Path 63795" d="M18.489,13.289a1.746,1.746,0,0,1-1.733-1.733V4.622a1.733,1.733,0,0,1,3.467,0v6.933A1.746,1.746,0,0,1,18.489,13.289Z" fill="#fff"/>
        <path id="Path_63796" data-name="Path 63796" d="M36.978,13.289a1.746,1.746,0,0,1-1.733-1.733V4.622a1.733,1.733,0,1,1,3.467,0v6.933A1.746,1.746,0,0,1,36.978,13.289Z" fill="#fff"/>
        <path id="Path_63797" data-name="Path 63797" d="M19.644,33.511A2.43,2.43,0,0,1,18,32.841a2.387,2.387,0,0,1-.67-1.641,2.3,2.3,0,0,1,.185-.878A2.669,2.669,0,0,1,18,29.559,2.311,2.311,0,0,1,21.955,31.2a3.473,3.473,0,0,1-.046.462,1.469,1.469,0,0,1-.139.416,1.75,1.75,0,0,1-.208.416l-.277.347a2.43,2.43,0,0,1-1.641.67Z" fill="#fff"/>
        <path id="Path_63798" data-name="Path 63798" d="M27.733,33.511a2.3,2.3,0,0,1-.878-.185A2.218,2.218,0,0,1,25.422,31.2a2.3,2.3,0,0,1,.185-.878,2.669,2.669,0,0,1,.485-.763,2.386,2.386,0,0,1,.763-.485,2.351,2.351,0,0,1,2.519.485,2.43,2.43,0,0,1,.67,1.641,3.473,3.473,0,0,1-.046.462,1.469,1.469,0,0,1-.139.416,1.75,1.75,0,0,1-.208.416,3.641,3.641,0,0,1-.277.347,2.43,2.43,0,0,1-1.641.67Z" fill="#fff"/>
        <path id="Path_63799" data-name="Path 63799" d="M19.644,41.6a2.3,2.3,0,0,1-.878-.185,2.084,2.084,0,0,1-1.248-1.248,2.178,2.178,0,0,1,0-1.756,2.084,2.084,0,0,1,1.248-1.248,2.21,2.21,0,0,1,1.756,0,2.084,2.084,0,0,1,1.248,1.248,2.178,2.178,0,0,1,0,1.756,2.084,2.084,0,0,1-1.248,1.248A2.3,2.3,0,0,1,19.644,41.6Z" fill="#fff"/>
        <path id="Path_63800" data-name="Path 63800" d="M47.378,22.741H8.089a1.733,1.733,0,1,1,0-3.467H47.378a1.733,1.733,0,0,1,0,3.467Z" fill="#fff"/>
        <path id="Path_63801" data-name="Path 63801" d="M41.6,54.889a10.724,10.724,0,0,1-7.234-2.75,9.954,9.954,0,0,1-2.172-2.588,10.85,10.85,0,0,1-1.572-5.639,10.978,10.978,0,0,1,21.955,0,10.8,10.8,0,0,1-1.595,5.662A10.94,10.94,0,0,1,41.6,54.889Zm0-18.489a7.526,7.526,0,0,0-7.511,7.511,7.323,7.323,0,0,0,1.086,3.86,6.789,6.789,0,0,0,1.456,1.756,7.333,7.333,0,0,0,4.969,1.9,7.522,7.522,0,0,0,7.511-7.511,7.677,7.677,0,0,0-1.872-4.969A7.54,7.54,0,0,0,41.6,36.4Z" fill="#fff"/>
        <path id="Path_63802" data-name="Path 63802" d="M40.283,47.932a1.714,1.714,0,0,1-1.225-.508L36.77,45.136a1.732,1.732,0,0,1,2.45-2.45L40.329,43.8l3.7-3.42a1.733,1.733,0,1,1,2.357,2.542L41.461,47.47a1.808,1.808,0,0,1-1.179.462Z" fill="#fff"/>
        <path id="Path_63803" data-name="Path 63803" d="M35.522,52.578H18.489C10.053,52.578,5.2,47.724,5.2,39.289V19.644c0-8.436,4.853-13.289,13.289-13.289H36.978c8.436,0,13.289,4.853,13.289,13.289V37.81a1.74,1.74,0,0,1-3.051,1.132,7.516,7.516,0,0,0-13.15,4.969,7.323,7.323,0,0,0,1.086,3.86,6.789,6.789,0,0,0,1.456,1.756,1.718,1.718,0,0,1,.508,1.918,1.653,1.653,0,0,1-1.595,1.132ZM18.489,9.822c-6.61,0-9.822,3.212-9.822,9.822V39.289c0,6.61,3.212,9.822,9.822,9.822H31.939a10.862,10.862,0,0,1-1.317-5.2A10.966,10.966,0,0,1,46.8,34.251V19.644c0-6.61-3.212-9.822-9.822-9.822Z" fill="#fff"/>
      </g>
    </g>
  </g>
</svg>
