<svg xmlns="http://www.w3.org/2000/svg" xmlns:xlink="http://www.w3.org/1999/xlink" width="27" height="26" viewBox="0 0 27 26">
  <defs>
    <clipPath id="clip-path">
      <rect id="Rectangle_189" data-name="Rectangle 189" width="24" height="24" transform="translate(1830 58)" fill="#fff" stroke="#707070" stroke-width="1"/>
    </clipPath>
  </defs>
  <g id="Group_19606" data-name="Group 19606" transform="translate(-1721 -22)">
    <g id="Mask_Group_18" data-name="Mask Group 18" transform="translate(-109 -34)" clip-path="url(#clip-path)">
      <g id="messages-2" transform="translate(1828.598 56.593)">
        <path id="Path_631" data-name="Path 631" d="M19.957,24.424a1.926,1.926,0,0,1-1.005-.279l-4.478-2.658a11.208,11.208,0,0,1-1.385-.112.849.849,0,0,1-.67-.536A.818.818,0,0,1,12.564,20a4.519,4.519,0,0,0,1.117-2.982,5.121,5.121,0,0,0-5.3-4.9A5.485,5.485,0,0,0,5.349,13a.847.847,0,0,1-1.3-.6A8.845,8.845,0,0,1,4,11.447C4,5.908,8.8,1.407,14.7,1.407s10.7,4.5,10.7,10.04a9.7,9.7,0,0,1-3.886,7.739l.38,3.038a1.957,1.957,0,0,1-1.932,2.2ZM14.686,19.8a.715.715,0,0,1,.447.123L19.812,22.7a.248.248,0,0,0,.29,0,.271.271,0,0,0,.123-.279L19.79,18.9a.864.864,0,0,1,.346-.793,8.117,8.117,0,0,0,3.585-6.678c0-4.612-4.043-8.365-9.024-8.365-4.791,0-8.722,3.484-9.013,7.862a7.421,7.421,0,0,1,2.68-.5A6.791,6.791,0,0,1,15.345,17a6.089,6.089,0,0,1-.659,2.8Z" fill="#fff"/>
        <path id="Path_632" data-name="Path 632" d="M5.115,25.407a1.488,1.488,0,0,1-.826-.246,1.53,1.53,0,0,1-.7-1.474l.223-1.72a6.339,6.339,0,0,1,.648-10.386,7.2,7.2,0,0,1,3.931-1.15,6.791,6.791,0,0,1,6.98,6.578,6.294,6.294,0,0,1-1.519,4.076,7,7,0,0,1-5.227,2.49L5.9,25.195a1.526,1.526,0,0,1-.782.212Zm3.261-13.3a5.485,5.485,0,0,0-3.027.882,4.787,4.787,0,0,0-2.278,4.02,4.667,4.667,0,0,0,2.1,3.886.848.848,0,0,1,.357.793L5.282,23.6l2.669-1.586a.846.846,0,0,1,.424-.123,5.411,5.411,0,0,0,4.177-1.9A4.581,4.581,0,0,0,13.681,17a5.12,5.12,0,0,0-5.3-4.892Z" fill="#fff"/>
      </g>
    </g>
    <g id="Ellipse_66" data-name="Ellipse 66" transform="translate(1738 22)" fill="red" stroke="#fff" stroke-width="1.5">
      <circle cx="5" cy="5" r="5" stroke="none"/>
      <circle cx="5" cy="5" r="4.25" fill="none"/>
    </g>
  </g>
</svg>
