<svg xmlns="http://www.w3.org/2000/svg" xmlns:xlink="http://www.w3.org/1999/xlink" width="130.227" height="120" viewBox="0 0 130.227 120">
  <defs>
    <linearGradient id="linear-gradient" x1="0.5" x2="0.5" y2="1" gradientUnits="objectBoundingBox">
      <stop offset="0" stop-color="#edbc2f"/>
      <stop offset="1" stop-color="#ff7600"/>
    </linearGradient>
    <filter id="Path_77206" x="14.474" y="76.692" width="60.239" height="38.718" filterUnits="userSpaceOnUse">
      <feOffset dy="4" input="SourceAlpha"/>
      <feGaussianBlur stdDeviation="5" result="blur"/>
      <feFlood flood-opacity="0.078"/>
      <feComposite operator="in" in2="blur"/>
      <feComposite in="SourceGraphic"/>
    </filter>
    <filter id="Path_77207" x="0" y="63.96" width="70.925" height="43.758" filterUnits="userSpaceOnUse">
      <feOffset dy="4" input="SourceAlpha"/>
      <feGaussianBlur stdDeviation="5" result="blur-2"/>
      <feFlood flood-opacity="0.078"/>
      <feComposite operator="in" in2="blur-2"/>
      <feComposite in="SourceGraphic"/>
    </filter>
    <filter id="Path_77208" x="1.005" y="41.299" width="64.832" height="62.023" filterUnits="userSpaceOnUse">
      <feOffset dy="4" input="SourceAlpha"/>
      <feGaussianBlur stdDeviation="5" result="blur-3"/>
      <feFlood flood-opacity="0.078"/>
      <feComposite operator="in" in2="blur-3"/>
      <feComposite in="SourceGraphic"/>
    </filter>
    <filter id="Path_77209" x="17.94" y="19.086" width="53.939" height="83.733" filterUnits="userSpaceOnUse">
      <feOffset dy="4" input="SourceAlpha"/>
      <feGaussianBlur stdDeviation="5" result="blur-4"/>
      <feFlood flood-opacity="0.078"/>
      <feComposite operator="in" in2="blur-4"/>
      <feComposite in="SourceGraphic"/>
    </filter>
    <filter id="Path_77206-2" x="55.514" y="76.692" width="60.24" height="38.718" filterUnits="userSpaceOnUse">
      <feOffset dy="4" input="SourceAlpha"/>
      <feGaussianBlur stdDeviation="5" result="blur-5"/>
      <feFlood flood-opacity="0.078"/>
      <feComposite operator="in" in2="blur-5"/>
      <feComposite in="SourceGraphic"/>
    </filter>
    <filter id="Path_77207-2" x="59.301" y="63.96" width="70.926" height="43.75" filterUnits="userSpaceOnUse">
      <feOffset dy="4" input="SourceAlpha"/>
      <feGaussianBlur stdDeviation="5" result="blur-6"/>
      <feFlood flood-opacity="0.078"/>
      <feComposite operator="in" in2="blur-6"/>
      <feComposite in="SourceGraphic"/>
    </filter>
    <filter id="Path_77208-2" x="64.39" y="41.299" width="64.83" height="62.023" filterUnits="userSpaceOnUse">
      <feOffset dy="4" input="SourceAlpha"/>
      <feGaussianBlur stdDeviation="5" result="blur-7"/>
      <feFlood flood-opacity="0.078"/>
      <feComposite operator="in" in2="blur-7"/>
      <feComposite in="SourceGraphic"/>
    </filter>
    <filter id="Path_77209-2" x="58.347" y="19.085" width="53.938" height="83.733" filterUnits="userSpaceOnUse">
      <feOffset dy="4" input="SourceAlpha"/>
      <feGaussianBlur stdDeviation="5" result="blur-8"/>
      <feFlood flood-opacity="0.078"/>
      <feComposite operator="in" in2="blur-8"/>
      <feComposite in="SourceGraphic"/>
    </filter>
    <filter id="Path_77210" x="30.495" y="12.679" width="69.15" height="89.344" filterUnits="userSpaceOnUse">
      <feOffset dy="4" input="SourceAlpha"/>
      <feGaussianBlur stdDeviation="5" result="blur-9"/>
      <feFlood flood-opacity="0.078"/>
      <feComposite operator="in" in2="blur-9"/>
      <feComposite in="SourceGraphic"/>
    </filter>
    <linearGradient id="linear-gradient-12" x1="0.118" y1="0.457" x2="0.979" y2="0.889" gradientUnits="objectBoundingBox">
      <stop offset="0" stop-color="#fc8125"/>
      <stop offset="1" stop-color="#fc8024"/>
    </linearGradient>
    <linearGradient id="linear-gradient-13" x1="0.077" y1="0.338" x2="1" y2="0.896" gradientUnits="objectBoundingBox">
      <stop offset="0" stop-color="#fa8b27"/>
      <stop offset="1" stop-color="#fb8526"/>
    </linearGradient>
  </defs>
  <g id="Chính_sách_Dân_vận" data-name="Chính sách Dân vận" transform="translate(5.113)">
    <rect id="Rectangle_13919" data-name="Rectangle 13919" width="120" height="120" rx="24" fill="url(#linear-gradient)"/>
    <g id="Group_34962" data-name="Group 34962" transform="translate(-1195 -1007)">
      <g transform="matrix(1, 0, 0, 1, 1189.89, 1007)" filter="url(#Path_77206)">
        <path id="Path_77206-3" data-name="Path 77206" d="M14809.354,2671.749l3.392-6.262s2.857,1.938,12.9.976,13.45-2.488,13.45-2.488a34.529,34.529,0,0,1-13.45,7.037A49.953,49.953,0,0,1,14809.354,2671.749Z" transform="translate(-14779.63 -2576.03)" fill="#fff" stroke="#fff" stroke-linecap="round" stroke-linejoin="round" stroke-width="0.5"/>
      </g>
      <g transform="matrix(1, 0, 0, 1, 1189.89, 1007)" filter="url(#Path_77207)">
        <path id="Path_77207-3" data-name="Path 77207" d="M14809.629,2640.2s-14.119,3-24.172.735a38.973,38.973,0,0,1-16.252-7.872s4.469-2.744,7.451-3.419,4.641-.985,4.641-.985a39.365,39.365,0,0,0,12.517,8.9C14800.9,2640.438,14809.629,2640.2,14809.629,2640.2Z" transform="translate(-14753.95 -2553.45)" fill="#fff" stroke="#fff" stroke-linecap="round" stroke-linejoin="round" stroke-width="0.5"/>
      </g>
      <g transform="matrix(1, 0, 0, 1, 1189.89, 1007)" filter="url(#Path_77208)">
        <path id="Path_77208-3" data-name="Path 77208" d="M14771.991,2566.03a23.419,23.419,0,0,1,9.215,1.024c5.2,1.591,6.338,2.362,6.338,2.362a28.193,28.193,0,0,0,2.582,10.985c2.638,5.664,4.252,8.208,7.97,11.673a31.041,31.041,0,0,0,8.227,5.33s-10.12-.386-16.9-5.752a57.025,57.025,0,0,1-13.748-16.034A69.186,69.186,0,0,1,14771.991,2566.03Z" transform="translate(-14755.74 -2513.33)" fill="#fff" stroke="#fff" stroke-linecap="round" stroke-linejoin="round" stroke-width="0.5"/>
      </g>
      <g transform="matrix(1, 0, 0, 1, 1189.89, 1007)" filter="url(#Path_77209)">
        <path id="Path_77209-3" data-name="Path 77209" d="M14835.883,2512.911a55.828,55.828,0,0,0-5.5-5.134,70.364,70.364,0,0,0-6.088-3.608,37.131,37.131,0,0,0-3.629,8.363,46.305,46.305,0,0,0-1.69,11.951,48.988,48.988,0,0,0,2.093,13.04,27.029,27.029,0,0,0,4.959,9.471c3.647,4.318,8.688,7.735,10.7,8.521s5.693,1.887,5.693,1.887a21.622,21.622,0,0,1-6.662-5.193,38.949,38.949,0,0,1-5.17-8.776,38.039,38.039,0,0,1-.473-16.157C14830.908,2522.9,14835.883,2512.911,14835.883,2512.911Z" transform="translate(-14785.78 -2473.83)" fill="#fff" stroke="#fff" stroke-linecap="round" stroke-linejoin="round" stroke-width="0.5"/>
      </g>
      <g transform="matrix(1, 0, 0, 1, 1189.89, 1007)" filter="url(#Path_77206-2)">
        <path id="Path_77206-4" data-name="Path 77206" d="M14839.093,2671.749l-3.392-6.262s-2.856,1.938-12.9.976-13.45-2.488-13.45-2.488a34.529,34.529,0,0,0,13.45,7.037A49.953,49.953,0,0,0,14839.093,2671.749Z" transform="translate(-14738.59 -2576.03)" fill="#fff" stroke="#fff" stroke-linecap="round" stroke-linejoin="round" stroke-width="0.5"/>
      </g>
      <g transform="matrix(1, 0, 0, 1, 1189.89, 1007)" filter="url(#Path_77207-2)">
        <path id="Path_77207-4" data-name="Path 77207" d="M14769.2,2640.2s14.119,3,24.173.735a38.981,38.981,0,0,0,16.252-7.872s-4.469-2.744-7.451-3.419-4.641-.985-4.641-.985a39.362,39.362,0,0,1-12.518,8.9C14777.937,2640.438,14769.2,2640.2,14769.2,2640.2Z" transform="translate(-14694.65 -2553.45)" fill="#fff" stroke="#fff" stroke-linecap="round" stroke-linejoin="round" stroke-width="0.5"/>
      </g>
      <g transform="matrix(1, 0, 0, 1, 1189.89, 1007)" filter="url(#Path_77208-2)">
        <path id="Path_77208-4" data-name="Path 77208" d="M14806.322,2566.03a23.418,23.418,0,0,0-9.215,1.024c-5.2,1.591-6.338,2.362-6.338,2.362a28.172,28.172,0,0,1-2.582,10.985c-2.638,5.664-4.252,8.208-7.97,11.673a31.041,31.041,0,0,1-8.227,5.33s10.12-.386,16.9-5.752a57.025,57.025,0,0,0,13.748-16.034A69.128,69.128,0,0,0,14806.322,2566.03Z" transform="translate(-14692.35 -2513.33)" fill="#fff" stroke="#fff" stroke-linecap="round" stroke-linejoin="round" stroke-width="0.5"/>
      </g>
      <g transform="matrix(1, 0, 0, 1, 1189.89, 1007)" filter="url(#Path_77209-2)">
        <path id="Path_77209-4" data-name="Path 77209" d="M14825.5,2512.911a55.778,55.778,0,0,1,5.5-5.134,70.557,70.557,0,0,1,6.087-3.608,37.1,37.1,0,0,1,3.63,8.363,46.263,46.263,0,0,1,1.69,11.951,48.988,48.988,0,0,1-2.093,13.04,27.013,27.013,0,0,1-4.959,9.471c-3.647,4.318-8.687,7.735-10.694,8.521s-5.693,1.887-5.693,1.887a21.634,21.634,0,0,0,6.662-5.193,38.906,38.906,0,0,0,5.168-8.776,38.029,38.029,0,0,0,.475-16.157C14830.474,2522.9,14825.5,2512.911,14825.5,2512.911Z" transform="translate(-14745.38 -2473.83)" fill="#fff" stroke="#fff" stroke-linecap="round" stroke-linejoin="round" stroke-width="0.5"/>
      </g>
      <g transform="matrix(1, 0, 0, 1, 1189.89, 1007)" filter="url(#Path_77210)">
        <path id="Path_77210-2" data-name="Path 77210" d="M14871.9,2545.192a17.66,17.66,0,0,1-9.774-3.774c-3.809-2.927-7.739-8.571-8.262-16.8-.49-7.737,2.233-15.759,6.28-22.453a77.209,77.209,0,0,1,13.035-15.765s16.248,12.534,19.018,32.836a23.706,23.706,0,0,1-10.25,23.179A17.57,17.57,0,0,1,14871.9,2545.192Z" transform="translate(-14808.06 -2462.47)" fill="#fff" stroke="#fff" stroke-linecap="round" stroke-linejoin="round" stroke-width="0.5"/>
      </g>
      <path id="Path_78220" data-name="Path 78220" d="M12.267,11.758c.455.047.869.079,1.279.135a12.328,12.328,0,0,1,2.9.785,11.145,11.145,0,0,1,2.722,1.577,11.465,11.465,0,0,1,2.493,2.679,6.331,6.331,0,0,1,.443.681,17.516,17.516,0,0,1,.958,2.1,10.2,10.2,0,0,1,.529,2.058,14.512,14.512,0,0,1,.044,3.387,10.071,10.071,0,0,1-.7,2.694,11.729,11.729,0,0,1-.61,1.237c-.195.353-.422.688-.642,1.027-.061.095-.069.162.019.243q.942.877,1.878,1.759a1.844,1.844,0,0,1,.148.188l-2.85,2.96c-.5-.48-.971-.936-1.444-1.4-.182-.177-.366-.353-.537-.54a.2.2,0,0,0-.294-.039,15.6,15.6,0,0,1-3.171,1.479,11.5,11.5,0,0,1-5.009.495c-.629-.094-1.249-.247-1.87-.386A10.649,10.649,0,0,1,5.588,33.59c-.368-.212-.723-.447-1.079-.68a.183.183,0,0,0-.269.018.5.5,0,0,0-.194.488,1.915,1.915,0,0,1-.362,1.37,1.65,1.65,0,0,1-1.248.681,2.1,2.1,0,0,1-1.429-.45.769.769,0,0,1-.176-.235A2.015,2.015,0,0,1,.6,32.924a1.792,1.792,0,0,1,1.342-1.074,1.494,1.494,0,0,1,.342-.064.553.553,0,0,0,.4-.238c-.21-.269-.415-.542-.631-.806-.273-.335-.557-.661-.827-1-.024-.03,0-.135.04-.172.286-.293.583-.576.872-.867.253-.255.5-.515.749-.773a.5.5,0,0,1,.064-.045c.413.346.812.706,1.237,1.03a13,13,0,0,0,2.3,1.412,10.4,10.4,0,0,0,4.856,1.07,8.859,8.859,0,0,0,2.827-.558c.414-.155.819-.333,1.227-.5.075-.032.145-.077.252-.135L8.07,22.863c-.3.267-.59.512-.86.78-.408.406-.8.826-1.2,1.245-.087.093-.142.09-.226,0-.291-.311-.582-.622-.883-.923-.337-.337-.686-.662-1.025-1-.41-.4-.816-.813-1.223-1.22-.042-.042-.081-.088-.144-.158.17-.164.339-.313.493-.477.361-.383.712-.776,1.073-1.158.316-.334.643-.658.961-.99C5.5,18.483,5.96,18,6.42,17.509l1.495-1.579a3.152,3.152,0,0,0,.24-.268.354.354,0,0,1,.415-.127,4,4,0,0,0,1.961-.014,3.437,3.437,0,0,0,1.317-.721L12,14.667l1.834,1.861L10.9,19.661l7.79,7.736a.464.464,0,0,0,.075-.086,9.644,9.644,0,0,0,.557-1.258,9.9,9.9,0,0,0,.42-3.019,13.9,13.9,0,0,0-.315-2.489,9.685,9.685,0,0,0-.618-1.978c-.241-.541-.514-1.068-.8-1.588-.217-.4-.458-.783-.713-1.157-.19-.278-.431-.521-.63-.794a11.737,11.737,0,0,0-1.492-1.484,7.784,7.784,0,0,0-1.418-.98C13.3,12.282,12.8,12.043,12.267,11.758Z" transform="translate(1242.904 1041.242)" fill="#fa8007"/>
    </g>
    <g id="Group_36024" data-name="Group 36024" transform="translate(-8559 -3278)">
      <rect id="Rectangle_15246" data-name="Rectangle 15246" width="120" height="120" rx="24" transform="translate(8559 3278)" fill="url(#linear-gradient)"/>
    </g>
    <g id="Group_42780" data-name="Group 42780" transform="translate(1861 2133.577)">
      <path id="Path_82644" data-name="Path 82644" d="M8317.334,3635.964s-2.8-4.825-7.238-5.089c-3.434-.2-9.111-.071-11.811,0-.345.009-.562.263-.409.949s.409,2.066.409,2.066l9.562,43.594s1.322-.333,2.727-.607a5.733,5.733,0,0,1,2.4,0s1.984-3.776,1.867-5.525a3.854,3.854,0,0,0-1.473-2.883c-.517-.529,0-1.553,0-1.553h1.473v-1.993h.7a3.385,3.385,0,0,0,0-2.607c-.624-1.147,1.8-7.664,1.8-7.664s2.019,4.626,2.459,5.739-.743,8.079-.743,8.079a5.588,5.588,0,0,1,.7,0c-.042.029-.1,1.722-.1,1.642a2.193,2.193,0,0,0-.922,0c0,.05.018,3.551.095,3.525s.885-.107.923,0a5.6,5.6,0,0,1,0,.782s-1.067-.023-1.018.118,0,6.054,0,6.054l1.413-4.181a14.6,14.6,0,0,1,7.13.934l10.045-44.714a5,5,0,0,0,.158-1.572c-.131-.325-.12-.242-1.088-.365a48.758,48.758,0,0,0-8.515-.3c-5.121.305-7.029,2.178-7.753,2.75S8317.334,3635.964,8317.334,3635.964Z" transform="translate(-10118.559 -5739.966)" fill="#fff"/>
      <path id="Path_82645" data-name="Path 82645" d="M8343.592,3650.523v10.61l-6.256,8.458" transform="translate(-10144.817 -5753.324)" fill="none"/>
      <path id="path17502" d="M-13014.821-1334.063l-7.009,5.079,2.683,8.251-7.009-5.093-7.022,5.093,2.684-8.251-6.994-5.079h8.651l2.682-8.247,2.668,8.247Zm-2.278.71h-6.417l-2.668,2.5Zm-9.085,2.515v-9.576l-1.939,6.351Zm5.346,7.813-2-6.012-3.35-1.758Zm-5.346-7.813-9.409-2.639,5.57,4.088Zm0,4.188v-4.145l-5.136,7.7Z" transform="translate(11224.994 -760.874)" fill="#f2a721" fill-rule="evenodd"/>
      <path id="Path_84977" data-name="Path 84977" d="M-1881.45-2040.361l.382-4.689a12.424,12.424,0,0,1,2.829-.733,15.612,15.612,0,0,1,3.132,0l1.424,4.334,6.378-.385.412-4.365a14.163,14.163,0,0,1,4.061,0,15.125,15.125,0,0,1,3.918,1.35l-.12,4.043,2.734,1.267.349-6.244a15.16,15.16,0,0,0-5.232-2.722,14.891,14.891,0,0,0-5.865,0l-1.373,4.271-.418,1.854-3.864.235-1.7-3.638v-2.722a26.9,26.9,0,0,0-5.6,0,16.152,16.152,0,0,0-4.372,1.408l.815,5.875Z" transform="translate(69 -17)" fill="#fff"/>
      <path id="Path_84975" data-name="Path 84975" d="M-1826.649-2052.312s-6.145,6.308-5.393,8.944,17.091,12.958,31.615,13.33,29.014-11.827,29.365-13.873-4.752-8.4-4.752-8.4Z" transform="translate(0.832 -1.139)" fill="none" stroke="#fff" stroke-width="2"/>
      <path id="Path_84972" data-name="Path 84972" d="M-1518.04-2351.545a30.25,30.25,0,0,1,9.681-12.774c3.843-2.987,7.9-4.9,15.31-5.717.4-.044,1.408,4.182,1.408,4.182l4.9-.232v-4.636c22.059-.6,29.357,18.683,29.357,18.683s-14.581,13.857-29.168,13.842S-1518.04-2351.545-1518.04-2351.545Z" transform="translate(-313.057 306.853)" fill="#fff"/>
      <g id="Group_40078" data-name="Group 40078" transform="translate(-1844.244 -2093.259)">
        <path id="Path_82642" data-name="Path 82642" d="M8244.247,3752.866l-15.276-21.327-.9-1.31s-.35-.693.123-1.1a13.048,13.048,0,0,1,6.435-3.089,27.782,27.782,0,0,1,4.107-.165c.929.023.74-.024,1.214.165a1.4,1.4,0,0,1,.68.593l10.6,19.022-2.875,2.617,2.276,3.915-2.276,2.369Z" transform="translate(-8227.951 -3710.042)" fill="#fff"/>
        <path id="Path_82643" data-name="Path 82643" d="M8264.251,3714.3l-15.586-30.89-.9-2.066a.862.862,0,0,1,.4-1.088c.9-.444,4.166-1.7,9.681-1.573a12.353,12.353,0,0,1,8.989,3.632,3.2,3.2,0,0,1,.638.933,5.993,5.993,0,0,1,.406,1.146l6.942,24.973-1.441.458v4.474l-2.789,1.159-3.027-2.7Z" transform="translate(-8241.033 -3678.679)" fill="#fff"/>
      </g>
      <g id="Group_42774" data-name="Group 42774" transform="translate(-1791.512 -2093.354)">
        <path id="Path_82642-2" data-name="Path 82642" d="M8234.9,3752.874l15.318-21.334.895-1.31s.351-.693-.122-1.1a13.058,13.058,0,0,0-6.436-3.089,27.782,27.782,0,0,0-4.107-.165c-.929.023-.74-.024-1.214.165a1.4,1.4,0,0,0-.68.593l-10.6,19.022,2.876,2.617-2.277,3.915,2.277,2.369Z" transform="translate(-8217.482 -3710.042)" fill="#fff"/>
        <path id="Path_82643-2" data-name="Path 82643" d="M8258.245,3714.3l15.586-30.89.9-2.066a.863.863,0,0,0-.4-1.088c-.9-.444-4.167-1.7-9.682-1.573a12.352,12.352,0,0,0-8.988,3.632,3.182,3.182,0,0,0-.638.933,5.993,5.993,0,0,0-.406,1.146l-6.9,24.879,1.4.743v4.283l2.789,1.159,3.026-2.7a12,12,0,0,1,1.569.6C8257.325,3713.744,8258.245,3714.3,8258.245,3714.3Z" transform="translate(-8247.707 -3678.679)" fill="#fff"/>
      </g>
      <path id="Path_84978" data-name="Path 84978" d="M-1772.471-2051.9l-4.6,2.747a1.432,1.432,0,0,1-.837.209,1.78,1.78,0,0,1-.809-.448l-1.1-1.124a1.342,1.342,0,0,1-.386-.772,1.781,1.781,0,0,1,.313-.893l1.156-2.02a1.609,1.609,0,0,0,.313-.763,2.472,2.472,0,0,0-.829-1.569,7.9,7.9,0,0,0-1.715-1.33,17.777,17.777,0,0,0-1.873-.945,2.207,2.207,0,0,0-1.59,0l-1.438.983-1.632,1.337a19.84,19.84,0,0,1-2.777-1.279l.2-2.664v-.85s-.114-.828-.637-1.088a11.607,11.607,0,0,0-2.409-.812,9.075,9.075,0,0,0-3.211-.165,1.126,1.126,0,0,0-.763.48,4.8,4.8,0,0,0-.449.914l-.676,2.16a1.509,1.509,0,0,1-.5.731,1.577,1.577,0,0,1-.884.162l-4.492.238a1.9,1.9,0,0,1-.8-.4,1.551,1.551,0,0,1-.367-.751l-.642-2.109a2.232,2.232,0,0,0-.328-.789c-.176-.146-.187-.221-.846-.252a14.626,14.626,0,0,0-2,.052,8.986,8.986,0,0,0-2.244.608.782.782,0,0,0-.573.492,1.557,1.557,0,0,0-.072.814l.19,2.438a1.36,1.36,0,0,1,0,.75,1.661,1.661,0,0,1-.5.626l-1.867.746a.946.946,0,0,1-.83,0,3.925,3.925,0,0,1-.991-.857l-.894-.864a5.081,5.081,0,0,0-.819-.717,1.143,1.143,0,0,0-1.092,0,11.9,11.9,0,0,0-2.416,1.359,13.364,13.364,0,0,0-2.023,2.031,1.013,1.013,0,0,0-.212.826,3.513,3.513,0,0,0,.212.786l1.043,1.76a2.25,2.25,0,0,1,.335.919,1.25,1.25,0,0,1-.276.761l-1.314,1.277a1.944,1.944,0,0,1-.965.324,2.2,2.2,0,0,1-1-.339l-2.8-1.5-1.2-.716" fill="none" stroke="#f88f11" stroke-width="1"/>
      <g id="Group_42777" data-name="Group 42777" transform="translate(-71 -5.453)">
        <path id="Path_82652" data-name="Path 82652" d="M8316.622,3833.484l-3.231-1.208s3.113-12.861,14.984-12.712,14.365,11.8,14.365,11.8l-3.278,1.478s-1.85-9.334-11.087-9.8S8316.622,3833.484,8316.622,3833.484Z" transform="translate(-10056.087 -5861.361)" fill="url(#linear-gradient-12)"/>
        <path id="Path_82653" data-name="Path 82653" d="M8297.715,3817.321s-.822-.326-1.639-.742-1.625-.92-1.625-.92,6.789-17.745,21.451-16.44c4.433.462,8.822,1.853,11.665,3.968a26.657,26.657,0,0,1,8.438,11.386l-3.082,1.826s-3.734-13.829-17.437-13.715S8297.715,3817.321,8297.715,3817.321Z" transform="translate(-10043.612 -5847.863)" fill="url(#linear-gradient-13)"/>
      </g>
    </g>
  </g>
</svg>
