<svg width="89" height="88" viewBox="0 0 89 88" fill="none" xmlns="http://www.w3.org/2000/svg">
<g clip-path="url(#clip0_4799_3129)">
<path d="M70.9 0H18.1C8.37979 0 0.5 7.87979 0.5 17.6V70.4C0.5 80.1202 8.37979 88 18.1 88H70.9C80.6202 88 88.5 80.1202 88.5 70.4V17.6C88.5 7.87979 80.6202 0 70.9 0Z" fill="url(#paint0_linear_4799_3129)"/>
<path d="M70.9 0H18.1C8.37979 0 0.5 7.87979 0.5 17.6V70.4C0.5 80.1202 8.37979 88 18.1 88H70.9C80.6202 88 88.5 80.1202 88.5 70.4V17.6C88.5 7.87979 80.6202 0 70.9 0Z" fill="url(#paint1_linear_4799_3129)"/>
<g filter="url(#filter0_d_4799_3129)">
<path d="M18.55 70.194L21.0379 65.6019C21.0379 65.6019 23.1333 67.023 30.4982 66.3175C37.863 65.612 40.3609 64.4931 40.3609 64.4931C37.4966 66.9236 34.128 68.6863 30.4982 69.6535C26.5722 70.4869 22.5352 70.6696 18.55 70.194Z" fill="#FEF8E8" stroke="#FEF8E8" stroke-width="0.620513" stroke-linecap="round" stroke-linejoin="round"/>
</g>
<g filter="url(#filter1_d_4799_3129)">
<path d="M37.5765 63.6168C37.5765 63.6168 27.2227 65.8168 19.8505 64.1558C15.4806 63.1912 11.3983 61.2138 7.93237 58.383C7.93237 58.383 11.2098 56.3708 13.3966 55.8758C15.5834 55.3808 16.7997 55.1534 16.7997 55.1534C19.4012 57.9105 22.5207 60.1283 25.9792 61.6801C31.1756 63.7914 37.5765 63.6168 37.5765 63.6168Z" fill="#FEF8E8" stroke="#FEF8E8" stroke-width="0.620513" stroke-linecap="round" stroke-linejoin="round"/>
</g>
<g filter="url(#filter2_d_4799_3129)">
<path d="M8.67041 38.6469C10.9505 38.4443 13.248 38.6996 15.428 39.3977C19.2413 40.5645 20.0757 41.1299 20.0757 41.1299C20.1576 43.9153 20.8017 46.6553 21.9692 49.1855C23.9038 53.3391 25.0872 55.2048 27.8137 57.7458C29.605 59.36 31.6419 60.6794 33.8472 61.6545C33.8472 61.6545 26.4256 61.3715 21.4536 57.4364C17.3901 54.1789 13.9708 50.191 11.3717 45.678C10.2982 43.4044 9.39548 41.0543 8.67041 38.6469Z" fill="#FEF8E8" stroke="#FEF8E8" stroke-width="0.620513" stroke-linecap="round" stroke-linejoin="round"/>
</g>
<g filter="url(#filter3_d_4799_3129)">
<path d="M33.487 28.6594C32.2288 27.3152 30.8813 26.0575 29.4537 24.8947C28.0108 23.9384 26.5208 23.0552 24.9892 22.2487C23.8536 24.1759 22.9598 26.2357 22.328 28.3816C21.5343 31.2364 21.1173 34.1827 21.0884 37.1456C21.166 40.3878 21.6829 43.6046 22.6238 46.7083C23.3615 49.2425 24.5979 51.6037 26.2604 53.6537C28.9349 56.8202 32.631 59.326 34.1065 59.9024C35.5819 60.4788 38.2816 61.2863 38.2816 61.2863C36.4186 60.3505 34.7583 59.0563 33.3961 57.4781C31.856 55.508 30.5814 53.3444 29.6048 51.0424C28.6417 47.1634 28.5236 43.1225 29.2582 39.1938C29.839 35.9847 33.487 28.6594 33.487 28.6594Z" fill="#FEF8E8" stroke="#FEF8E8" stroke-width="0.620513" stroke-linecap="round" stroke-linejoin="round"/>
</g>
<g filter="url(#filter4_d_4799_3129)">
<path d="M70.4552 70.194L67.968 65.6019C67.968 65.6019 65.8733 67.023 58.5077 66.3175C51.1421 65.612 48.6442 64.4931 48.6442 64.4931C51.5085 66.9236 54.8778 68.6863 58.5077 69.6535C62.4337 70.4869 66.47 70.6696 70.4552 70.194Z" fill="#FEF8E8" stroke="#FEF8E8" stroke-width="0.620513" stroke-linecap="round" stroke-linejoin="round"/>
</g>
<g filter="url(#filter5_d_4799_3129)">
<path d="M51.4157 63.6168C51.4157 63.6168 61.7695 65.8168 69.1425 64.1558C73.5123 63.191 77.5945 61.2136 81.0606 58.383C81.0606 58.383 77.7832 56.3708 75.5964 55.8758C73.4096 55.3808 72.1933 55.1534 72.1933 55.1534C69.5916 57.9106 66.4718 60.1285 63.013 61.6801C57.8224 63.7914 51.4157 63.6168 51.4157 63.6168Z" fill="#FEF8E8" stroke="#FEF8E8" stroke-width="0.620513" stroke-linecap="round" stroke-linejoin="round"/>
</g>
<g filter="url(#filter6_d_4799_3129)">
<path d="M80.3319 38.6469C78.0518 38.4443 75.7543 38.6996 73.5743 39.3978C69.761 40.5645 68.9258 41.1299 68.9258 41.1299C68.8444 43.9154 68.2003 46.6555 67.0323 49.1855C65.0978 53.3391 63.9144 55.2048 61.1879 57.7458C59.3965 59.36 57.3604 60.6794 55.1551 61.6545C55.1551 61.6545 62.576 61.3715 67.548 57.4364C71.6114 54.179 75.0307 50.191 77.6299 45.678C78.7035 43.4045 79.607 41.0544 80.3319 38.6469Z" fill="#FEF8E8" stroke="#FEF8E8" stroke-width="0.620513" stroke-linecap="round" stroke-linejoin="round"/>
</g>
<g filter="url(#filter7_d_4799_3129)">
<path d="M55.5078 28.6594C56.7659 27.3151 58.1135 26.0574 59.5411 24.8947C60.9838 23.9386 62.4736 23.0554 64.0048 22.2487C65.1409 24.1758 66.0349 26.2356 66.6667 28.3816C67.4608 31.2363 67.8778 34.1827 67.9064 37.1456C67.8288 40.3878 67.3126 43.6046 66.3717 46.7083C65.6343 49.2426 64.3979 51.6039 62.7351 53.6537C60.0606 56.8202 56.3644 59.326 54.8926 59.9024C53.4208 60.4788 50.7175 61.2863 50.7175 61.2863C52.5804 60.3503 54.2406 59.0561 55.603 57.4781C57.1428 55.5081 58.417 53.3444 59.3929 51.0424C60.3567 47.1635 60.4759 43.1226 59.7416 39.1938C59.1557 35.9847 55.5078 28.6594 55.5078 28.6594Z" fill="#FEF8E8" stroke="#FEF8E8" stroke-width="0.620513" stroke-linecap="round" stroke-linejoin="round"/>
</g>
<g filter="url(#filter8_d_4799_3129)">
<path d="M43.5691 60.6628C40.9549 60.4866 38.4554 59.5216 36.4012 57.8953C33.6079 55.7488 30.7261 51.6099 30.3426 45.5753C29.9833 39.9015 31.9796 34.0187 34.9474 29.1098C37.6069 24.8492 40.8215 20.9613 44.5065 17.5487C44.5065 17.5487 56.4221 26.7404 58.4535 41.6286C58.9374 44.8828 58.4878 48.2074 57.1572 51.2163C55.8267 54.2252 53.6697 56.7948 50.9368 58.6265C48.7434 60.035 46.1745 60.7449 43.5691 60.6628Z" fill="#FEF8E8" stroke="#FEF8E8" stroke-width="0.620513" stroke-linecap="round" stroke-linejoin="round"/>
</g>
<path d="M44.6251 33.7334C44.9588 33.7679 45.2624 33.7914 45.563 33.8324C46.2927 33.9369 47.0069 34.1302 47.6897 34.4081C48.4064 34.6973 49.0785 35.0866 49.6858 35.5646C50.3965 36.1173 51.0138 36.7806 51.514 37.5292C51.6329 37.6885 51.7414 37.8553 51.8389 38.0286C52.1067 38.5259 52.3414 39.0403 52.5414 39.5686C52.7229 40.0568 52.853 40.5626 52.9294 41.0778C53.0371 41.9016 53.0479 42.7352 52.9616 43.5616C52.8828 44.2407 52.71 44.9056 52.4483 45.5372C52.3171 45.8481 52.1678 46.151 52.001 46.4443C51.858 46.7032 51.6915 46.9488 51.5302 47.1974C51.4854 47.2671 51.4796 47.3162 51.5441 47.3756C52.0046 47.8044 52.4637 48.2344 52.9213 48.6656C52.9604 48.7091 52.9967 48.7552 53.0298 48.8034L50.9398 50.9741C50.5732 50.6221 50.2278 50.2877 49.8809 49.9474C49.7474 49.8176 49.6125 49.6886 49.4871 49.5514C49.4755 49.5346 49.4604 49.5203 49.443 49.5096C49.4255 49.4989 49.406 49.492 49.3857 49.4893C49.3653 49.4866 49.3447 49.4882 49.325 49.494C49.3054 49.4997 49.2871 49.5096 49.2715 49.5228C48.5395 49.9704 47.7595 50.3342 46.9461 50.6074C45.7635 50.9982 44.509 51.1222 43.2728 50.9704C42.8116 50.9015 42.3569 50.7893 41.9015 50.6874C41.1329 50.4852 40.3997 50.167 39.7272 49.7436C39.4573 49.5881 39.197 49.4158 38.9359 49.2449C38.9225 49.2321 38.9065 49.2222 38.889 49.2159C38.8715 49.2095 38.8529 49.2069 38.8344 49.2082C38.8158 49.2094 38.7977 49.2145 38.7813 49.2231C38.7648 49.2317 38.7503 49.2436 38.7386 49.2581C38.6841 49.2987 38.6419 49.3537 38.6167 49.4168C38.5916 49.48 38.5846 49.549 38.5964 49.616C38.6396 49.9725 38.5446 50.332 38.3309 50.6206C38.2252 50.7668 38.0882 50.8876 37.9299 50.974C37.7715 51.0604 37.5958 51.1103 37.4157 51.12C37.0377 51.1426 36.6646 51.0251 36.3678 50.79C36.3141 50.7414 36.2703 50.6829 36.2387 50.6177C36.1023 50.4212 36.0156 50.1946 35.9861 49.9573C35.9566 49.72 35.9852 49.479 36.0693 49.2552C36.1542 49.0519 36.2888 48.8733 36.4608 48.7357C36.6327 48.598 36.8365 48.5059 37.0534 48.4676C37.1349 48.4422 37.2191 48.4265 37.3042 48.4206C37.3629 48.4146 37.4195 48.3959 37.4702 48.3657C37.5208 48.3356 37.5643 48.2948 37.5976 48.2461C37.4436 48.0488 37.2932 47.8486 37.1348 47.655C36.9346 47.4094 36.7264 47.1703 36.5284 46.9217C36.5108 46.8997 36.5284 46.8227 36.5577 46.7956C36.7674 46.5807 36.9852 46.3732 37.1972 46.1598C37.3827 45.9728 37.5638 45.7821 37.7464 45.5929C37.7612 45.5807 37.7769 45.5697 37.7934 45.5599C38.0962 45.8136 38.3888 46.0776 38.7005 46.3152C39.2253 46.718 39.7905 47.065 40.3872 47.3507C41.4933 47.8963 42.7152 48.1656 43.9482 48.1354C44.657 48.113 45.3573 47.9748 46.0214 47.7262C46.325 47.6125 46.622 47.482 46.9212 47.3595C46.9762 47.336 47.0275 47.303 47.106 47.2605L41.5473 41.8771C41.3273 42.0729 41.1146 42.2526 40.9166 42.4491C40.6174 42.7468 40.33 43.0548 40.0366 43.3621C39.9728 43.4303 39.9325 43.4281 39.8709 43.3621C39.6575 43.134 39.4441 42.906 39.2234 42.6852C38.9762 42.4381 38.7203 42.1998 38.4717 41.9519C38.171 41.6586 37.8733 41.3557 37.5748 41.0572C37.544 41.0264 37.5154 40.9927 37.4692 40.9414C37.5939 40.8211 37.7178 40.7118 37.8308 40.5916C38.0955 40.3107 38.3529 40.0225 38.6176 39.7424C38.8494 39.4974 39.0892 39.2598 39.3224 39.0164C39.6626 38.6651 40 38.3109 40.3373 37.9508L41.4336 36.7929C41.496 36.7308 41.5548 36.6652 41.6096 36.5964C41.6428 36.5493 41.6908 36.5145 41.7459 36.4977C41.801 36.4808 41.8601 36.4828 41.914 36.5032C42.3868 36.6192 42.881 36.6157 43.352 36.493C43.709 36.39 44.0388 36.2095 44.3178 35.9642L44.4293 35.8667L45.7742 37.2314L43.6226 39.529L49.3353 45.202C49.3562 45.1833 49.3746 45.1622 49.3903 45.139C49.5483 44.8416 49.6848 44.5333 49.7988 44.2164C50.0151 43.4988 50.119 42.7519 50.1068 42.0025C50.085 41.3884 50.0076 40.7774 49.8758 40.1772C49.777 39.6789 49.6251 39.1926 49.4226 38.7267C49.2458 38.33 49.0456 37.9435 48.8359 37.5622C48.6768 37.2688 48.5 36.988 48.313 36.7137C48.1737 36.5098 47.997 36.3316 47.851 36.1314C47.5197 35.7366 47.1535 35.3724 46.7569 35.0432C46.438 34.7658 46.0892 34.5248 45.717 34.3245C45.3826 34.1177 45.016 33.9424 44.6251 33.7334Z" fill="#FBB535"/>
<path d="M70.9 0H18.1C8.37979 0 0.5 7.87979 0.5 17.6V70.4C0.5 80.1202 8.37979 88 18.1 88H70.9C80.6202 88 88.5 80.1202 88.5 70.4V17.6C88.5 7.87979 80.6202 0 70.9 0Z" fill="url(#paint2_linear_4799_3129)"/>
<path d="M70.9 0H18.1C8.37979 0 0.5 7.87979 0.5 17.6V70.4C0.5 80.1202 8.37979 88 18.1 88H70.9C80.6202 88 88.5 80.1202 88.5 70.4V17.6C88.5 7.87979 80.6202 0 70.9 0Z" fill="url(#paint3_linear_4799_3129)"/>
<path d="M44.3361 21.6883C44.3361 21.6883 42.2826 18.1499 39.0281 17.9563C36.5098 17.8096 32.347 17.9042 30.367 17.9563C30.114 17.9629 29.9547 18.1492 30.0669 18.6522C30.1791 19.1553 30.367 20.1672 30.367 20.1672L37.3788 52.1362C37.3788 52.1362 38.3486 51.892 39.379 51.6911C39.9591 51.5669 40.5584 51.5669 41.1385 51.6911C41.1385 51.6911 42.5936 48.9221 42.5078 47.6395C42.4919 47.2298 42.3871 46.8285 42.2006 46.4634C42.0141 46.0983 41.7505 45.7782 41.4279 45.5252C41.0487 45.1373 41.4279 44.3864 41.4279 44.3864H42.5078V42.9249H43.0213C43.1477 42.6221 43.2125 42.297 43.2125 41.9689C43.2125 41.6407 43.1477 41.3158 43.0213 41.013C42.5637 40.1719 44.3411 35.3929 44.3411 35.3929C44.3411 35.3929 45.8217 38.7853 46.1444 39.6015C46.4671 40.4177 45.5994 45.526 45.5994 45.526C45.7704 45.5152 45.9419 45.5152 46.1129 45.526C46.0821 45.5472 46.0398 46.7888 46.0398 46.7302C45.817 46.6822 45.5866 46.6822 45.3638 46.7302C45.3638 46.7668 45.3768 49.3342 45.4333 49.3151C45.4897 49.296 46.0822 49.2366 46.11 49.3151C46.1234 49.506 46.1234 49.6976 46.11 49.8885C46.11 49.8885 45.3279 49.8718 45.3638 49.9752C45.3997 50.0786 45.3638 54.4148 45.3638 54.4148L46.4001 51.3486C48.1728 51.1374 49.9701 51.3729 51.6286 52.0336L58.9949 19.2432C59.0944 18.8675 59.1337 18.4786 59.1109 18.0906C59.0149 17.8523 59.0223 17.9131 58.3124 17.8229C56.2414 17.5675 54.1522 17.4939 52.0684 17.6029C48.313 17.8266 46.9138 19.2001 46.3829 19.6196C45.8519 20.039 44.3361 21.6883 44.3361 21.6883Z" fill="#FEF8E8"/>
<path fill-rule="evenodd" clip-rule="evenodd" d="M52.6942 28.336L47.5545 32.0606L49.5217 38.1113L44.3819 34.3764L39.2328 38.1113L41.2008 32.0606L36.0718 28.336H42.4161L44.3827 22.2882L46.3392 28.336H52.6942ZM51.0242 28.8567H46.3184L44.3619 30.69L51.0242 28.8567ZM44.3619 30.701V23.6786L42.9396 28.336L44.3619 30.701ZM48.2821 36.4305L46.8154 32.0217L44.3583 30.7325L48.2821 36.4305ZM44.3619 30.701L37.4618 28.7657L41.546 31.7636L44.3619 30.701ZM44.3619 33.7722V30.7325L40.595 36.3792L44.3619 33.7722Z" fill="url(#paint4_linear_4799_3129)"/>
<path d="M36.1038 55.8918L36.3839 52.4531C37.0519 52.1929 37.7483 52.0126 38.4585 51.9156C39.2222 51.8386 39.9916 51.8386 40.7553 51.9156L41.7996 55.0939L46.4768 54.8116L46.779 51.6106C47.7665 51.4675 48.7694 51.4675 49.757 51.6106C50.7556 51.8072 51.7225 52.1403 52.6302 52.6005L52.5422 55.5654L54.5471 56.4946L54.803 51.9156C53.6671 51.0055 52.3636 50.3274 50.9663 49.9196C49.5468 49.6344 48.0848 49.6344 46.6653 49.9196L45.6584 53.0515L45.3519 54.4111L42.5183 54.5835L41.2716 51.9156V49.9196C39.9065 49.7767 38.5301 49.7767 37.1649 49.9196C36.0525 50.1093 34.9729 50.4568 33.9588 50.952L34.5564 55.2603L36.1038 55.8918Z" fill="#FEF8E8"/>
<path d="M26.3019 58.7592C26.3019 58.7592 21.7956 63.3851 22.3471 65.3181C22.8985 67.2512 34.8805 74.8207 45.5314 75.0935C56.1823 75.3663 66.8083 66.4204 67.0657 64.92C67.3231 63.4196 63.581 58.7599 63.581 58.7599L26.3019 58.7592Z" stroke="#FEF8E8" stroke-width="2.48205"/>
<path d="M22.4292 65.1824C23.9103 61.4783 26.3629 58.242 29.5286 55.8146C32.3468 53.6242 35.322 52.2215 40.756 51.6223C41.0493 51.5901 41.7885 54.689 41.7885 54.689L45.3819 54.519V51.1192C61.5585 50.6792 66.9103 64.82 66.9103 64.82C66.9103 64.82 56.2176 74.9818 45.5204 74.9708C34.8233 74.9598 22.4292 65.1824 22.4292 65.1824Z" fill="#FEF8E8"/>
<path d="M24.7387 60.9711L13.536 45.3313L12.8764 44.3706C12.8764 44.3706 12.6198 43.8623 12.9667 43.5639C14.2985 42.3848 15.9324 41.6005 17.6853 41.2987C18.6849 41.1841 19.6919 41.1436 20.6974 41.1777C21.3787 41.1945 21.24 41.1601 21.5876 41.2987C21.7973 41.3847 21.9724 41.5376 22.0861 41.7336L29.8598 55.683L27.7515 57.6021L29.4201 60.4732L27.7515 62.2103L24.7387 60.9711Z" fill="#FEF8E8"/>
<path d="M29.8152 55.6888L18.3856 33.036L17.7253 31.521C17.6662 31.3753 17.6639 31.2128 17.7181 31.0653C17.7723 30.9178 17.8796 30.7959 18.0189 30.7232C18.6789 30.3976 21.0737 29.4765 25.118 29.5697C26.3396 29.5461 27.5538 29.7699 28.6866 30.2276C29.8194 30.6853 30.8478 31.3674 31.7102 32.233C31.9055 32.4315 32.0637 32.6633 32.1778 32.9173C32.3053 33.1866 32.4052 33.4682 32.4757 33.7577L37.5668 52.0711L36.5098 52.407V55.688L34.4645 56.5379L32.2451 54.558L29.8152 55.6888Z" fill="#FEF8E8"/>
<path d="M64.2313 60.907L75.464 45.262L76.1207 44.3013C76.1207 44.3013 76.3781 43.7931 76.0312 43.4946C74.6989 42.3158 73.0642 41.5314 71.3111 41.2294C70.3115 41.1148 69.3052 41.0743 68.2997 41.1084C67.6184 41.1253 67.7571 41.0908 67.4095 41.2294C67.1999 41.3154 67.0241 41.4683 66.9104 41.6643L59.1373 55.6137L61.2464 57.5328L59.5763 60.4039L61.2464 62.1411L64.2313 60.907Z" fill="#FEF8E8"/>
<path d="M59.1861 55.6189L70.6158 32.9661L71.2761 31.4511C71.335 31.3054 71.3375 31.1431 71.2833 30.9956C71.229 30.8482 71.1217 30.7262 70.9825 30.6533C70.3225 30.3277 67.927 29.4067 63.8826 29.4998C62.6611 29.4763 61.4475 29.7 60.3148 30.1577C59.1821 30.6155 58.1535 31.2976 57.2912 32.1631C57.0957 32.3615 56.9374 32.5933 56.8236 32.8474C56.6961 33.1167 56.5961 33.3983 56.5256 33.6878L51.4654 51.9323L52.4923 52.4773V55.6182L54.5376 56.4681L56.7562 54.4881C57.1496 54.6077 57.5343 54.7546 57.9071 54.928C58.5114 55.211 59.1861 55.6189 59.1861 55.6189Z" fill="#FEF8E8"/>
<path d="M65.4223 59.8966L62.0489 61.9109C61.8649 62.0239 61.6507 62.0774 61.4352 62.0642C61.2119 62.0088 61.0072 61.8955 60.8418 61.7356L60.0352 60.9114C59.8811 60.759 59.7816 60.56 59.7521 60.3452C59.7682 60.1102 59.8475 59.8841 59.9817 59.6905L60.8294 58.2092C60.9532 58.0458 61.0323 57.8528 61.0589 57.6495C61.0057 57.2039 60.7891 56.7941 60.451 56.499C60.0786 56.1176 59.6555 55.7893 59.1934 55.5236C58.7496 55.2658 58.2909 55.0343 57.8198 54.8306C57.4446 54.6857 57.029 54.6857 56.6538 54.8306L55.5993 55.5515L54.4024 56.5319C53.7005 56.2721 53.0197 55.9585 52.366 55.594L52.5127 53.6405V53.0171C52.5127 53.0171 52.429 52.41 52.0455 52.2193C51.4802 51.9567 50.8879 51.757 50.279 51.6238C49.5075 51.4437 48.71 51.4027 47.9242 51.5028C47.8117 51.5198 47.7039 51.5597 47.6076 51.6203C47.5114 51.6808 47.4287 51.7607 47.3647 51.8548C47.2315 52.0659 47.1211 52.2906 47.0354 52.5251L46.5397 54.109C46.4738 54.3204 46.3461 54.5071 46.173 54.6451C45.973 54.7467 45.7478 54.7881 45.5247 54.764L42.2306 54.9385C42.0145 54.8888 41.8134 54.7881 41.6439 54.6451C41.5055 54.4896 41.4125 54.2991 41.3748 54.0944L40.904 52.5478C40.8618 52.3413 40.7801 52.1448 40.6634 51.9692C40.5344 51.8621 40.5264 51.8072 40.0431 51.7844C39.5539 51.7637 39.0639 51.7764 38.5764 51.8226C38.0109 51.8993 37.4577 52.0491 36.9308 52.2684C36.836 52.2881 36.7477 52.3317 36.6742 52.3948C36.6008 52.4579 36.5445 52.5384 36.5106 52.6291C36.4402 52.8199 36.4219 53.0259 36.4578 53.226L36.5972 55.0139C36.6487 55.1936 36.6487 55.3842 36.5972 55.5639C36.5142 55.7445 36.3884 55.9023 36.2305 56.0231L34.8613 56.5701C34.7665 56.6163 34.6624 56.6404 34.557 56.6404C34.4515 56.6404 34.3475 56.6163 34.2527 56.5701C33.9769 56.4028 33.7313 56.1904 33.526 55.9417L32.8703 55.308C32.6896 55.1118 32.4882 54.9355 32.2698 54.7822C32.1469 54.7154 32.0092 54.6803 31.8694 54.6803C31.7295 54.6803 31.5918 54.7154 31.4689 54.7822C30.8416 55.0443 30.2469 55.3788 29.6972 55.7789C29.1507 56.2208 28.6534 56.7201 28.2137 57.2683C28.1453 57.3519 28.096 57.4493 28.0691 57.5539C28.0423 57.6585 28.0385 57.7678 28.0582 57.874C28.0875 58.0715 28.1397 58.2649 28.2137 58.4503L28.9785 59.741C29.1089 59.9449 29.1927 60.1749 29.2242 60.4149C29.2205 60.6182 29.1493 60.8147 29.0218 60.9731L28.0582 61.9095C27.8476 62.0501 27.6034 62.1321 27.3506 62.1471C27.0896 62.125 26.8379 62.0397 26.6172 61.8986L24.5639 60.7986L23.6839 60.2734" stroke="url(#paint5_linear_4799_3129)" stroke-width="1.24103"/>
<path d="M37.5596 73.5145L35.1899 72.6286C35.1899 72.6286 37.473 63.1973 46.1784 63.3066C54.8838 63.4158 56.7129 71.9599 56.7129 71.9599L54.3088 73.0438C54.3088 73.0438 52.9522 66.1988 46.1784 65.8571C39.4046 65.5154 37.5596 73.5145 37.5596 73.5145Z" fill="url(#paint6_linear_4799_3129)"/>
<path d="M32.8427 71.5602C32.8427 71.5602 32.2401 71.3211 31.641 71.0161C31.0419 70.711 30.4493 70.3413 30.4493 70.3413C30.4493 70.3413 35.4281 57.3283 46.1802 58.2853C49.4311 58.6241 52.6497 59.6442 54.7346 61.1952C57.5128 63.3691 59.6506 66.2543 60.9221 69.5449L58.6619 70.8839C58.6619 70.8839 55.924 60.7428 45.8751 60.8264C35.8263 60.91 32.8427 71.5602 32.8427 71.5602Z" fill="url(#paint7_linear_4799_3129)"/>
</g>
<defs>
<filter id="filter0_d_4799_3129" x="5.82949" y="56.7367" width="47.252" height="31.4" filterUnits="userSpaceOnUse" color-interpolation-filters="sRGB">
<feFlood flood-opacity="0" result="BackgroundImageFix"/>
<feColorMatrix in="SourceAlpha" type="matrix" values="0 0 0 0 0 0 0 0 0 0 0 0 0 0 0 0 0 0 127 0" result="hardAlpha"/>
<feOffset dy="4.9641"/>
<feGaussianBlur stdDeviation="6.20513"/>
<feColorMatrix type="matrix" values="0 0 0 0 0 0 0 0 0 0 0 0 0 0 0 0 0 0 0.078 0"/>
<feBlend mode="normal" in2="BackgroundImageFix" result="effect1_dropShadow_4799_3129"/>
<feBlend mode="normal" in="SourceGraphic" in2="effect1_dropShadow_4799_3129" result="shape"/>
</filter>
<filter id="filter1_d_4799_3129" x="-4.78813" y="47.3969" width="55.0852" height="35.0639" filterUnits="userSpaceOnUse" color-interpolation-filters="sRGB">
<feFlood flood-opacity="0" result="BackgroundImageFix"/>
<feColorMatrix in="SourceAlpha" type="matrix" values="0 0 0 0 0 0 0 0 0 0 0 0 0 0 0 0 0 0 127 0" result="hardAlpha"/>
<feOffset dy="4.9641"/>
<feGaussianBlur stdDeviation="6.20513"/>
<feColorMatrix type="matrix" values="0 0 0 0 0 0 0 0 0 0 0 0 0 0 0 0 0 0 0.078 0"/>
<feBlend mode="normal" in2="BackgroundImageFix" result="effect1_dropShadow_4799_3129"/>
<feBlend mode="normal" in="SourceGraphic" in2="effect1_dropShadow_4799_3129" result="shape"/>
</filter>
<filter id="filter2_d_4799_3129" x="-4.05009" y="30.8231" width="50.6179" height="48.516" filterUnits="userSpaceOnUse" color-interpolation-filters="sRGB">
<feFlood flood-opacity="0" result="BackgroundImageFix"/>
<feColorMatrix in="SourceAlpha" type="matrix" values="0 0 0 0 0 0 0 0 0 0 0 0 0 0 0 0 0 0 127 0" result="hardAlpha"/>
<feOffset dy="4.9641"/>
<feGaussianBlur stdDeviation="6.20513"/>
<feColorMatrix type="matrix" values="0 0 0 0 0 0 0 0 0 0 0 0 0 0 0 0 0 0 0.078 0"/>
<feBlend mode="normal" in2="BackgroundImageFix" result="effect1_dropShadow_4799_3129"/>
<feBlend mode="normal" in="SourceGraphic" in2="effect1_dropShadow_4799_3129" result="shape"/>
</filter>
<filter id="filter3_d_4799_3129" x="8.3677" y="14.4922" width="42.6345" height="64.4788" filterUnits="userSpaceOnUse" color-interpolation-filters="sRGB">
<feFlood flood-opacity="0" result="BackgroundImageFix"/>
<feColorMatrix in="SourceAlpha" type="matrix" values="0 0 0 0 0 0 0 0 0 0 0 0 0 0 0 0 0 0 127 0" result="hardAlpha"/>
<feOffset dy="4.9641"/>
<feGaussianBlur stdDeviation="6.20513"/>
<feColorMatrix type="matrix" values="0 0 0 0 0 0 0 0 0 0 0 0 0 0 0 0 0 0 0.078 0"/>
<feBlend mode="normal" in2="BackgroundImageFix" result="effect1_dropShadow_4799_3129"/>
<feBlend mode="normal" in="SourceGraphic" in2="effect1_dropShadow_4799_3129" result="shape"/>
</filter>
<filter id="filter4_d_4799_3129" x="35.9237" y="56.7367" width="47.252" height="31.4" filterUnits="userSpaceOnUse" color-interpolation-filters="sRGB">
<feFlood flood-opacity="0" result="BackgroundImageFix"/>
<feColorMatrix in="SourceAlpha" type="matrix" values="0 0 0 0 0 0 0 0 0 0 0 0 0 0 0 0 0 0 127 0" result="hardAlpha"/>
<feOffset dy="4.9641"/>
<feGaussianBlur stdDeviation="6.20513"/>
<feColorMatrix type="matrix" values="0 0 0 0 0 0 0 0 0 0 0 0 0 0 0 0 0 0 0.078 0"/>
<feBlend mode="normal" in2="BackgroundImageFix" result="effect1_dropShadow_4799_3129"/>
<feBlend mode="normal" in="SourceGraphic" in2="effect1_dropShadow_4799_3129" result="shape"/>
</filter>
<filter id="filter5_d_4799_3129" x="38.6952" y="47.3969" width="55.0859" height="35.0639" filterUnits="userSpaceOnUse" color-interpolation-filters="sRGB">
<feFlood flood-opacity="0" result="BackgroundImageFix"/>
<feColorMatrix in="SourceAlpha" type="matrix" values="0 0 0 0 0 0 0 0 0 0 0 0 0 0 0 0 0 0 127 0" result="hardAlpha"/>
<feOffset dy="4.9641"/>
<feGaussianBlur stdDeviation="6.20513"/>
<feColorMatrix type="matrix" values="0 0 0 0 0 0 0 0 0 0 0 0 0 0 0 0 0 0 0.078 0"/>
<feBlend mode="normal" in2="BackgroundImageFix" result="effect1_dropShadow_4799_3129"/>
<feBlend mode="normal" in="SourceGraphic" in2="effect1_dropShadow_4799_3129" result="shape"/>
</filter>
<filter id="filter6_d_4799_3129" x="42.4345" y="30.8231" width="50.6179" height="48.516" filterUnits="userSpaceOnUse" color-interpolation-filters="sRGB">
<feFlood flood-opacity="0" result="BackgroundImageFix"/>
<feColorMatrix in="SourceAlpha" type="matrix" values="0 0 0 0 0 0 0 0 0 0 0 0 0 0 0 0 0 0 127 0" result="hardAlpha"/>
<feOffset dy="4.9641"/>
<feGaussianBlur stdDeviation="6.20513"/>
<feColorMatrix type="matrix" values="0 0 0 0 0 0 0 0 0 0 0 0 0 0 0 0 0 0 0.078 0"/>
<feBlend mode="normal" in2="BackgroundImageFix" result="effect1_dropShadow_4799_3129"/>
<feBlend mode="normal" in="SourceGraphic" in2="effect1_dropShadow_4799_3129" result="shape"/>
</filter>
<filter id="filter7_d_4799_3129" x="37.9969" y="14.4922" width="42.6301" height="64.4788" filterUnits="userSpaceOnUse" color-interpolation-filters="sRGB">
<feFlood flood-opacity="0" result="BackgroundImageFix"/>
<feColorMatrix in="SourceAlpha" type="matrix" values="0 0 0 0 0 0 0 0 0 0 0 0 0 0 0 0 0 0 127 0" result="hardAlpha"/>
<feOffset dy="4.9641"/>
<feGaussianBlur stdDeviation="6.20513"/>
<feColorMatrix type="matrix" values="0 0 0 0 0 0 0 0 0 0 0 0 0 0 0 0 0 0 0.078 0"/>
<feBlend mode="normal" in2="BackgroundImageFix" result="effect1_dropShadow_4799_3129"/>
<feBlend mode="normal" in="SourceGraphic" in2="effect1_dropShadow_4799_3129" result="shape"/>
</filter>
<filter id="filter8_d_4799_3129" x="17.5803" y="9.79229" width="53.7827" height="68.5615" filterUnits="userSpaceOnUse" color-interpolation-filters="sRGB">
<feFlood flood-opacity="0" result="BackgroundImageFix"/>
<feColorMatrix in="SourceAlpha" type="matrix" values="0 0 0 0 0 0 0 0 0 0 0 0 0 0 0 0 0 0 127 0" result="hardAlpha"/>
<feOffset dy="4.9641"/>
<feGaussianBlur stdDeviation="6.20513"/>
<feColorMatrix type="matrix" values="0 0 0 0 0 0 0 0 0 0 0 0 0 0 0 0 0 0 0.078 0"/>
<feBlend mode="normal" in2="BackgroundImageFix" result="effect1_dropShadow_4799_3129"/>
<feBlend mode="normal" in="SourceGraphic" in2="effect1_dropShadow_4799_3129" result="shape"/>
</filter>
<linearGradient id="paint0_linear_4799_3129" x1="44.5" y1="0" x2="44.5" y2="88" gradientUnits="userSpaceOnUse">
<stop stop-color="#EDBC2F"/>
<stop offset="1" stop-color="#FF7600"/>
</linearGradient>
<linearGradient id="paint1_linear_4799_3129" x1="44.5" y1="0" x2="44.5" y2="88" gradientUnits="userSpaceOnUse">
<stop stop-color="#FF6C58"/>
<stop offset="1" stop-color="#C61F1B"/>
</linearGradient>
<linearGradient id="paint2_linear_4799_3129" x1="44.5" y1="0" x2="44.5" y2="88" gradientUnits="userSpaceOnUse">
<stop stop-color="#EDBC2F"/>
<stop offset="1" stop-color="#FF7600"/>
</linearGradient>
<linearGradient id="paint3_linear_4799_3129" x1="44.5" y1="0" x2="44.5" y2="88" gradientUnits="userSpaceOnUse">
<stop stop-color="#FF6C58"/>
<stop offset="1" stop-color="#C61F1B"/>
</linearGradient>
<linearGradient id="paint4_linear_4799_3129" x1="44.383" y1="22.2882" x2="44.383" y2="38.1113" gradientUnits="userSpaceOnUse">
<stop stop-color="#FF6C58"/>
<stop offset="1" stop-color="#C61F1B"/>
</linearGradient>
<linearGradient id="paint5_linear_4799_3129" x1="44.5531" y1="51.4494" x2="44.5531" y2="62.1471" gradientUnits="userSpaceOnUse">
<stop stop-color="#FF6C58"/>
<stop offset="1" stop-color="#C61F1B"/>
</linearGradient>
<linearGradient id="paint6_linear_4799_3129" x1="45.9514" y1="63.3056" x2="45.9514" y2="73.5145" gradientUnits="userSpaceOnUse">
<stop stop-color="#FF6C58"/>
<stop offset="1" stop-color="#C61F1B"/>
</linearGradient>
<linearGradient id="paint7_linear_4799_3129" x1="45.6857" y1="58.235" x2="45.6857" y2="71.5602" gradientUnits="userSpaceOnUse">
<stop stop-color="#FF6C58"/>
<stop offset="1" stop-color="#C61F1B"/>
</linearGradient>
<clipPath id="clip0_4799_3129">
<rect x="0.5" width="88" height="88" rx="44" fill="white"/>
</clipPath>
</defs>
</svg>
