<svg xmlns="http://www.w3.org/2000/svg" xmlns:xlink="http://www.w3.org/1999/xlink" width="20" height="20" viewBox="0 0 20 20">
  <defs>
    <clipPath id="clip-path">
      <rect id="Rectangle_15804" data-name="Rectangle 15804" width="20" height="20" fill="#313949" stroke="#313949" stroke-width="0.3"/>
    </clipPath>
  </defs>
  <g id="Mask_Group_24398" data-name="Mask Group 24398" clip-path="url(#clip-path)">
    <g id="id-card-alt" transform="translate(0.2 1.088)">
      <path id="Path_82923" data-name="Path 82923" d="M9.788,7.069a2.719,2.719,0,1,0,2.719,2.719A2.718,2.718,0,0,0,9.788,7.069Zm0,4.35a1.631,1.631,0,1,1,1.631-1.631A1.632,1.632,0,0,1,9.788,11.419ZM17.4,2.175H11.963V1.088A1.086,1.086,0,0,0,10.875,0H8.7A1.086,1.086,0,0,0,7.613,1.088V2.175H2.175A2.177,2.177,0,0,0,0,4.35V15.226A2.177,2.177,0,0,0,2.175,17.4H17.4a2.177,2.177,0,0,0,2.175-2.175V4.35A2.177,2.177,0,0,0,17.4,2.175ZM8.7,1.088h2.175V4.35H8.7Zm4.35,15.226H6.525v-.744a1.507,1.507,0,0,1,.258-.85,1.415,1.415,0,0,1,1.19-.585,15.349,15.349,0,0,0,1.815.272,15.232,15.232,0,0,0,1.815-.272,1.411,1.411,0,0,1,1.19.585,1.507,1.507,0,0,1,.258.85Zm5.438-1.088A1.091,1.091,0,0,1,17.4,16.313H14.138v-.744a2.6,2.6,0,0,0-.442-1.455,2.493,2.493,0,0,0-2.09-1.064c-.754,0-.945.272-1.815.272s-1.06-.272-1.815-.272a2.493,2.493,0,0,0-2.09,1.064,2.6,2.6,0,0,0-.442,1.455v.744H2.175a1.091,1.091,0,0,1-1.088-1.088V4.35A1.091,1.091,0,0,1,2.175,3.263H7.613V5.438h4.35V3.263H17.4A1.091,1.091,0,0,1,18.488,4.35Z" fill="#313949" stroke="#313949" stroke-width="0.3"/>
    </g>
  </g>
</svg>
