<svg xmlns="http://www.w3.org/2000/svg" xmlns:xlink="http://www.w3.org/1999/xlink" width="100" height="100" viewBox="0 0 100 100">
  <defs>
    <linearGradient id="linear-gradient" x1="0.5" x2="0.5" y2="1" gradientUnits="objectBoundingBox">
      <stop offset="0" stop-color="#00bdb4"/>
      <stop offset="1" stop-color="#6ce0db"/>
    </linearGradient>
    <clipPath id="clip-path">
      <rect id="Rectangle_10977" data-name="Rectangle 10977" width="52" height="52" transform="translate(210 809)" fill="#fff" stroke="#707070" stroke-width="1"/>
    </clipPath>
  </defs>
  <g id="Group_19659" data-name="Group 19659" transform="translate(-294 -393)">
    <rect id="Rectangle_10595" data-name="Rectangle 10595" width="100" height="100" rx="24" transform="translate(294 393)" fill="url(#linear-gradient)"/>
    <g id="Mask_Group_19442" data-name="Mask Group 19442" transform="translate(108 -391)" clip-path="url(#clip-path)">
      <g id="Group_16164" data-name="Group 16164" transform="translate(210.478 809)">
        <g id="Group_16163" data-name="Group 16163" transform="translate(4.451)">
          <g id="Group_16162" data-name="Group 16162" transform="translate(5.217 4.824)">
            <g id="Group_16160" data-name="Group 16160" transform="translate(3.449 1)">
              <g id="Group_16159" data-name="Group 16159">
                <g id="Group_16158" data-name="Group 16158">
                  <g id="Group_16157" data-name="Group 16157">
                    <g id="Group_16155" data-name="Group 16155">
                      <path id="Path_57347" data-name="Path 57347" d="M19.621,8.553H12.087a.762.762,0,1,1,0-1.524h7.535a.762.762,0,1,1,0,1.524Z" transform="translate(-11.325 -7.028)" fill="#fff"/>
                      <path id="Path_57347_-_Outline" data-name="Path 57347 - Outline" d="M12.087,9.053h0a1.262,1.262,0,0,1,0-2.524h7.535a1.262,1.262,0,0,1,0,2.524Zm0-1.524a.262.262,0,0,0,0,.524h7.535a.262.262,0,0,0,0-.524Z" transform="translate(-11.325 -7.028)" fill="#fff"/>
                    </g>
                    <g id="Group_16156" data-name="Group 16156" transform="translate(0 4.582)">
                      <path id="Path_57348" data-name="Path 57348" d="M19.621,15.228H12.087a.762.762,0,0,1,0-1.524h7.535a.762.762,0,1,1,0,1.524Z" transform="translate(-11.325 -13.704)" fill="#fff"/>
                      <path id="Path_57348_-_Outline" data-name="Path 57348 - Outline" d="M19.621,15.728H12.087a1.262,1.262,0,1,1,0-2.524h7.535a1.262,1.262,0,0,1,0,2.524ZM12.087,14.2a.262.262,0,1,0,0,.524h7.535a.262.262,0,1,0,0-.524Z" transform="translate(-11.325 -13.704)" fill="#fff"/>
                    </g>
                  </g>
                </g>
              </g>
            </g>
            <g id="Group_16161" data-name="Group 16161" transform="translate(3.449 35.48)">
              <path id="Path_57349" data-name="Path 57349" d="M14.826,63.673a.6.6,0,0,1-.386-.139c-.448-.36-.2-.906.242-1.9a7.047,7.047,0,0,0,.641-1.825c-.24-.069-.882.15-2.042,1.365a20.37,20.37,0,0,0-1.71,2.086.537.537,0,1,1-.88-.615A21.1,21.1,0,0,1,12.5,60.443c.555-.582,2.245-2.354,3.494-1.487.784.544.276,1.765-.266,2.974,2.173-1.444,2.976-1.071,4.038-.367a3.942,3.942,0,0,0,2.515.8.537.537,0,1,1,0,1.073,5.032,5.032,0,0,1-3.108-.981c-.477-.317-.724-.467-1.115-.432A5.773,5.773,0,0,0,15.649,63.3a1.531,1.531,0,0,1-.823.375Z" transform="translate(-10.595 -58.722)" fill="#fff"/>
              <path id="Path_57349_-_Outline" data-name="Path 57349 - Outline" d="M14.827,64.173h0a1.1,1.1,0,0,1-.7-.252,1.143,1.143,0,0,1-.387-1.2,6.652,6.652,0,0,1,.49-1.292c.135-.3.24-.545.321-.745a8.333,8.333,0,0,0-.9.836,19.928,19.928,0,0,0-1.663,2.03,1.037,1.037,0,0,1-1.7-1.19A21.686,21.686,0,0,1,12.133,60.1c.492-.516,1.792-1.879,3.107-1.879a1.785,1.785,0,0,1,1.037.324c.75.521.708,1.384.442,2.247a3.5,3.5,0,0,1,1.441-.351,3.309,3.309,0,0,1,1.881.705,3.438,3.438,0,0,0,2.239.719,1.037,1.037,0,0,1,0,2.073A5.54,5.54,0,0,1,18.9,62.875c-.413-.274-.559-.353-.73-.353l-.064,0A5.228,5.228,0,0,0,15.947,63.7a2.153,2.153,0,0,1-.976.464l-.016.009Zm-.05-1.012a.1.1,0,0,0,.042.011h.007a1.267,1.267,0,0,0,.525-.277,6.056,6.056,0,0,1,2.659-1.368c.053,0,.1-.007.155-.007a2.24,2.24,0,0,1,1.282.52,4.536,4.536,0,0,0,2.832.9.037.037,0,0,0,0-.073,4.417,4.417,0,0,1-2.79-.885,2.367,2.367,0,0,0-1.33-.54A4.274,4.274,0,0,0,16,62.347Zm.463-3.94c-.887,0-2.011,1.179-2.381,1.567a20.658,20.658,0,0,0-1.761,2.15.036.036,0,0,0,.012.047.034.034,0,0,0,.02.007.036.036,0,0,0,.03-.016l0,0a20.944,20.944,0,0,1,1.752-2.138c.974-1.019,1.752-1.534,2.317-1.534a.827.827,0,0,1,.227.03l.307.088a.392.392,0,0,0-.061-.052A.792.792,0,0,0,15.24,59.222Zm.564.242.018.32a5.87,5.87,0,0,1-.684,2.058,6.246,6.246,0,0,0-.422,1.078c-.005.026-.009.048-.011.067l.564-1.26C15.706,60.751,16.072,59.847,15.8,59.464Z" transform="translate(-10.595 -58.722)" fill="#fff"/>
            </g>
          </g>
          <path id="Path_57350" data-name="Path 57350" d="M51.747,18.056l-.336-.323a1.039,1.039,0,0,0-1.45.244l-.806,1.133a1.271,1.271,0,0,0-.949.531L37.468,34.72a17.63,17.63,0,0,0-2.22,4.658,1.153,1.153,0,0,0,1.812,1.29,17.622,17.622,0,0,0,3.675-3.622l9.9-13.9.663.472a.18.18,0,0,1,.042.25L49.02,27.121a.537.537,0,1,0,.875.623l2.316-3.252a1.256,1.256,0,0,0-.294-1.749l-.663-.472.217-.3a1.267,1.267,0,0,0,.192-1.072l.806-1.132a1.039,1.039,0,0,0,.179-.776c-.046-.272-.676-.772-.9-.932Zm-.931.573.758.54-.618.868L50.2,19.5ZM49.08,20.264a.2.2,0,0,1,.277-.047l1.193.85a.2.2,0,0,1,.047.277L42.179,33.166l-1.517-1.08ZM39.86,36.423a12.479,12.479,0,0,1-2.278,2.432l-1.2.981a.079.079,0,0,1-.124-.088l.533-1.456a12.488,12.488,0,0,1,1.553-2.948l1.7-2.382,1.517,1.08Z" transform="translate(-10.519 -1.82)" fill="#fff"/>
          <path id="Path_57350_-_Outline" data-name="Path 57350 - Outline" d="M50.807,17.04a1.531,1.531,0,0,1,.894.286l.03.021.338.324c.382.275,1,.781,1.073,1.234a1.529,1.529,0,0,1-.265,1.149l-.681.957a1.757,1.757,0,0,1-.246,1.141l.259.184a1.759,1.759,0,0,1,.412,2.446L50.3,28.035a1.037,1.037,0,0,1-1.757-1.1l-7.4,10.4a14.938,14.938,0,0,1-3.153,3.215c-.232.184-.432.344-.6.491l-.016.013a1.653,1.653,0,0,1-2.6-1.85l.007-.019c.085-.206.17-.447.269-.727a14.941,14.941,0,0,1,2.006-4.03L47.8,19.351a1.763,1.763,0,0,1,1.073-.705l.682-.958a1.539,1.539,0,0,1,1.254-.647Zm.059,1h-.012l.784.558c-.061-.048-.122-.095-.181-.137Zm.207,2.691L49.5,19.614l1.088-1.528a.536.536,0,0,0-.22.18l-.943,1.326-.236.016a.768.768,0,0,0-.576.322L37.875,35.01A14.062,14.062,0,0,0,36,38.792c-.1.288-.19.538-.283.766a.653.653,0,0,0,1.023.728c.184-.163.391-.327.63-.517a14.058,14.058,0,0,0,2.961-3.012L50.515,22.45l1.07.762a.681.681,0,0,1,.159.948l-2.316,3.252a.037.037,0,0,0,.009.052.035.035,0,0,0,.021.007.036.036,0,0,0,.031-.016L51.8,24.2a.757.757,0,0,0-.177-1.052l-1.07-.762.507-.711a.764.764,0,0,0,.117-.65l-.063-.229.944-1.325a.537.537,0,0,0,.1-.267Zm-1.831-1.054a.7.7,0,0,1,.4.129l1.194.85a.7.7,0,0,1,.164.975L42.3,33.863,39.965,32.2l8.707-12.229A.7.7,0,0,1,49.242,19.681Zm.773,1.619-.7-.5L41.36,31.968l.7.5ZM39.921,32.264l2.332,1.66-1.986,2.788A12.98,12.98,0,0,1,37.9,39.242l-1.2.981a.579.579,0,0,1-.91-.648l.533-1.456a12.991,12.991,0,0,1,1.615-3.066Zm.937,1.895-.7-.5L38.75,35.633a11.99,11.99,0,0,0-1.491,2.83l-.005.015.012-.01a11.981,11.981,0,0,0,2.187-2.335Z" transform="translate(-10.519 -1.82)" fill="#fff"/>
          <path id="Path_57351" data-name="Path 57351" d="M42.059,15.727a.762.762,0,0,0,.762-.762V11.221a3.31,3.31,0,0,0-.976-2.356L33.956.976A3.31,3.31,0,0,0,31.6,0H8.6A4.158,4.158,0,0,0,4.451,4.154V47.846A4.158,4.158,0,0,0,8.6,52H38.667a4.158,4.158,0,0,0,4.154-4.154V30.4a.762.762,0,0,0-1.524,0V47.846a2.633,2.633,0,0,1-2.63,2.63H8.6a2.633,2.633,0,0,1-2.63-2.63V4.154A2.633,2.633,0,0,1,8.6,1.524h23a1.822,1.822,0,0,1,.3.027V6.765a4.158,4.158,0,0,0,4.154,4.154H41.27a1.821,1.821,0,0,1,.027.3v3.744a.762.762,0,0,0,.762.762ZM33.426,6.765V2.6L40.219,9.4H36.056a2.633,2.633,0,0,1-2.63-2.63Z" transform="translate(-4.451)" fill="#fff"/>
          <path id="Path_57351_-_Outline" data-name="Path 57351 - Outline" d="M31.609-.5A3.835,3.835,0,0,1,34.31.623L42.2,8.512a3.834,3.834,0,0,1,1.122,2.711v3.742a1.262,1.262,0,0,1-1.262,1.262h-.076l-.01,0A1.263,1.263,0,0,1,40.8,14.965V11.419H36.056A4.665,4.665,0,0,1,31.4,6.766V2.024H8.6a2.136,2.136,0,0,0-2.13,2.13V47.846a2.136,2.136,0,0,0,2.131,2.13H38.667a2.136,2.136,0,0,0,2.13-2.131V30.4a1.262,1.262,0,1,1,2.524,0V47.846A4.665,4.665,0,0,1,38.668,52.5H8.6a4.665,4.665,0,0,1-4.654-4.653V4.154A4.665,4.665,0,0,1,8.6-.5ZM42.068,15.227a.262.262,0,0,0,.253-.262V11.221a2.829,2.829,0,0,0-.828-2L33.6,1.329A2.829,2.829,0,0,0,31.609.5H8.6A3.664,3.664,0,0,0,4.951,4.154V47.846A3.664,3.664,0,0,0,8.605,51.5H38.667a3.664,3.664,0,0,0,3.654-3.654V30.4a.262.262,0,1,0-.524,0V47.846a3.138,3.138,0,0,1-3.13,3.13H8.6a3.138,3.138,0,0,1-3.13-3.13V4.154A3.138,3.138,0,0,1,8.6,1.024h23a2.339,2.339,0,0,1,.388.034l.414.072V6.765a3.664,3.664,0,0,0,3.654,3.654H41.69l.072.414a2.328,2.328,0,0,1,.034.385v3.746a.262.262,0,0,0,.262.262ZM32.926,1.394l8.5,8.5h-5.37a3.138,3.138,0,0,1-3.13-3.13Zm6.086,7.5L33.926,3.809V6.765a2.136,2.136,0,0,0,2.13,2.13Z" transform="translate(-4.451)" fill="#fff"/>
        </g>
      </g>
    </g>
  </g>
</svg>
