<svg xmlns="http://www.w3.org/2000/svg" xmlns:xlink="http://www.w3.org/1999/xlink" width="63.741" height="54.578" viewBox="0 0 63.741 54.578">
  <defs>
    <linearGradient id="linear-gradient" x1="0.5" x2="0.5" y2="1" gradientUnits="objectBoundingBox">
      <stop offset="0" stop-color="#edbc2f"/>
      <stop offset="1" stop-color="#ff7600"/>
    </linearGradient>
    <filter id="Path_77206" x="4.824" y="21.338" width="40.412" height="33.24" filterUnits="userSpaceOnUse">
      <feOffset dy="4" input="SourceAlpha"/>
      <feGaussianBlur stdDeviation="5" result="blur"/>
      <feFlood flood-opacity="0.078"/>
      <feComposite operator="in" in2="blur"/>
      <feComposite in="SourceGraphic"/>
    </filter>
    <filter id="Path_77207" x="0" y="17.094" width="43.975" height="34.916" filterUnits="userSpaceOnUse">
      <feOffset dy="4" input="SourceAlpha"/>
      <feGaussianBlur stdDeviation="5" result="blur-2"/>
      <feFlood flood-opacity="0.078"/>
      <feComposite operator="in" in2="blur-2"/>
      <feComposite in="SourceGraphic"/>
    </filter>
    <filter id="Path_77208" x="0.335" y="9.54" width="41.944" height="41.008" filterUnits="userSpaceOnUse">
      <feOffset dy="4" input="SourceAlpha"/>
      <feGaussianBlur stdDeviation="5" result="blur-3"/>
      <feFlood flood-opacity="0.078"/>
      <feComposite operator="in" in2="blur-3"/>
      <feComposite in="SourceGraphic"/>
    </filter>
    <filter id="Path_77209" x="5.979" y="2.135" width="38.313" height="48.244" filterUnits="userSpaceOnUse">
      <feOffset dy="4" input="SourceAlpha"/>
      <feGaussianBlur stdDeviation="5" result="blur-4"/>
      <feFlood flood-opacity="0.078"/>
      <feComposite operator="in" in2="blur-4"/>
      <feComposite in="SourceGraphic"/>
    </filter>
    <filter id="Path_77206-2" x="18.506" y="21.338" width="40.411" height="33.24" filterUnits="userSpaceOnUse">
      <feOffset dy="4" input="SourceAlpha"/>
      <feGaussianBlur stdDeviation="5" result="blur-5"/>
      <feFlood flood-opacity="0.078"/>
      <feComposite operator="in" in2="blur-5"/>
      <feComposite in="SourceGraphic"/>
    </filter>
    <filter id="Path_77207-2" x="19.767" y="17.094" width="43.975" height="34.918" filterUnits="userSpaceOnUse">
      <feOffset dy="4" input="SourceAlpha"/>
      <feGaussianBlur stdDeviation="5" result="blur-6"/>
      <feFlood flood-opacity="0.078"/>
      <feComposite operator="in" in2="blur-6"/>
      <feComposite in="SourceGraphic"/>
    </filter>
    <filter id="Path_77208-2" x="21.463" y="9.54" width="41.944" height="41.008" filterUnits="userSpaceOnUse">
      <feOffset dy="4" input="SourceAlpha"/>
      <feGaussianBlur stdDeviation="5" result="blur-7"/>
      <feFlood flood-opacity="0.078"/>
      <feComposite operator="in" in2="blur-7"/>
      <feComposite in="SourceGraphic"/>
    </filter>
    <filter id="Path_77209-2" x="19.448" y="2.135" width="38.313" height="48.244" filterUnits="userSpaceOnUse">
      <feOffset dy="4" input="SourceAlpha"/>
      <feGaussianBlur stdDeviation="5" result="blur-8"/>
      <feFlood flood-opacity="0.078"/>
      <feComposite operator="in" in2="blur-8"/>
      <feComposite in="SourceGraphic"/>
    </filter>
    <filter id="Path_77210" x="10.165" y="0" width="43.397" height="50.115" filterUnits="userSpaceOnUse">
      <feOffset dy="4" input="SourceAlpha"/>
      <feGaussianBlur stdDeviation="5" result="blur-9"/>
      <feFlood flood-opacity="0.078"/>
      <feComposite operator="in" in2="blur-9"/>
      <feComposite in="SourceGraphic"/>
    </filter>
    <linearGradient id="linear-gradient-3" x1="0.118" y1="0.457" x2="0.979" y2="0.889" gradientUnits="objectBoundingBox">
      <stop offset="0" stop-color="#fc8125"/>
      <stop offset="1" stop-color="#fc8024"/>
    </linearGradient>
    <linearGradient id="linear-gradient-4" x1="0.077" y1="0.338" x2="1" y2="0.896" gradientUnits="objectBoundingBox">
      <stop offset="0" stop-color="#fa8b27"/>
      <stop offset="1" stop-color="#fb8526"/>
    </linearGradient>
  </defs>
  <g id="Group_43323" data-name="Group 43323" transform="translate(11.871 3.273)">
    <rect id="Rectangle_13919" data-name="Rectangle 13919" width="40" height="40" rx="20" fill="url(#linear-gradient)"/>
    <g id="Group_34962" data-name="Group 34962" transform="translate(3.379 7.977)">
      <g transform="matrix(1, 0, 0, 1, -15.25, -11.25)" filter="url(#Path_77206)">
        <path id="Path_77206-3" data-name="Path 77206" d="M14809.355,2666.566l1.13-2.087s.952.646,4.3.326a16.558,16.558,0,0,0,4.483-.829,11.511,11.511,0,0,1-4.483,2.346A16.644,16.644,0,0,1,14809.355,2666.566Z" transform="translate(-14789.28 -2631.39)" fill="#fff" stroke="#fff" stroke-linecap="round" stroke-linejoin="round" stroke-width="0.5"/>
      </g>
      <g transform="matrix(1, 0, 0, 1, -15.25, -11.25)" filter="url(#Path_77207)">
        <path id="Path_77207-3" data-name="Path 77207" d="M14782.68,2632.5s-4.706,1-8.057.245a12.994,12.994,0,0,1-5.418-2.624,11.009,11.009,0,0,1,2.484-1.14c.993-.225,1.547-.328,1.547-.328a13.114,13.114,0,0,0,4.172,2.965A15.085,15.085,0,0,0,14782.68,2632.5Z" transform="translate(-14753.96 -2600.31)" fill="#fff" stroke="#fff" stroke-linecap="round" stroke-linejoin="round" stroke-width="0.5"/>
      </g>
      <g transform="matrix(1, 0, 0, 1, -15.25, -11.25)" filter="url(#Path_77208)">
        <path id="Path_77208-3" data-name="Path 77208" d="M14771.991,2565.965a7.8,7.8,0,0,1,3.071.341,10.031,10.031,0,0,1,2.113.787,9.4,9.4,0,0,0,.86,3.662,10.5,10.5,0,0,0,2.657,3.891,10.334,10.334,0,0,0,2.742,1.777,11.022,11.022,0,0,1-5.633-1.917,19.015,19.015,0,0,1-4.583-5.344A23.084,23.084,0,0,1,14771.991,2565.965Z" transform="translate(-14756.41 -2545.13)" fill="#fff" stroke="#fff" stroke-linecap="round" stroke-linejoin="round" stroke-width="0.5"/>
      </g>
      <g transform="matrix(1, 0, 0, 1, -15.25, -11.25)" filter="url(#Path_77209)">
        <path id="Path_77209-3" data-name="Path 77209" d="M14824.609,2507.083a18.716,18.716,0,0,0-1.835-1.711,23.367,23.367,0,0,0-2.029-1.2,12.368,12.368,0,0,0-1.21,2.788,15.479,15.479,0,0,0-.563,3.984,16.32,16.32,0,0,0,.7,4.347,9,9,0,0,0,1.652,3.157,11.619,11.619,0,0,0,3.565,2.84c.669.262,1.9.629,1.9.629a7.215,7.215,0,0,1-2.221-1.731,12.911,12.911,0,0,1-1.723-2.926,12.666,12.666,0,0,1-.158-5.386A28.741,28.741,0,0,1,14824.609,2507.083Z" transform="translate(-14797.74 -2490.78)" fill="#fff" stroke="#fff" stroke-linecap="round" stroke-linejoin="round" stroke-width="0.5"/>
      </g>
      <g transform="matrix(1, 0, 0, 1, -15.25, -11.25)" filter="url(#Path_77206-2)">
        <path id="Path_77206-4" data-name="Path 77206" d="M14819.268,2666.566l-1.131-2.087s-.951.646-4.3.326a16.555,16.555,0,0,1-4.482-.829,11.5,11.5,0,0,0,4.482,2.346A16.65,16.65,0,0,0,14819.268,2666.566Z" transform="translate(-14775.6 -2631.39)" fill="#fff" stroke="#fff" stroke-linecap="round" stroke-linejoin="round" stroke-width="0.5"/>
      </g>
      <g transform="matrix(1, 0, 0, 1, -15.25, -11.25)" filter="url(#Path_77207-2)">
        <path id="Path_77207-4" data-name="Path 77207" d="M14769.2,2632.5s4.706,1,8.058.245a12.994,12.994,0,0,0,5.417-2.624,10.994,10.994,0,0,0-2.483-1.14c-.994-.225-1.547-.328-1.547-.328a13.124,13.124,0,0,1-4.173,2.965A15.083,15.083,0,0,1,14769.2,2632.5Z" transform="translate(-14734.19 -2600.31)" fill="#fff" stroke="#fff" stroke-linecap="round" stroke-linejoin="round" stroke-width="0.5"/>
      </g>
      <g transform="matrix(1, 0, 0, 1, -15.25, -11.25)" filter="url(#Path_77208-2)">
        <path id="Path_77208-4" data-name="Path 77208" d="M14783.436,2565.965a7.809,7.809,0,0,0-3.072.341,10.03,10.03,0,0,0-2.112.787,9.4,9.4,0,0,1-.86,3.662,10.515,10.515,0,0,1-2.657,3.891,10.35,10.35,0,0,1-2.742,1.777,11.026,11.026,0,0,0,5.634-1.917,19.008,19.008,0,0,0,4.582-5.344A23.084,23.084,0,0,0,14783.436,2565.965Z" transform="translate(-14735.28 -2545.13)" fill="#fff" stroke="#fff" stroke-linecap="round" stroke-linejoin="round" stroke-width="0.5"/>
      </g>
      <g transform="matrix(1, 0, 0, 1, -15.25, -11.25)" filter="url(#Path_77209-2)">
        <path id="Path_77209-4" data-name="Path 77209" d="M14821.146,2507.083a18.6,18.6,0,0,1,1.835-1.711,23.4,23.4,0,0,1,2.028-1.2,12.342,12.342,0,0,1,1.211,2.788,15.434,15.434,0,0,1,.563,3.984,16.317,16.317,0,0,1-.7,4.347,9.018,9.018,0,0,1-1.652,3.157,11.63,11.63,0,0,1-3.565,2.84c-.669.262-1.9.629-1.9.629a7.215,7.215,0,0,0,2.221-1.731,12.994,12.994,0,0,0,1.723-2.926,12.682,12.682,0,0,0,.158-5.386A28.741,28.741,0,0,0,14821.146,2507.083Z" transform="translate(-14784.27 -2490.78)" fill="#fff" stroke="#fff" stroke-linecap="round" stroke-linejoin="round" stroke-width="0.5"/>
      </g>
      <g transform="matrix(1, 0, 0, 1, -15.25, -11.25)" filter="url(#Path_77210)">
        <path id="Path_77210-2" data-name="Path 77210" d="M14859.838,2506a5.888,5.888,0,0,1-3.258-1.258,7.576,7.576,0,0,1-2.754-5.6,13.276,13.276,0,0,1,2.094-7.484,25.737,25.737,0,0,1,4.345-5.255s5.416,4.178,6.339,10.945a7.9,7.9,0,0,1-3.416,7.727A5.86,5.86,0,0,1,14859.838,2506Z" transform="translate(-14828.39 -2475.15)" fill="#fff" stroke="#fff" stroke-linecap="round" stroke-linejoin="round" stroke-width="0.5"/>
      </g>
      <path id="Path_78220" data-name="Path 78220" d="M4.4,11.758c.152.016.29.026.426.045a4.109,4.109,0,0,1,.966.262,3.715,3.715,0,0,1,.907.526,3.822,3.822,0,0,1,.831.893,2.11,2.11,0,0,1,.148.227,5.838,5.838,0,0,1,.319.7,3.4,3.4,0,0,1,.176.686,4.837,4.837,0,0,1,.015,1.129,3.357,3.357,0,0,1-.234.9,3.91,3.91,0,0,1-.2.412c-.065.118-.141.229-.214.342-.02.032-.023.054.006.081q.314.292.626.586a.615.615,0,0,1,.049.063l-.95.987-.481-.465c-.061-.059-.122-.118-.179-.18a.066.066,0,0,0-.1-.013,5.2,5.2,0,0,1-1.057.493,3.832,3.832,0,0,1-1.67.165c-.21-.031-.416-.082-.623-.129a3.55,3.55,0,0,1-.987-.43c-.123-.071-.241-.149-.36-.227a.061.061,0,0,0-.09.006.168.168,0,0,0-.065.163.638.638,0,0,1-.121.457.55.55,0,0,1-.416.227.7.7,0,0,1-.476-.15.256.256,0,0,1-.059-.078.672.672,0,0,1-.077-.619.6.6,0,0,1,.447-.358.5.5,0,0,1,.114-.021.184.184,0,0,0,.134-.079c-.07-.09-.138-.181-.21-.269-.091-.112-.186-.22-.276-.333-.008-.01,0-.045.013-.057.1-.1.194-.192.291-.289s.166-.172.25-.258a.167.167,0,0,1,.021-.015c.138.115.271.235.412.343a4.331,4.331,0,0,0,.768.471,3.466,3.466,0,0,0,1.619.357,2.953,2.953,0,0,0,.942-.186c.138-.052.273-.111.409-.168.025-.011.048-.026.084-.045L3,15.46c-.1.089-.2.171-.287.26-.136.135-.267.275-.4.415-.029.031-.047.03-.075,0-.1-.1-.194-.207-.294-.308s-.229-.221-.342-.332c-.137-.135-.272-.271-.408-.407-.014-.014-.027-.029-.048-.053.057-.055.113-.1.164-.159.12-.128.237-.259.358-.386.105-.111.214-.219.32-.33.154-.161.307-.324.46-.486l.5-.526a1.05,1.05,0,0,0,.08-.089.118.118,0,0,1,.138-.042,1.334,1.334,0,0,0,.654,0,1.146,1.146,0,0,0,.439-.24l.05-.044.611.62-.976,1.044,2.6,2.579a.155.155,0,0,0,.025-.029,3.215,3.215,0,0,0,.186-.419,3.3,3.3,0,0,0,.14-1.006,4.633,4.633,0,0,0-.105-.83,3.228,3.228,0,0,0-.206-.659c-.08-.18-.171-.356-.266-.529-.072-.132-.153-.261-.238-.386-.063-.093-.144-.174-.21-.265a3.912,3.912,0,0,0-.5-.495,2.6,2.6,0,0,0-.473-.327C4.744,11.933,4.579,11.853,4.4,11.758Z" transform="translate(12.277 -4.401)" fill="#fa8007"/>
    </g>
    <g id="Group_36024" data-name="Group 36024">
      <rect id="Rectangle_15246" data-name="Rectangle 15246" width="40" height="40" rx="20" fill="url(#linear-gradient)"/>
    </g>
    <g id="Group_42780" data-name="Group 42780" transform="translate(5.585 7.977)">
      <path id="Path_82644" data-name="Path 82644" d="M8304.329,3632.2a3.517,3.517,0,0,0-2.413-1.7c-1.145-.068-3.037-.023-3.937,0-.115,0-.187.088-.137.316s.137.689.137.689l3.187,14.531s.441-.111.909-.2a1.912,1.912,0,0,1,.8,0,5.436,5.436,0,0,0,.622-1.842,1.285,1.285,0,0,0-.49-.961c-.173-.177,0-.518,0-.518h.49v-.664h.232a1.132,1.132,0,0,0,0-.869c-.209-.382.6-2.555.6-2.555s.673,1.542.819,1.913a13.385,13.385,0,0,1-.248,2.693,1.858,1.858,0,0,1,.233,0c-.015.01-.032.574-.032.547a.729.729,0,0,0-.307,0c0,.017.006,1.184.031,1.175s.295-.036.308,0a1.919,1.919,0,0,1,0,.261s-.356-.008-.339.039,0,2.018,0,2.018l.471-1.394a4.868,4.868,0,0,1,2.377.311l3.348-14.9a1.668,1.668,0,0,0,.053-.524c-.043-.108-.04-.081-.362-.122a16.253,16.253,0,0,0-2.839-.1,3.912,3.912,0,0,0-2.584.917C8305.016,3631.449,8304.329,3632.2,8304.329,3632.2Z" transform="translate(-8289.989 -3630.319)" fill="#fff"/>
      <path id="Path_82645" data-name="Path 82645" d="M8339.422,3650.523v3.537l-2.086,2.819" transform="translate(-8325.082 -3648.241)" fill="none"/>
      <path id="path17502" d="M-13029.934-1339.561l-2.336,1.693.895,2.75-2.336-1.7-2.342,1.7.895-2.75-2.331-1.693h2.884l.895-2.749.889,2.749Zm-.759.237h-2.14l-.889.834Zm-3.028.839v-3.192l-.646,2.117Zm1.781,2.6-.665-2-1.116-.586Zm-1.781-2.6-3.137-.88L-13035-1338Zm0,1.4v-1.382l-1.712,2.568Z" transform="translate(13048.072 1344.465)" fill="#f2a721" fill-rule="evenodd"/>
      <path id="Path_84977" data-name="Path 84977" d="M-1883.4-2045.992l.127-1.563a4.143,4.143,0,0,1,.943-.245,5.211,5.211,0,0,1,1.044,0l.475,1.445,2.126-.128.137-1.455a4.72,4.72,0,0,1,1.354,0,5.042,5.042,0,0,1,1.306.45l-.04,1.348.911.422.116-2.081a5.051,5.051,0,0,0-1.744-.907,4.965,4.965,0,0,0-1.955,0l-.458,1.424-.139.618-1.288.078-.568-1.213v-.907a8.974,8.974,0,0,0-1.866,0,5.386,5.386,0,0,0-1.457.469l.272,1.958Z" transform="translate(1893.998 2063.421)" fill="#fff"/>
      <path id="Path_84975" data-name="Path 84975" d="M-1830.287-2052.312s-2.048,2.1-1.8,2.981,5.7,4.319,10.538,4.443,9.671-3.942,9.788-4.624-1.584-2.8-1.584-2.8Z" transform="translate(1836.429 2071.044)" fill="none" stroke="#fff" stroke-width="2"/>
      <path id="Path_84972" data-name="Path 84972" d="M-1518.04-2364.339a10.084,10.084,0,0,1,3.227-4.258,9.135,9.135,0,0,1,5.1-1.906c.132-.015.469,1.394.469,1.394l1.635-.077v-1.545a10.233,10.233,0,0,1,9.786,6.228s-4.86,4.619-9.723,4.614S-1518.04-2364.339-1518.04-2364.339Z" transform="translate(1522.423 2385.991)" fill="#fff"/>
      <g id="Group_40078" data-name="Group 40078" transform="translate(0 5.463)">
        <path id="Path_82642" data-name="Path 82642" d="M8233.383,3734.859l-5.092-7.109-.3-.437s-.116-.231.041-.368a4.355,4.355,0,0,1,2.146-1.03,9.253,9.253,0,0,1,1.369-.055c.31.008.247-.008.4.055a.464.464,0,0,1,.227.2l3.535,6.341-.958.872.758,1.3-.758.79Z" transform="translate(-8227.951 -3720.584)" fill="#fff"/>
        <path id="Path_82643" data-name="Path 82643" d="M8253.223,3690.554l-5.2-10.3-.3-.688a.288.288,0,0,1,.135-.363,7.346,7.346,0,0,1,3.228-.524,4.118,4.118,0,0,1,3,1.21,1.088,1.088,0,0,1,.213.311,2.05,2.05,0,0,1,.135.382l2.314,8.324-.48.153v1.491l-.93.386-1.01-.9Z" transform="translate(-8245.483 -3678.679)" fill="#fff"/>
      </g>
      <g id="Group_42774" data-name="Group 42774" transform="translate(17.577 5.431)">
        <path id="Path_82642-2" data-name="Path 82642" d="M8230.268,3734.861l5.105-7.111.3-.437s.116-.231-.041-.368a4.355,4.355,0,0,0-2.146-1.03,9.253,9.253,0,0,0-1.369-.055c-.31.008-.247-.008-.4.055a.464.464,0,0,0-.227.2l-3.535,6.341.959.872-.759,1.3.759.79Z" transform="translate(-8224.461 -3720.584)" fill="#fff"/>
        <path id="Path_82643-2" data-name="Path 82643" d="M8251.22,3690.554l5.2-10.3.3-.688a.288.288,0,0,0-.135-.363,7.353,7.353,0,0,0-3.228-.524,4.116,4.116,0,0,0-3,1.21,1.069,1.069,0,0,0-.213.311,2.011,2.011,0,0,0-.136.382l-2.3,8.293.468.248v1.428l.93.386,1.009-.9a4.022,4.022,0,0,1,.523.2C8250.913,3690.367,8251.22,3690.554,8251.22,3690.554Z" transform="translate(-8247.707 -3678.679)" fill="#fff"/>
      </g>
      <path id="Path_84978" data-name="Path 84978" d="M-1810.419-2059.58l-1.532.916a.478.478,0,0,1-.279.07.594.594,0,0,1-.27-.15l-.368-.375a.447.447,0,0,1-.128-.257.592.592,0,0,1,.1-.3l.385-.673a.536.536,0,0,0,.1-.254.824.824,0,0,0-.276-.523,2.638,2.638,0,0,0-.572-.443,5.942,5.942,0,0,0-.624-.315.734.734,0,0,0-.53,0l-.479.328-.544.446a6.6,6.6,0,0,1-.926-.427l.066-.888v-.283s-.038-.276-.212-.362a3.857,3.857,0,0,0-.8-.271,3.024,3.024,0,0,0-1.07-.055.375.375,0,0,0-.255.16,1.594,1.594,0,0,0-.15.3l-.225.72a.5.5,0,0,1-.167.244.525.525,0,0,1-.295.054l-1.5.079a.629.629,0,0,1-.265-.133.517.517,0,0,1-.122-.25l-.214-.7a.744.744,0,0,0-.109-.263c-.059-.049-.062-.074-.282-.084a4.856,4.856,0,0,0-.668.017,3,3,0,0,0-.748.2.26.26,0,0,0-.191.164.519.519,0,0,0-.024.271l.063.813a.455.455,0,0,1,0,.25.553.553,0,0,1-.166.209l-.623.249a.315.315,0,0,1-.277,0,1.31,1.31,0,0,1-.33-.286l-.3-.288a1.687,1.687,0,0,0-.273-.239.381.381,0,0,0-.364,0,3.962,3.962,0,0,0-.805.453,4.464,4.464,0,0,0-.674.677.337.337,0,0,0-.071.275,1.175,1.175,0,0,0,.071.262l.348.587a.75.75,0,0,1,.112.306.416.416,0,0,1-.092.254l-.438.426a.648.648,0,0,1-.322.108.733.733,0,0,1-.335-.113l-.935-.5-.4-.239" transform="translate(1834.343 2078.828)" fill="none" stroke="#f88f11" stroke-width="1"/>
      <g id="Group_42777" data-name="Group 42777" transform="translate(8.028 18.494)">
        <path id="Path_82652" data-name="Path 82652" d="M8314.468,3824.2l-1.077-.4s1.037-4.287,4.994-4.237a5.051,5.051,0,0,1,4.789,3.933l-1.093.492a4.11,4.11,0,0,0-3.7-3.265C8315.306,3820.57,8314.468,3824.2,8314.468,3824.2Z" transform="translate(-8311.235 -3817.258)" fill="url(#linear-gradient-3)"/>
        <path id="Path_82653" data-name="Path 82653" d="M8295.539,3805.207s-.273-.109-.546-.247-.542-.307-.542-.307,2.264-5.915,7.15-5.48a8.224,8.224,0,0,1,3.889,1.323,8.889,8.889,0,0,1,2.813,3.8l-1.027.609s-1.245-4.61-5.812-4.572S8295.539,3805.207,8295.539,3805.207Z" transform="translate(-8294.451 -3799.15)" fill="url(#linear-gradient-4)"/>
      </g>
    </g>
  </g>
</svg>
