<svg xmlns="http://www.w3.org/2000/svg" width="16" height="16" viewBox="0 0 16 16">
  <g id="close-circle" transform="translate(0)">
    <path id="Path_56114" data-name="Path 56114" d="M9.25,17.25A7.991,7.991,0,0,1,3.6,3.6,7.991,7.991,0,1,1,14.9,14.9,7.943,7.943,0,0,1,9.25,17.25Zm0-14.884A6.875,6.875,0,0,0,4.389,14.111a6.875,6.875,0,1,0,9.722-9.722A6.834,6.834,0,0,0,9.25,2.366Z" transform="translate(-1.25 -1.25)" fill="#627282"/>
    <path id="Path_56115" data-name="Path 56115" d="M9.048,14.42A.628.628,0,0,1,8.6,13.347L13.347,8.6a.628.628,0,1,1,.889.889L9.493,14.236A.627.627,0,0,1,9.048,14.42Z" transform="translate(-3.42 -3.42)" fill="#627282"/>
    <path id="Path_56116" data-name="Path 56116" d="M13.791,14.42a.627.627,0,0,1-.444-.184L8.6,9.493A.628.628,0,0,1,9.493,8.6l4.743,4.743a.628.628,0,0,1-.444,1.073Z" transform="translate(-3.42 -3.42)" fill="#627282"/>
  </g>
</svg>
