<svg xmlns="http://www.w3.org/2000/svg" xmlns:xlink="http://www.w3.org/1999/xlink" width="120" height="120" viewBox="0 0 120 120"><defs><linearGradient id="a" x1="0.5" x2="0.5" y2="1" gradientUnits="objectBoundingBox"><stop offset="0" stop-color="#74c9f8"/><stop offset="1" stop-color="#3c6bcf"/></linearGradient></defs><g transform="translate(-687 -1636)"><rect width="120" height="120" rx="24" transform="translate(687 1636)" fill="url(#a)"/><path d="M156.379,121.784l-6.156-3.556a30.146,30.146,0,0,0,0-8.6l6.156-3.556a5.538,5.538,0,0,0,2.027-7.565l-5.538-9.592a5.538,5.538,0,0,0-7.565-2.027l-6.159,3.556a29.9,29.9,0,0,0-7.444-4.3v-7.1a5.538,5.538,0,0,0-5.538-5.538H115.085a5.538,5.538,0,0,0-5.538,5.538v7.1a29.9,29.9,0,0,0-7.444,4.3l-6.159-3.556a5.538,5.538,0,0,0-7.565,2.027L82.84,98.511a5.538,5.538,0,0,0,2.027,7.565l6.156,3.556a30.146,30.146,0,0,0,0,8.6l-6.156,3.556a5.538,5.538,0,0,0-2.027,7.565l5.538,9.592a5.538,5.538,0,0,0,7.565,2.027l6.159-3.556a29.9,29.9,0,0,0,7.444,4.3v7.1a5.538,5.538,0,0,0,5.538,5.538h11.077a5.538,5.538,0,0,0,5.538-5.538v-7.1a29.9,29.9,0,0,0,7.444-4.3l6.159,3.556a5.538,5.538,0,0,0,7.565-2.027l5.538-9.592A5.538,5.538,0,0,0,156.379,121.784Zm-35.756,5.439a13.292,13.292,0,1,1,13.292-13.292A13.291,13.291,0,0,1,120.623,127.222Z" transform="translate(626.377 1582.07)" fill="#fff"/></g></svg>