<svg id="Group_43320" data-name="Group 43320" xmlns="http://www.w3.org/2000/svg" xmlns:xlink="http://www.w3.org/1999/xlink" width="40" height="40" viewBox="0 0 40 40">
  <defs>
    <linearGradient id="linear-gradient" x1="0.058" y1="0.044" x2="0.855" y2="1" gradientUnits="objectBoundingBox">
      <stop offset="0" stop-color="#00c7be"/>
      <stop offset="1" stop-color="#00645f"/>
    </linearGradient>
    <clipPath id="clip-path">
      <rect id="Rectangle_16092" data-name="Rectangle 16092" width="18" height="18" fill="#fff" stroke="#707070" stroke-width="1"/>
    </clipPath>
  </defs>
  <rect id="Rectangle_13926" data-name="Rectangle 13926" width="40" height="40" rx="20" fill="url(#linear-gradient)"/>
  <g id="Mask_Group_24460" data-name="Mask Group 24460" transform="translate(11 11)" clip-path="url(#clip-path)">
    <g id="user" transform="translate(0.848 -0.319)">
      <path id="Path_84798" data-name="Path 84798" d="M8.16,9.325A4.663,4.663,0,1,0,3.5,4.663,4.662,4.662,0,0,0,8.16,9.325Zm3.264,1.166h-.608a6.341,6.341,0,0,1-5.311,0H4.9a4.9,4.9,0,0,0-4.9,4.9V16.9A1.749,1.749,0,0,0,1.748,18.65H14.571A1.749,1.749,0,0,0,16.319,16.9V15.387A4.9,4.9,0,0,0,11.423,10.491Z" transform="translate(0)" fill="#fff"/>
    </g>
  </g>
</svg>
