<svg xmlns="http://www.w3.org/2000/svg" width="180" height="180" viewBox="0 0 180 180">
  <g id="Group_42989" data-name="Group 42989" transform="translate(3741 2829)">
    <path id="Exclusion_6" data-name="Exclusion 6" d="M132,180H48A47.96,47.96,0,0,1,0,132V48A47.96,47.96,0,0,1,48,0h84a47.96,47.96,0,0,1,48,48v84a47.96,47.96,0,0,1-48,48Zm4.447-55.208c13.51,0,25.269,8.565,34.718,15.448l.077.056L168.888,119.1l-.642-5.784c-1.553-13.98-3.158-28.437-4.744-42.662a26.382,26.382,0,0,0-9.2-7.253,31.624,31.624,0,0,0-13.7-2.757,52.257,52.257,0,0,0-5.786.339,91.47,91.47,0,0,1-16.447-1.767,51.008,51.008,0,0,1-15.148-5.646,111.307,111.307,0,0,0-14.66-8.5A35.381,35.381,0,0,0,73.9,41.428a24.415,24.415,0,0,0-3.242.215c.486,2.692,1.06,5.511,1.616,8.237s1.126,5.526,1.61,8.206c-1.221.048-2.417.072-3.557.072a65,65,0,0,1-14.849-1.584,51.822,51.822,0,0,1-14.8-5.9,68.579,68.579,0,0,0-16.935-8.6A45.568,45.568,0,0,0,9.3,39.7c-.183,0-.364,0-.545,0,2.048,12.517,4.132,25.408,6.148,37.874l0,.021v.006c2,12.356,4.063,25.133,6.093,37.539,1.992.39,3.918.676,5.78.953,5.5.817,10.685,1.589,15.827,4.852a12.937,12.937,0,0,0,9.779,3.76,49.085,49.085,0,0,0,9.3-1.26l.008,0,1.221-.243a41.634,41.634,0,0,1,4.83-.285,40.72,40.72,0,0,1,10.342,1.339,52.306,52.306,0,0,1,9.578,3.572c6.032,2.9,11.779,6.773,18.128,11.171-.384-3-.689-6.3-.983-9.5-.285-3.095-.58-6.294-.947-9.2,5.087,4.187,9.861,5.819,17.029,5.819a102.121,102.121,0,0,0,14.234-1.306C135.567,124.8,136.01,124.792,136.448,124.792Z" transform="translate(-3741 -2829)" fill="#e30016"/>
    <path id="path3845" d="M-9655.939-1255.968q6.463-4.789,12.929-9.578c11.861,7.625,22.287,9.39,29.789,2.9l-12.438-7.058-6.054,3.907-6.879-4.41,11.619-8.7c4.982.675,6.49-.6,8.353-1.639q1.885,1.134,3.761,2.27l-6.221,5.419,11.623,6.678c5.176-7.133,2.56-14.982-7.856-20.29,12.7,3.593,19.731,12.276,13.427,22.937l9.648,5.167-3.266,3.529-9.663-4.916c-9.346,6.8-20.821,7.609-33.223.63l-10.8,7.183Z" transform="translate(5944.227 -1473.793)" fill="#e30016" fill-rule="evenodd"/>
    <path id="path3847" d="M-9285.089-1252.339l14.356.537.409-13.422,8.322,13.288,14.761-.135-9.664,8.591,8.463,13.557-13.56-8.725-9.669,8.86.81-13.827Z" transform="translate(5647.461 -1490.791)" fill="#e30016" fill-rule="evenodd"/>
  </g>
</svg>
