<svg width="89" height="89" viewBox="0 0 89 89" fill="none" xmlns="http://www.w3.org/2000/svg">
<g clip-path="url(#clip0_4799_3040)">
<path d="M70.9 0.5H18.1C8.37979 0.5 0.5 8.37979 0.5 18.1V70.9C0.5 80.6202 8.37979 88.5 18.1 88.5H70.9C80.6202 88.5 88.5 80.6202 88.5 70.9V18.1C88.5 8.37979 80.6202 0.5 70.9 0.5Z" fill="url(#paint0_linear_4799_3040)"/>
<g clip-path="url(#clip1_4799_3040)">
<g clip-path="url(#clip2_4799_3040)">
<mask id="mask0_4799_3040" style="mask-type:luminance" maskUnits="userSpaceOnUse" x="16" y="16" width="57" height="57">
<path d="M72.5 16.5H16.5V72.5H72.5V16.5Z" fill="white"/>
</mask>
<g mask="url(#mask0_4799_3040)">
<path d="M57.76 43.608C59.3533 43.608 60.9109 43.1355 62.2357 42.2503C63.5605 41.3651 64.593 40.1069 65.2028 38.6349C65.8125 37.1629 65.972 35.5431 65.6612 33.9804C65.3504 32.4176 64.5831 30.9822 63.4564 29.8556C62.3298 28.7289 60.8944 27.9616 59.3316 27.6508C57.7689 27.34 56.1491 27.4995 54.6771 28.1092C53.2051 28.719 51.9469 29.7515 51.0617 31.0763C50.1765 32.4011 49.704 33.9587 49.704 35.552C49.7045 37.6884 50.5535 39.7372 52.0641 41.2479C53.5748 42.7586 55.6236 43.6075 57.76 43.608ZM57.76 30.182C58.8221 30.182 59.8603 30.4969 60.7434 31.087C61.6265 31.6771 62.3148 32.5158 62.7212 33.497C63.1277 34.4782 63.234 35.558 63.0268 36.5996C62.8196 37.6413 62.3082 38.5982 61.5572 39.3492C60.8062 40.1002 59.8493 40.6116 58.8076 40.8188C57.766 41.026 56.6862 40.9197 55.705 40.5132C54.7237 40.1068 53.8851 39.4185 53.295 38.5354C52.7049 37.6523 52.39 36.6141 52.39 35.552C52.3905 34.1276 52.9563 32.7616 53.9632 31.754C54.97 30.7464 56.3356 30.1796 57.76 30.178V30.182ZM33.592 43.608C35.4511 43.608 37.2685 43.0567 38.8144 42.0238C40.3602 40.9909 41.565 39.5229 42.2765 37.8052C42.9879 36.0876 43.1741 34.1976 42.8114 32.3742C42.4487 30.5507 41.5534 28.8758 40.2388 27.5612C38.9242 26.2466 37.2493 25.3513 35.4258 24.9886C33.6024 24.6259 31.7124 24.8121 29.9948 25.5235C28.2771 26.235 26.8091 27.4398 25.7762 28.9856C24.7433 30.5315 24.192 32.3489 24.192 34.208C24.192 36.701 25.1823 39.092 26.9452 40.8548C28.708 42.6177 31.099 43.608 33.592 43.608ZM33.592 27.496C34.9201 27.4956 36.2184 27.8891 37.3228 28.6267C38.4273 29.3643 39.2881 30.4128 39.7965 31.6397C40.305 32.8666 40.4381 34.2168 40.1791 35.5194C39.9201 36.8219 39.2806 38.0184 38.3415 38.9575C37.4024 39.8966 36.2059 40.5361 34.9033 40.7951C33.6008 41.0541 32.2506 40.921 31.0237 40.4125C29.7968 39.9041 28.7483 39.0433 28.0107 37.9389C27.2731 36.8344 26.8796 35.5361 26.88 34.208C26.8821 32.4283 27.5899 30.7221 28.8481 29.4635C30.1063 28.2049 31.8123 27.4986 33.592 27.496ZM40.314 45.296C37.514 45.296 36.814 46.296 33.592 46.296C30.37 46.296 29.674 45.296 26.87 45.296C25.3563 45.2661 23.8584 45.6082 22.5078 46.2924C21.1572 46.9766 19.9953 47.9819 19.124 49.22C18.0504 50.8116 17.4778 52.6882 17.48 54.608V58.368C17.4787 58.8979 17.5819 59.4229 17.7837 59.9128C17.9855 60.4028 18.282 60.8482 18.6561 61.2234C19.0302 61.5987 19.4747 61.8964 19.9641 62.0997C20.4534 62.303 20.9781 62.4077 21.508 62.408H45.68C46.7481 62.4075 47.7724 61.9829 48.5276 61.2276C49.2829 60.4724 49.7075 59.4481 49.708 58.38V54.608C49.7125 52.6841 49.1399 50.803 48.064 49.208C47.194 47.9676 46.0327 46.96 44.682 46.2737C43.3314 45.5874 41.8328 45.2434 40.318 45.272L40.314 45.296ZM47.018 58.388C47.0169 58.7436 46.8752 59.0843 46.6238 59.3358C46.3723 59.5872 46.0316 59.729 45.676 59.73H21.508C21.1524 59.729 20.8117 59.5872 20.5602 59.3358C20.3088 59.0843 20.167 58.7436 20.166 58.388V54.608C20.1646 53.2211 20.5768 51.8654 21.35 50.714C21.9739 49.8393 22.8028 49.131 23.7642 48.6512C24.7255 48.1714 25.7899 47.9347 26.864 47.962C29.164 47.962 29.986 48.962 33.594 48.962C37.202 48.962 38.024 47.962 40.316 47.962C41.3901 47.9347 42.4545 48.1714 43.4158 48.6512C44.3771 49.131 45.2061 49.8393 45.83 50.714C46.6032 51.8654 47.0154 53.2211 47.014 54.608V58.368L47.018 58.388ZM69.818 48.746C69.0929 47.7126 68.1253 46.873 67 46.3007C65.8747 45.7285 64.6262 45.4412 63.364 45.464C61.032 45.464 60.444 46.304 57.764 46.304C55.084 46.304 54.492 45.464 52.164 45.464C51.0624 45.473 49.974 45.7043 48.964 46.144C49.6549 46.7837 50.2288 47.539 50.66 48.376C51.1482 48.2344 51.6537 48.161 52.162 48.158C53.992 48.158 54.68 48.998 57.762 48.998C60.844 48.998 61.538 48.158 63.362 48.158C64.1849 48.1347 65.001 48.3138 65.7386 48.6796C66.4761 49.0454 67.1126 49.5867 67.592 50.256C68.1901 51.142 68.5085 52.1871 68.506 53.256V56.378C68.5055 56.5561 68.4345 56.7267 68.3086 56.8526C68.1827 56.9785 68.0121 57.0495 67.834 57.05H52.39C52.4458 57.9475 52.4008 58.8485 52.256 59.736H67.832C68.2727 59.736 68.7091 59.6492 69.1163 59.4805C69.5234 59.3119 69.8934 59.0647 70.2051 58.7531C70.5167 58.4414 70.7639 58.0715 70.9325 57.6643C71.1012 57.2571 71.188 56.8207 71.188 56.38V53.23C71.1917 51.6277 70.7152 50.061 69.82 48.732L69.818 48.746Z" fill="#FEF8E8" stroke="#FEF8E8" stroke-width="1.4"/>
<path d="M39.5122 54.9821C39.8905 55.409 40.3865 55.7144 40.938 55.86C41.2946 55.9579 41.6689 55.9716 42.0317 55.9001C42.3953 55.8275 42.7275 55.6435 42.9819 55.3739C43.2473 55.0715 43.4051 54.6896 43.4302 54.288C43.4555 53.8884 43.3868 53.4885 43.23 53.12C42.9583 52.4557 42.4772 51.8981 41.8599 51.5319C42.3634 51.5748 42.8443 51.7592 43.2476 52.0639C43.6514 52.3715 43.9601 52.7879 44.1362 53.2641C44.3138 53.7373 44.3542 54.2509 44.2524 54.746C44.1468 55.2399 43.9048 55.6944 43.5542 56.058C43.2956 56.3185 42.9864 56.5238 42.646 56.6613C42.3056 56.7988 41.9407 56.8658 41.5737 56.8581C41.2067 56.8472 40.846 56.7614 40.5132 56.6064C40.1803 56.4513 39.8827 56.23 39.6382 55.956L38.7837 56.8119L38.2319 56.2599L39.5122 54.9821Z" fill="#FEF8E8" stroke="#FEF8E8" stroke-width="0.4"/>
<path d="M42.0817 52.608L41.4381 53.2521L44.3317 56.1481L43.6783 56.808L40.7799 53.91L40.2721 54.4181L39.5201 53.6659L40.7858 52.3981C40.9433 52.4139 41.103 52.4065 41.2584 52.3761C41.4111 52.3463 41.5582 52.2944 41.6959 52.2221L42.0817 52.608Z" fill="#FEF8E8" stroke="#FEF8E8" stroke-width="0.4"/>
</g>
</g>
</g>
</g>
<defs>
<linearGradient id="paint0_linear_4799_3040" x1="44.5" y1="0.5" x2="44.5" y2="88.5" gradientUnits="userSpaceOnUse">
<stop stop-color="#FF6C58"/>
<stop offset="1" stop-color="#C61F1B"/>
</linearGradient>
<clipPath id="clip0_4799_3040">
<rect x="0.5" y="0.5" width="88" height="88" rx="44" fill="white"/>
</clipPath>
<clipPath id="clip1_4799_3040">
<rect width="56" height="56" fill="white" transform="translate(16.5 16.5)"/>
</clipPath>
<clipPath id="clip2_4799_3040">
<rect width="56" height="56" fill="white" transform="translate(16.5 16.5)"/>
</clipPath>
</defs>
</svg>
