<svg width="20" height="20" viewBox="0 0 20 20" fill="none" xmlns="http://www.w3.org/2000/svg">
<path d="M13.3324 2.49976V5.83309M6.66569 2.49976V5.83309M3.33236 9.16642H16.6657M5.83236 11.6664H5.84319M8.34069 11.6664H8.34486M10.8407 11.6664H10.8449M13.3449 11.6664H13.349M10.8449 14.1664H10.849M5.84069 14.1664H5.84486M8.34069 14.1664H8.34486M3.33236 5.83309C3.33236 5.39106 3.50795 4.96714 3.82051 4.65458C4.13308 4.34202 4.557 4.16642 4.99903 4.16642H14.999C15.4411 4.16642 15.865 4.34202 16.1775 4.65458C16.4901 4.96714 16.6657 5.39106 16.6657 5.83309V15.8331C16.6657 16.2751 16.4901 16.699 16.1775 17.0116C15.865 17.3242 15.4411 17.4998 14.999 17.4998H4.99903C4.557 17.4998 4.13308 17.3242 3.82051 17.0116C3.50795 16.699 3.33236 16.2751 3.33236 15.8331V5.83309Z" stroke="#AA0B05" stroke-width="1.66667" stroke-linecap="round" stroke-linejoin="round"/>
</svg>
