<svg xmlns="http://www.w3.org/2000/svg" xmlns:xlink="http://www.w3.org/1999/xlink" width="20" height="20" viewBox="0 0 20 20">
  <defs>
    <clipPath id="clip-path">
      <rect id="Rectangle_15784" data-name="Rectangle 15784" width="20" height="20" transform="translate(1668 2567)" fill="#627282" stroke="#707070" stroke-width="1"/>
    </clipPath>
  </defs>
  <g id="Mask_Group_24395" data-name="Mask Group 24395" transform="translate(-1668 -2567)" clip-path="url(#clip-path)">
    <g id="trash" transform="translate(1668.92 2567)">
      <path id="Path_82909" data-name="Path 82909" d="M19.727,7.113h-.073A72.332,72.332,0,0,0,5.146,6.93l-1.873.184a.693.693,0,0,1-.762-.624.684.684,0,0,1,.615-.753L5,5.552a74.506,74.506,0,0,1,14.792.184.689.689,0,0,1,.615.753A.679.679,0,0,1,19.727,7.113Z" transform="translate(-2.508 -2.082)" fill="#627282"/>
      <path id="Path_82910" data-name="Path 82910" d="M9.34,5.5a.565.565,0,0,1-.119-.009.691.691,0,0,1-.56-.79l.2-1.2c.147-.881.349-2.1,2.488-2.1h2.406c2.149,0,2.351,1.267,2.488,2.112l.2,1.194a.685.685,0,1,1-1.35.23l-.2-1.194c-.129-.8-.156-.955-1.129-.955H11.36c-.973,0-.992.129-1.129.946l-.211,1.194A.689.689,0,0,1,9.34,5.5Z" transform="translate(-3.598 -1.395)" fill="#627282"/>
      <path id="Path_82911" data-name="Path 82911" d="M14.837,22.551H8.942c-3.2,0-3.333-1.772-3.434-3.2l-.6-9.246a.69.69,0,0,1,1.377-.092l.6,9.246c.1,1.4.138,1.919,2.057,1.919h5.895c1.928,0,1.965-.523,2.057-1.919l.6-9.246a.7.7,0,0,1,.735-.643.689.689,0,0,1,.643.735l-.6,9.246c-.1,1.432-.23,3.2-3.434,3.2Z" transform="translate(-2.934 -2.809)" fill="#627282"/>
      <path id="Path_82912" data-name="Path 82912" d="M14.44,18.959H11.383a.689.689,0,1,1,0-1.377H14.44a.689.689,0,1,1,0,1.377Z" transform="translate(-3.96 -4.268)" fill="#627282"/>
      <path id="Path_82913" data-name="Path 82913" d="M15.047,14.494H10.456a.689.689,0,0,1,0-1.377h4.591a.689.689,0,1,1,0,1.377Z" transform="translate(-3.796 -3.475)" fill="#627282"/>
    </g>
  </g>
</svg>
