<svg width="17" height="16" viewBox="0 0 17 16" fill="none" xmlns="http://www.w3.org/2000/svg">
<g clip-path="url(#clip0_5945_149587)">
<g clip-path="url(#clip1_5945_149587)">
<g clip-path="url(#clip2_5945_149587)">
<path d="M4.03932 10.8124C3.05571 10.1305 2.31438 9.15355 1.9225 8.02269C1.53061 6.89183 1.50846 5.66565 1.85925 4.52137C2.19202 3.38367 2.88701 2.38565 3.83866 1.67892C4.79031 0.972191 5.94662 0.595363 7.13195 0.605675C8.3176 0.635156 9.46135 1.05022 10.39 1.78801C11.3186 2.5258 11.9814 3.54612 12.2782 4.69442C12.5036 4.6507 12.7326 4.62817 12.9622 4.62712C13.8016 4.63805 14.6087 4.95186 15.235 5.51076C15.8613 6.06966 16.2646 6.83602 16.3706 7.66872C16.4928 8.50322 16.3134 9.35395 15.8646 10.068C15.4158 10.7821 14.7271 11.3127 13.9221 11.5644" stroke="#D9251B" stroke-width="1.2" stroke-linecap="round" stroke-linejoin="round"/>
<path d="M8.98218 8.60645V15.262" stroke="#D9251B" stroke-width="1.2" stroke-linecap="round" stroke-linejoin="round"/>
<path d="M6.68085 13.0435L9.03248 15.3951L11.2806 13.147" stroke="#D9251B" stroke-width="1.2" stroke-linecap="round" stroke-linejoin="round"/>
</g>
</g>
</g>
<defs>
<clipPath id="clip0_5945_149587">
<rect width="16" height="16" fill="white" transform="translate(0.97998)"/>
</clipPath>
<clipPath id="clip1_5945_149587">
<rect width="16" height="16" fill="white" transform="translate(0.97998)"/>
</clipPath>
<clipPath id="clip2_5945_149587">
<rect width="16" height="15.8994" fill="white" transform="translate(0.97998 0.050293)"/>
</clipPath>
</defs>
</svg>
