<svg width="18" height="19" viewBox="0 0 18 19" fill="none" xmlns="http://www.w3.org/2000/svg">
<g clip-path="url(#clip0_5945_149572)">
<g clip-path="url(#clip1_5945_149572)">
<mask id="mask0_5945_149572" style="mask-type:luminance" maskUnits="userSpaceOnUse" x="0" y="-1" width="17" height="18">
<path d="M17 -0.583008H-4.57764e-05V16.287H17V-0.583008Z" fill="white"/>
</mask>
<g mask="url(#mask0_5945_149572)">
<path d="M4.48399 14.1269C5.4496 14.7786 6.58499 15.1266 7.74656 15.1266C9.30422 15.1266 10.7978 14.5015 11.8989 13.3894C12.9999 12.2772 13.6182 10.7691 13.6182 9.19684C13.6182 8.02432 13.274 6.87804 12.6289 5.90293C11.9839 4.92781 11.067 4.1676 9.99394 3.71864C8.92089 3.26967 7.74006 3.15218 6.60083 3.38108C5.46161 3.60998 4.41534 4.17494 3.59427 5.00432C2.7732 5.83369 2.21419 6.89022 1.98773 8.04024C1.76127 9.19025 1.87749 10.3823 2.32174 11.4656C2.76599 12.549 3.51839 13.4752 4.48399 14.1269ZM5.1874 5.3233C5.94503 4.81194 6.83562 4.53909 7.74656 4.53909C8.35142 4.53909 8.95038 4.65943 9.50927 4.89327C10.0682 5.12711 10.5761 5.46989 11.0039 5.9021C11.4318 6.33431 11.7713 6.84749 12.0029 7.41236C12.2346 7.97724 12.3538 8.58272 12.3538 9.19421C12.3538 10.1152 12.0834 11.0154 11.577 11.7809C11.0706 12.5465 10.351 13.143 9.50927 13.4952C8.66756 13.8473 7.74144 13.9395 6.84797 13.7599C5.9545 13.5804 5.13361 13.1373 4.48919 12.4863C3.84476 11.8354 3.40576 11.0059 3.22789 10.1026C3.05002 9.19937 3.14132 8.26313 3.49019 7.41236C3.83906 6.56161 4.42976 5.83466 5.1874 5.3233Z" fill="#D9251B" stroke="#D9251B" stroke-width="0.25"/>
<path d="M11.6343 5.90925C11.7172 5.90937 11.7993 5.8929 11.8758 5.86082C11.9524 5.82873 12.0218 5.78168 12.0801 5.72245C12.0801 5.72238 12.0802 5.72232 12.0802 5.72226L15.7996 1.96532L15.7996 1.96535L15.8019 1.96283C15.9149 1.84228 15.9766 1.68223 15.9743 1.51678C15.9721 1.35132 15.906 1.19303 15.7898 1.07565C15.6736 0.958235 15.5163 0.891031 15.3514 0.888733C15.1865 0.886434 15.0274 0.949232 14.908 1.06339L14.9079 1.06335L14.9055 1.06581L11.1868 4.82218L11.1868 4.82218L11.1863 4.82266C11.069 4.94248 11.0034 5.10394 11.0034 5.27193C11.0034 5.43993 11.069 5.60139 11.1863 5.7212C11.2448 5.78097 11.3145 5.82843 11.3915 5.86074L11.4399 5.74548L11.3915 5.86074C11.4684 5.89301 11.551 5.90951 11.6343 5.90925ZM11.6343 5.90925C11.6342 5.90925 11.6341 5.90924 11.634 5.90924L11.6342 5.78424L11.6347 5.90924C11.6346 5.90924 11.6344 5.90925 11.6343 5.90925Z" fill="#D9251B" stroke="#D9251B" stroke-width="0.25"/>
<path d="M14.7204 5.95352L14.7204 5.95457C14.7218 6.12236 14.7884 6.28313 14.9062 6.40215C15.0241 6.52122 15.1838 6.58897 15.3511 6.59041L15.3532 6.59039C15.5206 6.58896 15.6805 6.52107 15.7984 6.40177C15.9163 6.28251 15.9828 6.12146 15.9839 5.95348V5.95265L15.9839 1.51378L15.9839 1.51273C15.9825 1.34494 15.9159 1.18417 15.7981 1.06515C15.6802 0.946081 15.5204 0.878333 15.3532 0.876907V0.876902H15.3521H10.9602C10.8757 0.873747 10.7915 0.887686 10.7125 0.917881C10.6326 0.948404 10.5598 0.994889 10.4983 1.05448C10.4368 1.11406 10.388 1.18551 10.3547 1.2645C10.3213 1.34349 10.3042 1.42843 10.3042 1.51421C10.3042 1.6 10.3213 1.68494 10.3547 1.76393C10.388 1.84292 10.4368 1.91437 10.4983 1.97395C10.5598 2.03354 10.6326 2.08003 10.7125 2.11055C10.7915 2.14074 10.8757 2.15468 10.9602 2.15153H14.7204L14.7204 5.95352Z" fill="#D9251B" stroke="#D9251B" stroke-width="0.25"/>
</g>
</g>
</g>
<defs>
<clipPath id="clip0_5945_149572">
<rect width="16" height="16" fill="white" transform="translate(0.669998 0.205078)"/>
</clipPath>
<clipPath id="clip1_5945_149572">
<rect width="15" height="15" fill="white" transform="translate(1.17 0.705078)"/>
</clipPath>
</defs>
</svg>
