<svg xmlns="http://www.w3.org/2000/svg" xmlns:xlink="http://www.w3.org/1999/xlink" width="71.266" height="50.975" viewBox="0 0 71.266 50.975">
  <defs>
    <filter id="path3843" x="0" y="0" width="71.266" height="50.975" filterUnits="userSpaceOnUse">
      <feOffset dy="3" input="SourceAlpha"/>
      <feGaussianBlur stdDeviation="3" result="blur"/>
      <feFlood flood-color="#da251c" flood-opacity="0.361"/>
      <feComposite operator="in" in2="blur"/>
      <feComposite in="SourceGraphic"/>
    </filter>
  </defs>
  <g id="Layer1065" transform="translate(9767.712 1437.814)">
    <g transform="matrix(1, 0, 0, 1, -9767.71, -1437.81)" filter="url(#path3843)">
      <path id="path3843-2" data-name="path3843" d="M-9758.713-1431.813c2.994-.036,6.34.81,10.463,3.593a19.219,19.219,0,0,0,10.887,2.431c-.318-1.762-.74-3.629-1.059-5.39,3.559-.478,7.117,1.556,10.676,3.911,3.115,1.8,6.674,2.327,10.357,2.431,4.721-.529,7.5.88,9.4,3.17q1.271,11.414,2.537,22.828c-3.2-2.333-7.215-5.265-11.838-5.073-5.3.757-7.66.651-10.248-1.48.244,1.938.385,4.192.633,6.13-4.381-3.035-8.564-5.822-14.057-5.179-2.4.472-4.834,1.088-6.658-.74-2.25-1.427-4.479-1.392-7.082-1.9C-9756.035-1415.255-9757.375-1423.64-9758.713-1431.813Z" transform="translate(9767.71 1437.81)" fill="#e30016" fill-rule="evenodd"/>
    </g>
    <path id="path3845" d="M-9655.94-1276.468l4.238-3.14c3.89,2.5,7.307,3.078,9.766.95l-4.077-2.314-1.985,1.281-2.254-1.446,3.81-2.851a3.417,3.417,0,0,0,2.736-.537c.413.248.823.5,1.234.744l-2.039,1.776,3.81,2.189c1.7-2.338.839-4.911-2.575-6.651,4.163,1.178,6.468,4.024,4.4,7.519l3.164,1.694-1.072,1.157-3.167-1.611c-3.063,2.229-6.824,2.494-10.893.207l-3.54,2.355Z" transform="translate(-96.041 -135.829)" fill="#ffec00" fill-rule="evenodd"/>
    <path id="path3847" d="M-9285.088-1261l4.707.176.133-4.4,2.729,4.356,4.84-.044-3.168,2.816,2.773,4.444-4.445-2.86-3.17,2.9.266-4.532Z" transform="translate(-442.607 -155.679)" fill="#ffec00" fill-rule="evenodd"/>
  </g>
</svg>
