<svg xmlns="http://www.w3.org/2000/svg" xmlns:xlink="http://www.w3.org/1999/xlink" width="24" height="24" viewBox="0 0 24 24">
  <defs>
    <clipPath id="clip-path">
      <rect id="Rectangle_10538" data-name="Rectangle 10538" width="24" height="24" transform="translate(24 369)" fill="#fff" stroke="#707070" stroke-width="1"/>
    </clipPath>
    <clipPath id="clip-path-2">
      <rect id="Rectangle_10654" data-name="Rectangle 10654" width="24" height="24" transform="translate(432.462 166.154)" fill="#fff"/>
    </clipPath>
  </defs>
  <g id="Mask_Group_1346" data-name="Mask Group 1346" transform="translate(-24 -369)" clip-path="url(#clip-path)">
    <g id="Mask_Group_1346-2" data-name="Mask Group 1346" transform="translate(-408.462 202.846)" clip-path="url(#clip-path-2)">
      <g id="note-2" transform="translate(431.082 164.756)">
        <path id="Path_57403" data-name="Path 57403" d="M17.65,22.529a8.8,8.8,0,0,1-.915-.046,12.1,12.1,0,0,1-1.92-.323l-1.876-.447C7.793,20.5,6.108,17.772,7.313,12.637L8.406,7.959A11.865,11.865,0,0,1,9.3,5.324c1.92-3.963,5.593-3.606,8.206-2.992l1.864.437c2.612.614,4.265,1.585,5.191,3.07s1.062,3.394.447,6.006l-1.094,4.667c-.96,4.086-2.958,6.018-6.263,6.018Zm-3-18.9a3.859,3.859,0,0,0-3.84,2.423,11.348,11.348,0,0,0-.77,2.289L8.942,13.015c-.994,4.22.156,6.062,4.376,7.067l1.876.447a11.5,11.5,0,0,0,1.686.277c3.036.3,4.544-1.027,5.392-4.678l1.094-4.667c.5-2.154.435-3.662-.234-4.745S21.144,4.9,18.978,4.395L17.113,3.96a10.7,10.7,0,0,0-2.467-.335Z" fill="#fff"/>
        <path id="Path_57404" data-name="Path 57404" d="M9.3,24.84c-2.869,0-4.7-1.719-5.872-5.347L2,15.083C.413,10.17,1.831,7.4,6.721,5.815l1.764-.57a11.635,11.635,0,0,1,1.407-.369.808.808,0,0,1,.826.312.866.866,0,0,1,.09.882,10.405,10.405,0,0,0-.759,2.277l-1.094,4.68c-.994,4.22.156,6.062,4.376,7.067l1.876.447a11.5,11.5,0,0,0,1.686.277.859.859,0,0,1,.748.625.839.839,0,0,1-.335.9,11.043,11.043,0,0,1-2.836,1.306l-1.764.581a11.485,11.485,0,0,1-3.405.6Zm-.614-17.9-1.44.468C3.261,8.7,2.312,10.572,3.6,14.567l1.431,4.41c1.3,3.985,3.171,4.946,7.154,3.662l1.764-.577c.067-.022.123-.046.19-.067l-1.183-.277C7.8,20.5,6.12,17.777,7.324,12.642L8.418,7.964c.078-.357.168-.7.268-1.015Z" fill="#fff"/>
        <path id="Path_57405" data-name="Path 57405" d="M19.526,11.733a1.525,1.525,0,0,1-.212-.022L13.9,10.338a.837.837,0,0,1,.413-1.619l5.414,1.373a.835.835,0,1,1-.2,1.641Z" fill="#fff"/>
        <path id="Path_57406" data-name="Path 57406" d="M16.255,15.508a1.525,1.525,0,0,1-.212-.022l-3.249-.827a.837.837,0,0,1,.413-1.619l3.249.826a.837.837,0,0,1,.6,1.015.813.813,0,0,1-.8.626Z" fill="#fff"/>
      </g>
    </g>
  </g>
</svg>
