<svg width="89" height="88" viewBox="0 0 89 88" fill="none" xmlns="http://www.w3.org/2000/svg">
<g clip-path="url(#clip0_4799_3065)">
<path d="M58.0027 42.8338L52.678 48.0243L53.9379 55.3532C53.9901 55.6599 53.9556 55.9751 53.8383 56.2633C53.721 56.5514 53.5255 56.8011 53.2739 56.984C53.0223 57.167 52.7246 57.2761 52.4143 57.2989C52.104 57.3217 51.7935 57.2574 51.5179 57.1132L44.9362 53.6534L38.3538 57.1132C38.0781 57.2574 37.7676 57.3217 37.4574 57.2989C37.1471 57.2761 36.8494 57.167 36.5978 56.984C36.3461 56.8011 36.1507 56.5514 36.0334 56.2633C35.916 55.9751 35.8816 55.6599 35.9338 55.3532L37.1915 48.0243L31.8667 42.8338C31.6436 42.6163 31.4857 42.3407 31.4111 42.0382C31.3364 41.7357 31.3478 41.4183 31.4441 41.122C31.5404 40.8256 31.7177 40.5621 31.9559 40.3613C32.1942 40.1605 32.4838 40.0303 32.7922 39.9855L40.1512 38.9163L43.4417 32.2481C43.5795 31.9687 43.7928 31.7334 44.0575 31.5688C44.3221 31.4043 44.6275 31.3171 44.9391 31.3171C45.2507 31.3171 45.5561 31.4043 45.8208 31.5688C46.0854 31.7334 46.2987 31.9687 46.4366 32.2481L49.7278 38.9163L57.0868 39.9855C57.3951 40.0303 57.6848 40.1605 57.9231 40.3613C58.1613 40.5621 58.3386 40.8256 58.4349 41.122C58.5312 41.4183 58.5426 41.7357 58.4679 42.0382C58.3932 42.3407 58.2354 42.6163 58.0123 42.8338H58.0027Z" fill="url(#paint0_linear_4799_3065)"/>
<path fill-rule="evenodd" clip-rule="evenodd" d="M18.1 0.34375H70.9C80.6202 0.34375 88.5 8.22354 88.5 17.9438V70.7438C88.5 80.464 80.6202 88.3438 70.9 88.3438H18.1C8.37979 88.3438 0.5 80.464 0.5 70.7438V17.9438C0.5 8.22354 8.37979 0.34375 18.1 0.34375ZM69.3621 28.8022C68.5048 29.666 66.274 32.4292 66.274 34.7759H66.2791C66.2074 37.6399 66.7777 40.4836 67.9482 43.0985C69.2821 46.1062 69.9333 49.3719 69.8549 52.6612C69.8549 62.5597 61.5191 66.3305 54.8215 69.3606L54.8051 69.3681C51.0631 71.0622 47.532 72.6609 46.4271 74.8709C46.2884 75.1482 46.0752 75.3815 45.8114 75.5445C45.5476 75.7075 45.2437 75.7938 44.9336 75.7938C44.6236 75.7938 44.3196 75.7075 44.0558 75.5445C43.7921 75.3815 43.5789 75.1482 43.4402 74.8709C42.3336 72.6607 38.7938 71.0561 35.0457 69.3606L35.0417 69.3588C28.3448 66.329 20.0124 62.5592 20.0124 52.6612C19.934 49.3719 20.5851 46.1062 21.9191 43.0985C23.0896 40.4837 23.6599 37.6399 23.5881 34.7759C23.5881 32.427 21.3573 29.6653 20.4979 28.8C20.1861 28.4865 20.0112 28.0625 20.0112 27.6204C20.0112 27.1784 20.1861 26.7543 20.4979 26.4408L27.6523 19.2879C27.9427 18.9973 28.3301 18.824 28.7403 18.8012C29.1505 18.7783 29.5548 18.9075 29.8757 19.164L30.9163 19.9985C32.7668 21.4813 35.0996 22.2287 37.4673 22.0975C39.8349 21.9662 42.0708 20.9654 43.746 19.2872C43.9011 19.132 44.0853 19.0089 44.288 18.9249C44.4907 18.841 44.708 18.7977 44.9274 18.7977C45.1468 18.7977 45.3641 18.841 45.5668 18.9249C45.7695 19.0089 45.9537 19.132 46.1088 19.2872C47.7843 20.9663 50.021 21.9676 52.3895 22.0987C54.758 22.2299 57.0915 21.4817 58.9421 19.9978L59.9827 19.164C60.3036 18.9069 60.7081 18.7772 61.1186 18.7998C61.5292 18.8224 61.9169 18.9957 62.2077 19.2864L69.3621 26.4408C69.6752 26.754 69.8511 27.1787 69.8511 27.6215C69.8511 28.0643 69.6752 28.489 69.3621 28.8022Z" fill="url(#paint1_linear_4799_3065)"/>
<path fill-rule="evenodd" clip-rule="evenodd" d="M66.274 34.7759C66.274 32.4292 68.5048 29.666 69.3621 28.8022C69.6752 28.489 69.8511 28.0643 69.8511 27.6215C69.8511 27.1787 69.6752 26.754 69.3621 26.4408L62.2077 19.2864C61.9169 18.9957 61.5292 18.8224 61.1186 18.7998C60.7081 18.7772 60.3036 18.9069 59.9827 19.164L58.9421 19.9978C57.0915 21.4817 54.758 22.2299 52.3895 22.0987C50.021 21.9676 47.7843 20.9663 46.1088 19.2872C45.9537 19.132 45.7695 19.0089 45.5668 18.9249C45.3641 18.841 45.1468 18.7977 44.9274 18.7977C44.708 18.7977 44.4907 18.841 44.288 18.9249C44.0853 19.0089 43.9011 19.132 43.746 19.2872C42.0708 20.9654 39.8349 21.9662 37.4673 22.0975C35.0996 22.2287 32.7668 21.4813 30.9163 19.9985L29.8757 19.164C29.5548 18.9075 29.1505 18.7783 28.7403 18.8012C28.3301 18.824 27.9427 18.9973 27.6523 19.2879L20.4979 26.4408C20.1861 26.7543 20.0112 27.1784 20.0112 27.6204C20.0112 28.0625 20.1861 28.4865 20.4979 28.8C21.3573 29.6653 23.5881 32.427 23.5881 34.7759C23.6599 37.6399 23.0896 40.4837 21.9191 43.0985C20.5851 46.1062 19.934 49.3719 20.0124 52.6612C20.0124 62.5592 28.3448 66.329 35.0417 69.3588L35.0457 69.3606C38.7938 71.0561 42.3336 72.6607 43.4402 74.8709C43.5789 75.1482 43.7921 75.3815 44.0558 75.5445C44.3196 75.7075 44.6236 75.7938 44.9336 75.7938C45.2437 75.7938 45.5476 75.7075 45.8114 75.5445C46.0752 75.3815 46.2884 75.1482 46.4271 74.8709C47.532 72.6609 51.0631 71.0622 54.8051 69.3681L54.8215 69.3606C61.5191 66.3305 69.8549 62.5597 69.8549 52.6612C69.9333 49.3719 69.2821 46.1062 67.9482 43.0985C66.7777 40.4836 66.2074 37.6399 66.2791 34.7759H66.274ZM52.678 48.0243L58.0027 42.8338H58.0123C58.2354 42.6163 58.3932 42.3407 58.4679 42.0382C58.5426 41.7357 58.5312 41.4183 58.4349 41.122C58.3386 40.8256 58.1613 40.5621 57.9231 40.3613C57.6848 40.1605 57.3951 40.0303 57.0868 39.9855L49.7278 38.9163L46.4366 32.2481C46.2987 31.9687 46.0854 31.7334 45.8208 31.5688C45.5561 31.4043 45.2507 31.3171 44.9391 31.3171C44.6275 31.3171 44.3221 31.4043 44.0575 31.5688C43.7928 31.7334 43.5795 31.9687 43.4417 32.2481L40.1512 38.9163L32.7922 39.9855C32.4838 40.0303 32.1942 40.1605 31.9559 40.3613C31.7177 40.5621 31.5404 40.8256 31.4441 41.122C31.3478 41.4183 31.3364 41.7357 31.4111 42.0382C31.4857 42.3407 31.6436 42.6163 31.8667 42.8338L37.1915 48.0243L35.9338 55.3532C35.8816 55.6599 35.916 55.9751 36.0334 56.2633C36.1507 56.5514 36.3461 56.8011 36.5978 56.984C36.8494 57.167 37.1471 57.2761 37.4574 57.2989C37.7676 57.3217 38.0781 57.2574 38.3538 57.1132L44.9362 53.6534L51.5179 57.1132C51.7935 57.2574 52.104 57.3217 52.4143 57.2989C52.7246 57.2761 53.0223 57.167 53.2739 56.984C53.5255 56.8011 53.721 56.5514 53.8383 56.2633C53.9556 55.9751 53.9901 55.6599 53.9379 55.3532L52.678 48.0243Z" fill="#FEF8E8"/>
</g>
<defs>
<linearGradient id="paint0_linear_4799_3065" x1="44.5" y1="0.34375" x2="44.5" y2="88.3438" gradientUnits="userSpaceOnUse">
<stop stop-color="#FF6C58"/>
<stop offset="1" stop-color="#C61F1B"/>
</linearGradient>
<linearGradient id="paint1_linear_4799_3065" x1="44.5" y1="0.34375" x2="44.5" y2="88.3438" gradientUnits="userSpaceOnUse">
<stop stop-color="#FF6C58"/>
<stop offset="1" stop-color="#C61F1B"/>
</linearGradient>
<clipPath id="clip0_4799_3065">
<rect x="0.5" width="88" height="88" rx="44" fill="white"/>
</clipPath>
</defs>
</svg>
