<svg xmlns="http://www.w3.org/2000/svg" xmlns:xlink="http://www.w3.org/1999/xlink" width="100" height="100" viewBox="0 0 100 100">
  <defs>
    <clipPath id="clip-path">
      <rect id="Rectangle_11000" data-name="Rectangle 11000" width="52" height="52" transform="translate(522 1013)" fill="#fff" stroke="#707070" stroke-width="1"/>
    </clipPath>
  </defs>
  <g id="Group_19664" data-name="Group 19664" transform="translate(-1264 -629)">
    <rect id="Rectangle_10620" data-name="Rectangle 10620" width="100" height="100" rx="24" transform="translate(1264 629)" fill="#222"/>
    <g id="Mask_Group_19464" data-name="Mask Group 19464" transform="translate(766 -360)" clip-path="url(#clip-path)">
      <g id="people" transform="translate(519.026 1009.978)">
        <path id="Path_63750" data-name="Path 63750" d="M43.515,19.122H43.2a7.448,7.448,0,1,1,.338.024c0-.024,0-.024-.024-.024ZM43.273,6.648A4.426,4.426,0,0,0,43.1,15.5a1.172,1.172,0,0,1,.435,0,4.429,4.429,0,0,0-.266-8.848Z" fill="#fff"/>
        <path id="Path_63751" data-name="Path 63751" d="M43.539,36.939A15.963,15.963,0,0,1,40.71,36.7a1.816,1.816,0,1,1,.629-3.578,11.785,11.785,0,0,0,8.219-1.45A3.316,3.316,0,0,0,51.3,29.034a3.339,3.339,0,0,0-1.741-2.611A11.828,11.828,0,0,0,41.266,25a1.816,1.816,0,1,1-.629-3.578A15.3,15.3,0,0,1,51.565,23.4a6.886,6.886,0,0,1,3.36,5.633,6.932,6.932,0,0,1-3.36,5.657A14.712,14.712,0,0,1,43.539,36.939Z" fill="#fff"/>
        <path id="Path_63752" data-name="Path 63752" d="M14.432,19.122h-.048a8.038,8.038,0,1,1,.556,0l-.508-1.813.169,1.813h-.169Zm.242-3.626a2.345,2.345,0,0,1,.411.024,4.495,4.495,0,1,0-.629,0,.477.477,0,0,1,.218-.024Z" fill="#fff"/>
        <path id="Path_63753" data-name="Path 63753" d="M14.408,36.939a14.712,14.712,0,0,1-8.026-2.248,6.925,6.925,0,0,1-3.36-5.657A6.918,6.918,0,0,1,6.382,23.4a15.3,15.3,0,0,1,10.927-1.982A1.816,1.816,0,0,1,16.681,25a11.852,11.852,0,0,0-8.292,1.426,3.281,3.281,0,0,0-1.741,2.611,3.375,3.375,0,0,0,1.741,2.635,11.785,11.785,0,0,0,8.219,1.45,1.816,1.816,0,1,1,.629,3.578,15.963,15.963,0,0,1-2.828.242Z" fill="#fff"/>
        <path id="Path_63754" data-name="Path 63754" d="M29.01,37.181H28.7a7.448,7.448,0,1,1,.338.024c0-.024,0-.024-.024-.024Zm-.242-12.474a4.426,4.426,0,0,0-.169,8.848,1.172,1.172,0,0,1,.435,0,4.427,4.427,0,0,0-.266-8.848Z" fill="#fff"/>
        <path id="Path_63755" data-name="Path 63755" d="M29.01,55.022a14.5,14.5,0,0,1-8.05-2.272,6.886,6.886,0,0,1-3.36-5.633,6.9,6.9,0,0,1,3.36-5.657,15.537,15.537,0,0,1,16.1,0,6.886,6.886,0,0,1,3.36,5.633,6.9,6.9,0,0,1-3.36,5.657,14.7,14.7,0,0,1-8.05,2.272ZM22.966,44.506a3.316,3.316,0,0,0-1.741,2.635,3.339,3.339,0,0,0,1.741,2.611,11.85,11.85,0,0,0,12.063,0,3.316,3.316,0,0,0,1.741-2.635,3.339,3.339,0,0,0-1.741-2.611A11.906,11.906,0,0,0,22.966,44.506Z" fill="#fff"/>
      </g>
    </g>
  </g>
</svg>
