<svg xmlns="http://www.w3.org/2000/svg" xmlns:xlink="http://www.w3.org/1999/xlink" width="100" height="100" viewBox="0 0 100 100">
  <defs>
    <linearGradient id="linear-gradient" x1="0.5" x2="0.5" y2="1" gradientUnits="objectBoundingBox">
      <stop offset="0" stop-color="#007bff"/>
      <stop offset="1" stop-color="#1b99f3"/>
    </linearGradient>
    <clipPath id="clip-path">
      <rect id="Rectangle_11030" data-name="Rectangle 11030" width="52" height="52" transform="translate(1418 503)" fill="#fff" stroke="#707070" stroke-width="1"/>
    </clipPath>
  </defs>
  <g id="Group_19672" data-name="Group 19672" transform="translate(-1517 -393)">
    <rect id="Rectangle_10594" data-name="Rectangle 10594" width="100" height="100" rx="24" transform="translate(1517 393)" fill="url(#linear-gradient)"/>
    <g id="Mask_Group_19475" data-name="Mask Group 19475" transform="translate(123 -86)" clip-path="url(#clip-path)">
      <g id="dollar-circle" transform="translate(1414.977 499.977)">
        <path id="Path_63792" data-name="Path 63792" d="M32.409,42.132H26.339a7.322,7.322,0,0,1-7.183-7.449,1.814,1.814,0,1,1,3.628,0A3.7,3.7,0,0,0,26.339,38.5h6.071a3.015,3.015,0,0,0,2.878-3.1c0-2.1-.75-2.515-1.983-2.951l-9.747-3.434c-1.887-.653-4.426-2.056-4.426-6.385a6.619,6.619,0,0,1,6.506-6.724h6.071a7.322,7.322,0,0,1,7.183,7.449,1.814,1.814,0,1,1-3.628,0,3.7,3.7,0,0,0-3.555-3.821H25.637a3.015,3.015,0,0,0-2.878,3.1c0,2.1.75,2.515,1.983,2.951l9.747,3.434c1.887.653,4.426,2.056,4.426,6.385A6.65,6.65,0,0,1,32.409,42.132Z" fill="#fff"/>
        <path id="Path_63793" data-name="Path 63793" d="M29.023,45.349a1.827,1.827,0,0,1-1.814-1.814V14.512a1.814,1.814,0,0,1,3.628,0V43.535A1.827,1.827,0,0,1,29.023,45.349Z" fill="#fff"/>
        <path id="Path_63794" data-name="Path 63794" d="M29.023,55.023a26,26,0,1,1,26-26A26.022,26.022,0,0,1,29.023,55.023Zm0-48.372A22.372,22.372,0,1,0,51.4,29.023,22.4,22.4,0,0,0,29.023,6.651Z" fill="#fff"/>
      </g>
    </g>
  </g>
</svg>
