<svg xmlns="http://www.w3.org/2000/svg" width="17.616" height="17.5" viewBox="0 0 17.616 17.5">
  <g id="Group_25305" data-name="Group 25305" transform="translate(0.84 0.75)">
    <path id="primary" d="M5.68,13.109A5.324,5.324,0,0,1,3.321,6.9a5.85,5.85,0,0,1,5.7-3.866,5.82,5.82,0,0,1,5.567,4.036A4.352,4.352,0,0,1,15.332,7a3.663,3.663,0,0,1,3.687,3,3.5,3.5,0,0,1-2.644,3.847" transform="translate(-3.056 -3.031)" fill="none" stroke="#627282" stroke-linecap="round" stroke-linejoin="round" stroke-width="1.5"/>
    <line id="primary-2" data-name="primary" y2="9" transform="translate(7.971 6.82)" fill="none" stroke="#627282" stroke-linecap="round" stroke-linejoin="round" stroke-width="1.5"/>
    <path id="primary-3" data-name="primary" d="M8.89,18l3.18,3.18,3.04-3.04" transform="translate(-4.027 -5.18)" fill="none" stroke="#627282" stroke-linecap="round" stroke-linejoin="round" stroke-width="1.5"/>
  </g>
</svg>
