<svg xmlns="http://www.w3.org/2000/svg" width="21.636" height="21.5" viewBox="0 0 21.636 21.5">
  <g id="Group_41282" data-name="Group 41282" transform="translate(0.857 0.75)">
    <path id="primary" d="M6.336,16.834A7.63,7.63,0,0,1,3.388,8.327a7.362,7.362,0,0,1,7.13-5.295,7.377,7.377,0,0,1,6.959,5.529,4.979,4.979,0,0,1,.925-.091,4.708,4.708,0,0,1,4.609,4.113A4.792,4.792,0,0,1,19.7,17.851" transform="translate(-3.056 -3.031)" fill="none" stroke="#627282" stroke-linecap="round" stroke-linejoin="round" stroke-width="1.5"/>
    <line id="primary-2" data-name="primary" y2="9" transform="translate(9.964 10.82)" fill="none" stroke="#627282" stroke-linecap="round" stroke-linejoin="round" stroke-width="1.5"/>
    <path id="primary-3" data-name="primary" d="M8.89,18l3.18,3.18,3.04-3.04" transform="translate(-2.038 -1.18)" fill="none" stroke="#627282" stroke-linecap="round" stroke-linejoin="round" stroke-width="1.5"/>
  </g>
</svg>
