<svg xmlns="http://www.w3.org/2000/svg" xmlns:xlink="http://www.w3.org/1999/xlink" width="100" height="100" viewBox="0 0 100 100">
  <defs>
    <linearGradient id="linear-gradient" x1="0.5" x2="0.5" y2="1" gradientUnits="objectBoundingBox">
      <stop offset="0" stop-color="#f75a51"/>
      <stop offset="1" stop-color="#fd5a2c"/>
    </linearGradient>
    <clipPath id="clip-path">
      <rect id="Rectangle_10989" data-name="Rectangle 10989" width="52" height="52" transform="translate(522 877)" fill="#fff" stroke="#707070" stroke-width="1"/>
    </clipPath>
  </defs>
  <g id="Group_19669" data-name="Group 19669" transform="translate(-768 -393)">
    <rect id="Rectangle_10595" data-name="Rectangle 10595" width="100" height="100" rx="24" transform="translate(768 393)" fill="url(#linear-gradient)"/>
    <g id="Mask_Group_19463" data-name="Mask Group 19463" transform="translate(270 -460)" clip-path="url(#clip-path)">
      <g id="receipt-text" transform="translate(519.739 874.056)">
        <path id="Path_63746" data-name="Path 63746" d="M45.736,27.672H37.681a1.779,1.779,0,0,1-1.766-1.766V9.444a6.513,6.513,0,0,1,6.5-6.5h.024A11.177,11.177,0,0,1,53.554,14.13v5.7A7.4,7.4,0,0,1,45.736,27.672Zm-6.288-3.533h6.288a3.93,3.93,0,0,0,4.31-4.31v-5.7a7.639,7.639,0,0,0-7.607-7.654h-.024a2.96,2.96,0,0,0-2.1.871,2.92,2.92,0,0,0-.871,2.1v14.7Z" fill="#fff"/>
        <path id="Path_63746_-_Outline" data-name="Path 63746 - Outline" d="M45.736,27.922H37.681a2.019,2.019,0,0,1-2.016-2.016V9.444a6.763,6.763,0,0,1,6.75-6.75h.024A11.427,11.427,0,0,1,53.8,14.13v5.7A8.01,8.01,0,0,1,51.6,25.678,8.041,8.041,0,0,1,45.736,27.922Zm-3.3-24.728h-.022a6.263,6.263,0,0,0-6.25,6.25V25.906a1.537,1.537,0,0,0,1.516,1.516h8.054a7.553,7.553,0,0,0,5.505-2.1A7.523,7.523,0,0,0,53.3,19.831v-5.7A10.927,10.927,0,0,0,42.436,3.194Zm3.3,21.2H39.2V9.444a3.153,3.153,0,0,1,.945-2.273,3.2,3.2,0,0,1,2.273-.945h.024a7.889,7.889,0,0,1,7.857,7.9v5.7a4.617,4.617,0,0,1-1.2,3.356A4.617,4.617,0,0,1,45.736,24.389Zm-6.038-.5h6.038a4.079,4.079,0,0,0,3-1.057,4.079,4.079,0,0,0,1.057-3v-5.7a7.389,7.389,0,0,0-7.36-7.4h-.021a2.7,2.7,0,0,0-1.919.8,2.663,2.663,0,0,0-.8,1.919Z" fill="#fff"/>
        <path id="Path_63747" data-name="Path 63747" d="M21.2,54.944a4.022,4.022,0,0,1-2.92-1.225l-3.909-3.933a.579.579,0,0,0-.777-.047L9.562,52.754a4.116,4.116,0,0,1-6.594-3.3V14.13c0-7.112,4.074-11.187,11.187-11.187H42.415a1.766,1.766,0,0,1,0,3.533A2.945,2.945,0,0,0,39.471,9.42V49.457a4.116,4.116,0,0,1-6.594,3.3L28.85,49.739a.572.572,0,0,0-.754.047l-3.957,3.957A4.191,4.191,0,0,1,21.2,54.944Zm-7.277-8.855a4.059,4.059,0,0,1,2.944,1.225l3.909,3.933a.627.627,0,0,0,.848,0l3.957-3.957a4.1,4.1,0,0,1,5.393-.353l4,2.991a.538.538,0,0,0,.612.047.586.586,0,0,0,.33-.518V9.42a6.465,6.465,0,0,1,.707-2.944H14.13C8.9,6.476,6.476,8.9,6.476,14.13V49.457a.6.6,0,0,0,.33.542.55.55,0,0,0,.612-.071l4.027-3.014a4.159,4.159,0,0,1,2.473-.824Z" fill="#fff"/>
        <path id="Path_63747_-_Outline" data-name="Path 63747 - Outline" d="M21.2,55.194a4.28,4.28,0,0,1-3.1-1.3l-3.907-3.931a.329.329,0,0,0-.443-.028l-.007.005L9.711,52.954a4.366,4.366,0,0,1-6.994-3.5V14.13A14.388,14.388,0,0,1,3.48,9.3,9.306,9.306,0,0,1,9.322,3.456a14.389,14.389,0,0,1,4.832-.762H42.415a2.016,2.016,0,0,1,0,4.033A2.7,2.7,0,0,0,39.721,9.42V49.457A4.36,4.36,0,0,1,37.3,53.378a4.293,4.293,0,0,1-1.936.463,4.4,4.4,0,0,1-2.636-.887L28.7,49.939a.322.322,0,0,0-.427.024L24.316,53.92A4.46,4.46,0,0,1,21.2,55.194Zm-7.244-5.832a.823.823,0,0,1,.594.25l3.908,3.931A3.786,3.786,0,0,0,21.2,54.694a3.96,3.96,0,0,0,2.77-1.13l3.954-3.954a.818.818,0,0,1,.581-.24.826.826,0,0,1,.5.172l4.024,3.012a3.9,3.9,0,0,0,2.336.787,3.792,3.792,0,0,0,1.711-.409,3.863,3.863,0,0,0,2.148-3.475V9.42a3.2,3.2,0,0,1,3.194-3.194,1.516,1.516,0,0,0,0-3.033H14.154a13.893,13.893,0,0,0-4.664.733A8.807,8.807,0,0,0,3.951,9.466a13.893,13.893,0,0,0-.733,4.664V49.457A3.862,3.862,0,0,0,5.364,52.93a3.829,3.829,0,0,0,4.047-.376l4.025-3.013A.832.832,0,0,1,13.951,49.362Zm7.244,2.3a.862.862,0,0,1-.6-.238l-3.91-3.934a3.816,3.816,0,0,0-2.767-1.151h0a3.93,3.93,0,0,0-2.324.775L7.571,50.125a.816.816,0,0,1-.509.185.831.831,0,0,1-.368-.088l-.017-.009a.843.843,0,0,1-.451-.756V14.13c0-2.708.634-4.659,1.94-5.964s3.256-1.94,5.964-1.94h22.9l-.187.364a6.22,6.22,0,0,0-.679,2.83V49.457a.832.832,0,0,1-.451.732.78.78,0,0,1-.4.109.826.826,0,0,1-.492-.169L30.82,47.137a3.847,3.847,0,0,0-5.067.33L21.8,51.423A.862.862,0,0,1,21.2,51.661Zm-7.277-5.822a4.31,4.31,0,0,1,3.123,1.3l3.907,3.931a.379.379,0,0,0,.494,0L25.4,47.113a4.347,4.347,0,0,1,5.722-.375l4,2.989a.335.335,0,0,0,.2.071.278.278,0,0,0,.139-.038.336.336,0,0,0,.208-.3V9.42a6.744,6.744,0,0,1,.561-2.694H14.13c-2.569,0-4.4.587-5.611,1.793S6.726,11.562,6.726,14.13V49.457a.345.345,0,0,0,.2.322.325.325,0,0,0,.137.032.315.315,0,0,0,.2-.078l.006,0L11.3,46.713A4.434,4.434,0,0,1,13.918,45.839Z" fill="#fff"/>
        <path id="Path_63748" data-name="Path 63748" d="M28.261,22.962H14.13a1.766,1.766,0,0,1,0-3.533h14.13a1.766,1.766,0,1,1,0,3.533Z" fill="#fff"/>
        <path id="Path_63748_-_Outline" data-name="Path 63748 - Outline" d="M28.261,23.212H14.13a2.016,2.016,0,0,1,0-4.033h14.13a2.016,2.016,0,1,1,0,4.033ZM14.13,19.679a1.516,1.516,0,0,0,0,3.033h14.13a1.516,1.516,0,1,0,0-3.033Z" fill="#fff"/>
        <path id="Path_63749" data-name="Path 63749" d="M26.495,32.382H15.9a1.766,1.766,0,0,1,0-3.533h10.6a1.766,1.766,0,0,1,0,3.533Z" fill="#fff"/>
        <path id="Path_63749_-_Outline" data-name="Path 63749 - Outline" d="M26.495,32.632H15.9a2.016,2.016,0,1,1,0-4.033h10.6a2.016,2.016,0,1,1,0,4.033ZM15.9,29.1a1.516,1.516,0,1,0,0,3.033h10.6a1.516,1.516,0,1,0,0-3.033Z" fill="#fff"/>
      </g>
    </g>
  </g>
</svg>
