<svg width="17" height="18" viewBox="0 0 17 18" fill="none" xmlns="http://www.w3.org/2000/svg">
<g clip-path="url(#clip0_4994_10606)">
<g clip-path="url(#clip1_4994_10606)">
<g clip-path="url(#clip2_4994_10606)">
<path d="M8.5 1.775C4.51612 1.775 1.275 5.01612 1.275 9C1.275 12.9839 4.51612 16.225 8.5 16.225C12.4839 16.225 15.725 12.9839 15.725 9C15.725 5.01612 12.4839 1.775 8.5 1.775ZM8.5 0.5C13.1944 0.5 17 4.30558 17 9C17 13.6944 13.1944 17.5 8.5 17.5C3.80558 17.5 0 13.6944 0 9C0 4.30558 3.80558 0.5 8.5 0.5Z" fill="#C61F1B"/>
<path d="M3.89407 14.8438C2.75145 13.9445 1.89837 12.7293 1.4408 11.3491C1.9001 12.7281 2.75331 13.9424 3.8951 14.8417L3.89407 14.8438ZM8.49568 14.1989C8.22571 14.1983 7.96703 14.0905 7.77624 13.8995C7.58544 13.7085 7.47808 13.4499 7.4778 13.18C7.47741 13.0459 7.50353 12.9128 7.55458 12.7888C7.60563 12.6648 7.68064 12.5522 7.77533 12.4573C7.86966 12.3622 7.9819 12.2867 8.10555 12.2352C8.22919 12.1838 8.36177 12.1578 8.49568 12.1579C8.76623 12.1582 9.02576 12.2653 9.21746 12.4562C9.40916 12.6471 9.51748 12.9063 9.51888 13.1768C9.51917 13.4478 9.41193 13.7075 9.2207 13.8995C9.02948 14.0916 8.76992 14.2001 8.49892 14.201L8.49568 14.1989ZM8.49568 10.8065C8.25781 10.8116 8.02769 10.7217 7.85561 10.5574C7.68353 10.3931 7.58365 10.1675 7.5778 9.92969V9.68533C7.59837 9.21642 7.74 8.76082 7.98895 8.36292C8.23789 7.96501 8.58558 7.63814 8.99827 7.41455L9.01111 7.40729C9.45842 7.12041 9.60928 6.92056 9.60928 6.61456C9.60176 6.32626 9.48033 6.05258 9.27168 5.85349C9.06302 5.65439 8.78402 5.54607 8.49568 5.55206C8.20734 5.54607 7.92847 5.65439 7.71982 5.85349C7.51117 6.05258 7.38973 6.32626 7.38221 6.61456C7.37336 6.85178 7.27225 7.0765 7.10037 7.24023C6.9285 7.40397 6.69949 7.49399 6.46212 7.49133C6.22475 7.49399 5.99574 7.40397 5.82387 7.24023C5.65199 7.0765 5.55088 6.85178 5.54203 6.61456C5.5618 5.84998 5.88374 5.12468 6.43735 4.59695C6.99096 4.06923 7.73103 3.7822 8.49568 3.79904C9.26005 3.78249 9.9999 4.06975 10.5531 4.59747C11.1063 5.12519 11.4279 5.85027 11.4474 6.61456C11.4277 7.07699 11.2881 7.52656 11.0425 7.91882C10.7968 8.31109 10.4534 8.63255 10.046 8.85214H10.0395C9.56031 9.15814 9.4137 9.35181 9.4137 9.68118V9.92554C9.40895 10.1636 9.30998 10.3897 9.13847 10.5548C8.96697 10.72 8.73697 10.8107 8.49892 10.8065H8.49568ZM15.8185 7.69315C15.6306 6.62724 15.2093 5.61594 14.585 4.73184C13.926 3.78757 13.0558 3.0104 12.0435 2.46158C13.057 3.00852 13.9281 3.7852 14.587 4.72977C15.2121 5.61429 15.6334 6.62638 15.8206 7.69315H15.8185ZM3.22365 3.75339C3.99024 2.98026 4.91836 2.38608 5.94151 2.01385C4.91999 2.388 3.99316 2.98235 3.22676 3.75443L3.22365 3.75339Z" fill="#C61F1B"/>
</g>
</g>
</g>
<defs>
<clipPath id="clip0_4994_10606">
<rect width="17" height="17" fill="white" transform="translate(0 0.5)"/>
</clipPath>
<clipPath id="clip1_4994_10606">
<rect width="17" height="17" fill="white" transform="translate(0 0.5)"/>
</clipPath>
<clipPath id="clip2_4994_10606">
<rect width="17" height="17" fill="white" transform="translate(0 0.5)"/>
</clipPath>
</defs>
</svg>
