<svg id="Hướng_dẫn" data-name="Hướng dẫn" xmlns="http://www.w3.org/2000/svg" width="16" height="16" viewBox="0 0 16 16">
  <g id="Component_1075_4" data-name="Component 1075 – 4">
    <g id="Path_85460" data-name="Path 85460" fill="none">
      <path d="M8,0A8,8,0,1,1,0,8,8,8,0,0,1,8,0Z" stroke="none"/>
      <path d="M 8 1.199999809265137 C 4.250470161437988 1.199999809265137 1.199999809265137 4.250470161437988 1.199999809265137 8 C 1.199999809265137 11.74952983856201 4.250470161437988 14.80000019073486 8 14.80000019073486 C 11.74952983856201 14.80000019073486 14.80000019073486 11.74952983856201 14.80000019073486 8 C 14.80000019073486 4.250470161437988 11.74952983856201 1.199999809265137 8 1.199999809265137 M 8 0 C 12.41827964782715 0 16 3.581720352172852 16 8 C 16 12.41827964782715 12.41827964782715 16 8 16 C 3.581720352172852 16 0 12.41827964782715 0 8 C 0 3.581720352172852 3.581720352172852 0 8 0 Z" stroke="none" fill="#fff"/>
    </g>
    <path id="Exclusion_8" data-name="Exclusion 8" d="M-1910.334-6791.5a6.981,6.981,0,0,1-2.309-3.289,7,7,0,0,0,2.31,3.287Zm4.331-.607a.96.96,0,0,1-.958-.959.959.959,0,0,1,.28-.68.954.954,0,0,1,.678-.282.964.964,0,0,1,.963.959A.963.963,0,0,1-1906-6792.105Zm0-3.193a.846.846,0,0,1-.864-.825v-.23a2.558,2.558,0,0,1,1.337-2.137l.012-.007c.421-.27.563-.458.563-.746a1.027,1.027,0,0,0-1.048-1,1.027,1.027,0,0,0-1.048,1,.857.857,0,0,1-.866.825.857.857,0,0,1-.866-.825,2.721,2.721,0,0,1,2.78-2.65,2.72,2.72,0,0,1,2.778,2.65,2.514,2.514,0,0,1-1.319,2.106l-.006,0c-.451.288-.589.47-.589.78v.23A.846.846,0,0,1-1906-6795.3Zm6.892-2.93a6.912,6.912,0,0,0-1.161-2.787,6.965,6.965,0,0,0-2.392-2.137,6.934,6.934,0,0,1,2.394,2.135,6.9,6.9,0,0,1,1.161,2.789Zm-11.854-3.708h0a6.947,6.947,0,0,1,2.558-1.637A6.985,6.985,0,0,0-1910.962-6801.937Z" transform="translate(1913.999 6805)" fill="#fff"/>
  </g>
</svg>
