<svg width="16" height="16" viewBox="0 0 16 16" fill="none" xmlns="http://www.w3.org/2000/svg">
<g clip-path="url(#clip0_4994_10583)">
<g clip-path="url(#clip1_4994_10583)">
<g clip-path="url(#clip2_4994_10583)">
<path d="M15.2583 14.075L12.425 11.25C13.3392 10.0854 13.8352 8.64722 13.8333 7.16667C13.8333 5.84813 13.4423 4.5592 12.7098 3.46287C11.9773 2.36654 10.9361 1.51206 9.71789 1.00747C8.49972 0.502889 7.15927 0.370866 5.86607 0.628101C4.57286 0.885336 3.38497 1.52027 2.45262 2.45262C1.52027 3.38497 0.885336 4.57286 0.628101 5.86607C0.370866 7.15927 0.502889 8.49972 1.00747 9.71789C1.51206 10.9361 2.36654 11.9773 3.46287 12.7098C4.5592 13.4423 5.84813 13.8333 7.16667 13.8333C8.64722 13.8352 10.0854 13.3392 11.25 12.425L14.075 15.2583C14.1527 15.336 14.2449 15.3977 14.3465 15.4397C14.448 15.4818 14.5568 15.5034 14.6667 15.5034C14.7766 15.5034 14.8854 15.4818 14.9869 15.4397C15.0884 15.3977 15.1806 15.336 15.2583 15.2583C15.336 15.1806 15.3977 15.0884 15.4397 14.9869C15.4818 14.8854 15.5034 14.7766 15.5034 14.6667C15.5034 14.5568 15.4818 14.448 15.4397 14.3465C15.3977 14.2449 15.336 14.1527 15.2583 14.075ZM2.16667 7.16667C2.16667 6.17776 2.45991 5.21106 3.00932 4.38882C3.55873 3.56657 4.33962 2.92571 5.25325 2.54727C6.16688 2.16883 7.17222 2.06982 8.14212 2.26274C9.11203 2.45567 10.0029 2.93187 10.7022 3.63114C11.4015 4.3304 11.8777 5.22131 12.0706 6.19122C12.2635 7.16112 12.1645 8.16646 11.7861 9.08009C11.4076 9.99372 10.7668 10.7746 9.94452 11.324C9.12228 11.8734 8.15558 12.1667 7.16667 12.1667C5.84059 12.1667 4.56882 11.6399 3.63114 10.7022C2.69345 9.76452 2.16667 8.49275 2.16667 7.16667Z" fill="#C61F1B"/>
</g>
</g>
</g>
<defs>
<clipPath id="clip0_4994_10583">
<rect width="16" height="16" fill="white"/>
</clipPath>
<clipPath id="clip1_4994_10583">
<rect width="16" height="16" fill="white"/>
</clipPath>
<clipPath id="clip2_4994_10583">
<rect width="16" height="16" fill="white"/>
</clipPath>
</defs>
</svg>
