<svg width="19" height="4" viewBox="0 0 19 4" fill="none" xmlns="http://www.w3.org/2000/svg">
<path d="M9.21429 3C9.76658 3 10.2143 2.55228 10.2143 2C10.2143 1.44772 9.76658 1 9.21429 1C8.66201 1 8.21429 1.44772 8.21429 2C8.21429 2.55228 8.66201 3 9.21429 3Z" stroke="#C61F1B" stroke-width="2" stroke-linecap="round" stroke-linejoin="round"/>
<path d="M16.2143 3C16.7666 3 17.2143 2.55228 17.2143 2C17.2143 1.44772 16.7666 1 16.2143 1C15.662 1 15.2143 1.44772 15.2143 2C15.2143 2.55228 15.662 3 16.2143 3Z" stroke="#C61F1B" stroke-width="2" stroke-linecap="round" stroke-linejoin="round"/>
<path d="M2.21429 3C2.76658 3 3.21429 2.55228 3.21429 2C3.21429 1.44772 2.76658 1 2.21429 1C1.66201 1 1.21429 1.44772 1.21429 2C1.21429 2.55228 1.66201 3 2.21429 3Z" stroke="#C61F1B" stroke-width="2" stroke-linecap="round" stroke-linejoin="round"/>
</svg>
