<svg width="89" height="88" viewBox="0 0 89 88" fill="none" xmlns="http://www.w3.org/2000/svg">
  <g clip-path="url(#clip0_628_7582)">
    <path d="M70.9 0H18.1C8.37979 0 0.5 7.87979 0.5 17.6V70.4C0.5 80.1202 8.37979 88 18.1 88H70.9C80.6202 88 88.5 80.1202 88.5 70.4V17.6C88.5 7.87979 80.6202 0 70.9 0Z" fill="url(#paint0_linear_628_7582)"/>
    <path d="M66.9707 45.6713C68.3609 45.6713 69.7199 45.259 70.8758 44.4867C72.0317 43.7143 72.9327 42.6165 73.4647 41.3321C73.9967 40.0478 74.1359 38.6345 73.8646 37.271C73.5934 35.9075 72.924 34.655 71.941 33.672C70.9579 32.689 69.7055 32.0195 68.342 31.7483C66.9785 31.4771 65.5652 31.6163 64.2808 32.1483C62.9964 32.6803 61.8987 33.5813 61.1263 34.7372C60.354 35.8931 59.9417 37.2521 59.9417 38.6423C59.9423 40.5063 60.683 42.2938 62.0011 43.6119C63.3192 44.9299 65.1067 45.6707 66.9707 45.6713ZM45.883 45.6713C47.505 45.6713 49.0905 45.1903 50.4391 44.2892C51.7878 43.388 52.8389 42.1073 53.4596 40.6087C54.0803 39.1102 54.2427 37.4613 53.9263 35.8705C53.6098 34.2797 52.8288 32.8184 51.6819 31.6715C50.535 30.5246 49.0737 29.7435 47.4829 29.4271C45.8921 29.1107 44.2432 29.2731 42.7446 29.8938C41.2461 30.5145 39.9653 31.5656 39.0642 32.9142C38.1631 34.2629 37.6821 35.8484 37.6821 37.4704C37.6815 38.5475 37.8933 39.6142 38.3052 40.6094C38.7171 41.6047 39.3212 42.5089 40.0828 43.2706C40.8444 44.0322 41.7487 44.6363 42.744 45.0482C43.7392 45.4601 44.8059 45.6718 45.883 45.6713ZM51.7482 47.1357C49.3025 47.1357 48.6946 48.0157 45.8815 48.0157C43.0684 48.0157 42.462 47.1357 40.0148 47.1357C38.6932 47.1106 37.3856 47.4106 36.2071 48.0095C35.0286 48.6083 34.0153 49.4876 33.2564 50.5699C32.3192 51.9609 31.8204 53.6007 31.8242 55.2779V58.5581C31.8244 59.4903 32.1948 60.3842 32.8539 61.0433C33.5131 61.7024 34.407 62.0728 35.3391 62.073H56.4268C57.359 62.0728 58.2529 61.7024 58.912 61.0433C59.5711 60.3842 59.9415 59.4903 59.9417 58.5581V55.2779C59.9447 53.6004 59.4448 51.9605 58.5066 50.5699C57.7477 49.4876 56.7344 48.6083 55.5559 48.0095C54.3774 47.4106 53.0698 47.1106 51.7482 47.1357ZM77.4926 50.1453C76.8596 49.2444 76.0152 48.5126 75.0336 48.014C74.0519 47.5153 72.9629 47.2651 71.862 47.2853C69.8263 47.2853 69.3137 48.0187 66.9707 48.0187C64.6277 48.0187 64.1151 47.2853 62.0794 47.2853C61.1128 47.2853 60.8202 47.6439 59.941 48.0187C61.0542 49.1465 61.9899 50.5017 62.7093 53.4659C63.1202 55.5352 63.1202 57.6651 62.7093 59.7344H75.7568C76.1417 59.7343 76.5228 59.6583 76.8783 59.5108C77.2338 59.3633 77.5568 59.1471 77.8287 58.8747C78.1006 58.6022 78.3161 58.2789 78.4629 57.923C78.6097 57.5672 78.6849 57.186 78.6842 56.8011V54.0694C78.688 52.6717 78.2729 51.3049 77.4926 50.1453Z" fill="#FEF8E8" stroke="#FEF8E8" stroke-width="0.868718"/>
    <mask id="mask0_628_7582" style="mask-type:luminance" maskUnits="userSpaceOnUse" x="10" y="28" width="26" height="33">
      <path d="M34.2341 31.0525C34.2341 31.0525 37.0245 43.25 34.4673 46.4488C31.9102 49.6476 30.8902 48.6774 29.7799 53.604C28.6696 58.5305 30.1143 60.8097 30.1143 60.8097H11.4253C11.4253 60.8097 9.86261 56.8717 10.4441 49.4328C11.0257 41.9938 13.7441 31.0532 13.7441 31.0532C13.7441 31.0532 19.5822 28.6758 24.7038 28.6758C28.0169 28.7563 31.2712 29.5679 34.2341 31.0525Z" fill="white"/>
    </mask>
    <g mask="url(#mask0_628_7582)">
      <path d="M24.2646 45.672C22.8744 45.672 21.5154 45.2598 20.3595 44.4874C19.2036 43.715 18.3026 42.6173 17.7706 41.3329C17.2386 40.0485 17.0994 38.6352 17.3706 37.2717C17.6419 35.9082 18.3113 34.6558 19.2943 33.6727C20.2773 32.6897 21.5298 32.0203 22.8933 31.7491C24.2568 31.4778 25.6701 31.617 26.9545 32.1491C28.2388 32.6811 29.3366 33.582 30.109 34.7379C30.8813 35.8938 31.2936 37.2528 31.2936 38.643C31.293 40.507 30.5523 42.2945 29.2342 43.6126C27.9161 44.9307 26.1286 45.6714 24.2646 45.672ZM45.3516 45.6713C43.7296 45.6713 42.144 45.1903 40.7953 44.2891C39.4467 43.388 38.3956 42.1071 37.7749 40.6086C37.1542 39.11 36.9919 37.4611 37.3083 35.8702C37.6248 34.2794 38.406 32.8181 39.553 31.6713C40.6999 30.5244 42.1613 29.7434 43.7521 29.427C45.343 29.1107 46.9919 29.2732 48.4904 29.894C49.9889 30.5148 51.2697 31.5661 52.1707 32.9148C53.0717 34.2635 53.5526 35.8491 53.5525 37.4711C53.553 38.5482 53.3413 39.6148 52.9294 40.61C52.5176 41.6052 51.9136 42.5094 51.152 43.2711C50.3905 44.0327 49.4863 44.6367 48.4911 45.0487C47.496 45.4607 46.4294 45.6725 45.3523 45.672L45.3516 45.6713ZM45.3516 31.6125C44.193 31.6125 43.0604 31.9561 42.0971 32.5998C41.1338 33.2434 40.383 34.1583 39.9396 35.2287C39.4963 36.2991 39.3802 37.4769 39.6063 38.6132C39.8323 39.7495 40.3902 40.7933 41.2094 41.6125C42.0287 42.4318 43.0725 42.9897 44.2088 43.2157C45.3451 43.4417 46.5229 43.3257 47.5933 42.8824C48.6637 42.439 49.5785 41.6882 50.2222 40.7249C50.8659 39.7615 51.2095 38.629 51.2095 37.4704C51.206 35.9184 50.5876 34.431 49.4899 33.3339C48.3921 32.2368 46.9043 31.6195 45.3523 31.6169L45.3516 31.6125ZM39.4849 47.1357C41.9306 47.1357 42.5385 48.0157 45.3516 48.0157C48.1646 48.0157 48.7711 47.1357 51.2182 47.1357C52.5399 47.1106 53.8475 47.4106 55.026 48.0095C56.2045 48.6083 57.2178 49.4876 57.9766 50.5699C58.9149 51.9605 59.4148 53.6004 59.4118 55.2779V58.5581C59.4116 59.4903 59.0412 60.3842 58.3821 61.0433C57.723 61.7024 56.8291 62.0728 55.8969 62.073H34.8084C33.8763 62.0728 32.9824 61.7024 32.3233 61.0433C31.6642 60.3842 31.2938 59.4903 31.2936 58.5581V55.2787C31.2906 53.6012 31.7905 51.9613 32.7287 50.5707C33.4876 49.4883 34.5009 48.609 35.6794 48.0102C36.8579 47.4114 38.1654 47.1113 39.4871 47.1365L39.4849 47.1357ZM33.6366 58.5589C33.6366 58.8701 33.7602 59.1685 33.9802 59.3885C34.2003 59.6086 34.4987 59.7322 34.8099 59.7322H55.8955C56.2066 59.7322 56.5051 59.6086 56.7251 59.3885C56.9452 59.1685 57.0688 58.8701 57.0688 58.5589V55.2787C57.0697 54.0686 56.71 52.8858 56.0355 51.8811C55.4913 51.1179 54.7681 50.4998 53.9294 50.081C53.0906 49.6623 52.162 49.4558 51.2249 49.4795C49.2184 49.4795 48.5012 50.3595 45.3523 50.3595C42.2034 50.3595 41.4862 49.4795 39.4856 49.4795C38.5485 49.4558 37.6199 49.6623 36.7811 50.081C35.9424 50.4998 35.2192 51.1179 34.675 51.8811C34.0008 52.8858 33.6413 54.0687 33.6424 55.2787V58.5589H33.6366ZM13.7427 50.1461C14.3757 49.2452 15.2201 48.5133 16.2017 48.0147C17.1834 47.5161 18.2724 47.2659 19.3732 47.2861C21.409 47.2861 21.9216 48.0194 24.2646 48.0194C26.6076 48.0194 27.1202 47.2861 29.1559 47.2861C30.1152 47.2946 31.063 47.4964 31.9426 47.8793C31.34 48.4376 30.8394 49.0967 30.4634 49.8271C30.0462 49.7097 28.9234 59.0385 29.065 59.7337H15.4778C15.0929 59.7338 14.7117 59.658 14.3561 59.5106C14.0005 59.3633 13.6775 59.1473 13.4055 58.875C13.1334 58.6027 12.9177 58.2794 12.7708 57.9237C12.6238 57.5679 12.5484 57.1867 12.5488 56.8018V54.0701C12.5458 52.6722 12.9616 51.3054 13.7427 50.1461Z" fill="#FEF8E8" stroke="#FEF8E8" stroke-width="0.868718"/>
    </g>
  </g>
  <defs>
    <linearGradient id="paint0_linear_628_7582" x1="44.5" y1="0" x2="44.5" y2="88" gradientUnits="userSpaceOnUse">
      <stop stop-color="#FF6C58"/>
      <stop offset="1" stop-color="#C61F1B"/>
    </linearGradient>
    <clipPath id="clip0_628_7582">
      <rect x="0.5" width="88" height="88" rx="44" fill="white"/>
    </clipPath>
  </defs>
</svg>
