<svg xmlns="http://www.w3.org/2000/svg" xmlns:xlink="http://www.w3.org/1999/xlink" width="100" height="100" viewBox="0 0 100 100">
  <defs>
    <linearGradient id="linear-gradient" x1="0.5" x2="0.5" y2="1" gradientUnits="objectBoundingBox">
      <stop offset="0" stop-color="#00f225"/>
      <stop offset="1" stop-color="#17c434"/>
    </linearGradient>
    <clipPath id="clip-path">
      <rect id="Rectangle_10982" data-name="Rectangle 10982" width="52" height="52" transform="translate(598 809)" fill="#fff" stroke="#13cb31" stroke-width="1"/>
    </clipPath>
  </defs>
  <g id="Group_19655" data-name="Group 19655" transform="translate(-1264 -393)">
    <rect id="Rectangle_10599" data-name="Rectangle 10599" width="100" height="100" rx="24" transform="translate(1264 393)" fill="url(#linear-gradient)"/>
    <g id="Mask_Group_19455" data-name="Mask Group 19455" transform="translate(690 -391)" clip-path="url(#clip-path)">
      <g id="sentiment_satisfied" data-name="sentiment satisfied" transform="translate(598 809)">
        <g id="Layer_2" data-name="Layer 2">
          <g id="Layer_1" data-name="Layer 1">
            <g id="sentiment_satisfied-2" data-name="sentiment satisfied">
              <path id="Path_63718" data-name="Path 63718" d="M26,52A26,26,0,1,1,52,26,26,26,0,0,1,26,52ZM26,4.407A21.593,21.593,0,1,0,47.593,26,21.593,21.593,0,0,0,26,4.407Z" fill="#fff"/>
              <path id="Path_63718_-_Outline" data-name="Path 63718 - Outline" d="M26,52.441h0a26.448,26.448,0,0,1-10.292-50.8,26.443,26.443,0,0,1,20.58,48.718A26.3,26.3,0,0,1,26,52.441Zm0-52a25.566,25.566,0,0,0-9.949,49.11,25.566,25.566,0,0,0,19.9-47.1A25.4,25.4,0,0,0,26,.441Zm0,47.593A22.04,22.04,0,0,1,17.423,5.7,21.9,21.9,0,0,1,26,3.966h0a22.034,22.034,0,1,1,0,44.068ZM26,4.847A21.158,21.158,0,0,0,17.767,45.49,21.154,21.154,0,1,0,26,4.847Z" fill="#13cb31"/>
              <path id="Path_63719" data-name="Path 63719" d="M26,40.243a14.851,14.851,0,0,1-10.347-4.107,2.2,2.2,0,1,1,3.067-3.164,10.576,10.576,0,0,0,14.56,0,2.2,2.2,0,1,1,3.067,3.164A14.851,14.851,0,0,1,26,40.243Z" fill="#fff"/>
              <path id="Path_63719_-_Outline" data-name="Path 63719 - Outline" d="M26.094,40.684h-.188a15.291,15.291,0,0,1-10.557-4.229,2.644,2.644,0,1,1,3.678-3.8,10.136,10.136,0,0,0,13.95,0,2.644,2.644,0,0,1,3.677,3.8,15.292,15.292,0,0,1-10.56,4.232ZM26,39.8h0a14.35,14.35,0,0,0,10.04-3.985,1.763,1.763,0,0,0-2.456-2.529,11.017,11.017,0,0,1-15.17,0,1.763,1.763,0,1,0-2.457,2.528A14.348,14.348,0,0,0,26,39.8Z" fill="#13cb31"/>
              <path id="Path_63720" data-name="Path 63720" d="M38.78,22.995a2.177,2.177,0,0,1-1.763-.811,2.908,2.908,0,0,0-3.966-.494,2.2,2.2,0,1,1-2.644-3.525A7.333,7.333,0,0,1,40.463,19.39a2.226,2.226,0,0,1-1.683,3.6Z" fill="#fff"/>
              <path id="Path_63720_-_Outline" data-name="Path 63720 - Outline" d="M38.713,23.436a2.605,2.605,0,0,1-2.037-.974,2.467,2.467,0,0,0-3.364-.417,2.644,2.644,0,0,1-3.7-.531,2.647,2.647,0,0,1,.529-3.7A7.773,7.773,0,0,1,40.8,19.11a2.666,2.666,0,0,1-2.013,4.325Zm-3.941-2.752A3.34,3.34,0,0,1,37.357,21.9l0,0a1.728,1.728,0,0,0,1.406.647h.005a1.733,1.733,0,0,0,1.081-.407l.009-.008a1.745,1.745,0,0,0,.26-2.47,6.891,6.891,0,0,0-9.452-1.151,1.763,1.763,0,0,0,2.116,2.82A3.328,3.328,0,0,1,34.771,20.685Z" fill="#13cb31"/>
              <path id="Path_63721" data-name="Path 63721" d="M13.22,22.995a2.195,2.195,0,0,1-1.683-3.6,7.324,7.324,0,0,1,10.03-1.234,2.2,2.2,0,1,1-2.644,3.525,2.908,2.908,0,0,0-3.966.494,2.177,2.177,0,0,1-1.736.82Z" fill="#fff"/>
              <path id="Path_63721_-_Outline" data-name="Path 63721 - Outline" d="M13.253,23.436h-.036A2.635,2.635,0,0,1,11.2,19.107a7.764,7.764,0,0,1,10.63-1.3,2.644,2.644,0,1,1-3.171,4.232,2.468,2.468,0,0,0-3.36.419A2.606,2.606,0,0,1,13.253,23.436ZM17.2,17.152a6.864,6.864,0,0,0-5.326,2.518,1.754,1.754,0,0,0,1.341,2.885h.036a1.727,1.727,0,0,0,1.358-.654l0-.006a3.349,3.349,0,0,1,4.567-.568A1.763,1.763,0,1,0,21.3,18.508,6.827,6.827,0,0,0,17.2,17.152Z" fill="#13cb31"/>
            </g>
          </g>
        </g>
      </g>
    </g>
  </g>
</svg>
