<svg id="Group_43321" data-name="Group 43321" xmlns="http://www.w3.org/2000/svg" width="40" height="40" viewBox="0 0 40 40">
  <rect id="Rectangle_13915" data-name="Rectangle 13915" width="40" height="40" rx="20" fill="#e81e1f"/>
  <g id="Component_1109_23" data-name="Component 1109 – 23" transform="translate(9.786 10.176)">
    <g id="Group_41412" data-name="Group 41412">
      <path id="Path_82997" data-name="Path 82997" d="M51.095,6.549A4.347,4.347,0,0,1,52.36,4.1a.684.684,0,0,0,0-.968L49.428.2a.684.684,0,0,0-.912-.05L48.09.492A3.945,3.945,0,0,1,42.831.2a.685.685,0,0,0-.968,0A3.944,3.944,0,0,1,36.6.492L36.177.15A.684.684,0,0,0,35.266.2L32.333,3.133a.685.685,0,0,0,0,.967A4.347,4.347,0,0,1,33.6,6.549a7.866,7.866,0,0,1-.684,3.411,9.13,9.13,0,0,0-.782,3.919c0,4.057,3.416,5.6,6.161,6.844,1.536.695,2.987,1.351,3.44,2.258a.684.684,0,0,0,1.224,0c.454-.907,1.9-1.563,3.44-2.258,2.745-1.242,6.161-2.787,6.161-6.844a9.13,9.13,0,0,0-.782-3.919,7.867,7.867,0,0,1-.684-3.411Zm-3.39,3.3-2.182,2.127.515,3a.684.684,0,0,1-.993.721l-2.7-1.418-2.7,1.418a.684.684,0,0,1-.993-.722l.515-3L36.989,9.851a.684.684,0,0,1,.379-1.167l3.016-.438,1.349-2.733a.684.684,0,0,1,1.227,0L44.31,8.246l3.016.438A.684.684,0,0,1,47.7,9.851Z" transform="translate(-32.133 0)" fill="#fff"/>
      <path id="Path_82998" data-name="Path 82998" d="M185.581,163.173l-.894-1.812-.894,1.812a.684.684,0,0,1-.515.374l-2,.291,1.447,1.41a.684.684,0,0,1,.2.606l-.342,1.992,1.789-.94a.684.684,0,0,1,.637,0l1.789.94-.341-1.992a.685.685,0,0,1,.2-.606l1.447-1.41-2-.291A.684.684,0,0,1,185.581,163.173Z" transform="translate(-174.472 -153.999)" fill="#fff"/>
    </g>
  </g>
</svg>
