<svg id="Kiểm_tra_Giám_sát" data-name="Kiểm tra, Giám sát" xmlns="http://www.w3.org/2000/svg" width="120" height="120" viewBox="0 0 120 120">
  <rect id="Rectangle_13915" data-name="Rectangle 13915" width="120" height="120" rx="24" fill="#e81e1f"/>
  <g id="Component_1109_15" data-name="Component 1109 – 15" transform="translate(25.956 21.139)">
    <g id="Group_41412" data-name="Group 41412" transform="translate(0 0)">
      <path id="Path_82997" data-name="Path 82997" d="M95.222,21.789c0-3.2,3.042-6.968,4.211-8.146a2.277,2.277,0,0,0,0-3.22L89.677.667A2.277,2.277,0,0,0,86.643.5L85.224,1.637a13.124,13.124,0,0,1-17.5-.969,2.278,2.278,0,0,0-3.222,0,13.124,13.124,0,0,1-17.495.97L45.588.5a2.277,2.277,0,0,0-3.032.169L32.8,10.423a2.281,2.281,0,0,0,0,3.217c1.172,1.18,4.214,4.946,4.214,8.149a26.172,26.172,0,0,1-2.276,11.349,30.378,30.378,0,0,0-2.6,13.04c0,13.5,11.367,18.64,20.5,22.772,5.111,2.312,9.938,4.5,11.447,7.514a2.277,2.277,0,0,0,4.073,0c1.509-3.018,6.336-5.2,11.447-7.514,9.133-4.132,20.5-9.274,20.5-22.772a30.377,30.377,0,0,0-2.6-13.04,26.174,26.174,0,0,1-2.276-11.349ZM83.943,32.777l-7.261,7.078L78.4,49.849a2.277,2.277,0,0,1-3.3,2.4l-8.975-4.718-8.976,4.718a2.277,2.277,0,0,1-3.3-2.4l1.715-9.994-7.261-7.078a2.277,2.277,0,0,1,1.262-3.884l10.035-1.458,4.487-9.093a2.277,2.277,0,0,1,4.084,0l4.488,9.093,10.035,1.458a2.277,2.277,0,0,1,1.262,3.884Z" transform="translate(-32.133 0)" fill="#fff"/>
      <path id="Path_82998" data-name="Path 82998" d="M195.6,167.39l-2.976-6.029-2.975,6.029a2.277,2.277,0,0,1-1.714,1.246l-6.653.967,4.814,4.693a2.277,2.277,0,0,1,.655,2.016l-1.137,6.626,5.951-3.128a2.277,2.277,0,0,1,2.119,0l5.952,3.129-1.136-6.627a2.278,2.278,0,0,1,.655-2.015l4.814-4.693-6.654-.967A2.278,2.278,0,0,1,195.6,167.39Z" transform="translate(-158.637 -136.866)" fill="#fff"/>
    </g>
  </g>
</svg>
