<svg xmlns="http://www.w3.org/2000/svg" xmlns:xlink="http://www.w3.org/1999/xlink" width="100" height="100" viewBox="0 0 100 100">
  <defs>
    <linearGradient id="linear-gradient" x1="0.5" x2="0.5" y2="1" gradientUnits="objectBoundingBox">
      <stop offset="0" stop-color="#f53126"/>
      <stop offset="1" stop-color="#ff4f44"/>
    </linearGradient>
    <clipPath id="clip-path">
      <rect id="Rectangle_10976" data-name="Rectangle 10976" width="56" height="56" transform="translate(122 806)" fill="#fff" stroke="#fff" stroke-width="0.5"/>
    </clipPath>
  </defs>
  <g id="Group_19658" data-name="Group 19658" transform="translate(-527 -391)">
    <rect id="Rectangle_10625" data-name="Rectangle 10625" width="100" height="100" rx="24" transform="translate(527 391)" fill="url(#linear-gradient)"/>
    <g id="Mask_Group_19441" data-name="Mask Group 19441" transform="translate(428 -393)" clip-path="url(#clip-path)">
      <g id="Group_16155" data-name="Group 16155" transform="translate(124 808)">
        <path id="Path_57347" data-name="Path 57347" d="M35.109,18.218q-.7,0-1.385.057c.037-.461.058-.923.058-1.383A16.891,16.891,0,1,0,8.44,31.518c1.077.754,6.605,2.3,6.816,1.935S9.776,30.609,9.2,30.2A15.368,15.368,0,1,1,32.258,16.892a15.754,15.754,0,0,1-.08,1.581,16.935,16.935,0,0,0-13.705,13.7,15.657,15.657,0,0,1-1.581.081A15.321,15.321,0,0,1,11.82,31.4c-.521-.121-3.241-.946-3.38-.549s-.12.852,2.877,1.987a16.845,16.845,0,0,0,5.576.943c.461,0,.923-.021,1.383-.058q-.056.685-.057,1.385A16.891,16.891,0,1,0,35.109,18.218Zm0,32.258A15.368,15.368,0,1,1,50.477,35.109,15.385,15.385,0,0,1,35.109,50.476Z" fill="#fff"/>
        <path id="Path_57347_-_Outline" data-name="Path 57347 - Outline" d="M16.892-.5a17.411,17.411,0,0,1,17.39,17.392c0,.273-.007.556-.022.846.282-.014.566-.021.849-.021A17.391,17.391,0,1,1,17.718,35.109c0-.283.008-.567.021-.849-.29.015-.573.022-.847.022h-.02a17.3,17.3,0,0,1-5.721-.971l-.012,0a16.7,16.7,0,0,1-2.149-.948,4.919,4.919,0,0,1-.818-.419A17.392,17.392,0,0,1,16.892-.5ZM33.178,18.822l.047-.587c.037-.466.056-.918.056-1.343a16.392,16.392,0,1,0-25.3,13.76A.622.622,0,0,1,8.4,30.3a15.868,15.868,0,1,1,24.362-13.4,16.323,16.323,0,0,1-.083,1.631l-.038.376-.372.066a16.435,16.435,0,0,0-13.3,13.3l-.066.371-.375.038a16.224,16.224,0,0,1-1.631.084h-.02a15.855,15.855,0,0,1-1.725-.094c.389.252.524.412.582.578q.57.04,1.143.04h.019c.426,0,.878-.019,1.343-.057l.586-.047-.048.586c-.036.442-.055.894-.055,1.345A16.391,16.391,0,1,0,35.109,18.718c-.45,0-.9.019-1.344.055Zm-1.465-.77c.03-.386.045-.775.045-1.16A14.869,14.869,0,1,0,9.453,29.766l.041.026c.165.118,1.1.569,1.934.967l.105.05c.174.047.322.087.4.1l.026.006.025.009a14.785,14.785,0,0,0,4.888.829h.019c.386,0,.775-.016,1.161-.045A17.436,17.436,0,0,1,31.713,18.052Zm-20.53,13.7a20.881,20.881,0,0,0-2.039-.472c.073.052.167.112.288.182a28.976,28.976,0,0,0,3.449,1.117C12.267,32.272,11.634,31.968,11.183,31.751Zm23.926-12.51A15.868,15.868,0,1,1,19.241,35.109,15.886,15.886,0,0,1,35.109,19.241Zm0,30.735A14.868,14.868,0,1,0,20.241,35.109,14.885,14.885,0,0,0,35.109,49.976Z" fill="#fff"/>
        <path id="Path_57348" data-name="Path 57348" d="M42.489,27.976l-2.2-1.087a2.179,2.179,0,0,0-2.921.984l-3.725,7.515-1.4-2.34a2.184,2.184,0,0,0-2.989-.752l-2.1,1.258a2.182,2.182,0,0,0-.751,2.988l4.169,6.975a2.178,2.178,0,0,0,1.869,1.061l.086,0,2.955-.117A2.175,2.175,0,0,0,37.35,43.25L39.5,38.92c.187-.377,2.421-6.055,2.044-6.241s-3.222,5.188-3.409,5.565l-2.146,4.33a.653.653,0,0,1-.561.363l-2.955.117a.655.655,0,0,1-.588-.319l-4.169-6.974a.657.657,0,0,1,.226-.9l2.1-1.257a.658.658,0,0,1,.9.226l2.116,3.538a.762.762,0,0,0,1.336-.053l4.345-8.766a.655.655,0,0,1,.88-.3l2.2,1.088a.656.656,0,0,1,.3.879l-2.635,5.314c-1.692,3-1.463,4.006-1.086,4.193s1.015-.2,2.451-3.516L43.473,30.9a2.179,2.179,0,0,0-.984-2.921Z" fill="#fff"/>
        <path id="Path_57348_-_Outline" data-name="Path 57348 - Outline" d="M39.326,26.161a2.653,2.653,0,0,1,1.19.28l2.195,1.087a2.679,2.679,0,0,1,1.21,3.592l-2.629,5.3a21.2,21.2,0,0,1-1.3,2.616c-.026.06-.039.088-.047.1L37.8,43.472a2.673,2.673,0,0,1-2.3,1.486l-2.955.117-.1,0a2.692,2.692,0,0,1-2.3-1.305L25.974,36.8a2.687,2.687,0,0,1,.923-3.673L29,31.866a2.683,2.683,0,0,1,3.675.924l.93,1.555,3.318-6.694A2.664,2.664,0,0,1,39.326,26.161Zm2.735,6.458.964-1.944a1.679,1.679,0,0,0-.758-2.251l-2.195-1.087a1.677,1.677,0,0,0-2.251.758l-4.132,8.336L31.819,33.3a1.683,1.683,0,0,0-2.3-.579l-2.1,1.257a1.685,1.685,0,0,0-.578,2.3L31,43.259a1.686,1.686,0,0,0,1.44.818h.065l2.957-.117a1.674,1.674,0,0,0,1.438-.931l1.389-2.8a.889.889,0,0,1-.125-.051.877.877,0,0,1-.307-.256L36.432,42.8a1.152,1.152,0,0,1-.99.64l-2.954.117h-.045a1.16,1.16,0,0,1-.992-.564l-4.169-6.974a1.159,1.159,0,0,1,.4-1.584l2.1-1.258a1.158,1.158,0,0,1,1.586.4l2.116,3.539a.263.263,0,0,0,.225.127h.01a.262.262,0,0,0,.224-.145l4.345-8.766a1.155,1.155,0,0,1,1.551-.521l2.195,1.087a1.158,1.158,0,0,1,.521,1.55L41.685,32.2a.556.556,0,0,1,.376.42ZM39.031,35.3,41.66,30a.156.156,0,0,0-.07-.21l-2.2-1.088a.155.155,0,0,0-.21.07L34.84,37.537a1.262,1.262,0,0,1-2.213.087l-2.116-3.538a.157.157,0,0,0-.135-.076.155.155,0,0,0-.08.022l-2.1,1.257a.157.157,0,0,0-.053.214l4.169,6.974a.156.156,0,0,0,.133.076h.006l2.955-.117a.153.153,0,0,0,.133-.085l2.146-4.33c.035-.071.155-.3.334-.637A16.673,16.673,0,0,1,39.031,35.3Zm.071,3.273c.306-.719.862-2.169,1.307-3.443-.418.718-.918,1.614-1.481,2.67a3.211,3.211,0,0,0-.3,1.391A3.026,3.026,0,0,0,39.1,38.574Z" fill="#fff"/>
        <path id="Path_57349" data-name="Path 57349" d="M9.936,20.3l1.4,1.4a2,2,0,0,0,2.821,0l1.661-1.661L17.479,21.7a2,2,0,0,0,2.821,0l1.4-1.4a2,2,0,0,0,0-2.821l-1.661-1.661L21.7,14.156a2,2,0,0,0,0-2.821l-1.4-1.4a1.994,1.994,0,0,0-2.821,0L15.817,11.6,14.156,9.936a2,2,0,0,0-2.821,0l-1.4,1.4a2,2,0,0,0,0,2.821L11.6,15.817,9.936,17.478a2,2,0,0,0,0,2.821Zm.924-1.9,2.123-2.123a.653.653,0,0,0,0-.924L10.86,13.232a.689.689,0,0,1,0-.974l1.4-1.4a.689.689,0,0,1,.974,0l2.123,2.123a.653.653,0,0,0,.924,0L18.4,10.86a.688.688,0,0,1,.974,0l1.4,1.4a.689.689,0,0,1,0,.974l-2.123,2.123a.653.653,0,0,0,0,.924L20.775,18.4a.689.689,0,0,1,0,.974l-1.4,1.4a.689.689,0,0,1-.974,0l-2.123-2.123a.653.653,0,0,0-.924,0l-2.123,2.123a.689.689,0,0,1-.974,0l-1.4-1.4a.689.689,0,0,1,0-.974Z" fill="#fff"/>
        <path id="Path_57349_-_Outline" data-name="Path 57349 - Outline" d="M12.746,22.782a2.481,2.481,0,0,1-1.764-.729l-1.4-1.4a2.5,2.5,0,0,1,0-3.528l1.308-1.308L9.583,14.509a2.5,2.5,0,0,1,0-3.528l1.4-1.4a2.5,2.5,0,0,1,3.528,0l1.308,1.308,1.308-1.308a2.494,2.494,0,0,1,3.528,0l1.4,1.4a2.5,2.5,0,0,1,0,3.528l-1.308,1.308,1.308,1.308a2.5,2.5,0,0,1,0,3.528l-1.4,1.4a2.5,2.5,0,0,1-3.528,0l-1.308-1.308L14.51,22.052A2.481,2.481,0,0,1,12.746,22.782Zm0-12.929a1.487,1.487,0,0,0-1.057.437l-1.4,1.4a1.5,1.5,0,0,0,0,2.114L12.3,15.817,10.29,17.832a1.5,1.5,0,0,0,0,2.114l1.4,1.4a1.5,1.5,0,0,0,2.114,0l2.014-2.014,2.015,2.015a1.5,1.5,0,0,0,2.114,0l1.4-1.4a1.5,1.5,0,0,0,0-2.114L19.33,15.817,21.345,13.8a1.5,1.5,0,0,0,0-2.114l-1.4-1.4a1.494,1.494,0,0,0-2.114,0L15.817,12.3,13.8,10.29A1.487,1.487,0,0,0,12.746,9.853Zm6.144,11.623a1.181,1.181,0,0,1-.84-.347l-2.124-2.124a.153.153,0,0,0-.217,0l-2.123,2.123a1.189,1.189,0,0,1-1.68,0l-1.4-1.4a1.191,1.191,0,0,1,0-1.68l.221-.222h0l1.9-1.9a.153.153,0,0,0,0-.217l-2.123-2.124a1.191,1.191,0,0,1,0-1.68l1.4-1.4a1.189,1.189,0,0,1,1.68,0l2.124,2.124a.153.153,0,0,0,.217,0l2.123-2.123a1.188,1.188,0,0,1,1.681,0l1.4,1.4a1.191,1.191,0,0,1,0,1.68l-2.124,2.124a.153.153,0,0,0,0,.217l2.123,2.123a1.191,1.191,0,0,1,0,1.68l-1.4,1.4A1.182,1.182,0,0,1,18.889,21.476ZM15.817,17.96a1.146,1.146,0,0,1,.815.338l2.123,2.123a.189.189,0,0,0,.267,0l1.4-1.4a.189.189,0,0,0,0-.267L18.3,16.633A1.155,1.155,0,0,1,18.3,15l2.123-2.123a.189.189,0,0,0,0-.267l-1.4-1.4a.192.192,0,0,0-.266,0l-2.123,2.123a1.153,1.153,0,0,1-1.631,0l-2.123-2.123a.189.189,0,0,0-.267,0l-1.4,1.4a.189.189,0,0,0,0,.267L13.337,15a1.154,1.154,0,0,1,0,1.631l-2.13,2.13a.19.19,0,0,0,.007.26l1.4,1.4a.189.189,0,0,0,.267,0L15,18.3A1.146,1.146,0,0,1,15.817,17.96Z" fill="#fff"/>
      </g>
    </g>
  </g>
</svg>
