<svg width="16" height="17" viewBox="0 0 16 17" fill="none" xmlns="http://www.w3.org/2000/svg">
<path d="M14.6667 11.7802V13.7802C14.6675 13.9659 14.6294 14.1497 14.555 14.3198C14.4807 14.4899 14.3716 14.6426 14.2348 14.7681C14.0979 14.8937 13.9364 14.9892 13.7605 15.0487C13.5847 15.1082 13.3983 15.1303 13.2134 15.1136C11.162 14.8904 9.19148 14.1894 7.46004 13.0669C5.84926 12.0433 4.48359 10.6777 3.46004 9.06689C2.33358 7.32759 1.63244 5.3475 1.41337 3.28689C1.39671 3.10254 1.41862 2.91673 1.4777 2.74131C1.53679 2.56589 1.63175 2.40469 1.75655 2.26797C1.88134 2.13126 2.03324 2.02203 2.20256 1.94724C2.37189 1.87245 2.55493 1.83374 2.74004 1.83356H4.74004C5.06357 1.83038 5.37723 1.94495 5.62254 2.15592C5.86786 2.36689 6.02809 2.65986 6.07337 2.98023C6.15756 3.62031 6.31412 4.24878 6.54004 4.85356C6.62973 5.09218 6.64915 5.3515 6.59597 5.60081C6.5428 5.85012 6.41928 6.07897 6.24004 6.26023L5.39337 7.10689C6.34241 8.77592 7.72434 10.1579 9.39337 11.1069L10.24 10.2602C10.4213 10.081 10.6501 9.95746 10.8994 9.90429C11.1488 9.85112 11.4081 9.87053 11.6467 9.96023C12.2515 10.1861 12.88 10.3427 13.52 10.4269C13.8439 10.4726 14.1396 10.6357 14.3511 10.8852C14.5625 11.1348 14.6748 11.4533 14.6667 11.7802Z" stroke="#D9251B" stroke-width="1.33333" stroke-linecap="round" stroke-linejoin="round"/>
</svg>
