<svg id="Component_1057_6" data-name="Component 1057 – 6" xmlns="http://www.w3.org/2000/svg" xmlns:xlink="http://www.w3.org/1999/xlink" width="24" height="24" viewBox="0 0 24 24">
  <defs>
    <clipPath id="clip-path">
      <rect id="Rectangle_11071" data-name="Rectangle 11071" width="24" height="24" transform="translate(1653 24)" fill="#fff" stroke="#707070" stroke-width="1"/>
    </clipPath>
  </defs>
  <g id="Mask_Group_19484" data-name="Mask Group 19484" transform="translate(-1653 -24)" clip-path="url(#clip-path)">
    <g id="star" transform="translate(1651.604 22.606)">
      <path id="Path_63834" data-name="Path 63834" d="M19.719,25.313a4.6,4.6,0,0,1-2.3-.748L14.08,22.589a1.589,1.589,0,0,0-1.351,0l-3.35,1.976c-1.976,1.172-3.138.7-3.662.324S4.4,23.538,4.924,21.3l.793-3.428a1.576,1.576,0,0,0-.357-1.239L2.591,13.868C1.206,12.484,1.318,11.3,1.507,10.719A3.067,3.067,0,0,1,4.221,8.788L7.783,8.2a1.6,1.6,0,0,0,.96-.715L10.719,3.54c.893-1.8,2.066-2.066,2.68-2.066s1.787.268,2.68,2.066l1.965,3.93a1.653,1.653,0,0,0,.971.715l3.562.592c1.932.324,2.535,1.351,2.713,1.932a3.078,3.078,0,0,1-1.083,3.149l-2.769,2.78a1.606,1.606,0,0,0-.357,1.239l.793,3.428c.514,2.233-.279,3.2-.793,3.584a2.285,2.285,0,0,1-1.362.424ZM13.4,20.758a3.056,3.056,0,0,1,1.53.391l3.339,1.976c.971.581,1.586.581,1.82.413s.4-.759.156-1.854l-.793-3.428a3.266,3.266,0,0,1,.8-2.8l2.769-2.769c.547-.547.793-1.083.681-1.452s-.636-.67-1.4-.793l-3.562-.592a3.273,3.273,0,0,1-2.189-1.619L14.594,4.3c-.357-.715-.8-1.139-1.195-1.139s-.837.424-1.184,1.139l-1.976,3.93A3.273,3.273,0,0,1,8.051,9.848L4.5,10.44c-.759.123-1.273.424-1.4.793s.134.916.681,1.452l2.769,2.769a3.257,3.257,0,0,1,.8,2.8l-.793,3.428c-.257,1.105-.078,1.686.156,1.854s.837.156,1.82-.413l3.339-1.976a2.985,2.985,0,0,1,1.519-.391Z" fill="#fff"/>
    </g>
  </g>
</svg>
