<svg xmlns="http://www.w3.org/2000/svg" xmlns:xlink="http://www.w3.org/1999/xlink" width="20" height="20" viewBox="0 0 20 20">
  <defs>
    <clipPath id="clip-path">
      <rect id="Rectangle_16541" data-name="Rectangle 16541" width="20" height="20" transform="translate(4171 7550)" fill="#fff" stroke="#707070" stroke-width="1"/>
    </clipPath>
  </defs>
  <g id="Mask_Group_24548" data-name="Mask Group 24548" transform="translate(-4171 -7550)" clip-path="url(#clip-path)">
    <g id="time-machine" transform="translate(4172.912 7551.908)">
      <path id="Path_85460" data-name="Path 85460" d="M13.81,2.376A8.037,8.037,0,0,0,8.092,0h0A8.088,8.088,0,0,0,0,8.089a.674.674,0,0,0,.674.674h0a.674.674,0,0,0,.674-.674,6.74,6.74,0,0,1,6.74-6.737h0a6.74,6.74,0,0,1,0,13.48h0a6.754,6.754,0,0,1-3.619-1.068l1.1-.93a.337.337,0,0,0-.127-.582L1.6,11.184a.337.337,0,0,0-.425.367l.491,3.907a.337.337,0,0,0,.552.215l1.175-1A8.117,8.117,0,0,0,8.084,16.18h0a8.088,8.088,0,0,0,5.722-13.8Z" transform="translate(0 0)" fill="#627282"/>
      <path id="Path_85461" data-name="Path 85461" d="M14.727,9.231a.506.506,0,1,0,0-1.011l-4.235-.146-.146-4.235a.506.506,0,1,0-1.011,0L9.166,8.725A.674.674,0,0,0,9.84,9.4Z" transform="translate(-2.691 0.302)" fill="#627282"/>
    </g>
  </g>
</svg>
