<svg width="20" height="21" viewBox="0 0 20 21" fill="none" xmlns="http://www.w3.org/2000/svg">
  <g clip-path="url(#clip0_1072_449)">
    <mask id="mask0_1072_449" style="mask-type:luminance" maskUnits="userSpaceOnUse" x="0" y="0" width="20" height="21">
      <path d="M20 0.988281H0V20.9883H20V0.988281Z" fill="white"/>
    </mask>
    <g mask="url(#mask0_1072_449)">
      <path d="M7.63314 10.6729C7.60814 10.6729 7.59147 10.6729 7.56647 10.6729C7.5248 10.6646 7.46647 10.6646 7.41647 10.6729C4.9998 10.5979 3.1748 8.69792 3.1748 6.35625C3.1748 3.97292 5.11647 2.03125 7.4998 2.03125C9.88316 2.03125 11.8248 3.97292 11.8248 6.35625C11.8165 8.69792 9.98316 10.5979 7.65814 10.6729C7.6498 10.6729 7.64147 10.6729 7.63314 10.6729ZM7.4998 3.28125C5.80814 3.28125 4.4248 4.66458 4.4248 6.35625C4.4248 8.02292 5.7248 9.36458 7.38314 9.42292C7.43314 9.41458 7.54147 9.41458 7.6498 9.42292C9.28316 9.34792 10.5665 8.00625 10.5748 6.35625C10.5748 4.66458 9.1915 3.28125 7.4998 3.28125Z" fill="#C61F1B"/>
      <path d="M13.783 10.7826C13.758 10.7826 13.733 10.7826 13.708 10.7742C13.3663 10.8076 13.0163 10.5659 12.983 10.2242C12.9496 9.88255 13.158 9.57422 13.4996 9.53255C13.5996 9.52422 13.708 9.52422 13.7996 9.52422C15.0163 9.45755 15.9663 8.45755 15.9663 7.23255C15.9663 5.96589 14.9413 4.94089 13.6746 4.94089C13.333 4.94922 13.0496 4.66589 13.0496 4.32422C13.0496 3.98255 13.333 3.69922 13.6746 3.69922C15.6246 3.69922 17.2163 5.29089 17.2163 7.24089C17.2163 9.15755 15.7163 10.7076 13.808 10.7826C13.7996 10.7826 13.7913 10.7826 13.783 10.7826Z" fill="#C61F1B"/>
      <path d="M7.64134 19.7826C6.00801 19.7826 4.36634 19.3659 3.12467 18.5326C1.96634 17.7659 1.33301 16.7159 1.33301 15.5742C1.33301 14.4326 1.96634 13.3742 3.12467 12.5992C5.62467 10.9409 9.67467 10.9409 12.158 12.5992C13.308 13.3659 13.9497 14.4159 13.9497 15.5576C13.9497 16.6992 13.3163 17.7576 12.158 18.5326C10.908 19.3659 9.27467 19.7826 7.64134 19.7826ZM3.81634 13.6492C3.01634 14.1826 2.58301 14.8659 2.58301 15.5826C2.58301 16.2909 3.02467 16.9742 3.81634 17.4992C5.89134 18.8909 9.39133 18.8909 11.4663 17.4992C12.2663 16.9659 12.6997 16.2826 12.6997 15.5659C12.6997 14.8576 12.258 14.1742 11.4663 13.6492C9.39133 12.2659 5.89134 12.2659 3.81634 13.6492Z" fill="#C61F1B"/>
      <path d="M15.2835 18.28C14.9918 18.28 14.7335 18.08 14.6751 17.78C14.6085 17.4383 14.8251 17.1133 15.1585 17.0383C15.6835 16.93 16.1668 16.7216 16.5418 16.43C17.0168 16.0716 17.2751 15.6216 17.2751 15.1466C17.2751 14.6716 17.0168 14.2216 16.5501 13.8716C16.1835 13.5883 15.7251 13.3883 15.1835 13.2633C14.8501 13.1883 14.6335 12.855 14.7085 12.5133C14.7835 12.18 15.1168 11.9633 15.4585 12.0383C16.1751 12.1966 16.8001 12.48 17.3085 12.8716C18.0835 13.455 18.5251 14.28 18.5251 15.1466C18.5251 16.0133 18.0751 16.8383 17.3001 17.43C16.7835 17.83 16.1335 18.1216 15.4168 18.2633C15.3668 18.28 15.3251 18.28 15.2835 18.28Z" fill="#C61F1B"/>
    </g>
  </g>
  <defs>
    <clipPath id="clip0_1072_449">
      <rect width="20" height="20" fill="white" transform="translate(0 0.988281)"/>
    </clipPath>
  </defs>
</svg>
