<svg xmlns="http://www.w3.org/2000/svg" width="40.926" height="28.403" viewBox="0 0 40.926 28.403">
  <g id="Group_19583" data-name="Group 19583" transform="translate(-3 -4.935)">
    <path id="Path_63698" data-name="Path 63698" d="M41.3,25.26a5.892,5.892,0,0,1-5.893,5.893H10.367a7.367,7.367,0,0,1,0-14.733,7.956,7.956,0,0,1,1.683.193,9.576,9.576,0,0,1,18.68-.177,1.545,1.545,0,0,1,.265-.015,5.9,5.9,0,0,1,5.127,2.991A5.9,5.9,0,0,1,41.3,25.26Z" transform="translate(0 2.185)" fill="#f1f1f2"/>
    <path id="Path_63699" data-name="Path 63699" d="M6.812,13.989c.05.009.1.014.153.026a.325.325,0,0,1,.015-.055C6.925,13.971,6.869,13.977,6.812,13.989Z" transform="translate(2.02 4.783)" fill="#e6e7e8"/>
    <path id="Path_63700" data-name="Path 63700" d="M30.264,19.412a5.9,5.9,0,0,0-5.121-2.991,1.545,1.545,0,0,0-.265.015,9.486,9.486,0,0,0-10.83-7.247,9.559,9.559,0,0,1,7.771,7.247,1.545,1.545,0,0,1,.265-.015,5.9,5.9,0,0,1,5.127,2.991A5.892,5.892,0,0,1,26.5,31.155h3.06a5.892,5.892,0,0,0,.707-11.742Z" transform="translate(5.855 2.184)" fill="#e6e7e8"/>
    <path id="Path_63701" data-name="Path 63701" d="M6.812,13.989c.05.009.1.014.153.026a.325.325,0,0,1,.015-.055C6.925,13.971,6.869,13.977,6.812,13.989Z" transform="translate(2.02 4.783)" fill="#239acd"/>
    <path id="Path_63702" data-name="Path 63702" d="M31.37,14.873a7.009,7.009,0,0,1-2.523,5.384,4.071,4.071,0,0,0-.858-.183,2.31,2.31,0,0,0-.275-.4,4.958,4.958,0,0,0-.719-.872,5.765,5.765,0,0,0-4.131-1.729,1.663,1.663,0,0,0-.275.015A9.639,9.639,0,0,0,18.35,11.17a7.03,7.03,0,0,1,13.02,3.7Z" transform="translate(8.134 1.529)" fill="#ffeb00"/>
    <path id="Path_63703" data-name="Path 63703" d="M22.578,7.82a6.787,6.787,0,0,0-.918.063A7.006,7.006,0,0,1,26.048,19.8a2.588,2.588,0,0,1,.187.271,4.071,4.071,0,0,1,.857.184A7.038,7.038,0,0,0,22.578,7.82Z" transform="translate(9.889 1.529)" fill="#ffdc00"/>
    <g id="Group_19582" data-name="Group 19582" transform="translate(24.442 4.935)">
      <path id="Path_63704" data-name="Path 63704" d="M22.656,8.706a1.147,1.147,0,0,1-1.147-1.147V6.082a1.147,1.147,0,0,1,2.295,0V7.556a1.147,1.147,0,0,1-1.147,1.151Z" transform="translate(-14.634 -4.935)" fill="#ffeb00"/>
      <path id="Path_63705" data-name="Path 63705" d="M19.145,10.047a1.147,1.147,0,0,1-.855-.382l-.982-1.1a1.148,1.148,0,1,1,1.712-1.53L20,8.131a1.149,1.149,0,0,1-.857,1.912Z" transform="translate(-17.015 -4.026)" fill="#ffeb00"/>
      <path id="Path_63706" data-name="Path 63706" d="M26.743,10.246a1.147,1.147,0,0,1-.812-1.958l1.042-1.042A1.148,1.148,0,0,1,28.6,8.869L27.554,9.911A1.143,1.143,0,0,1,26.743,10.246Z" transform="translate(-12.469 -3.889)" fill="#ffeb00"/>
      <path id="Path_63707" data-name="Path 63707" d="M29.908,13.971H28.434a1.147,1.147,0,0,1,0-2.295h1.473a1.147,1.147,0,1,1,0,2.295Z" transform="translate(-11.572 -1.363)" fill="#ffeb00"/>
    </g>
  </g>
</svg>
