<svg width="35" height="40" viewBox="0 0 35 40" fill="none" xmlns="http://www.w3.org/2000/svg">
<g filter="url(#filter0_d_4994_11417)">
<path d="M9.30783 27.1491C11.0843 29.1572 13.4134 30.5933 16.0019 31.2766C17.6721 31.7356 19.4256 31.8003 21.1249 31.4656C22.8287 31.1239 24.3844 30.259 25.5763 28.9909C26.8366 27.6065 27.5364 25.7587 27.6813 23.8889C27.7945 22.0094 27.4712 20.1292 26.7369 18.3963C25.461 15.2764 23.207 12.658 20.3156 10.9371C22.6765 11.1343 24.933 12.0001 26.8224 13.4337C28.7118 14.8672 30.1562 16.8096 30.9876 19.0345C31.819 21.2595 32.0031 23.6756 31.5184 26.0014C31.0338 28.3272 29.9004 30.4671 28.2501 32.172C27.0499 33.412 25.6071 34.3898 24.0122 35.0441C22.4174 35.6984 20.7049 36.0151 18.9823 35.9743C17.2596 35.9334 15.564 35.536 14.0017 34.8069C12.4394 34.0777 11.0443 33.0327 9.90377 31.7372L5.89277 35.7587L3.30811 33.1664L9.30783 27.1491Z" fill="#FFC80B"/>
<path d="M21.3664 15.9802L18.3471 19.0082L31.9184 32.6192L28.852 35.7251L15.2654 22.0989L12.8813 24.49L9.35693 20.9553L15.3005 14.9954C16.0405 15.0715 16.7876 15.037 17.5175 14.893C18.2298 14.752 18.9181 14.5081 19.5607 14.169L21.3664 15.9802Z" fill="#FFC80B"/>
<g opacity="0.8">
<path opacity="0.3" d="M20.7414 20.6399C20.8976 20.6399 21.0241 16.5777 21.0241 11.5668C21.0241 6.55592 20.8976 2.49377 20.7414 2.49377C20.5853 2.49377 20.4587 6.55592 20.4587 11.5668C20.4587 16.5777 20.5853 20.6399 20.7414 20.6399Z" fill="url(#paint0_radial_4994_11417)"/>
<path opacity="0.3" d="M13.7392 16.9032C13.8224 17.0026 17.0067 14.4601 20.8515 11.2245C24.6963 7.98884 27.7457 5.28525 27.6625 5.18584C27.5794 5.08644 24.3951 7.62887 20.5503 10.8645C16.7055 14.1002 13.6561 16.8038 13.7392 16.9032Z" fill="url(#paint1_radial_4994_11417)"/>
<path opacity="0.3" d="M27.8622 16.6619C27.9419 16.5596 24.8003 13.9631 20.8453 10.8623C16.8903 7.76145 13.6195 5.33065 13.5398 5.4329C13.4601 5.53515 16.6017 8.13174 20.5567 11.2325C24.5117 14.3333 27.7825 16.7642 27.8622 16.6619Z" fill="url(#paint2_radial_4994_11417)"/>
</g>
</g>
<defs>
<filter id="filter0_d_4994_11417" x="0.321429" y="0.886631" width="34.3125" height="38.8411" filterUnits="userSpaceOnUse" color-interpolation-filters="sRGB">
<feFlood flood-opacity="0" result="BackgroundImageFix"/>
<feColorMatrix in="SourceAlpha" type="matrix" values="0 0 0 0 0 0 0 0 0 0 0 0 0 0 0 0 0 0 127 0" result="hardAlpha"/>
<feOffset dy="1.07143"/>
<feGaussianBlur stdDeviation="1.33929"/>
<feComposite in2="hardAlpha" operator="out"/>
<feColorMatrix type="matrix" values="0 0 0 0 0.595199 0 0 0 0 0 0 0 0 0 0 0 0 0 0.4 0"/>
<feBlend mode="overlay" in2="BackgroundImageFix" result="effect1_dropShadow_4994_11417"/>
<feBlend mode="normal" in="SourceGraphic" in2="effect1_dropShadow_4994_11417" result="shape"/>
</filter>
<radialGradient id="paint0_radial_4994_11417" cx="0" cy="0" r="1" gradientUnits="userSpaceOnUse" gradientTransform="translate(20.7414 11.5668) scale(0.282704 9.07305)">
<stop stop-color="#FFBB00"/>
<stop offset="0.31" stop-color="#F6E0A3"/>
<stop offset="1" stop-color="white" stop-opacity="0"/>
</radialGradient>
<radialGradient id="paint1_radial_4994_11417" cx="0" cy="0" r="1" gradientUnits="userSpaceOnUse" gradientTransform="translate(20.7009 11.0445) rotate(50.0826) scale(0.234671 9.09878)">
<stop stop-color="#FFBB00"/>
<stop offset="0.31" stop-color="#F6E0A3"/>
<stop offset="1" stop-color="white" stop-opacity="0"/>
</radialGradient>
<radialGradient id="paint2_radial_4994_11417" cx="0" cy="0" r="1" gradientUnits="userSpaceOnUse" gradientTransform="translate(20.701 11.0474) rotate(-52.0657) scale(0.234741 9.0997)">
<stop stop-color="#FFBB00"/>
<stop offset="0.31" stop-color="#F6E0A3"/>
<stop offset="1" stop-color="white" stop-opacity="0"/>
</radialGradient>
</defs>
</svg>
