<svg xmlns="http://www.w3.org/2000/svg" xmlns:xlink="http://www.w3.org/1999/xlink" width="100" height="100" viewBox="0 0 100 100">
  <defs>
    <linearGradient id="linear-gradient" x1="0.5" x2="0.5" y2="1" gradientUnits="objectBoundingBox">
      <stop offset="0" stop-color="#e03"/>
      <stop offset="1" stop-color="#ff6e7d"/>
    </linearGradient>
    <clipPath id="clip-path">
      <rect id="Rectangle_10981" data-name="Rectangle 10981" width="52" height="52" transform="translate(522 817)" fill="#fff" stroke="#ff483d" stroke-width="1"/>
    </clipPath>
  </defs>
  <g id="Group_19653" data-name="Group 19653" transform="translate(-1528 -629)">
    <rect id="Rectangle_10619" data-name="Rectangle 10619" width="100" height="100" rx="24" transform="translate(1528 629)" fill="url(#linear-gradient)"/>
    <g id="Mask_Group_19456" data-name="Mask Group 19456" transform="translate(1030 -164)" clip-path="url(#clip-path)">
      <g id="stock_exchange" data-name="stock exchange" transform="translate(522.022 817.021)">
        <path id="Path_63722" data-name="Path 63722" d="M21.4,34.168a1.955,1.955,0,0,0,1.937-1.937V30.646a6.01,6.01,0,0,0,4.051-5.724,6.088,6.088,0,0,0-6.076-6.076,2.113,2.113,0,0,1,0-4.227h3.17a1.937,1.937,0,1,0,0-3.875H23.248V9.511a1.937,1.937,0,1,0-3.875,0V11.1a6.01,6.01,0,0,0-4.051,5.724A6.088,6.088,0,0,0,21.4,22.9a2.143,2.143,0,0,1,2.113,2.113,2.068,2.068,0,0,1-2.025,2.113H18.141a1.937,1.937,0,1,0,0,3.875h1.233v1.233A2.1,2.1,0,0,0,21.4,34.168Zm2.113,14.706v1.057a2.026,2.026,0,1,0,4.051,0V48.874A2.026,2.026,0,0,0,23.513,48.874Zm10.215-5.02A1.993,1.993,0,0,0,31.7,45.88v4.051a2.026,2.026,0,1,0,4.051,0V45.88A2.048,2.048,0,0,0,33.728,43.855Zm-19.9-2.466a2.225,2.225,0,0,0,2.025-1.321,2.132,2.132,0,0,0-1.145-2.906A17.059,17.059,0,0,1,4.491,21.487C4.755,10.655,12.593,5.2,20.254,4.579,27.828,3.963,36.37,8.19,38.4,18.757a2.379,2.379,0,0,0,.881,1.5A2.2,2.2,0,0,0,42.8,18.141,21.543,21.543,0,0,0,35.577,5.2a21.081,21.081,0,0,0-22.984-3.17A21.08,21.08,0,0,0,0,21.487,21.509,21.509,0,0,0,12.857,41.213a3.745,3.745,0,0,0,.969.176ZM51.957,29.677V25.186c0-.088-.088-.176-.088-.264s0-.088-.088-.176c0-.088-.088-.176-.088-.264s-.088-.088-.088-.176l-.176-.176c0-.088-.088-.088-.088-.176a.086.086,0,0,0-.088-.088l-.088-.088c-.088,0-.088-.088-.176-.088a.307.307,0,0,1-.176-.088c-.088,0-.088-.088-.176-.088s-.176-.088-.264-.088H39.011a2.2,2.2,0,1,0,0,4.4h5.548l-7.485,7.485a2.052,2.052,0,0,1-1.321.616,2.1,2.1,0,0,1-1.233-.44s-.264-.352-.352-.44a6.7,6.7,0,0,0-4.4-1.937,4.987,4.987,0,0,0-1.585.264,5.918,5.918,0,0,0-2.906,1.761l-.7.7L17.7,42.71l-4.4,4.4-1.145,1.145a2.128,2.128,0,0,0,0,3.082,2.062,2.062,0,0,0,1.5.616,1.931,1.931,0,0,0,1.5-.616L26.683,39.716l1.585-1.585a1.876,1.876,0,0,1,1.409-.616,1.7,1.7,0,0,1,.881.264c.088.088.264.176.352.264a5.662,5.662,0,0,0,3.346,2.113,6.8,6.8,0,0,0,1.321.176h.088a6.431,6.431,0,0,0,4.4-1.849l7.4-7.4v5.372a2.2,2.2,0,1,0,4.4,0V34.784l.088-5.108ZM49.931,40.6a1.993,1.993,0,0,0-2.025,2.025v7.309a2.026,2.026,0,1,0,4.051,0V42.622A1.993,1.993,0,0,0,49.931,40.6Zm-8.1,1.849A1.993,1.993,0,0,0,39.8,44.471v5.46a2.026,2.026,0,1,0,4.051,0v-5.46A1.993,1.993,0,0,0,41.829,42.446Z" fill="#fff"/>
        <path id="Path_63722_-_Outline" data-name="Path 63722 - Outline" d="M49.931,52.419a2.467,2.467,0,0,1-1.663-.626,2.529,2.529,0,0,1-.8-1.848V42.622a2.466,2.466,0,0,1,4.931,0v7.323a2.529,2.529,0,0,1-.8,1.848A2.467,2.467,0,0,1,49.931,52.419Zm-1.585-2.5a1.585,1.585,0,1,0,3.17,0v-7.3a1.585,1.585,0,0,0-3.17,0Zm-6.517,2.5a2.467,2.467,0,0,1-1.663-.626,2.529,2.529,0,0,1-.8-1.848V44.471a2.466,2.466,0,0,1,4.931,0v5.474a2.529,2.529,0,0,1-.8,1.848A2.467,2.467,0,0,1,41.829,52.419Zm-1.585-2.5a1.585,1.585,0,1,0,3.17,0V44.471a1.585,1.585,0,0,0-3.17,0Zm-6.517,2.5a2.467,2.467,0,0,1-1.663-.626,2.529,2.529,0,0,1-.8-1.848V45.88a2.44,2.44,0,0,1,2.466-2.466,2.5,2.5,0,0,1,2.466,2.466v4.065a2.529,2.529,0,0,1-.8,1.848A2.467,2.467,0,0,1,33.728,52.419Zm-1.585-2.5a1.585,1.585,0,1,0,3.17,0V45.88A1.606,1.606,0,0,0,33.728,44.3a1.55,1.55,0,0,0-1.585,1.585Zm-6.6,2.5a2.467,2.467,0,0,1-1.663-.626,2.529,2.529,0,0,1-.8-1.848v-1.1A2.465,2.465,0,0,1,28,48.86v1.086a2.529,2.529,0,0,1-.8,1.848A2.467,2.467,0,0,1,25.538,52.419Zm-1.585-2.5a1.585,1.585,0,1,0,3.17,0V48.882a1.5,1.5,0,0,0-1.552-1.549,1.58,1.58,0,0,0-1.618,1.556ZM13.65,52.4a2.506,2.506,0,0,1-1.808-.745,2.568,2.568,0,0,1,0-3.7L24.955,34.833a6.321,6.321,0,0,1,3.1-1.881,5.445,5.445,0,0,1,1.708-.281h.024a7.171,7.171,0,0,1,4.69,2.066c.086.086.254.3.353.434a1.653,1.653,0,0,0,.921.317A1.634,1.634,0,0,0,36.763,35L43.5,28.268H39.011a2.642,2.642,0,1,1,0-5.284h11.36a.714.714,0,0,1,.329.091l0,0a.53.53,0,0,1,.229.084h.061l.1.1a.53.53,0,0,1,.193.078h.061l.14.14a.524.524,0,0,1,.272.324.555.555,0,0,1,.057.093l.229.229v.062a.529.529,0,0,1,.084.229l0,0a1.061,1.061,0,0,1,.051.115.523.523,0,0,1,.125.326.712.712,0,0,1,.09.328v4.5l-.088,5.1v1.67a2.642,2.642,0,1,1-5.284,0V32.149L40.38,38.794a6.916,6.916,0,0,1-4.714,1.978h-.088a7.166,7.166,0,0,1-1.407-.185,6.147,6.147,0,0,1-3.585-2.245c-.024-.018-.066-.046-.1-.066a1.875,1.875,0,0,1-.2-.149,1.281,1.281,0,0,0-.61-.173,1.448,1.448,0,0,0-1.1.487l-1.585,1.585L15.475,51.635A2.357,2.357,0,0,1,13.65,52.4Zm16.1-18.845a4.574,4.574,0,0,0-1.434.242l-.032.009A5.507,5.507,0,0,0,25.6,35.431l-.016.017L12.464,48.569a1.688,1.688,0,0,0,0,2.459,1.621,1.621,0,0,0,1.186.487,1.517,1.517,0,0,0,1.153-.451l.015-.018L26.37,39.406l1.586-1.586a2.314,2.314,0,0,1,1.72-.745,2.138,2.138,0,0,1,1.125.338l.036.024.031.031c.016.015.072.052.109.077a1.564,1.564,0,0,1,.243.187l.022.022.019.025a5.24,5.24,0,0,0,3.08,1.946,6.415,6.415,0,0,0,1.235.168h.088a6,6,0,0,0,4.092-1.72l8.149-8.149v6.435a1.761,1.761,0,1,0,3.522,0V34.777l.088-5.1V25.246a.8.8,0,0,1-.079-.221l-.1-.1v-.122a.859.859,0,0,1-.069-.176.554.554,0,0,1-.054-.088l-.229-.229V24.25a.545.545,0,0,1-.035-.061l-.024-.024a.551.551,0,0,1-.09-.054A.733.733,0,0,1,50.611,24a.544.544,0,0,1-.124-.069.86.86,0,0,1-.176-.069h-11.3a1.761,1.761,0,1,0,0,3.522h6.611l-8.237,8.237a2.477,2.477,0,0,1-1.632.745,2.531,2.531,0,0,1-1.5-.528l-.05-.038-.038-.05c-.117-.156-.27-.351-.312-.393A6.291,6.291,0,0,0,29.753,33.552ZM13.826,41.829a3.36,3.36,0,0,1-.906-.146l-.17-.044-.036-.009-.034-.015A21.961,21.961,0,0,1-.44,21.487,21.534,21.534,0,0,1,12.412,1.624,22.244,22.244,0,0,1,21.774-.462,21.186,21.186,0,0,1,29.233.886a21.51,21.51,0,0,1,6.634,3.978,22.026,22.026,0,0,1,7.366,13.208v.006a2.74,2.74,0,0,1-.474,1.991,2.577,2.577,0,0,1-1.749,1.061,2.686,2.686,0,0,1-.379.027A2.616,2.616,0,0,1,39,20.6a2.83,2.83,0,0,1-1.04-1.768,18.8,18.8,0,0,0-2.342-6.246A15.558,15.558,0,0,0,31.76,8.276,16.637,16.637,0,0,0,21.7,4.961c-.468,0-.941.019-1.406.057A17.085,17.085,0,0,0,9.9,9.522a16.769,16.769,0,0,0,4.972,27.233,2.518,2.518,0,0,1,1.433,1.413,2.6,2.6,0,0,1-.055,2.081A2.661,2.661,0,0,1,13.826,41.829ZM13,40.8l.142.037a2.558,2.558,0,0,0,.683.117,1.78,1.78,0,0,0,1.623-1.059l0-.006a1.724,1.724,0,0,0,.04-1.384,1.646,1.646,0,0,0-.943-.926l-.018-.007A17.52,17.52,0,0,1,4.051,21.487v-.011c.271-11.1,8.315-16.7,16.168-17.336.488-.04.985-.06,1.477-.06a17.522,17.522,0,0,1,10.6,3.5,16.436,16.436,0,0,1,4.077,4.551,19.676,19.676,0,0,1,2.456,6.548l0,.021a1.94,1.94,0,0,0,.72,1.215,1.757,1.757,0,0,0,1.082.366,1.8,1.8,0,0,0,.254-.018,1.7,1.7,0,0,0,1.157-.7,1.864,1.864,0,0,0,.319-1.352A21.147,21.147,0,0,0,35.289,5.529a20.637,20.637,0,0,0-6.365-3.818A20.308,20.308,0,0,0,21.774.419a21.375,21.375,0,0,0-9,2.006A20.664,20.664,0,0,0,.44,21.487,21.081,21.081,0,0,0,13,40.8Zm8.4-6.187a2.525,2.525,0,0,1-2.464-2.341l0-.037v-.793h-.793a2.378,2.378,0,0,1,0-4.755h3.346a1.633,1.633,0,0,0,1.585-1.673A1.7,1.7,0,0,0,21.4,23.336a6.532,6.532,0,0,1-5.3-10.328,6.288,6.288,0,0,1,2.835-2.221V9.511a2.378,2.378,0,0,1,4.755,0V10.3h.793a2.378,2.378,0,0,1,0,4.755h-3.17a1.673,1.673,0,0,0,0,3.346,6.532,6.532,0,0,1,5.3,10.328,6.288,6.288,0,0,1-2.835,2.221v1.276A2.395,2.395,0,0,1,21.4,34.608Zm-1.585-2.4A1.66,1.66,0,0,0,21.4,33.728a1.517,1.517,0,0,0,1.5-1.5v-1.9l.3-.1a5.55,5.55,0,0,0,3.75-5.306,5.642,5.642,0,0,0-5.636-5.636,2.554,2.554,0,0,1,0-5.108h3.17a1.5,1.5,0,0,0,0-2.994H22.808V9.511a1.5,1.5,0,1,0-2.994,0v1.9l-.3.1a5.55,5.55,0,0,0-3.75,5.306A5.642,5.642,0,0,0,21.4,22.456a2.588,2.588,0,0,1,2.554,2.554,2.514,2.514,0,0,1-2.466,2.554H18.141a1.5,1.5,0,0,0,0,2.994h1.673Z" fill="#ff483d"/>
      </g>
    </g>
  </g>
</svg>
