<svg width="25" height="31" viewBox="0 0 25 31" fill="none" xmlns="http://www.w3.org/2000/svg">
<path d="M12.4988 27.5535C9.21354 27.5569 5.94936 27.0275 2.8324 25.9858C2.27161 25.8087 1.7578 25.5071 1.32912 25.1033C0.900452 24.6995 0.567944 24.2039 0.356303 23.6535C0.15818 23.1015 0.0894391 22.5112 0.155416 21.9283C0.221394 21.3454 0.420315 20.7856 0.73674 20.2924L2.35414 17.5978C2.73866 16.8681 2.96115 16.0635 3.00632 15.2393V11.1582C3.00632 8.63005 4.00698 6.20545 5.78818 4.41779C7.56937 2.63012 9.9852 1.62582 12.5042 1.62582C15.0232 1.62582 17.439 2.63012 19.2202 4.41779C21.0014 6.20545 22.0021 8.63005 22.0021 11.1582V15.2393C22.0509 16.0674 22.2731 16.8759 22.6542 17.612L24.2586 20.2956C24.5572 20.797 24.74 21.3592 24.7936 21.9409C24.8472 22.5226 24.7703 23.1089 24.5684 23.6567C24.3691 24.2026 24.049 24.6959 23.6321 25.0996C23.2152 25.5032 22.7125 25.8066 22.1618 25.9869C19.05 27.0297 15.7903 27.5591 12.5096 27.5546L12.4988 27.5535ZM12.4988 3.74437C10.5384 3.74437 8.65843 4.52593 7.27229 5.9171C5.88614 7.30828 5.10741 9.19513 5.10741 11.1626V15.2436C5.05799 16.447 4.73726 17.6234 4.16936 18.6844L2.55088 21.3822C2.40037 21.6053 2.30307 21.8602 2.2665 22.1271C2.22993 22.3941 2.25508 22.6659 2.34001 22.9215C2.4424 23.1734 2.60081 23.3985 2.80314 23.5797C3.00546 23.7608 3.24635 23.8931 3.5074 23.9666C9.34463 25.9436 15.667 25.9436 21.5042 23.9666C21.754 23.8851 21.9819 23.7473 22.1703 23.5636C22.3587 23.38 22.5027 23.1555 22.5912 22.9073C22.6843 22.6586 22.72 22.392 22.6957 22.1275C22.6714 21.863 22.5878 21.6074 22.451 21.38L20.8325 18.6833C20.2593 17.6171 19.937 16.4334 19.8901 15.2229V11.1582C19.8889 9.19152 19.1097 7.3058 17.7237 5.91556C16.3377 4.52533 14.4583 3.74437 12.4988 3.74437Z" fill="#C61F1B"/>
<path d="M15.1161 4.1253C15.016 4.12505 14.9165 4.11073 14.8204 4.08275C14.4321 3.97398 14.0375 3.88909 13.6389 3.82855C12.4893 3.66925 11.3191 3.75588 10.2052 4.08275C10.0159 4.14134 9.81392 4.14487 9.62271 4.09294C9.4315 4.04101 9.25887 3.93573 9.12484 3.78933C8.99081 3.64293 8.90087 3.46139 8.86546 3.26577C8.83004 3.07014 8.85059 2.86845 8.92473 2.68408C9.20763 1.9605 9.70117 1.33928 10.341 0.901397C10.9809 0.463518 11.7373 0.229309 12.5117 0.229309C13.2861 0.229309 14.0426 0.463518 14.6824 0.901397C15.3222 1.33928 15.8158 1.9605 16.0987 2.68408C16.1697 2.8682 16.1889 3.06838 16.1542 3.26272C16.1195 3.45706 16.0322 3.63808 15.9019 3.786C15.8004 3.89323 15.6781 3.97861 15.5427 4.03694C15.4072 4.09527 15.2613 4.12534 15.1139 4.1253H15.1161Z" fill="#C61F1B"/>
<path d="M12.4987 30.7699C11.1001 30.7676 9.75944 30.2089 8.77047 29.2162C7.78151 28.2236 7.22489 26.8779 7.2226 25.4741H9.33347C9.34885 26.3067 9.68914 27.0999 10.2812 27.6832C10.8732 28.2665 11.6696 28.5933 12.4992 28.5933C13.3288 28.5933 14.1253 28.2665 14.7173 27.6832C15.3094 27.0999 15.6497 26.3067 15.665 25.4741H17.7759C17.7753 26.8787 17.2191 28.2255 16.2295 29.2185C15.24 30.2116 13.898 30.7696 12.4987 30.7699Z" fill="#C61F1B"/>
</svg>
