<svg xmlns="http://www.w3.org/2000/svg" xmlns:xlink="http://www.w3.org/1999/xlink" width="100" height="100" viewBox="0 0 100 100">
  <defs>
    <clipPath id="clip-path">
      <rect id="Rectangle_10978" data-name="Rectangle 10978" width="52" height="52" transform="translate(294 809)" fill="#fff" stroke="#fff" stroke-width="0.5"/>
    </clipPath>
  </defs>
  <g id="Group_19657" data-name="Group 19657" transform="translate(-768 -393)">
    <rect id="Rectangle_10595" data-name="Rectangle 10595" width="100" height="100" rx="24" transform="translate(768 393)" fill="#ff9f0a"/>
    <g id="Mask_Group_19443" data-name="Mask Group 19443" transform="translate(498 -392)" clip-path="url(#clip-path)">
      <g id="Group_16158" data-name="Group 16158" transform="translate(293.999 809)">
        <g id="Group_16157" data-name="Group 16157">
          <g id="Group_16156" data-name="Group 16156">
            <g id="Group_16155" data-name="Group 16155">
              <path id="Path_57347" data-name="Path 57347" d="M27.082,13a13.991,13.991,0,0,0-6.06,1.381,1.084,1.084,0,1,0,.934,1.957,11.805,11.805,0,0,1,5.126-1.172,11.96,11.96,0,0,1,11.777,10.2,1.085,1.085,0,0,0,1.07.929.937.937,0,0,0,.156-.011A1.083,1.083,0,0,0,41,25.06,14.141,14.141,0,0,0,27.082,13Z" fill="#fff"/>
              <path id="Path_57347_-_Outline" data-name="Path 57347 - Outline" d="M27.082,12.751A14.391,14.391,0,0,1,41.251,25.024a1.333,1.333,0,0,1-1.131,1.509,1.181,1.181,0,0,1-.178.013h-.017A1.342,1.342,0,0,1,38.611,25.4a11.627,11.627,0,0,0-16.547-8.838,1.324,1.324,0,0,1-.575.131,1.342,1.342,0,0,1-1.205-.76,1.334,1.334,0,0,1,.63-1.779A14.323,14.323,0,0,1,27.082,12.751Zm12.86,13.3a.689.689,0,0,0,.1-.008.833.833,0,0,0,.709-.944A13.8,13.8,0,0,0,21.13,14.608a.834.834,0,0,0-.394,1.113.839.839,0,0,0,.754.475.827.827,0,0,0,.359-.082,12.127,12.127,0,0,1,17.258,9.218.84.84,0,0,0,.824.715Z" fill="#fff"/>
              <path id="Path_57348" data-name="Path 57348" d="M15.741,9.919a20.565,20.565,0,0,1,31.916,17.3c0,.019-.013.223-.013.243a1.007,1.007,0,0,0,1.042,1.005h.039a1.175,1.175,0,0,0,1.094-1.1c0-.026.013-.262.013-.286A22.739,22.739,0,0,0,14.545,8.112a1.083,1.083,0,0,0,1.2,1.807Z" fill="#fff"/>
              <path id="Path_57348_-_Outline" data-name="Path 57348 - Outline" d="M27.064,4.086h.02a23.024,23.024,0,0,1,23,23c0,.032-.011.277-.014.306a1.426,1.426,0,0,1-1.343,1.33h-.049a1.253,1.253,0,0,1-1.282-1.259c0-.023.009-.189.013-.248a20.446,20.446,0,0,0-5.957-14.482A20.207,20.207,0,0,0,27.082,6.752h-.023a20.144,20.144,0,0,0-11.18,3.375A1.333,1.333,0,1,1,14.406,7.9,22.824,22.824,0,0,1,27.064,4.086ZM48.725,28.22a.926.926,0,0,0,.845-.868c0-.031.012-.244.012-.271a22.523,22.523,0,0,0-22.5-22.5h-.02A22.326,22.326,0,0,0,14.683,8.32a.833.833,0,1,0,.92,1.39A20.642,20.642,0,0,1,27.059,6.252h.024A20.707,20.707,0,0,1,41.8,12.378a20.946,20.946,0,0,1,6.1,14.844v.027c0,.021-.011.193-.012.219a.759.759,0,0,0,.8.752Z" fill="#fff"/>
              <path id="Path_57349" data-name="Path 57349" d="M47.527,45.182l-3.252-.812-.136-.544a7.187,7.187,0,0,0,1.692-3.356,2.029,2.029,0,0,0,1.083-1.549l.234-1.885a2.022,2.022,0,0,0-.483-1.581,2.136,2.136,0,0,0-.394-.347l.054-1.15.2-.2a2.76,2.76,0,0,0,.119-3.69,4.52,4.52,0,0,0-4.082-1.9,6.857,6.857,0,0,0-3.761.947c-4.458.158-4.983,2.561-4.983,4.374,0,.357.065,1.027.126,1.586a2.038,2.038,0,0,0-.435.373,2.016,2.016,0,0,0-.49,1.59l.234,1.885a1.982,1.982,0,0,0,1.2,1.579,7.2,7.2,0,0,0,1.6,3.232l-.158.637-3.252.812a5.9,5.9,0,0,0-4.474,5.732,1.078,1.078,0,0,0,.316.767,1.091,1.091,0,0,0,.767.316l21.669,0A1.084,1.084,0,0,0,52,50.913a5.9,5.9,0,0,0-4.474-5.73ZM30.49,49.83a3.746,3.746,0,0,1,2.68-2.548l3.882-.971a1.087,1.087,0,0,0,.789-.789l.461-1.848a1.081,1.081,0,0,0-.312-1.053,4.9,4.9,0,0,1-1.493-3.1,1,1,0,0,0-1.092-.873l-.279-1.724A1.082,1.082,0,0,0,36.2,35.706c-.082-.654-.214-1.837-.214-2.218,0-1.122,0-2.182,3.167-2.214a1.084,1.084,0,0,0,.619-.2,4.644,4.644,0,0,1,2.788-.739,2.49,2.49,0,0,1,2.268.923c.44.674.26.864.139,1l-.47.47a1.081,1.081,0,0,0-.316.713l-.115,2.357a.85.85,0,0,0,.93.975l-.139,1.761a1.082,1.082,0,0,0-1.079,1,4.951,4.951,0,0,1-1.566,3.161,1.084,1.084,0,0,0-.327,1.068l.442,1.77a1.08,1.08,0,0,0,.789.789l3.882.97a3.737,3.737,0,0,1,2.673,2.548Z" fill="#fff"/>
              <path id="Path_57349_-_Outline" data-name="Path 57349 - Outline" d="M29.248,52.248h0a1.33,1.33,0,0,1-1.333-1.334,6.14,6.14,0,0,1,4.663-5.974l3.106-.776.091-.367a7.468,7.468,0,0,1-1.545-3.121A2.239,2.239,0,0,1,33,38.953l-.234-1.885a2.278,2.278,0,0,1,.909-2.115c-.075-.707-.111-1.186-.111-1.464a4.6,4.6,0,0,1,.876-2.965c.826-1.017,2.267-1.574,4.282-1.656a7.147,7.147,0,0,1,3.836-.949,4.756,4.756,0,0,1,4.291,2.018,2.992,2.992,0,0,1-.146,4l-.005.005-.129.129-.043.919a2.388,2.388,0,0,1,.325.3,2.275,2.275,0,0,1,.544,1.779l-.234,1.884a2.279,2.279,0,0,1-1.111,1.682,7.446,7.446,0,0,1-1.639,3.259l.068.271,3.106.776a6.135,6.135,0,0,1,4.663,5.973,1.335,1.335,0,0,1-1.333,1.333ZM42.559,28.417a6.655,6.655,0,0,0-3.628.909l-.057.036-.067,0c-1.9.067-3.238.563-3.978,1.474a4.132,4.132,0,0,0-.764,2.65c0,.275.042.8.124,1.559l.017.154-.131.083a1.787,1.787,0,0,0-.382.327A1.766,1.766,0,0,0,33.264,37l.234,1.886a1.737,1.737,0,0,0,1.047,1.38l.121.051.027.128a6.965,6.965,0,0,0,1.545,3.12l.085.1-.226.909-3.4.849a5.641,5.641,0,0,0-4.284,5.49.83.83,0,0,0,.834.834l21.669,0a.835.835,0,0,0,.833-.833,5.636,5.636,0,0,0-4.284-5.488l-3.4-.849-.205-.818.089-.1a6.944,6.944,0,0,0,1.634-3.239l.024-.117.106-.055a1.778,1.778,0,0,0,.95-1.358l.234-1.884a1.774,1.774,0,0,0-.423-1.386,1.883,1.883,0,0,0-.347-.3l-.116-.079.065-1.387.263-.263a2.5,2.5,0,0,0,.089-3.379A4.281,4.281,0,0,0,42.559,28.417Zm7.449,21.664-19.855,0,.1-.323a4.016,4.016,0,0,1,2.859-2.718l3.882-.97a.835.835,0,0,0,.607-.607l.461-1.848a.831.831,0,0,0-.24-.809,5.153,5.153,0,0,1-1.571-3.261.759.759,0,0,0-.843-.646h-.213l-.361-2.225h.294a.832.832,0,0,0,.826-.936c-.087-.691-.216-1.861-.216-2.25A2.227,2.227,0,0,1,36.2,31.8c.5-.513,1.433-.759,2.949-.774a.83.83,0,0,0,.477-.155,4.869,4.869,0,0,1,2.933-.785,2.717,2.717,0,0,1,2.477,1.036c.478.733.338,1.058.115,1.3l-.009.009-.47.47a.83.83,0,0,0-.243.548l-.115,2.357a.609.609,0,0,0,.156.531.617.617,0,0,0,.526.181l.269,0-.178,2.259h-.231a.836.836,0,0,0-.83.766,5.2,5.2,0,0,1-1.646,3.325.834.834,0,0,0-.254.824l.442,1.77a.828.828,0,0,0,.606.606l3.883.97a4.006,4.006,0,0,1,2.852,2.718Zm-19.163-.5,18.473,0a3.506,3.506,0,0,0-2.38-2.055l-3.882-.97a1.326,1.326,0,0,1-.971-.971l-.442-1.769a1.331,1.331,0,0,1,.4-1.315,4.694,4.694,0,0,0,1.485-3,1.338,1.338,0,0,1,1.1-1.2l.1-1.3a1,1,0,0,1-.619-.32,1.106,1.106,0,0,1-.292-.9l.115-2.358a1.328,1.328,0,0,1,.389-.878l.466-.466c.075-.082.159-.187-.168-.687a2.269,2.269,0,0,0-2.059-.81,4.419,4.419,0,0,0-2.643.692,1.328,1.328,0,0,1-.763.248,3.829,3.829,0,0,0-2.594.622,1.806,1.806,0,0,0-.326,1.342c0,.363.13,1.534.213,2.187a1.332,1.332,0,0,1-1.034,1.467l.206,1.269a1.211,1.211,0,0,1,1.126,1.09,4.65,4.65,0,0,0,1.417,2.94,1.33,1.33,0,0,1,.382,1.294l-.461,1.848a1.335,1.335,0,0,1-.97.97l-3.883.971A3.516,3.516,0,0,0,30.845,49.58Z" fill="#fff"/>
              <path id="Path_57350" data-name="Path 57350" d="M31.161,39.465a1.082,1.082,0,0,0-1.306-.8,11.889,11.889,0,0,1-13.516-16.7,1.083,1.083,0,1,0-1.954-.935A13.948,13.948,0,0,0,13,27.084,14.1,14.1,0,0,0,27.082,41.166a14.293,14.293,0,0,0,3.278-.4A1.083,1.083,0,0,0,31.161,39.465Z" fill="#fff"/>
              <path id="Path_57350_-_Outline" data-name="Path 57350 - Outline" d="M27.083,41.416h0a14.308,14.308,0,0,1-12.923-20.5,1.341,1.341,0,0,1,1.2-.757,1.334,1.334,0,0,1,1.2,1.909A11.682,11.682,0,0,0,18.78,35.319a11.4,11.4,0,0,0,8.185,3.435,12.23,12.23,0,0,0,2.832-.336,1.334,1.334,0,0,1,.62,2.595A14.562,14.562,0,0,1,27.083,41.416ZM15.362,20.658a.838.838,0,0,0-.752.474A13.808,13.808,0,0,0,27.081,40.916a14.061,14.061,0,0,0,3.22-.389.834.834,0,1,0-.388-1.622,12.835,12.835,0,0,1-2.947.349h0a11.9,11.9,0,0,1-8.542-3.584,12.182,12.182,0,0,1-2.31-13.819.834.834,0,0,0-.751-1.193Z" fill="#fff"/>
              <path id="Path_57351" data-name="Path 57351" d="M25.318,47.574A20.559,20.559,0,0,1,9.917,15.74a1.083,1.083,0,0,0-1.807-1.2,22.726,22.726,0,0,0,17.026,35.19.65.65,0,0,0,.093,0,1.084,1.084,0,0,0,.089-2.164Z" fill="#fff"/>
              <path id="Path_57351_-_Outline" data-name="Path 57351 - Outline" d="M25.214,49.989a.9.9,0,0,1-.1-.006,23.121,23.121,0,0,1-21.028-22.9A22.834,22.834,0,0,1,7.9,14.406a1.333,1.333,0,0,1,2.224,1.472A20.172,20.172,0,0,0,6.75,27.083,20.439,20.439,0,0,0,25.34,47.325a1.334,1.334,0,0,1-.107,2.663Zm-16.2-35.68a.832.832,0,0,0-.7.374,22.336,22.336,0,0,0-3.735,12.4,22.618,22.618,0,0,0,20.574,22.4h.008l.047,0h.016a.834.834,0,0,0,.068-1.665A20.942,20.942,0,0,1,6.25,27.084,20.67,20.67,0,0,1,9.709,15.6a.834.834,0,0,0-.694-1.293Z" fill="#fff"/>
              <path id="Path_57352" data-name="Path 57352" d="M5.417,10.835H9.3L22.567,24.1A5.445,5.445,0,1,0,24.1,22.571L10.833,9.3V5.419a1.091,1.091,0,0,0-.316-.767L6.185.319a1.084,1.084,0,0,0-1.85.767v3.25H1.085a1.084,1.084,0,0,0-.767,1.85L4.65,10.519a1.091,1.091,0,0,0,.767.316Zm18.74,14.858,2.158,2.158a1.084,1.084,0,1,0,1.534-1.532l-2.16-2.16a3.2,3.2,0,0,1,1.393-.325,3.285,3.285,0,1,1-2.924,1.859ZM5.417,6.5A1.084,1.084,0,0,0,6.5,5.419V3.7L8.667,5.867v2.8h-2.8L3.7,6.5Z" fill="#fff"/>
              <path id="Path_57352_-_Outline" data-name="Path 57352 - Outline" d="M5.419-.248a1.326,1.326,0,0,1,.942.389l4.333,4.333a1.334,1.334,0,0,1,.39.943V9.2L24.136,22.252a5.7,5.7,0,1,1-1.887,1.885L9.2,11.085H5.417a1.334,1.334,0,0,1-.943-.389L.14,6.363a1.335,1.335,0,0,1,.944-2.277h3v-3A1.335,1.335,0,0,1,5.419-.248Zm18.649,23.14L10.583,9.407V5.419a.836.836,0,0,0-.244-.591L6.008.5a.834.834,0,0,0-1.423.59v3.5h-3.5a.835.835,0,0,0-.59,1.424l4.333,4.333a.836.836,0,0,0,.59.243H9.405L22.888,24.07l-.113.17a5.2,5.2,0,1,0,1.463-1.461ZM6.25,3.1,8.917,5.764V8.919H5.762L3.1,6.252H5.417a.835.835,0,0,0,.833-.833ZM8.417,5.971,6.75,4.3V5.419A1.335,1.335,0,0,1,5.417,6.752H4.3L5.969,8.419H8.417ZM27.08,23.584a3.535,3.535,0,1,1-3.148,2l.154-.315,2.406,2.406a.834.834,0,1,0,1.18-1.178l-2.408-2.407.315-.154A3.475,3.475,0,0,1,27.08,23.584Zm0,6.5a3,3,0,0,0,0-6,2.969,2.969,0,0,0-.952.162l1.9,1.9a1.334,1.334,0,1,1-1.887,1.885l-1.893-1.893a2.978,2.978,0,0,0,2.837,3.95Z" fill="#fff"/>
            </g>
          </g>
        </g>
      </g>
    </g>
  </g>
</svg>
