<svg xmlns="http://www.w3.org/2000/svg" xmlns:xlink="http://www.w3.org/1999/xlink" width="24" height="24" viewBox="0 0 24 24">
  <defs>
    <clipPath id="clip-path">
      <rect id="Rectangle_10540" data-name="Rectangle 10540" width="24" height="24" transform="translate(24 481)" fill="#fff" stroke="#fff" stroke-width="1"/>
    </clipPath>
    <clipPath id="clip-path-2">
      <rect id="Rectangle_10656" data-name="Rectangle 10656" width="23.586" height="24" transform="translate(508.966 254.897)" fill="#fff" stroke="#fff" stroke-width="0.497"/>
    </clipPath>
  </defs>
  <g id="Mask_Group_1348" data-name="Mask Group 1348" transform="translate(-24 -481)" clip-path="url(#clip-path)">
    <g id="Mask_Group_1348-2" data-name="Mask Group 1348" transform="translate(-484.759 226.104)" clip-path="url(#clip-path-2)">
      <g id="Group_16155" data-name="Group 16155" transform="translate(510.207 256.552)">
        <path id="Path_57381" data-name="Path 57381" d="M20.607,19.441v-.326a2.312,2.312,0,0,0-.253-1.059,2.434,2.434,0,0,0-1.031-.612c-.252-.026.372.76.451.915a1.637,1.637,0,0,1,.2.756V21.4l-7.925-.683v-1.6a1.7,1.7,0,0,1,1.7-1.7h4.517a1.685,1.685,0,0,1,.765.181c.439.35,1.171.856,1.315.6s-.876-1.083-1.031-1.161a2.31,2.31,0,0,0-1.049-.248h-.414V15.5a2.988,2.988,0,0,0-1.342-5.3V2.99A2.994,2.994,0,0,0,13.526,0H9.109A3.683,3.683,0,0,0,6.522,1.072l-5.45,5.45A3.639,3.639,0,0,0,0,9.11v7a2.991,2.991,0,0,0,2.757,2.982c.014,0,.038,0,2.262,0,1.274,0,3.271,0,6.4,0v.348a1.042,1.042,0,0,0,.13,2.076h8.924a1.042,1.042,0,0,0,.13-2.076Zm-2.234-6.292a2.362,2.362,0,0,1-1.008,1.933.315.315,0,0,0-.134.258v1.442H14.8V15.34a.315.315,0,0,0-.134-.258,2.359,2.359,0,1,1,3.71-1.933ZM2.8,18.463A2.371,2.371,0,0,1,.63,16.11V9.681A1.643,1.643,0,0,1,2.272,8.04H3.1a.315.315,0,0,0,0-.63H2.272a2.26,2.26,0,0,0-1.38.469,3.034,3.034,0,0,1,.626-.91l5.45-5.45A3.024,3.024,0,0,1,7.874.9a2.26,2.26,0,0,0-.467,1.375V5.048A2.363,2.363,0,0,1,5.048,7.407H3.186c-.174,0-.392.141-.392.315a.309.309,0,0,0,.308.315H5.047A2.994,2.994,0,0,0,8.039,5.048V2.272A1.643,1.643,0,0,1,9.681.63h3.845a2.363,2.363,0,0,1,2.359,2.359v7.174A2.988,2.988,0,0,0,14.165,15.5v1.283h-.414a2.337,2.337,0,0,0-2.24,1.68c-5.364,0-8.527,0-8.718,0Zm17.678,2.424H11.551a.414.414,0,0,1-.414-.414c0-.228.185.24.414.24h8.924c.228,0,.414-.467.414-.24A.414.414,0,0,1,20.475,20.887Z" fill="#fff" stroke="#fff" stroke-width="0.703"/>
        <path id="Path_57382" data-name="Path 57382" d="M13.012,7.955A1.416,1.416,0,0,0,11.582,6.7a1.7,1.7,0,0,0-1.692.854l-1.8,3.192L7.336,9.78a1.7,1.7,0,1,0-2.7,2.089l2.324,3a1.716,1.716,0,0,0,1.347.662,1.132,1.132,0,0,0,.124,0A1.7,1.7,0,0,0,9.8,14.662L12.76,9.328a1.926,1.926,0,0,0,.252-1.371Zm-.7.97L9.249,14.35a1.072,1.072,0,0,1-.857.543l-.079,0a1.082,1.082,0,0,1-.849-.416l-2.324-3a1.076,1.076,0,1,1,1.7-1.317L7.88,11.512a.315.315,0,0,0,.523-.038l2.036-3.6A1.076,1.076,0,1,1,12.31,8.926Z" fill="#fff" stroke="#fff" stroke-width="0.497"/>
      </g>
    </g>
  </g>
</svg>
