<svg xmlns="http://www.w3.org/2000/svg" xmlns:xlink="http://www.w3.org/1999/xlink" width="100" height="100" viewBox="0 0 100 100">
  <defs>
    <linearGradient id="linear-gradient" x1="0.5" x2="0.5" y2="1" gradientUnits="objectBoundingBox">
      <stop offset="0" stop-color="#5ef679"/>
      <stop offset="1" stop-color="#2f7b3d"/>
    </linearGradient>
    <clipPath id="clip-path">
      <rect id="Rectangle_10646" data-name="Rectangle 10646" width="54" height="54" fill="#fff"/>
    </clipPath>
  </defs>
  <g id="Group_19617" data-name="Group 19617" transform="translate(-1074.5)">
    <rect id="Rectangle_10596" data-name="Rectangle 10596" width="100" height="100" rx="24" transform="translate(1074.5)" fill="url(#linear-gradient)"/>
    <g id="Mask_Group_1338" data-name="Mask Group 1338" transform="translate(1097.5 23)" clip-path="url(#clip-path)">
      <g id="phone-alt" transform="translate(1.5 1)">
        <path id="Path_57375" data-name="Path 57375" d="M50.08,35.679,39.071,30.957a3.185,3.185,0,0,0-3.707.9l-4.479,5.474a35.547,35.547,0,0,1-16.21-16.21l5.474-4.479a3.184,3.184,0,0,0,.9-3.706L16.331,1.921A3.182,3.182,0,0,0,12.7.082L2.458,2.449A3.154,3.154,0,0,0,0,5.536,46.454,46.454,0,0,0,46.464,52a3.172,3.172,0,0,0,3.1-2.468l2.355-10.227a3.17,3.17,0,0,0-1.838-3.626ZM46.4,48.75A43.191,43.191,0,0,1,3.26,5.607L13.376,3.271l4.672,10.907-7.394,6.043C15.57,30.7,21.267,36.421,31.789,41.357l6.043-7.394,10.907,4.672Z" transform="translate(0 -0.001)" fill="#fff"/>
      </g>
    </g>
  </g>
</svg>
