<svg id="Component_1142_6" data-name="Component 1142 – 6" xmlns="http://www.w3.org/2000/svg" xmlns:xlink="http://www.w3.org/1999/xlink" width="120" height="120" viewBox="0 0 120 120">
  <defs>
    <linearGradient id="linear-gradient" x1="0.5" x2="0.5" y2="1" gradientUnits="objectBoundingBox">
      <stop offset="0" stop-color="#0a84ff"/>
      <stop offset="1" stop-color="#5e5ce6"/>
    </linearGradient>
    <clipPath id="clip-path">
      <path id="Path_84792" data-name="Path 84792" d="M2015.783,502.967s3.805,16.633.318,20.995-4.878,3.039-6.392,9.757.456,9.826.456,9.826H1984.68s-2.131-5.37-1.338-15.514,4.5-25.063,4.5-25.063,7.961-3.242,14.945-3.242A30.673,30.673,0,0,1,2015.783,502.967Z" transform="translate(-1983.165 -499.725)" fill="#fff"/>
    </clipPath>
  </defs>
  <g id="Group_34865" data-name="Group 34865" transform="translate(-1581 -1007)">
    <rect id="Rectangle_13922" data-name="Rectangle 13922" width="120" height="120" rx="24" transform="translate(1581 1007)" fill="url(#linear-gradient)"/>
  </g>
  <g id="Group_42585" data-name="Group 42585" transform="translate(-1370 -1212)">
    <g id="user-friends" transform="translate(1412.714 1250.038)">
      <path id="Path_82844" data-name="Path 82844" d="M47.927,23.766a9.585,9.585,0,1,0-9.585-9.585A9.588,9.588,0,0,0,47.927,23.766Zm0-3.2Zm-28.756,3.2A11.183,11.183,0,1,0,7.988,12.583,11.177,11.177,0,0,0,19.171,23.766ZM11.183,12.583Zm15.986,13.18c-3.335,0-4.164,1.2-8,1.2s-4.663-1.2-8-1.2a11,11,0,0,0-9.216,4.683A11.442,11.442,0,0,0,0,36.866v4.473a4.794,4.794,0,0,0,4.793,4.793H33.549a4.794,4.794,0,0,0,4.793-4.793V36.866a11.442,11.442,0,0,0-1.957-6.42,11,11,0,0,0-9.216-4.683ZM4.793,42.937Zm57.482-13.07a9.178,9.178,0,0,0-7.678-3.9c-2.776,0-3.475,1-6.67,1s-3.894-1-6.67-1c-1.318,0-1.717.489-2.916,1,1.518,1.538,2.794,3.386,3.775,7.428a21.943,21.943,0,0,1,0,8.548H59.908A3.993,3.993,0,0,0,63.9,38.943V35.218A9.539,9.539,0,0,0,62.275,29.867Z" transform="translate(0 -1.4)" fill="#fff" stroke="#fff" stroke-width="0.7"/>
    </g>
    <g id="Mask_Group_24458" data-name="Mask Group 24458" transform="translate(1383.384 1249.231)" clip-path="url(#clip-path)">
      <g id="user-friends-2" data-name="user-friends" transform="translate(3.047 0.807)">
        <path id="Path_84791" data-name="Path 84791" d="M15.976,23.766a9.585,9.585,0,1,1,9.585-9.585A9.588,9.588,0,0,1,15.976,23.766ZM9.585,14.18Zm35.146,9.585A11.183,11.183,0,1,1,55.914,12.583,11.177,11.177,0,0,1,44.732,23.766Zm0-19.171a7.988,7.988,0,1,0,7.988,7.988A8,8,0,0,0,44.732,4.6Zm-8,21.168c3.335,0,4.164,1.2,8,1.2s4.663-1.2,8-1.2a11,11,0,0,1,9.216,4.683,11.442,11.442,0,0,1,1.957,6.42v4.473a4.794,4.794,0,0,1-4.793,4.793H30.354a4.794,4.794,0,0,1-4.793-4.793V36.866a11.442,11.442,0,0,1,1.957-6.42,11,11,0,0,1,9.216-4.683ZM28.756,41.339a1.6,1.6,0,0,0,1.6,1.6H59.109a1.6,1.6,0,0,0,1.6-1.6V36.866A8.3,8.3,0,0,0,59.3,32.233a7.814,7.814,0,0,0-6.56-3.275c-2.736,0-3.714,1.2-8.008,1.2s-5.272-1.2-8-1.2a7.814,7.814,0,0,0-6.56,3.275,8.3,8.3,0,0,0-1.408,4.633v4.473ZM1.628,29.867a9.178,9.178,0,0,1,7.678-3.9c2.776,0,3.475,1,6.67,1s3.894-1,6.67-1a9.738,9.738,0,0,1,3.8.809,9.629,9.629,0,0,0-2.017,2.656c-.569-.16-2.1,12.561-1.907,13.509H3.994A3.993,3.993,0,0,1,0,38.943V35.218A9.539,9.539,0,0,1,1.628,29.867Z" transform="translate(0 -1.4)" fill="#fff" stroke="#fff" stroke-width="0.7"/>
      </g>
    </g>
  </g>
</svg>
