<svg width="89" height="88" viewBox="0 0 89 88" fill="none" xmlns="http://www.w3.org/2000/svg">
<g clip-path="url(#clip0_4799_3175)">
<path d="M70.9 0H18.1C8.37979 0 0.5 7.87979 0.5 17.6V70.4C0.5 80.1202 8.37979 88 18.1 88H70.9C80.6202 88 88.5 80.1202 88.5 70.4V17.6C88.5 7.87979 80.6202 0 70.9 0Z" fill="url(#paint0_linear_4799_3175)"/>
<path d="M66.9709 45.6712C68.3611 45.6712 69.7201 45.2589 70.876 44.4866C72.0319 43.7142 72.9328 42.6165 73.4648 41.3321C73.9968 40.0477 74.136 38.6344 73.8648 37.2709C73.5936 35.9074 72.9241 34.655 71.9411 33.6719C70.9581 32.6889 69.7056 32.0195 68.3422 31.7483C66.9787 31.477 65.5654 31.6162 64.281 32.1482C62.9966 32.6803 61.8988 33.5812 61.1265 34.7371C60.3541 35.893 59.9419 37.252 59.9419 38.6422C59.9424 40.5062 60.6832 42.2937 62.0013 43.6118C63.3193 44.9299 65.1068 45.6706 66.9709 45.6712ZM45.8831 45.6712C47.5051 45.6712 49.0907 45.1902 50.4393 44.2891C51.7879 43.388 52.839 42.1072 53.4597 40.6087C54.0804 39.1101 54.2428 37.4612 53.9264 35.8704C53.61 34.2796 52.8289 32.8183 51.682 31.6714C50.5351 30.5245 49.0739 29.7435 47.483 29.427C45.8922 29.1106 44.2433 29.273 42.7448 29.8937C41.2463 30.5144 39.9655 31.5655 39.0644 32.9142C38.1632 34.2628 37.6823 35.8483 37.6823 37.4703C37.6817 38.5474 37.8934 39.6141 38.3053 40.6093C38.7173 41.6046 39.3213 42.5089 40.0829 43.2705C40.8446 44.0321 41.7489 44.6362 42.7441 45.0481C43.7393 45.46 44.806 45.6718 45.8831 45.6712ZM51.7483 47.1357C49.3027 47.1357 48.6947 48.0157 45.8817 48.0157C43.0686 48.0157 42.4621 47.1357 40.015 47.1357C38.6933 47.1105 37.3857 47.4105 36.2072 48.0094C35.0288 48.6082 34.0155 49.4875 33.2566 50.5699C32.3194 51.9608 31.8205 53.6007 31.8244 55.2779V58.5581C31.8246 59.4902 32.195 60.3841 32.8541 61.0432C33.5132 61.7024 34.4071 62.0727 35.3393 62.0729H56.427C57.3591 62.0727 58.253 61.7024 58.9122 61.0432C59.5713 60.3841 59.9417 59.4902 59.9419 58.5581V55.2779C59.9449 53.6004 59.445 51.9605 58.5067 50.5699C57.7478 49.4875 56.7346 48.6082 55.5561 48.0094C54.3776 47.4105 53.07 47.1105 51.7483 47.1357ZM77.4927 50.1453C76.8597 49.2444 76.0154 48.5125 75.0337 48.0139C74.0521 47.5152 72.9631 47.2651 71.8622 47.2853C69.8265 47.2853 69.3139 48.0186 66.9709 48.0186C64.6279 48.0186 64.1153 47.2853 62.0795 47.2853C61.113 47.2853 60.8204 47.6439 59.9411 48.0186C61.0543 49.1465 61.9901 50.5017 62.7095 53.4658C63.1204 55.5351 63.1204 57.665 62.7095 59.7343H75.7569C76.1418 59.7342 76.5229 59.6583 76.8785 59.5107C77.234 59.3632 77.5569 59.147 77.8288 58.8746C78.1007 58.6022 78.3162 58.2788 78.463 57.923C78.6099 57.5672 78.6851 57.1859 78.6844 56.801V54.0693C78.6881 52.6716 78.2731 51.3049 77.4927 50.1453Z" fill="#FEF8E8" stroke="#FEF8E8" stroke-width="0.868718"/>
<mask id="mask0_4799_3175" style="mask-type:luminance" maskUnits="userSpaceOnUse" x="10" y="28" width="26" height="33">
<path d="M34.2348 31.0552C34.2348 31.0552 37.0251 43.2527 34.468 46.4515C31.9109 49.6503 30.8908 48.6801 29.7806 53.6066C28.6703 58.5331 30.115 60.8123 30.115 60.8123H11.426C11.426 60.8123 9.86328 56.8743 10.4448 49.4354C11.0263 41.9965 13.7448 31.0559 13.7448 31.0559C13.7448 31.0559 19.5828 28.6784 24.7044 28.6784C28.0175 28.7589 31.2719 29.5705 34.2348 31.0552Z" fill="white"/>
</mask>
<g mask="url(#mask0_4799_3175)">
<path d="M24.2654 45.6711C22.8752 45.6711 21.5162 45.2589 20.3603 44.4865C19.2044 43.7142 18.3035 42.6164 17.7715 41.332C17.2395 40.0476 17.1003 38.6343 17.3715 37.2708C17.6427 35.9073 18.3122 34.6549 19.2952 33.6719C20.2782 32.6889 21.5307 32.0194 22.8941 31.7482C24.2576 31.477 25.6709 31.6162 26.9553 32.1482C28.2397 32.6802 29.3375 33.5811 30.1098 34.737C30.8822 35.8929 31.2944 37.2519 31.2944 38.6421C31.2939 40.5062 30.5531 42.2937 29.235 43.6117C27.917 44.9298 26.1295 45.6705 24.2654 45.6711ZM45.3524 45.6704C43.7304 45.6704 42.1448 45.1894 40.7962 44.2883C39.4476 43.3871 38.3964 42.1063 37.7758 40.6077C37.1551 39.1091 36.9927 37.4602 37.3092 35.8694C37.6257 34.2785 38.4068 32.8173 39.5538 31.6704C40.7008 30.5235 42.1621 29.7425 43.753 29.4262C45.3438 29.1098 46.9928 29.2723 48.4913 29.8931C49.9898 30.5139 51.2705 31.5652 52.1716 32.9139C53.0726 34.2626 53.5535 35.8483 53.5533 37.4703C53.5539 38.5473 53.3422 39.6139 52.9303 40.6091C52.5184 41.6043 51.9144 42.5086 51.1529 43.2702C50.3913 44.0318 49.4871 44.6359 48.492 45.0478C47.4968 45.4598 46.4302 45.6716 45.3532 45.6711L45.3524 45.6704ZM45.3524 31.6117C44.1939 31.6117 43.0613 31.9552 42.098 32.5989C41.1347 33.2426 40.3838 34.1574 39.9405 35.2278C39.4971 36.2982 39.3811 37.476 39.6071 38.6123C39.8332 39.7487 40.3911 40.7924 41.2103 41.6117C42.0295 42.4309 43.0733 42.9888 44.2096 43.2148C45.3459 43.4409 46.5238 43.3249 47.5941 42.8815C48.6645 42.4381 49.5794 41.6873 50.2231 40.724C50.8667 39.7607 51.2103 38.6281 51.2103 37.4695C51.2068 35.9175 50.5885 34.4302 49.4907 33.3331C48.3929 32.236 46.9052 31.6186 45.3532 31.6161L45.3524 31.6117ZM39.4858 47.1349C41.9314 47.1349 42.5394 48.0149 45.3524 48.0149C48.1655 48.0149 48.772 47.1349 51.2191 47.1349C52.5408 47.1097 53.8484 47.4098 55.0269 48.0086C56.2053 48.6074 57.2186 49.4867 57.9775 50.5691C58.9157 51.9597 59.4156 53.5996 59.4126 55.2771V58.5573C59.4124 59.4894 59.0421 60.3833 58.3829 61.0424C57.7238 61.7016 56.8299 62.0719 55.8978 62.0721H34.8093C33.8772 62.0719 32.9833 61.7016 32.3241 61.0424C31.665 60.3833 31.2946 59.4894 31.2944 58.5573V55.2778C31.2914 53.6003 31.7913 51.9604 32.7296 50.5698C33.4885 49.4874 34.5017 48.6082 35.6802 48.0093C36.8587 47.4105 38.1663 47.1104 39.488 47.1356L39.4858 47.1349ZM33.6374 58.558C33.6374 58.8692 33.7611 59.1676 33.9811 59.3877C34.2011 59.6077 34.4996 59.7313 34.8108 59.7313H55.8963C56.2075 59.7313 56.5059 59.6077 56.726 59.3877C56.946 59.1676 57.0696 58.8692 57.0696 58.558V55.2778C57.0706 54.0678 56.7109 52.8849 56.0364 51.8803C55.4921 51.117 54.7689 50.4989 53.9302 50.0802C53.0915 49.6614 52.1628 49.4549 51.2257 49.4786C49.2193 49.4786 48.5021 50.3586 45.3532 50.3586C42.2042 50.3586 41.487 49.4786 39.4865 49.4786C38.5494 49.4549 37.6207 49.6614 36.782 50.0802C35.9433 50.4989 35.2201 51.117 34.6758 51.8803C34.0016 52.885 33.6421 54.0678 33.6433 55.2778V58.558H33.6374ZM13.7436 50.1452C14.3766 49.2443 15.2209 48.5124 16.2026 48.0138C17.1842 47.5152 18.2732 47.265 19.3741 47.2852C21.4098 47.2852 21.9224 48.0185 24.2654 48.0185C26.6084 48.0185 27.121 47.2852 29.1568 47.2852C30.1161 47.2938 31.0638 47.4955 31.9434 47.8785C31.3409 48.4367 30.8403 49.0959 30.4643 49.8262C30.047 49.7089 28.9243 59.0376 29.0658 59.7328H15.4786C15.0937 59.7329 14.7126 59.6571 14.357 59.5098C14.0014 59.3624 13.6783 59.1464 13.4063 58.8741C13.1343 58.6018 12.9186 58.2785 12.7716 57.9228C12.6246 57.5671 12.5492 57.1858 12.5497 56.8009V54.0693C12.5466 52.6713 12.9625 51.3045 13.7436 50.1452Z" fill="#FEF8E8" stroke="#FEF8E8" stroke-width="0.868718"/>
</g>
</g>
<defs>
<linearGradient id="paint0_linear_4799_3175" x1="44.5" y1="0" x2="44.5" y2="88" gradientUnits="userSpaceOnUse">
<stop stop-color="#FF6C58"/>
<stop offset="1" stop-color="#C61F1B"/>
</linearGradient>
<clipPath id="clip0_4799_3175">
<rect x="0.5" width="88" height="88" rx="44" fill="white"/>
</clipPath>
</defs>
</svg>
