<svg xmlns="http://www.w3.org/2000/svg" width="16" height="16.001" viewBox="0 0 16 16.001">
  <g id="Group_43733" data-name="Group 43733" transform="translate(-0.003 -0.005)">
    <path id="Path_84745" data-name="Path 84745" d="M15.535.472A1.605,1.605,0,0,0,13.864.1L1.1,5.363a1.6,1.6,0,0,0-.27,2.911L.882,8.3l5.036,2.085a.57.57,0,0,0,.585-.12L9.138,7.629a.535.535,0,1,0-.755-.755L6,9.259,1.317,7.329a.5.5,0,0,1-.25-.5.545.545,0,0,1,.4-.47L14.234,1.1a.53.53,0,0,1,.545.125.5.5,0,0,1,.14.5L9.634,14.575a.531.531,0,0,1-.955.11L7.388,11.57a.541.541,0,1,0-1,.41L7.693,15.13l.025.055a1.57,1.57,0,0,0,1.405.82h.155a1.565,1.565,0,0,0,1.355-1.05L15.92,2.108A1.59,1.59,0,0,0,15.535.472Z" transform="translate(0)" fill="#627282"/>
  </g>
</svg>
