<svg xmlns="http://www.w3.org/2000/svg" xmlns:xlink="http://www.w3.org/1999/xlink" width="28" height="28" viewBox="0 0 28 28">
  <defs>
    <clipPath id="clip-path">
      <rect id="Rectangle_13743" data-name="Rectangle 13743" width="28" height="28" rx="6" fill="#fff"/>
    </clipPath>
  </defs>
  <g id="Mask_Group_24111" data-name="Mask Group 24111" clip-path="url(#clip-path)">
    <g id="setting-2" transform="translate(0 0.74)">
      <path id="Path_67863" data-name="Path 67863" d="M14.08,18.959a4.879,4.879,0,1,1,4.879-4.879A4.881,4.881,0,0,1,14.08,18.959Zm0-7.807a2.928,2.928,0,1,0,2.928,2.928A2.932,2.932,0,0,0,14.08,11.152Z" transform="translate(-0.093 -0.824)" fill="#fff"/>
      <path id="Path_67864" data-name="Path 67864" d="M19.558,28.535a3.538,3.538,0,0,1-.82-.1,3.2,3.2,0,0,1-1.913-1.444l-.156-.26c-.768-1.327-1.822-1.327-2.589,0l-.143.247a3.119,3.119,0,0,1-1.913,1.457,3.046,3.046,0,0,1-2.381-.325L7.405,26.817a3.448,3.448,0,0,1-1.275-4.71,1.741,1.741,0,0,0,.26-1.639,1.734,1.734,0,0,0-1.548-.6,3.454,3.454,0,0,1-3.448-3.448v-2.29a3.454,3.454,0,0,1,3.448-3.448,1.734,1.734,0,0,0,1.548-.6,1.705,1.705,0,0,0-.26-1.639A3.463,3.463,0,0,1,5.792,5.83,3.357,3.357,0,0,1,7.405,3.736L9.656,2.448A3.152,3.152,0,0,1,13.95,3.58l.156.26c.768,1.327,1.822,1.327,2.589,0l.143-.247a3.141,3.141,0,0,1,4.307-1.132l2.238,1.288a3.448,3.448,0,0,1,1.275,4.71A1.741,1.741,0,0,0,24.4,10.1a1.734,1.734,0,0,0,1.548.6,3.454,3.454,0,0,1,3.448,3.448v2.29a3.454,3.454,0,0,1-3.448,3.448,1.734,1.734,0,0,0-1.548.6,1.705,1.705,0,0,0,.26,1.639A3.4,3.4,0,0,1,25,24.736a3.357,3.357,0,0,1-1.613,2.095l-2.251,1.288a3.238,3.238,0,0,1-1.574.416Zm-4.177-4.814a3.545,3.545,0,0,1,2.98,2.017l.143.247a1.193,1.193,0,0,0,1.613.429l2.251-1.3a1.505,1.505,0,0,0,.559-2.043,3.572,3.572,0,0,1-.26-3.591,3.554,3.554,0,0,1,3.24-1.574,1.488,1.488,0,0,0,1.5-1.5v-2.29a1.5,1.5,0,0,0-1.5-1.5,3.554,3.554,0,0,1-3.24-1.574,3.572,3.572,0,0,1,.26-3.591,1.487,1.487,0,0,0,.143-1.132,1.522,1.522,0,0,0-.69-.911L20.13,4.126a1.2,1.2,0,0,0-1.639.429l-.143.247a3.545,3.545,0,0,1-2.98,2.017A3.545,3.545,0,0,1,12.388,4.8l-.143-.26a1.194,1.194,0,0,0-1.613-.416l-2.251,1.3A1.505,1.505,0,0,0,7.822,7.47a3.572,3.572,0,0,1,.26,3.591,3.554,3.554,0,0,1-3.24,1.574,1.488,1.488,0,0,0-1.5,1.5v2.29a1.5,1.5,0,0,0,1.5,1.5,3.554,3.554,0,0,1,3.24,1.574,3.572,3.572,0,0,1-.26,3.591,1.487,1.487,0,0,0-.143,1.132,1.522,1.522,0,0,0,.69.911l2.251,1.288a1.151,1.151,0,0,0,.9.13,1.234,1.234,0,0,0,.742-.559l.143-.247a3.571,3.571,0,0,1,2.98-2.017Z" transform="translate(-1.394 -2.021)" fill="#fff"/>
    </g>
  </g>
</svg>
