<svg width="31" height="29" viewBox="0 0 31 29" fill="none" xmlns="http://www.w3.org/2000/svg">
<path d="M15.2753 19.8191C14.2264 19.8191 13.2011 19.5069 12.329 18.922C11.4569 18.3371 10.7771 17.5058 10.3757 16.5331C9.97434 15.5604 9.86932 14.4902 10.0739 13.4576C10.2786 12.425 10.7837 11.4766 11.5253 10.7321C12.267 9.98768 13.212 9.48071 14.2407 9.27532C15.2695 9.06993 16.3358 9.17534 17.3048 9.57823C18.2739 9.98112 19.1021 10.6634 19.6849 11.5388C20.2676 12.4141 20.5786 13.4433 20.5786 14.4961C20.578 15.9076 20.0191 17.2612 19.0247 18.2594C18.0303 19.2575 16.6817 19.8185 15.2753 19.8191ZM15.2753 11.3016C14.6459 11.3016 14.0305 11.4889 13.5072 11.84C12.9838 12.191 12.5759 12.6899 12.335 13.2736C12.0941 13.8573 12.0311 14.4996 12.1539 15.1193C12.2767 15.7389 12.5798 16.3081 13.0249 16.7549C13.47 17.2017 14.0371 17.5059 14.6544 17.6292C15.2718 17.7524 15.9117 17.6892 16.4933 17.4474C17.0748 17.2056 17.5719 16.7962 17.9216 16.2708C18.2713 15.7455 18.458 15.1279 18.458 14.4961C18.4568 13.6492 18.1211 12.8373 17.5245 12.2385C16.9279 11.6397 16.1191 11.3028 15.2753 11.3016Z" fill="#C61F1B"/>
<path d="M19.8155 28.959C19.5151 28.9577 19.216 28.9211 18.9242 28.8499C18.0539 28.615 17.3084 28.0503 16.8448 27.2746L16.6752 26.991C15.8405 25.5434 14.6948 25.5434 13.8611 26.991L13.7057 27.2605C13.4811 27.6503 13.1817 27.9916 12.8247 28.2644C12.4678 28.5372 12.0605 28.7363 11.6263 28.8499C11.1935 28.9701 10.7409 29.0006 10.296 28.9396C9.85105 28.8787 9.42313 28.7275 9.03825 28.4954L6.60563 27.0848C6.17822 26.839 5.80329 26.5111 5.50228 26.1197C5.20127 25.7284 4.98008 25.2813 4.85137 24.8041C4.72265 24.3269 4.68894 23.8289 4.75215 23.3386C4.81536 22.8483 4.97425 22.3753 5.21975 21.9466C5.4114 21.6958 5.53762 21.4008 5.58697 21.0886C5.63632 20.7764 5.60724 20.4567 5.50236 20.1586C5.29882 19.917 5.03814 19.7305 4.74418 19.6161C4.45022 19.5018 4.13237 19.4633 3.81974 19.5041C2.82628 19.5024 1.87401 19.1055 1.17152 18.4005C0.469038 17.6955 0.0736237 16.7397 0.0718994 15.7426V13.2445C0.0736237 12.2474 0.469038 11.2917 1.17152 10.5866C1.87401 9.88159 2.82628 9.48474 3.81974 9.48301C4.13237 9.52385 4.45022 9.48533 4.74418 9.37098C5.03814 9.25663 5.29882 9.0701 5.50236 8.82847C5.61088 8.53095 5.64188 8.21054 5.59243 7.89763C5.54297 7.58472 5.41469 7.28967 5.21975 7.04047C4.72784 6.17598 4.59581 5.15157 4.85236 4.18992C4.97536 3.70989 5.19418 3.25992 5.49555 2.86726C5.79692 2.47461 6.17457 2.14743 6.60563 1.90556L9.05238 0.500465C9.83529 0.0465375 10.7653 -0.0783796 11.6396 0.152943C12.5139 0.384266 13.2616 0.953072 13.7198 1.73537L13.8894 2.01901C14.7241 3.46665 15.8698 3.46665 16.7035 2.01901L16.8589 1.74956C17.0847 1.35911 17.3851 1.01728 17.743 0.743725C18.1008 0.470168 18.5089 0.270269 18.944 0.155515C19.379 0.0407613 19.8323 0.0134147 20.2779 0.0750463C20.7235 0.136678 21.1526 0.286073 21.5405 0.514647L23.9731 1.91974C24.4005 2.16554 24.7754 2.4935 25.0764 2.88485C25.3775 3.2762 25.5986 3.72327 25.7274 4.20049C25.8561 4.6777 25.8898 5.1757 25.8266 5.66601C25.7634 6.15631 25.6045 6.6293 25.359 7.05792C25.1673 7.30924 25.0413 7.60464 24.9923 7.91728C24.9433 8.22992 24.973 8.54988 25.0785 8.8481C25.2821 9.08974 25.5428 9.27627 25.8367 9.39062C26.1307 9.50497 26.4485 9.54349 26.7612 9.50265C27.7546 9.50438 28.7069 9.90123 29.4094 10.6063C30.1119 11.3113 30.5073 12.267 30.509 13.2641V15.7623C30.5073 16.7594 30.1119 17.7151 29.4094 18.4201C28.7069 19.1252 27.7546 19.522 26.7612 19.5237C26.4485 19.4829 26.1307 19.5214 25.8367 19.6358C25.5428 19.7501 25.2821 19.9367 25.0785 20.1783C24.97 20.4758 24.939 20.7962 24.9885 21.1091C25.0379 21.422 25.1662 21.7171 25.3611 21.9663C25.6083 22.3926 25.7684 22.864 25.8318 23.3531C25.8953 23.8422 25.8609 24.3391 25.7307 24.8146C25.6078 25.2949 25.3891 25.7451 25.0877 26.1379C24.7863 26.5308 24.4086 26.8581 23.9774 27.1001L21.5307 28.5052C21.0082 28.8002 20.4193 28.9564 19.8198 28.959H19.8155ZM15.2752 23.7074C15.9617 23.7506 16.6241 23.9775 17.1937 24.3644C17.7633 24.7513 18.2193 25.2842 18.5144 25.9077L18.6698 26.1772C18.843 26.4698 19.1236 26.6827 19.4513 26.7701C19.7791 26.8576 20.1279 26.8128 20.4231 26.6452L22.8698 25.227C23.2433 25.0108 23.5166 24.6554 23.6304 24.2381C23.7442 23.8207 23.6892 23.3752 23.4774 22.9983C23.0889 22.4289 22.858 21.7662 22.8084 21.0779C22.7587 20.3896 22.8921 19.7004 23.1948 19.0808C23.5762 18.5057 24.1037 18.0432 24.7229 17.7413C25.3421 17.4394 26.0304 17.3091 26.7166 17.3637C26.9312 17.3655 27.144 17.3243 27.3426 17.2427C27.5412 17.1611 27.7216 17.0406 27.8734 16.8883C28.0251 16.736 28.1451 16.555 28.2265 16.3556C28.3078 16.1563 28.3488 15.9428 28.347 15.7274V13.2292C28.347 12.7952 28.1753 12.379 27.8695 12.0721C27.5637 11.7652 27.149 11.5928 26.7166 11.5928C26.0304 11.6475 25.3421 11.5171 24.7229 11.2152C24.1037 10.9134 23.5762 10.4509 23.1948 9.87574C22.8921 9.25613 22.7587 8.56695 22.8084 7.87866C22.858 7.19037 23.0889 6.52766 23.4774 5.95828C23.5831 5.77285 23.6512 5.56831 23.6779 5.35639C23.7045 5.14447 23.6893 4.92935 23.6329 4.72337C23.521 4.3069 23.252 3.95048 22.8829 3.72956L20.4372 2.33101C20.139 2.15656 19.784 2.10786 19.4501 2.19558C19.1162 2.2833 18.8305 2.50029 18.6557 2.79901L18.5002 3.06847C18.2051 3.69199 17.7491 4.22487 17.1795 4.61179C16.6099 4.99872 15.9475 5.22558 15.2611 5.26883C14.5744 5.22537 13.9119 4.99819 13.3423 4.61086C12.7727 4.22354 12.3168 3.69021 12.022 3.06628L11.8665 2.78265C11.6908 2.49266 11.4092 2.28296 11.0818 2.1982C10.7543 2.11343 10.4068 2.16031 10.1133 2.32883L7.6665 3.74701C7.29216 3.9632 7.01819 4.3192 6.90436 4.73733C6.79054 5.15547 6.84608 5.60182 7.05889 5.97901C7.4474 6.54839 7.67829 7.2111 7.72794 7.89939C7.7776 8.58768 7.64424 9.27686 7.3415 9.89647C6.96015 10.4716 6.4326 10.9341 5.81343 11.236C5.19426 11.5379 4.50595 11.6682 3.81974 11.6136C3.60515 11.6118 3.39235 11.6529 3.19375 11.7346C2.99515 11.8162 2.81472 11.9366 2.66297 12.0889C2.51122 12.2412 2.39119 12.4223 2.30987 12.6217C2.22855 12.821 2.18756 13.0345 2.1893 13.2499V15.7481C2.1893 16.1821 2.36108 16.5983 2.66685 16.9052C2.97261 17.2121 3.38732 17.3845 3.81974 17.3845C4.50595 17.3298 5.19426 17.4602 5.81343 17.762C6.4326 18.0639 6.96015 18.5264 7.3415 19.1016C7.64424 19.7212 7.7776 20.4103 7.72794 21.0986C7.67829 21.7869 7.4474 22.4496 7.05889 23.019C6.95325 23.2044 6.88513 23.409 6.85846 23.6209C6.83178 23.8328 6.84708 24.0479 6.90345 24.2539C7.01534 24.6704 7.28432 25.0268 7.65346 25.2477L10.1002 26.6528C10.2451 26.7419 10.4066 26.8004 10.5748 26.8248C10.743 26.8492 10.9144 26.8389 11.0785 26.7946C11.4162 26.7046 11.7056 26.4858 11.885 26.1848L12.0404 25.9154C12.3379 25.2937 12.7946 24.7624 13.3637 24.3758C13.9328 23.9892 14.5939 23.7612 15.2796 23.715L15.2752 23.7074Z" fill="#C61F1B"/>
</svg>
