<svg xmlns="http://www.w3.org/2000/svg" xmlns:xlink="http://www.w3.org/1999/xlink" width="24" height="24" viewBox="0 0 24 24">
  <defs>
    <clipPath id="clip-path">
      <rect id="Platter" width="24" height="24" rx="3" transform="translate(136 380)" fill="#e4e4e4"/>
    </clipPath>
  </defs>
  <g id="Mask_Group_19503" data-name="Mask Group 19503" transform="translate(-136 -380)" clip-path="url(#clip-path)">
    <g id="Group_19751" data-name="Group 19751" transform="translate(136 380)">
      <path id="Path_63925" data-name="Path 63925" d="M12,17.06a6.186,6.186,0,0,1-3.887-1.379l-4.925-4a4.085,4.085,0,0,1,0-6.319l4.925-4a6.2,6.2,0,0,1,7.773,0l4.925,4A4.072,4.072,0,0,1,22.167,9.62a.938.938,0,1,1-1.807-.5,2.2,2.2,0,0,0-.731-2.3l-4.925-4a4.311,4.311,0,0,0-5.409,0l-4.925,4a2.2,2.2,0,0,0,0,3.406l4.925,4a4.311,4.311,0,0,0,5.4.006l.823-.7a.938.938,0,1,1,1.215,1.429l-.831.707-.017.014A6.186,6.186,0,0,1,12,17.06Zm3.886,5.562,4.925-4a4.085,4.085,0,0,0,0-6.319l-4.925-4a6.2,6.2,0,0,0-7.773,0l-.694.569a.938.938,0,0,0,1.189,1.45L9.3,9.764a4.311,4.311,0,0,1,5.407,0l4.925,4a2.2,2.2,0,0,1,0,3.406l-4.925,4a4.311,4.311,0,0,1-5.409,0l-4.925-4a2.2,2.2,0,0,1-.776-2.1.938.938,0,1,0-1.846-.334,4.073,4.073,0,0,0,1.44,3.889l4.925,4a6.168,6.168,0,0,0,7.773,0Z"/>
    </g>
  </g>
</svg>
