<svg width="72" height="72" viewBox="0 0 72 72" fill="none" xmlns="http://www.w3.org/2000/svg">
<g clip-path="url(#clip0_9423_48983)">
<path d="M57.6 0H14.4C6.4471 0 0 6.4471 0 14.4V57.6C0 65.5529 6.4471 72 14.4 72H57.6C65.5529 72 72 65.5529 72 57.6V14.4C72 6.4471 65.5529 0 57.6 0Z" fill="url(#paint0_linear_9423_48983)"/>
<path d="M50.1063 51.0124C50.1063 52.117 49.2109 53.0124 48.1063 53.0124H26.0747C24.9701 53.0124 24.0747 52.117 24.0747 51.0124V20.3516C24.0747 19.247 24.9701 18.3516 26.0747 18.3516H42.8059C43.3364 18.3516 43.8451 18.5623 44.2202 18.9373L49.5205 24.2377C49.8956 24.6128 50.1063 25.1215 50.1063 25.6519V51.0124Z" fill="#FFFCF1"/>
<path d="M45.6461 31.3496H28.5354C27.8085 31.3496 27.2192 31.9314 27.2192 32.6491V38.7132C27.2192 39.4309 27.8085 40.0127 28.5354 40.0127H45.6461C46.3731 40.0127 46.9623 39.4309 46.9623 38.7132V32.6491C46.9623 31.9314 46.3731 31.3496 45.6461 31.3496ZM32.5279 38.2801C31.0764 38.2801 29.8955 37.1142 29.8955 35.6812C29.8955 34.2481 31.0764 33.0822 32.5279 33.0822C33.9794 33.0822 35.1603 34.2481 35.1603 35.6812C35.1603 37.1142 33.9794 38.2801 32.5279 38.2801ZM40.1799 37.514C40.1109 37.5952 40.0361 37.6713 39.9576 37.7404C39.556 38.0934 39.0388 38.2801 38.4618 38.2801C37.0103 38.2801 35.8294 37.1142 35.8294 35.6812C35.8294 34.2481 37.0103 33.0822 38.4618 33.0822C38.9894 33.0822 39.4984 33.2358 39.934 33.5263C40.1347 33.6603 40.1875 33.9295 40.0518 34.1277C39.9162 34.3259 39.6435 34.3781 39.4427 34.2441C39.1528 34.0508 38.8136 33.9485 38.4618 33.9485C37.4942 33.9485 36.7069 34.7258 36.7069 35.6812C36.7069 36.6365 37.4942 37.4138 38.4618 37.4138C38.8254 37.4138 39.1322 37.306 39.374 37.0934C39.4209 37.0521 39.466 37.0063 39.5078 36.9571C39.6635 36.7738 39.9403 36.75 40.1259 36.9037C40.3114 37.0575 40.3357 37.3307 40.1799 37.514ZM44.1767 37.5608C44.3367 37.7403 44.3191 38.014 44.1372 38.1721C44.0538 38.2445 43.9504 38.2801 43.8475 38.2801C43.7258 38.2801 43.6047 38.2304 43.5179 38.1331L41.914 36.3339V37.8469C41.914 38.0862 41.7175 38.2801 41.4752 38.2801C41.2329 38.2801 41.0365 38.0862 41.0365 37.8469V33.5154C41.0365 33.2762 41.2329 33.0822 41.4752 33.0822C41.475 33.0822 41.4755 33.0822 41.4752 33.0822C41.4755 33.0822 41.4764 33.0822 41.4766 33.0822H42.6425C43.5488 33.0822 44.286 33.7816 44.286 34.6411C44.286 35.4042 43.7048 36.0405 42.9403 36.1738L44.1767 37.5608Z" fill="#D9251B"/>
<path d="M32.5499 34.0723C31.5348 34.0723 30.709 34.8981 30.709 35.9132C30.709 36.9283 31.5348 37.7541 32.5499 37.7541C33.565 37.7541 34.3908 36.9283 34.3908 35.9132C34.3908 34.8981 33.565 34.0723 32.5499 34.0723Z" fill="#D9251B"/>
<path d="M42.5505 33.8008H41.7544C41.7552 34.104 41.7561 34.4589 41.7561 34.6175C41.7561 34.804 41.7576 35.1464 41.7591 35.4371C42.0379 35.4356 42.3687 35.4341 42.5505 35.4341C43.006 35.4341 43.3908 35.0601 43.3908 34.6175C43.3908 34.1748 43.0059 33.8008 42.5505 33.8008Z" fill="#D9251B"/>
<path d="M19.5 26.6818V16C19.5 14.8954 20.3954 14 21.5 14H32.1818" stroke="#FFFCF1" stroke-width="2" stroke-miterlimit="10" stroke-linecap="round"/>
<path d="M43.6362 57.364H52.2726C53.3772 57.364 54.2726 56.4686 54.2726 55.364V47.1367" stroke="#FFFCF1" stroke-width="2" stroke-miterlimit="10" stroke-linecap="round"/>
<path d="M27.6816 23H35.0453" stroke="#E3463A" stroke-width="2" stroke-miterlimit="10" stroke-linecap="round"/>
<path d="M27.6816 27.0898H40.7725" stroke="#E3463A" stroke-width="2" stroke-miterlimit="10" stroke-linecap="round"/>
<path d="M27.6816 49.1816H45.6816" stroke="#DC3C32" stroke-width="2" stroke-miterlimit="10" stroke-linecap="round"/>
<path d="M27.6816 45.0898H39.1362" stroke="#DC3C32" stroke-width="2" stroke-miterlimit="10" stroke-linecap="round"/>
<path d="M50.1067 24.8235H45.6348C44.5302 24.8235 43.6348 23.9281 43.6348 22.8235V18.3516" stroke="#EE5546" stroke-width="2" stroke-miterlimit="10"/>
</g>
<defs>
<linearGradient id="paint0_linear_9423_48983" x1="36" y1="0" x2="36" y2="72" gradientUnits="userSpaceOnUse">
<stop stop-color="#FF6C58"/>
<stop offset="1" stop-color="#C61F1B"/>
</linearGradient>
<clipPath id="clip0_9423_48983">
<rect width="72" height="72" rx="36" fill="white"/>
</clipPath>
</defs>
</svg>