<svg xmlns="http://www.w3.org/2000/svg" xmlns:xlink="http://www.w3.org/1999/xlink" width="20" height="20" viewBox="0 0 20 20">
  <defs>
    <clipPath id="clip-path">
      <rect id="Rectangle_16086" data-name="Rectangle 16086" width="20" height="20" transform="translate(0 0.478)" fill="#627282" stroke="#707070" stroke-width="1"/>
    </clipPath>
  </defs>
  <g id="Mask_Group_24453" data-name="Mask Group 24453" transform="translate(0 -0.478)" clip-path="url(#clip-path)">
    <g id="arrow-down" transform="translate(2.662 0)">
      <path id="Path_84770" data-name="Path 84770" d="M14.183,26.031a.812.812,0,0,1-.58-.241L6.961,19.148a.82.82,0,0,1,1.16-1.16l6.062,6.062,6.062-6.062a.82.82,0,0,1,1.16,1.16L14.763,25.79a.812.812,0,0,1-.58.241Z" transform="translate(-6.723 -5.787)" fill="#627282"/>
      <path id="Path_84771" data-name="Path 84771" d="M15.415,23.625a.827.827,0,0,1-.821-.821V4.388a.821.821,0,0,1,1.641,0V22.8A.827.827,0,0,1,15.415,23.625Z" transform="translate(-7.955 -3.568)" fill="#627282"/>
    </g>
  </g>
</svg>
