<svg xmlns="http://www.w3.org/2000/svg" width="20.332" height="19.507" viewBox="0 0 20.332 19.507">
  <path id="Path_85449" data-name="Path 85449" d="M16.744,21.18a1.611,1.611,0,0,1-.754-.187l-4.318-2.269a.231.231,0,0,0-.218,0L7.138,20.993a1.62,1.62,0,0,1-2.35-1.707l.824-4.807a.233.233,0,0,0-.069-.208l-3.49-3.406a1.62,1.62,0,0,1,.9-2.763l4.823-.7a.233.233,0,0,0,.176-.128L10.109,2.9a1.619,1.619,0,0,1,2.9,0l2.158,4.373a.236.236,0,0,0,.176.128l4.827.7a1.62,1.62,0,0,1,.9,2.763l-3.493,3.4a.235.235,0,0,0-.069.208l.824,4.807a1.622,1.622,0,0,1-1.593,1.895Z" transform="translate(-1.398 -1.846)" fill="#ffd60a" stroke="#fed63b" stroke-width="0.3"/>
</svg>
