<svg xmlns="http://www.w3.org/2000/svg" width="20.332" height="19.507" viewBox="0 0 20.332 19.507">
  <g id="Component_1147_18" data-name="Component 1147 – 18" transform="translate(0.166 0.15)">
    <path id="Path_83732" data-name="Path 83732" d="M16.744,21.18a1.611,1.611,0,0,1-.754-.187l-4.318-2.269a.231.231,0,0,0-.218,0L7.138,20.993a1.62,1.62,0,0,1-2.35-1.707l.824-4.807a.233.233,0,0,0-.069-.208l-3.49-3.406a1.62,1.62,0,0,1,.9-2.763l4.823-.7a.233.233,0,0,0,.176-.128L10.109,2.9a1.619,1.619,0,0,1,2.9,0l2.158,4.373a.236.236,0,0,0,.176.128l4.827.7a1.62,1.62,0,0,1,.9,2.763l-3.493,3.4a.235.235,0,0,0-.069.208l.824,4.807a1.622,1.622,0,0,1-1.593,1.895Zm-5.181-3.869a1.611,1.611,0,0,1,.754.187l4.317,2.268a.222.222,0,0,0,.247-.017.225.225,0,0,0,.094-.229l-.825-4.807a1.623,1.623,0,0,1,.465-1.433l3.493-3.4a.234.234,0,0,0-.13-.4l-4.827-.7a1.617,1.617,0,0,1-1.219-.886L11.771,3.514a.234.234,0,0,0-.42,0L9.2,7.887a1.617,1.617,0,0,1-1.22.886l-4.826.7a.233.233,0,0,0-.13.4l3.493,3.4a1.623,1.623,0,0,1,.465,1.433L6.153,19.52a.234.234,0,0,0,.341.247L10.81,17.5A1.617,1.617,0,0,1,11.564,17.311Z" transform="translate(-1.563 -1.996)" fill="#627282" stroke="#627282" stroke-width="0.3"/>
  </g>
</svg>
