<svg width="16" height="17" viewBox="0 0 16 17" fill="none" xmlns="http://www.w3.org/2000/svg">
<path d="M1.99988 8.5C1.99988 9.28793 2.15507 10.0681 2.4566 10.7961C2.75813 11.5241 3.20009 12.1855 3.75724 12.7426C4.31439 13.2998 4.97582 13.7417 5.70378 14.0433C6.43173 14.3448 7.21195 14.5 7.99988 14.5C8.78781 14.5 9.56803 14.3448 10.296 14.0433C11.0239 13.7417 11.6854 13.2998 12.2425 12.7426C12.7997 12.1855 13.2416 11.5241 13.5432 10.7961C13.8447 10.0681 13.9999 9.28793 13.9999 8.5C13.9999 7.71207 13.8447 6.93185 13.5432 6.2039C13.2416 5.47595 12.7997 4.81451 12.2425 4.25736C11.6854 3.70021 11.0239 3.25825 10.296 2.95672C9.56803 2.65519 8.78781 2.5 7.99988 2.5C7.21195 2.5 6.43173 2.65519 5.70378 2.95672C4.97582 3.25825 4.31439 3.70021 3.75724 4.25736C3.20009 4.81451 2.75813 5.47595 2.4566 6.2039C2.15507 6.93185 1.99988 7.71207 1.99988 8.5Z" stroke="#D9251B" stroke-width="1.33333" stroke-linecap="round" stroke-linejoin="round"/>
<path d="M4.11185 13.0658C4.27685 12.5167 4.61449 12.0353 5.07468 11.6932C5.53486 11.351 6.09308 11.1663 6.66651 11.1665H9.33318C9.90735 11.1663 10.4663 11.3514 10.9268 11.6944C11.3873 12.0373 11.7248 12.5197 11.8892 13.0698M5.99985 7.1665C5.99985 7.69694 6.21056 8.20565 6.58563 8.58072C6.96071 8.95579 7.46941 9.1665 7.99985 9.1665C8.53028 9.1665 9.03899 8.95579 9.41406 8.58072C9.78913 8.20565 9.99985 7.69694 9.99985 7.1665C9.99985 6.63607 9.78913 6.12736 9.41406 5.75229C9.03899 5.37722 8.53028 5.1665 7.99985 5.1665C7.46941 5.1665 6.96071 5.37722 6.58563 5.75229C6.21056 6.12736 5.99985 6.63607 5.99985 7.1665Z" stroke="#D9251B" stroke-width="1.33333" stroke-linecap="round" stroke-linejoin="round"/>
</svg>
