<svg width="16" height="17" viewBox="0 0 16 17" fill="none" xmlns="http://www.w3.org/2000/svg">
<path d="M5.99979 7.8335C5.99979 8.36393 6.2105 8.87264 6.58557 9.24771C6.96065 9.62278 7.46935 9.8335 7.99979 9.8335C8.53022 9.8335 9.03893 9.62278 9.414 9.24771C9.78907 8.87264 9.99979 8.36393 9.99979 7.8335C9.99979 7.30306 9.78907 6.79436 9.414 6.41928C9.03893 6.04421 8.53022 5.8335 7.99979 5.8335C7.46935 5.8335 6.96065 6.04421 6.58557 6.41928C6.2105 6.79436 5.99979 7.30306 5.99979 7.8335Z" stroke="#D9251B" stroke-width="1.33333" stroke-linecap="round" stroke-linejoin="round"/>
<path d="M11.7712 11.6045L8.94254 14.4331C8.69253 14.6829 8.35359 14.8232 8.0002 14.8232C7.64681 14.8232 7.30788 14.6829 7.05787 14.4331L4.22854 11.6045C3.48268 10.8586 2.97476 9.90827 2.769 8.87371C2.56323 7.83916 2.66886 6.76681 3.07254 5.79229C3.47621 4.81777 4.1598 3.98483 5.03686 3.39881C5.91391 2.81279 6.94505 2.5 7.99987 2.5C9.05469 2.5 10.0858 2.81279 10.9629 3.39881C11.8399 3.98483 12.5235 4.81777 12.9272 5.79229C13.3309 6.76681 13.4365 7.83916 13.2307 8.87371C13.025 9.90827 12.5171 10.8586 11.7712 11.6045Z" stroke="#D9251B" stroke-width="1.33333" stroke-linecap="round" stroke-linejoin="round"/>
</svg>
