<svg width="16" height="17" viewBox="0 0 16 17" fill="none" xmlns="http://www.w3.org/2000/svg">
<path d="M10.6667 2.5V5.16667M5.33332 2.5V5.16667M2.66666 7.83333H13.3333M4.66666 9.83333H4.67532M6.67332 9.83333H6.67666M8.67332 9.83333H8.67666M10.6767 9.83333H10.68M8.67666 11.8333H8.67999M4.67332 11.8333H4.67666M6.67332 11.8333H6.67666M2.66666 5.16667C2.66666 4.81304 2.80713 4.47391 3.05718 4.22386C3.30723 3.97381 3.64637 3.83333 3.99999 3.83333H12C12.3536 3.83333 12.6928 3.97381 12.9428 4.22386C13.1928 4.47391 13.3333 4.81304 13.3333 5.16667V13.1667C13.3333 13.5203 13.1928 13.8594 12.9428 14.1095C12.6928 14.3595 12.3536 14.5 12 14.5H3.99999C3.64637 14.5 3.30723 14.3595 3.05718 14.1095C2.80713 13.8594 2.66666 13.5203 2.66666 13.1667V5.16667Z" stroke="#D9251B" stroke-width="1.33333" stroke-linecap="round" stroke-linejoin="round"/>
</svg>
