<svg width="16" height="16" viewBox="0 0 16 16" fill="none" xmlns="http://www.w3.org/2000/svg">
<path d="M3.99993 14V12.6667C3.99993 11.9594 4.28088 11.2811 4.78098 10.781C5.28108 10.281 5.95935 10 6.6666 10H9.33326C10.0405 10 10.7188 10.281 11.2189 10.781C11.719 11.2811 11.9999 11.9594 11.9999 12.6667V14M5.33326 4.66667C5.33326 5.37391 5.61422 6.05219 6.11431 6.55229C6.61441 7.05238 7.29269 7.33333 7.99993 7.33333C8.70718 7.33333 9.38545 7.05238 9.88555 6.55229C10.3856 6.05219 10.6666 5.37391 10.6666 4.66667C10.6666 3.95942 10.3856 3.28115 9.88555 2.78105C9.38545 2.28095 8.70718 2 7.99993 2C7.29269 2 6.61441 2.28095 6.11431 2.78105C5.61422 3.28115 5.33326 3.95942 5.33326 4.66667Z" stroke="#D9251B" stroke-width="1.33" stroke-linecap="round" stroke-linejoin="round"/>
</svg>
