<svg width="16" height="17" viewBox="0 0 16 17" fill="none" xmlns="http://www.w3.org/2000/svg">
<path d="M2 5.16585C2 4.81223 2.14048 4.47309 2.39052 4.22304C2.64057 3.973 2.97971 3.83252 3.33333 3.83252H12.6667C13.0203 3.83252 13.3594 3.973 13.6095 4.22304C13.8595 4.47309 14 4.81223 14 5.16585V11.8325C14 12.1861 13.8595 12.5253 13.6095 12.7753C13.3594 13.0254 13.0203 13.1659 12.6667 13.1659H3.33333C2.97971 13.1659 2.64057 13.0254 2.39052 12.7753C2.14048 12.5253 2 12.1861 2 11.8325V5.16585Z" stroke="#D9251B" stroke-width="1.33333" stroke-linecap="round" stroke-linejoin="round"/>
<path d="M2 5.16602L8 9.16602L14 5.16602" stroke="#D9251B" stroke-width="1.33333" stroke-linecap="round" stroke-linejoin="round"/>
</svg>
