<svg xmlns="http://www.w3.org/2000/svg" xmlns:xlink="http://www.w3.org/1999/xlink" width="100" height="100" viewBox="0 0 100 100">
  <defs>
    <linearGradient id="linear-gradient" x1="0.5" x2="0.5" y2="1" gradientUnits="objectBoundingBox">
      <stop offset="0" stop-color="#fc0"/>
      <stop offset="1" stop-color="#ffe014"/>
    </linearGradient>
    <clipPath id="clip-path">
      <rect id="Rectangle_11007" data-name="Rectangle 11007" width="55" height="56" transform="translate(1414 502)" fill="#fff" stroke="#707070" stroke-width="0.4"/>
    </clipPath>
  </defs>
  <g id="Group_19671" data-name="Group 19671" transform="translate(-1264 -393)">
    <rect id="Rectangle_10599" data-name="Rectangle 10599" width="100" height="100" rx="24" transform="translate(1264 393)" fill="url(#linear-gradient)"/>
    <g id="Mask_Group_19473" data-name="Mask Group 19473" transform="translate(-128 -87)" clip-path="url(#clip-path)">
      <g id="Group_19622" data-name="Group 19622" transform="translate(1415.981 502.919)">
        <path id="Path_63787" data-name="Path 63787" d="M36.869,28.164H15.126a3.148,3.148,0,0,1-2.561-1.3,3.25,3.25,0,0,1-.5-2.914l3.271-10.832A3.187,3.187,0,0,1,18.4,10.832H33.6a3.185,3.185,0,0,1,3.055,2.3l3.271,10.832a3.25,3.25,0,0,1-.5,2.914A3.157,3.157,0,0,1,36.869,28.164ZM18.4,13a1.033,1.033,0,0,0-.981.756L14.145,24.587a1.109,1.109,0,0,0,.171.994,1,1,0,0,0,.81.416h21.74a1,1,0,0,0,.813-.416,1.122,1.122,0,0,0,.171-.994L34.579,13.755A1.033,1.033,0,0,0,33.6,13Z" fill="#fff"/>
        <path id="Path_63787_-_Outline" data-name="Path 63787 - Outline" d="M15.114,28.664a3.658,3.658,0,0,1-2.951-1.5,3.76,3.76,0,0,1-.58-3.359l3.27-10.829a3.687,3.687,0,0,1,3.535-2.641H33.6a3.7,3.7,0,0,1,3.534,2.654L40.4,23.816a3.758,3.758,0,0,1-.582,3.356,3.669,3.669,0,0,1-2.946,1.491Zm3.275-17.332a2.7,2.7,0,0,0-2.577,1.927L12.539,24.095a2.759,2.759,0,0,0,.426,2.469l0,.007a2.655,2.655,0,0,0,2.144,1.093h21.76a2.666,2.666,0,0,0,2.142-1.085l0,0a2.757,2.757,0,0,0,.427-2.466L36.172,13.268A2.7,2.7,0,0,0,33.6,11.332ZM36.867,26.5H15.126a1.5,1.5,0,0,1-1.214-.62,1.614,1.614,0,0,1-.245-1.439l3.269-10.823A1.542,1.542,0,0,1,18.391,12.5H33.6a1.542,1.542,0,0,1,1.455,1.116l3.27,10.827a1.628,1.628,0,0,1-.246,1.434A1.5,1.5,0,0,1,36.867,26.5ZM18.4,13.5a.536.536,0,0,0-.5.39l0,.01L14.623,24.732a.613.613,0,0,0,.093.55l.006.008a.5.5,0,0,0,.4.207H36.867a.5.5,0,0,0,.407-.208l0-.005a.625.625,0,0,0,.095-.551L34.1,13.889a.536.536,0,0,0-.5-.39Z" fill="#fff"/>
        <path id="Path_63788" data-name="Path 63788" d="M25,43.329H3.232A3.17,3.17,0,0,1,.68,42.047a3.289,3.289,0,0,1-.522-2.923L3.451,28.281A3.2,3.2,0,0,1,6.5,26H21.732a3.2,3.2,0,0,1,3.053,2.3l3.287,10.819a3.3,3.3,0,0,1-.522,2.933A3.161,3.161,0,0,1,25,43.329ZM6.5,28.164a1.02,1.02,0,0,0-.973.739L2.234,39.746a1.14,1.14,0,0,0,.18,1,1.016,1.016,0,0,0,.819.414H25a1.012,1.012,0,0,0,.817-.414A1.146,1.146,0,0,0,26,39.733L22.711,28.913a1.027,1.027,0,0,0-.979-.75Z" transform="translate(-1 0)" fill="#fff"/>
        <path id="Path_63788_-_Outline" data-name="Path 63788 - Outline" d="M25.008,43.829H3.227A3.684,3.684,0,0,1,.279,42.344a3.8,3.8,0,0,1-.6-3.364L2.973,28.136A3.7,3.7,0,0,1,6.5,25.5H21.732a3.7,3.7,0,0,1,3.532,2.658L28.549,38.97a3.814,3.814,0,0,1-.6,3.379A3.674,3.674,0,0,1,25.008,43.829ZM21.729,26.5H6.5A2.679,2.679,0,0,0,3.93,28.424L.637,39.269a2.8,2.8,0,0,0,.443,2.477,2.682,2.682,0,0,0,2.147,1.083H25.008a2.672,2.672,0,0,0,2.139-1.078,2.811,2.811,0,0,0,.445-2.492L24.306,28.441A2.685,2.685,0,0,0,21.729,26.5ZM25,41.663H3.232a1.522,1.522,0,0,1-1.221-.617A1.646,1.646,0,0,1,1.754,39.6L5.047,28.761a1.529,1.529,0,0,1,1.448-1.1H21.732a1.536,1.536,0,0,1,1.459,1.109l3.285,10.814a1.653,1.653,0,0,1-.258,1.461A1.515,1.515,0,0,1,25,41.663Zm-3.274-13H6.5a.522.522,0,0,0-.492.377l0,.007L2.712,39.891a.641.641,0,0,0,.1.559.52.52,0,0,0,.418.213H25a.514.514,0,0,0,.413-.209.651.651,0,0,0,.1-.577L22.229,29.048A.53.53,0,0,0,21.727,28.664Z" transform="translate(-1 0)" fill="#fff"/>
        <path id="Path_63789" data-name="Path 63789" d="M48.806,43.329H27.035a2.92,2.92,0,0,1-1.6-.453,1.083,1.083,0,1,1,1.17-1.822.784.784,0,0,0,.433.11H48.806a1.007,1.007,0,0,0,.817-.414,1.148,1.148,0,0,0,.178-1.014L46.514,28.916a1.023,1.023,0,0,0-.975-.752H30.3a1.025,1.025,0,0,0-.973.737l-2.277,7.5c-.174.573-1.578,5.421-2.151,5.247s-.1-5.3.077-5.877l2.273-7.474A3.2,3.2,0,0,1,30.3,26H45.539a3.2,3.2,0,0,1,3.053,2.3l3.287,10.821a3.291,3.291,0,0,1-.52,2.933,3.17,3.17,0,0,1-2.552,1.28Z" transform="translate(1.089 0)" fill="#fff"/>
        <path id="Path_63789_-_Outline" data-name="Path 63789 - Outline" d="M26.994,43.829A3.415,3.415,0,0,1,25.17,43.3a1.583,1.583,0,0,1-.766-1.414q0-.017,0-.035a2.325,2.325,0,0,1-.255-1.09,17.694,17.694,0,0,1,.012-1.935,22.828,22.828,0,0,1,.34-3.208l2.273-7.474A3.7,3.7,0,0,1,30.3,25.5H45.539a3.7,3.7,0,0,1,3.532,2.655L52.356,38.97a3.8,3.8,0,0,1-.6,3.379,3.683,3.683,0,0,1-2.944,1.48H26.994ZM25.4,41.955a.583.583,0,0,0,.285.491l.012.007a2.417,2.417,0,0,0,1.295.375H48.813a2.681,2.681,0,0,0,2.143-1.078,2.8,2.8,0,0,0,.443-2.49L48.113,28.439A2.687,2.687,0,0,0,45.536,26.5H30.3a2.68,2.68,0,0,0-2.571,1.936L25.46,35.911a21.713,21.713,0,0,0-.281,2.666c-.051.853-.057,1.47-.041,1.9a38.491,38.491,0,0,0,1.389-4.06l.05-.168,2.277-7.5A1.515,1.515,0,0,1,30.3,27.664H45.544a1.529,1.529,0,0,1,1.45,1.112l3.285,10.816a1.656,1.656,0,0,1-.255,1.457,1.51,1.51,0,0,1-1.215.616H27.044a1.285,1.285,0,0,1-.7-.181l-.028-.018a.583.583,0,0,0-.511-.075A2.053,2.053,0,0,1,25.4,41.955Zm1.465-1.325a.284.284,0,0,0,.136.035h21.8a.51.51,0,0,0,.413-.208.653.653,0,0,0,.1-.576l-3.29-10.833a.525.525,0,0,0-.5-.384H30.307a.522.522,0,0,0-.5.377l-2.278,7.5-.049.163c-.2.656-.713,2.388-1.226,3.681A1.576,1.576,0,0,1,26.868,40.631Z" transform="translate(1.089 0)" fill="#fff"/>
        <path id="Path_63790" data-name="Path 63790" d="M18.234,22.387a.959.959,0,0,1-.264-.038.9.9,0,0,1-.6-1.127l1.654-5.416a.9.9,0,0,1,.868-.641h7.368a.9.9,0,0,1,0,1.805h-6.7L19.1,21.748A.9.9,0,0,1,18.234,22.387Z" transform="translate(1.166 0.722)" fill="#fff"/>
        <path id="Path_63790_-_Outline" data-name="Path 63790 - Outline" d="M18.241,22.887h-.011a1.455,1.455,0,0,1-.4-.058l-.007,0a1.4,1.4,0,0,1-.931-1.751l1.654-5.416a1.394,1.394,0,0,1,1.342-.995h7.372a1.4,1.4,0,1,1,0,2.805H20.933l-1.351,4.423A1.4,1.4,0,0,1,18.241,22.887Zm-.128-1.017a.458.458,0,0,0,.123.017l.005.5v-.5a.4.4,0,0,0,.385-.285l1.567-5.131h7.068a.4.4,0,1,0,0-.805H19.894a.4.4,0,0,0-.39.286L17.85,21.368A.4.4,0,0,0,18.113,21.87Z" transform="translate(1.166 0.722)" fill="#fff"/>
        <path id="Path_63791" data-name="Path 63791" d="M7.47,37.937a1.01,1.01,0,0,1-.278-.04.951.951,0,0,1-.631-1.187L8.3,31.005a.951.951,0,0,1,.909-.675h7.749a.951.951,0,1,1,0,1.9H9.915L8.379,37.264A.951.951,0,0,1,7.47,37.937Z" transform="translate(0.586 0.53)" fill="#fff"/>
        <path id="Path_63791_-_Outline" data-name="Path 63791 - Outline" d="M7.47,38.437h0a1.51,1.51,0,0,1-.415-.06l-.007,0a1.453,1.453,0,0,1-.963-1.811l1.742-5.705A1.442,1.442,0,0,1,9.211,29.83h7.75a1.451,1.451,0,0,1,0,2.9H10.285L8.857,37.41A1.443,1.443,0,0,1,7.47,38.437Zm-.135-1.019a.51.51,0,0,0,.136.019.448.448,0,0,0,.43-.319l1.645-5.386h7.416a.451.451,0,0,0,0-.9H9.212a.448.448,0,0,0-.43.32L7.039,36.856A.451.451,0,0,0,7.335,37.418Z" transform="translate(0.586 0.53)" fill="#fff"/>
        <path id="Path_63792" data-name="Path 63792" d="M31.281,37.937A1.01,1.01,0,0,1,31,37.9a.951.951,0,0,1-.631-1.189L32.114,31a.951.951,0,0,1,.9-.673h7.757a.951.951,0,1,1,0,1.9H33.723l-1.537,5.032A.951.951,0,0,1,31.281,37.937Z" transform="translate(0.587)" fill="#fff"/>
        <path id="Path_63792_-_Outline" data-name="Path 63792 - Outline" d="M31.283,38.437h0a1.51,1.51,0,0,1-.415-.06l-.007,0a1.451,1.451,0,0,1-.963-1.814l1.742-5.7a1.445,1.445,0,0,1,1.378-1.027h7.76a1.451,1.451,0,0,1,0,2.9H34.093L32.665,37.41A1.444,1.444,0,0,1,31.283,38.437Zm-.137-1.019a.51.51,0,0,0,.135.019.449.449,0,0,0,.427-.319l1.645-5.386h7.422a.451.451,0,0,0,0-.9H33.017a.448.448,0,0,0-.425.319L30.85,36.855a.451.451,0,0,0,.3.563Z" transform="translate(0.587)" fill="#fff"/>
      </g>
    </g>
  </g>
</svg>
