<svg width="16" height="16" viewBox="0 0 16 16" fill="none" xmlns="http://www.w3.org/2000/svg">
<g clip-path="url(#clip0_4994_10591)">
<g clip-path="url(#clip1_4994_10591)">
<g clip-path="url(#clip2_4994_10591)">
<mask id="mask0_4994_10591" style="mask-type:luminance" maskUnits="userSpaceOnUse" x="0" y="0" width="16" height="16">
<path d="M16 0H0V16H16V0Z" fill="white"/>
</mask>
<g mask="url(#mask0_4994_10591)">
<path d="M8.01916 14.3136C6.29214 14.3155 4.57616 14.0383 2.93756 13.4928C2.64287 13.4001 2.37285 13.2422 2.14752 13.0309C1.9222 12.8195 1.74735 12.5602 1.63596 12.272C1.5319 11.983 1.49581 11.6739 1.53049 11.3687C1.56517 11.0635 1.6697 10.7703 1.83596 10.512L2.68636 9.09922C2.88748 8.71684 3.00346 8.29546 3.02636 7.86402V5.72562C3.02636 4.40134 3.55243 3.1313 4.48883 2.1949C5.42524 1.25849 6.69528 0.732422 8.01956 0.732422C9.34384 0.732422 10.6139 1.25849 11.5503 2.1949C12.4867 3.1313 13.0128 4.40134 13.0128 5.72562V7.86322C13.0376 8.29664 13.1534 8.71996 13.3528 9.10562L14.196 10.5112C14.3524 10.774 14.448 11.0685 14.4757 11.3731C14.5033 11.6776 14.4624 11.9845 14.356 12.2712C14.2513 12.5572 14.083 12.8156 13.8639 13.0271C13.6448 13.2385 13.3806 13.3975 13.0912 13.492C11.4552 14.0381 9.74147 14.3153 8.01676 14.3128L8.01916 14.3136ZM8.01916 1.84242C6.98966 1.84369 6.00269 2.25322 5.27472 2.98119C4.54676 3.70915 4.13723 4.69612 4.13596 5.72562V7.86322C4.10945 8.49462 3.93985 9.11175 3.63996 9.66802L2.78956 11.0808C2.71034 11.1977 2.65911 11.3312 2.63983 11.471C2.62054 11.6109 2.63373 11.7533 2.67836 11.8872C2.73224 12.0191 2.81553 12.137 2.92186 12.2318C3.0282 12.3266 3.15478 12.3959 3.29196 12.4344C6.36055 13.4699 9.68417 13.4699 12.7528 12.4344C12.8837 12.3916 13.0031 12.3193 13.1018 12.2232C13.2006 12.1272 13.276 12.0098 13.3224 11.88C13.3713 11.7498 13.3901 11.6101 13.3773 11.4716C13.3646 11.333 13.3206 11.1992 13.2488 11.08L12.3984 9.66722C12.097 9.10894 11.9274 8.48914 11.9024 7.85522V5.72562C11.9024 4.69573 11.4932 3.70803 10.765 2.97978C10.0368 2.25154 9.04905 1.84242 8.01916 1.84242Z" fill="#C61F1B"/>
<path d="M9.39437 2.04206C9.34184 2.04191 9.28959 2.03437 9.23917 2.01966C9.03486 1.96279 8.82728 1.91844 8.61757 1.88686C8.01333 1.80338 7.39828 1.84864 6.81277 2.01966C6.71332 2.05038 6.6072 2.05228 6.50672 2.02512C6.40624 1.99797 6.31552 1.94288 6.24508 1.86624C6.17465 1.78961 6.12738 1.69458 6.10878 1.59217C6.09017 1.48976 6.10099 1.38417 6.13997 1.28766C6.28841 0.9082 6.54784 0.582326 6.88438 0.352606C7.22091 0.122886 7.6189 0 8.02637 0C8.43383 0 8.83182 0.122886 9.16836 0.352606C9.50489 0.582326 9.76433 0.9082 9.91277 1.28766C9.95006 1.38403 9.96015 1.4888 9.94195 1.59052C9.92375 1.69224 9.87796 1.787 9.80957 1.86446C9.75613 1.9206 9.69184 1.96528 9.6206 1.99581C9.54937 2.02634 9.47267 2.04208 9.39517 2.04206H9.39437Z" fill="#C61F1B"/>
<path d="M8.01921 16.0002C7.28399 15.9989 6.57925 15.7063 6.05938 15.1864C5.5395 14.6665 5.24687 13.9618 5.24561 13.2266H6.35521C6.35521 13.668 6.53056 14.0913 6.8427 14.4035C7.15483 14.7156 7.57818 14.891 8.01961 14.891C8.46103 14.891 8.88438 14.7156 9.19651 14.4035C9.50865 14.0913 9.68401 13.668 9.68401 13.2266H10.7936C10.7932 13.9622 10.5007 14.6675 9.98049 15.1876C9.46025 15.7077 8.75482 15.9999 8.01921 16.0002Z" fill="#C61F1B"/>
</g>
</g>
</g>
</g>
<defs>
<clipPath id="clip0_4994_10591">
<rect width="16" height="16" fill="white"/>
</clipPath>
<clipPath id="clip1_4994_10591">
<rect width="16" height="16" fill="white"/>
</clipPath>
<clipPath id="clip2_4994_10591">
<rect width="16" height="16" fill="white"/>
</clipPath>
</defs>
</svg>
