<svg id="Thông_báo" data-name="Thông báo" xmlns="http://www.w3.org/2000/svg" xmlns:xlink="http://www.w3.org/1999/xlink" width="20" height="20" viewBox="0 0 20 20">
  <defs>
    <clipPath id="clip-path">
      <rect id="Rectangle_9865" data-name="Rectangle 9865" width="20" height="20" fill="#fff" stroke="#62687f" stroke-width="1"/>
    </clipPath>
  </defs>
  <g id="Group_18350" data-name="Group 18350" transform="translate(0 2)">
    <g id="Mask_Group_1276" data-name="Mask Group 1276" transform="translate(0 -2)" clip-path="url(#clip-path)">
      <g id="notification" transform="translate(1.893 0)">
        <path id="Path_55498" data-name="Path 55498" d="M11.711,19.384a20.041,20.041,0,0,1-6.352-1.026,2.572,2.572,0,0,1-1.627-1.526,2.5,2.5,0,0,1,.25-2.2l1.063-1.766a3.743,3.743,0,0,0,.425-1.544V8.649a6.241,6.241,0,0,1,12.483,0v2.672a3.864,3.864,0,0,0,.425,1.553l1.054,1.757a2.559,2.559,0,0,1,.2,2.2,2.515,2.515,0,0,1-1.581,1.526,19.942,19.942,0,0,1-6.343,1.026Zm0-15.589A4.86,4.86,0,0,0,6.857,8.649v2.672a5.215,5.215,0,0,1-.62,2.256L5.174,15.343a1.149,1.149,0,0,0-.139,1.008,1.17,1.17,0,0,0,.767.684,18.493,18.493,0,0,0,11.826,0,1.129,1.129,0,0,0,.712-.693,1.152,1.152,0,0,0-.092-1l-1.063-1.766a5.2,5.2,0,0,1-.62-2.265V8.649A4.854,4.854,0,0,0,11.711,3.795Z" transform="translate(-3.58 -1.492)" fill="#fff"/>
        <path id="Path_55499" data-name="Path 55499" d="M14.577,3.861a.7.7,0,0,1-.194-.028,6.516,6.516,0,0,0-.777-.166,5.407,5.407,0,0,0-2.256.166.688.688,0,0,1-.841-.915,2.532,2.532,0,0,1,4.716,0,.705.705,0,0,1-.129.721.715.715,0,0,1-.518.222Z" transform="translate(-4.727 -1.309)" fill="#fff"/>
        <path id="Path_55500" data-name="Path 55500" d="M12.644,24.616a3.473,3.473,0,0,1-3.467-3.467h1.387a2.08,2.08,0,0,0,4.161,0h1.387A3.469,3.469,0,0,1,12.644,24.616Z" transform="translate(-4.513 -4.616)" fill="#fff"/>
      </g>
    </g>
  </g>
</svg>
