<svg id="tick-circle" xmlns="http://www.w3.org/2000/svg" width="16" height="16" viewBox="0 0 16 16">
  <path id="Path_58628" data-name="Path 58628" d="M9.25,17.25A7.991,7.991,0,0,1,3.6,3.6,7.991,7.991,0,1,1,14.9,14.9,7.943,7.943,0,0,1,9.25,17.25Zm0-14.884A6.875,6.875,0,0,0,4.389,14.111a6.875,6.875,0,1,0,9.722-9.722A6.834,6.834,0,0,0,9.25,2.366Z" transform="translate(-1.25 -1.25)" fill="#fff"/>
  <path id="Path_58629" data-name="Path 58629" d="M9.351,13.122A.491.491,0,0,1,9,12.977L7.144,11.119a.492.492,0,1,1,.7-.7l1.51,1.51,3.375-3.369a.492.492,0,1,1,.7.7L9.7,12.978A.491.491,0,0,1,9.351,13.122Z" transform="translate(-2.283 -2.771)" fill="#fff"/>
</svg>
