<svg xmlns="http://www.w3.org/2000/svg" xmlns:xlink="http://www.w3.org/1999/xlink" width="20" height="20" viewBox="0 0 20 20">
  <defs>
    <clipPath id="clip-path">
      <rect id="Rectangle_15800" data-name="Rectangle 15800" width="20" height="20" fill="#313949" stroke="#62687f" stroke-width="1"/>
    </clipPath>
  </defs>
  <g id="Quản_lý_tổ_chức_đảng" data-name="Quản lý tổ chức đảng" clip-path="url(#clip-path)">
    <g id="hierarchy-square-2" transform="translate(0 0)">
      <path id="Path_82917" data-name="Path 82917" d="M9.884,17.647a.708.708,0,0,1-.7-.7V13.01a.7.7,0,1,1,1.405,0v3.934A.708.708,0,0,1,9.884,17.647Z" transform="translate(-3.748 -4.625)" fill="#313949"/>
      <path id="Path_82918" data-name="Path 82918" d="M9.366,11.9A2.529,2.529,0,1,1,11.9,9.366,2.531,2.531,0,0,1,9.366,11.9Zm0-3.653a1.124,1.124,0,1,0,1.124,1.124A1.127,1.127,0,0,0,9.366,8.242Z" transform="translate(-3.09 -3.09)" fill="#313949"/>
      <path id="Path_82919" data-name="Path 82919" d="M9.226,22.554a2.389,2.389,0,1,1,2.389-2.389A2.387,2.387,0,0,1,9.226,22.554Zm0-3.372a.984.984,0,1,0,.984.984.984.984,0,0,0-.984-.984Z" transform="translate(-3.09 -6.161)" fill="#313949"/>
      <path id="Path_82920" data-name="Path 82920" d="M20.166,22.554a2.389,2.389,0,1,1,2.389-2.389A2.387,2.387,0,0,1,20.166,22.554Zm0-3.372a.984.984,0,1,0,.984.984.984.984,0,0,0-.984-.984Z" transform="translate(-6.161 -6.161)" fill="#313949"/>
      <path id="Path_82921" data-name="Path 82921" d="M17.313,17.672a.7.7,0,0,1-.665-.468,2.655,2.655,0,0,0-2.511-1.78h-.009l-1.93.009h-.009A2.978,2.978,0,0,1,9.3,13.2a.7.7,0,0,1,1.358-.347,1.575,1.575,0,0,0,1.527,1.18H12.2l1.93-.009h.019a4.079,4.079,0,0,1,3.841,2.726.707.707,0,0,1-.431.9,2.307,2.307,0,0,1-.244.019Z" transform="translate(-3.776 -4.632)" fill="#313949"/>
      <path id="Path_82922" data-name="Path 82922" d="M14.509,21.769H8.888c-5.087,0-7.26-2.173-7.26-7.26V8.888c0-5.087,2.173-7.26,7.26-7.26h5.621c5.087,0,7.26,2.173,7.26,7.26v5.621C21.769,19.6,19.6,21.769,14.509,21.769ZM8.888,3.033c-4.319,0-5.855,1.536-5.855,5.855v5.621c0,4.319,1.536,5.855,5.855,5.855h5.621c4.319,0,5.855-1.536,5.855-5.855V8.888c0-4.319-1.536-5.855-5.855-5.855Z" transform="translate(-1.628 -1.628)" fill="#313949"/>
    </g>
  </g>
</svg>
