<svg width="89" height="88" viewBox="0 0 89 88" fill="none" xmlns="http://www.w3.org/2000/svg">
<g clip-path="url(#clip0_4799_3059)">
<path fill-rule="evenodd" clip-rule="evenodd" d="M18.1 0H70.9C80.6202 0 88.5 7.87979 88.5 17.6V70.4C88.5 80.1202 80.6202 88 70.9 88H18.1C8.37979 88 0.5 80.1202 0.5 70.4V17.6C0.5 7.87979 8.37979 0 18.1 0ZM27.6227 51.1136C31.1151 55.0491 35.6945 57.8628 40.7834 59.2C44.0631 60.1014 47.5073 60.2282 50.8445 59.5704C52.6018 59.2205 54.2789 58.5881 55.8146 57.7069L39.3323 41.2209L34.6573 45.9061L27.7214 38.9791L39.3968 27.3015C40.8518 27.4495 42.321 27.3808 43.7559 27.0976C45.1541 26.8182 46.5053 26.3414 47.7692 25.6815L51.3195 29.2265L45.3852 35.1592L61.7823 51.5653C62.9067 49.4628 63.5783 47.1318 63.7344 44.7233C63.9552 41.0418 63.3195 37.3591 61.8774 33.9646C59.3734 27.8485 54.943 22.7159 49.2582 19.3455C53.8944 19.7372 58.3252 21.4336 62.0375 24.2383C65.7488 27.0496 68.5877 30.855 70.2252 35.2134C71.8546 39.5725 72.2211 44.3028 71.2826 48.8608C70.6314 51.9425 69.4013 54.8578 67.6716 57.4578L72.0448 61.8334L66.0256 67.9201L61.7443 63.6379C60.1265 64.8151 58.3687 65.7963 56.5074 66.5571C53.373 67.8382 50.0106 68.4673 46.625 68.4062C43.2446 68.3051 39.9203 67.5167 36.8546 66.089C33.7889 64.6613 31.0461 62.6242 28.7933 60.102L20.9185 67.9839L15.8278 62.8997L27.6227 51.1136Z" fill="url(#paint0_linear_4799_3059)"/>
<path d="M40.7834 59.2C35.6945 57.8628 31.1151 55.0491 27.6227 51.1136L15.8278 62.8997L20.9185 67.9839L28.7933 60.102C31.0461 62.6242 33.7889 64.6613 36.8546 66.089C39.9203 67.5167 43.2446 68.3051 46.625 68.4062C50.0106 68.4673 53.373 67.8382 56.5074 66.5571C58.3687 65.7963 60.1265 64.8151 61.7443 63.6379L55.8146 57.7069C54.2789 58.5881 52.6018 59.2205 50.8445 59.5704C47.5073 60.2282 44.0631 60.1014 40.7834 59.2Z" fill="#FEF8E8"/>
<path d="M45.3852 35.1592L51.3195 29.2265L47.7692 25.6815C46.5053 26.3414 45.1541 26.8182 43.7559 27.0976C42.321 27.3808 40.8518 27.4495 39.3968 27.3015L27.7214 38.9791L34.6573 45.9061L39.3323 41.2209L55.8146 57.7069C57.2069 56.908 58.4829 55.9047 59.5969 54.7223C60.4487 53.7509 61.1804 52.6909 61.7823 51.5653L45.3852 35.1592Z" fill="#FEF8E8"/>
<path d="M61.8774 33.9646C63.3195 37.3591 63.9552 41.0418 63.7344 44.7233C63.5783 47.1318 62.9067 49.4628 61.7823 51.5653L67.6716 57.4578C69.4013 54.8578 70.6314 51.9425 71.2826 48.8608C72.2211 44.3028 71.8546 39.5725 70.2252 35.2134C68.5877 30.855 65.7488 27.0496 62.0375 24.2383C58.3252 21.4336 53.8944 19.7372 49.2582 19.3455C54.943 22.7159 59.3734 27.8485 61.8774 33.9646Z" fill="#FEF8E8"/>
<path d="M66.0256 67.9201L72.0448 61.8334L67.6716 57.4578C66.8445 58.701 65.9031 59.8721 64.8562 60.9548C63.8921 61.9357 62.851 62.8327 61.7443 63.6379L66.0256 67.9201Z" fill="#FEF8E8"/>
<path d="M61.7443 63.6379C62.851 62.8327 63.8921 61.9357 64.8562 60.9548C65.9031 59.8721 66.8445 58.701 67.6716 57.4578L61.7823 51.5653C61.1804 52.6909 60.4487 53.7509 59.5969 54.7223C58.4829 55.9047 57.2069 56.908 55.8146 57.7069L61.7443 63.6379Z" fill="#FEF8E8"/>
</g>
<defs>
<linearGradient id="paint0_linear_4799_3059" x1="44.5" y1="0" x2="44.5" y2="88" gradientUnits="userSpaceOnUse">
<stop stop-color="#FF6C58"/>
<stop offset="1" stop-color="#C61F1B"/>
</linearGradient>
<clipPath id="clip0_4799_3059">
<rect x="0.5" width="88" height="88" rx="44" fill="white"/>
</clipPath>
</defs>
</svg>
