<svg xmlns="http://www.w3.org/2000/svg" xmlns:xlink="http://www.w3.org/1999/xlink" width="100" height="100" viewBox="0 0 100 100">
  <defs>
    <linearGradient id="linear-gradient" x1="0.5" x2="0.5" y2="1" gradientUnits="objectBoundingBox">
      <stop offset="0" stop-color="#316cc5"/>
      <stop offset="1" stop-color="#44a6ee"/>
    </linearGradient>
    <clipPath id="clip-path">
      <rect id="Rectangle_11004" data-name="Rectangle 11004" width="52" height="52" transform="translate(446 1013)" fill="#fff" stroke="#707070" stroke-width="1"/>
    </clipPath>
  </defs>
  <g id="Group_19666" data-name="Group 19666" transform="translate(-295 -629)">
    <rect id="Rectangle_10618" data-name="Rectangle 10618" width="100" height="100" rx="24" transform="translate(295 629)" fill="url(#linear-gradient)"/>
    <g id="Mask_Group_19467" data-name="Mask Group 19467" transform="translate(-127 -360)" clip-path="url(#clip-path)">
      <g id="book-saved" transform="translate(442.95 1009.952)">
        <path id="Path_63764" data-name="Path 63764" d="M29.05,53.453a4.249,4.249,0,0,1-2.058-.508A60.571,60.571,0,0,0,9.538,47.207l-.7-.1A6.821,6.821,0,0,1,3.05,40.525V11.281a6.566,6.566,0,0,1,7.19-6.609A47.627,47.627,0,0,1,28.13,10.6l.581.339a.935.935,0,0,0,.678,0l.387-.242A38.061,38.061,0,0,1,35.659,7.8a1.84,1.84,0,0,1,1.695.194,1.787,1.787,0,0,1,.8,1.5v6.488l2.009-1.331a1.789,1.789,0,0,1,2.009,0l2.009,1.331V6.73a1.839,1.839,0,0,1,1.477-1.791c.7-.121,1.4-.218,2.034-.266h.291a6.587,6.587,0,0,1,7.069,6.633v29.22a6.8,6.8,0,0,1-5.81,6.585l-.8.1a60.043,60.043,0,0,0-17.406,5.737,3.784,3.784,0,0,1-1.985.508ZM9.635,8.255A2.96,2.96,0,0,0,7.6,9.03a3.01,3.01,0,0,0-.944,2.251V40.525a3.2,3.2,0,0,0,2.615,3l.726.1a63.633,63.633,0,0,1,18.641,6.125,1.087,1.087,0,0,0,.654.073,63.467,63.467,0,0,1,18.713-6.173l.823-.1a3.179,3.179,0,0,0,2.615-3V11.33A3.049,3.049,0,0,0,50.5,9.078,3.161,3.161,0,0,0,48.175,8.3h-.339V19.367A1.819,1.819,0,0,1,45,20.868l-3.825-2.542-3.825,2.542a1.819,1.819,0,0,1-2.832-1.5V12.274c-1.041.508-1.985,1.017-2.808,1.5l-.387.242a4.471,4.471,0,0,1-4.5.024l-.581-.363A43.652,43.652,0,0,0,9.95,8.255Z" fill="#fff"/>
        <path id="Path_63765" data-name="Path 63765" d="M29.05,51.419A1.829,1.829,0,0,1,27.235,49.6V13.291a1.816,1.816,0,1,1,3.631,0V49.6A1.813,1.813,0,0,1,29.05,51.419Z" fill="#fff"/>
        <path id="Path_63766" data-name="Path 63766" d="M46,21.182a1.739,1.739,0,0,1-1.017-.315l-3.825-2.542L37.33,20.868a1.819,1.819,0,0,1-2.832-1.5V9.49A1.849,1.849,0,0,1,35.635,7.8,49.276,49.276,0,0,1,45.706,4.939a1.817,1.817,0,0,1,1.477.412,1.771,1.771,0,0,1,.629,1.38V19.367A1.836,1.836,0,0,1,46,21.182Zm-4.842-6.851a1.793,1.793,0,0,1,1.017.315l2.009,1.331V8.933a47.469,47.469,0,0,0-6.052,1.816v5.229l2.009-1.331a1.791,1.791,0,0,1,1.017-.315Z" fill="#fff"/>
      </g>
    </g>
  </g>
</svg>
