<svg width="89" height="88" viewBox="0 0 89 88" fill="none" xmlns="http://www.w3.org/2000/svg">
<g clip-path="url(#clip0_4799_3192)">
<path d="M70.9 0H18.1C8.37979 0 0.5 7.87979 0.5 17.6V70.4C0.5 80.1202 8.37979 88 18.1 88H70.9C80.6202 88 88.5 80.1202 88.5 70.4V17.6C88.5 7.87979 80.6202 0 70.9 0Z" fill="url(#paint0_linear_4799_3192)"/>
<path d="M49.0191 66.6125C48.9457 66.603 48.1552 66.0654 48.1552 66.0654L19.2274 47.2349C19.2274 47.2349 19.1453 45.4075 19.8141 44.6895C20.5906 44.0852 21.5681 43.7991 22.548 43.8894L48.4405 66.1021C48.6464 66.2568 48.8399 66.4275 49.0191 66.6125Z" fill="#FEF8E8"/>
<path d="M49.0395 62.4727L21.2462 20.9081C21.2462 20.9081 20.9228 20.2979 21.0123 20.0501C21.4974 19.5649 22.0295 19.1291 22.6007 18.7491C25.8816 17.5477 29.3197 16.8296 32.8072 16.6173C36.4306 16.41 40.0658 16.6211 43.6407 17.2465C45.5606 17.5978 47.9439 19.0065 48.3575 19.6203C50.2415 22.407 57.28 58.0169 57.28 58.0169L49.0395 62.4727Z" fill="#FEF8E8"/>
<path d="M49.1305 66.5419C49.077 66.5339 48.3473 65.8152 48.3473 65.8152L18.1604 38.0299C18.045 37.9195 17.9386 37.8001 17.8421 37.6729C17.7791 37.5847 17.7403 37.4816 17.7293 37.3739C17.7184 37.2661 17.7358 37.1573 17.7798 37.0583C17.9772 36.6793 18.2592 36.351 18.6042 36.0988C18.9491 35.8466 19.3476 35.6772 19.7686 35.6041C20.5506 35.5046 21.3388 35.4624 22.127 35.478C22.5241 35.5011 22.9073 35.6319 23.2357 35.8564C23.585 36.1482 23.9017 36.477 24.1803 36.8368C28.4417 41.8844 44.7694 61.3301 48.5614 65.8467C48.7723 66.0603 48.9628 66.2931 49.1305 66.5419Z" fill="#FEF8E8"/>
<path d="M49.3095 66.2934C49.1628 66.3557 49.0051 66.1467 49.0051 66.1467L18.5828 27.9474C18.4916 27.8259 18.4423 27.678 18.4423 27.5261C18.4423 27.3741 18.4916 27.2263 18.5828 27.1048C18.9194 26.7293 21.4692 24.97 21.4692 24.97C21.688 24.8087 21.9526 24.7215 22.2245 24.7214C22.5202 24.815 22.7842 24.9886 22.9872 25.223C22.9872 25.223 23.7939 26.2894 23.9559 26.5761C24.118 26.8628 49.0711 63.2545 49.0711 63.2545C49.0711 63.2545 49.3945 63.6373 49.5595 63.6322C49.7245 63.627 49.9064 63.7495 50.4095 63.2545C51.3371 62.3317 52.4911 61.6691 53.7557 61.3331C55.6873 60.9929 56.7572 61.2077 57.9012 61.8516C58.5028 62.1324 59.0308 62.5494 59.4435 63.0694C59.8562 63.5895 60.1424 64.1984 60.2794 64.848C60.4978 65.6149 60.5549 66.4188 60.4471 67.2089C60.3393 67.9991 60.069 68.7583 59.6531 69.4387C59.3964 69.906 59.0858 70.3417 58.7277 70.7367C58.4197 71.1033 58.361 71.0916 58.317 71.0674C58.273 71.0432 58.3118 71.0256 58.4556 70.7675C59.1504 69.6226 59.4718 68.2898 59.3752 66.9541C59.3261 66.0235 58.9715 65.1351 58.3662 64.4265C57.761 63.7178 56.939 63.2285 56.0275 63.0344C55.2903 62.892 54.5316 62.9031 53.7989 63.0671C53.0662 63.2312 52.3752 63.5446 51.7691 63.9878C50.9886 64.5724 50.272 65.2377 49.6314 65.9729C49.4209 66.2105 49.4539 66.231 49.3095 66.2934Z" fill="#FEF8E8"/>
<path d="M21.684 21.4926C21.684 21.4926 20.554 20.1374 20.8473 19.7135C21.2873 19.0777 22.3419 18.0364 24.6702 17.3199C29.147 15.9568 33.8477 15.4852 38.506 15.9317C43.9107 16.4407 47.4182 17.7189 48.439 18.9311C49.0499 19.5481 49.4694 20.3288 49.6468 21.1788C49.7421 21.5909 58.8868 60.946 58.8985 60.9775C58.9103 61.009 58.985 61.4351 58.3852 61.0823C57.2686 60.4994 55.9933 60.2935 54.7501 60.4956C53.4665 60.656 52.2526 61.1694 51.2433 61.9785C50.6654 62.3452 50.3632 62.8269 50.1161 62.8695C49.569 62.9626 49.4371 62.7822 49.4371 62.7822C49.4371 62.7822 49.0887 62.6004 49.0102 62.406C48.9318 62.2117 56.2087 57.4354 56.2087 57.4354C56.2087 57.4354 56.4917 57.2961 56.4969 57.0497C56.502 56.8033 48.7646 22.0257 48.4419 21.0387C48.1193 20.0516 48.0496 19.9387 47.537 19.6145C44.3239 17.8931 40.7194 17.034 37.0753 17.1212C31.3457 17.2378 27.9511 17.4255 25.1659 18.3994C23.7935 18.8788 22.4497 19.4368 21.1414 20.0706C20.7315 20.2679 21.684 21.4926 21.684 21.4926Z" fill="#FEF8E8"/>
<path d="M52.5112 25.8545C52.7576 25.7196 53.0376 25.6587 53.3178 25.6792L67.279 25.6617C67.279 25.6617 68.173 25.7064 68.3255 26.1149C68.4345 26.5081 68.497 26.9127 68.5117 27.3204L71.2449 71.1782C71.2449 71.1782 71.3864 72.0581 71.1026 72.1923C70.8188 72.3265 60.6042 72.0626 60.4641 72.0765C60.3241 72.0904 59.8173 72.0604 59.7227 71.9409C59.6281 71.8213 59.6135 71.6556 59.865 71.3601C60.5026 70.6513 60.9834 69.8159 61.2759 68.9085C61.6554 67.6696 61.7336 66.358 61.504 65.0827C61.4564 64.6493 60.3798 59.0826 58.8765 52.9336C56.0957 41.5596 52.1218 26.7536 52.1064 26.5336C52.0851 26.1977 52.2068 26.0679 52.5112 25.8545Z" fill="#FEF8E8"/>
<path d="M54.5982 64.4315C54.794 64.3457 57.3167 63.7715 58.2378 65.7383C58.9271 67.2049 58.2048 68.904 57.7758 69.7048C57.6592 69.9248 57.6291 69.9857 57.5616 69.9864C57.4942 69.9872 57.3864 69.7716 57.3864 69.7716L54.5997 64.837C54.5997 64.837 54.4024 64.5173 54.5982 64.4315Z" fill="#FEF8E8"/>
<path fill-rule="evenodd" clip-rule="evenodd" d="M42.3679 22.3631H46.3948V24.6768H42.3679V22.3631Z" fill="#FEF8E8"/>
<path fill-rule="evenodd" clip-rule="evenodd" d="M44.4236 25.2885C44.4463 25.2885 44.4665 25.3904 44.4665 25.5165C44.4665 25.6426 44.447 25.7446 44.4236 25.7446C44.4001 25.7446 44.3777 25.6426 44.3777 25.5165C44.3777 25.3904 44.3994 25.2885 44.4236 25.2885Z" fill="#FFEC00" stroke="#EE0033" stroke-width="0.12672"/>
<path fill-rule="evenodd" clip-rule="evenodd" d="M47.0618 34.5041L45.9697 31.24L44.3734 30.8454L47.0618 34.5041Z" fill="url(#paint1_linear_4799_3192)"/>
<path fill-rule="evenodd" clip-rule="evenodd" d="M44.4058 26.1017L43.353 29.3781L44.4058 30.6417V26.1017Z" fill="url(#paint2_linear_4799_3192)"/>
<path fill-rule="evenodd" clip-rule="evenodd" d="M39.9188 29.4478L42.8113 31.3127L44.3044 30.6227L39.9188 29.4478Z" fill="url(#paint3_linear_4799_3192)"/>
<path fill-rule="evenodd" clip-rule="evenodd" d="M41.3292 34.4264L44.3162 32.5198L44.2432 30.9504L41.3292 34.4264Z" fill="url(#paint4_linear_4799_3192)"/>
<path fill-rule="evenodd" clip-rule="evenodd" d="M44.3832 26.1017L45.4359 29.3781L44.3832 30.6417V26.1017Z" fill="url(#paint5_linear_4799_3192)"/>
<path fill-rule="evenodd" clip-rule="evenodd" d="M39.9091 29.4707L43.3466 29.302L44.2948 30.6461L39.9091 29.4707Z" fill="url(#paint6_linear_4799_3192)"/>
<path fill-rule="evenodd" clip-rule="evenodd" d="M48.875 29.4647L45.4332 29.4156L44.5337 30.792L48.875 29.4647Z" fill="url(#paint7_linear_4799_3192)"/>
<path fill-rule="evenodd" clip-rule="evenodd" d="M48.8657 29.4244L45.9739 31.29L44.48 30.6L48.8657 29.4244Z" fill="url(#paint8_linear_4799_3192)"/>
<path fill-rule="evenodd" clip-rule="evenodd" d="M41.3475 34.441L42.6458 31.254L44.2658 30.9606L41.3475 34.441Z" fill="url(#paint9_linear_4799_3192)"/>
<path fill-rule="evenodd" clip-rule="evenodd" d="M47.0795 34.491L44.293 32.4744L44.3925 30.8325L47.0795 34.491Z" fill="url(#paint10_linear_4799_3192)"/>
<path fill-rule="evenodd" clip-rule="evenodd" d="M44.4057 24.7764C44.4997 24.7764 44.5898 24.8137 44.6563 24.8801C44.7229 24.9465 44.76 25.0366 44.7602 25.1306C44.76 25.2246 44.7229 25.3148 44.6563 25.3812C44.5898 25.4476 44.4997 25.4848 44.4057 25.4848C44.3118 25.4844 44.2221 25.447 44.1557 25.3806C44.0894 25.3143 44.0516 25.2244 44.0512 25.1306C44.0516 25.0368 44.0894 24.9469 44.1557 24.8806C44.2221 24.8142 44.3118 24.7768 44.4057 24.7764ZM44.4057 24.9282C44.4594 24.9284 44.5109 24.9498 44.5489 24.9876C44.5869 25.0255 44.6079 25.0769 44.6083 25.1306C44.6079 25.1843 44.5869 25.2357 44.5489 25.2736C44.5109 25.3115 44.4594 25.3328 44.4057 25.333C44.3521 25.3326 44.301 25.3112 44.2632 25.2733C44.2253 25.2354 44.2034 25.1842 44.203 25.1306C44.2034 25.077 44.2253 25.0258 44.2632 24.9879C44.301 24.95 44.3521 24.9286 44.4057 24.9282Z" fill="url(#paint11_linear_4799_3192)"/>
<path fill-rule="evenodd" clip-rule="evenodd" d="M41.9618 22.0742H46.7937V23.0407H46.4714V22.3961H42.2841V23.0407H41.9625L41.9618 22.0742Z" fill="url(#paint12_linear_4799_3192)"/>
<path fill-rule="evenodd" clip-rule="evenodd" d="M41.962 24.9732H46.7939V24.0059H46.4716V24.6497H42.2843V24.0059H41.9627V24.9725L41.962 24.9732Z" fill="url(#paint13_linear_4799_3192)"/>
<path fill-rule="evenodd" clip-rule="evenodd" d="M44.4057 25.5737C44.4997 25.5737 44.5898 25.6111 44.6563 25.6775C44.7229 25.7439 44.76 25.8339 44.7602 25.9279C44.76 26.0219 44.7229 26.112 44.6563 26.1784C44.5898 26.2448 44.4997 26.2822 44.4057 26.2822C44.3118 26.2818 44.2221 26.2443 44.1557 26.178C44.0894 26.1116 44.0516 26.0218 44.0512 25.9279C44.0516 25.8341 44.0894 25.7443 44.1557 25.6779C44.2221 25.6116 44.3118 25.5741 44.4057 25.5737ZM44.4057 25.7255C44.4594 25.7257 44.5109 25.7471 44.5489 25.785C44.5869 25.8229 44.6079 25.8743 44.6083 25.9279C44.6079 25.9816 44.5869 26.033 44.5489 26.0709C44.5109 26.1088 44.4594 26.1301 44.4057 26.1303C44.3521 26.13 44.301 26.1085 44.2632 26.0706C44.2253 26.0328 44.2034 25.9815 44.203 25.9279C44.2032 25.8743 44.2245 25.8228 44.2624 25.7848C44.3003 25.7468 44.352 25.7259 44.4057 25.7255Z" fill="url(#paint14_linear_4799_3192)"/>
<path d="M44.3903 25.3022C44.49 25.3022 44.5408 25.7356 44.381 25.7532L44.3903 25.3022Z" fill="url(#paint15_linear_4799_3192)"/>
<path d="M44.3842 25.2657C44.3695 25.4314 44.3844 25.5964 44.3756 25.7878" stroke="#EE0033" stroke-width="0.0586667"/>
<path fill-rule="evenodd" clip-rule="evenodd" d="M44.3197 29.0674C44.7668 29.0683 45.1953 29.2463 45.5114 29.5624C45.8275 29.8785 46.006 30.3069 46.007 30.754C46.007 31.2013 45.8291 31.6304 45.5128 31.9467C45.1965 32.263 44.7671 32.4407 44.3197 32.4407C43.8719 32.4409 43.443 32.2634 43.1259 31.9472C42.8089 31.6309 42.6299 31.2018 42.6289 30.754C42.6299 30.3062 42.8089 29.8771 43.1259 29.5609C43.443 29.2446 43.8719 29.0672 44.3197 29.0674Z" fill="url(#paint16_linear_4799_3192)" stroke="#FEF8E8" stroke-width="0.0586667"/>
<path fill-rule="evenodd" clip-rule="evenodd" d="M44.9428 31.4858C44.9738 31.4239 45.0147 31.3674 45.0638 31.3186C45.1346 31.2771 45.2141 31.252 45.2958 31.2453C45.2748 31.308 45.2384 31.3646 45.1906 31.4103C45.1143 31.4529 45.0298 31.4786 44.9428 31.4858Z" fill="url(#paint17_linear_4799_3192)" stroke="url(#paint18_linear_4799_3192)" stroke-width="0.0586667"/>
<path fill-rule="evenodd" clip-rule="evenodd" d="M45.2723 30.5845C45.3257 30.5604 45.3707 30.5211 45.4019 30.4715C45.4139 30.4394 45.419 30.4052 45.4162 30.3711C45.4135 30.337 45.4032 30.3039 45.3862 30.2743C45.3685 30.2427 45.358 30.2077 45.3554 30.1716C45.3495 30.2047 45.3321 30.2347 45.3067 30.2566C45.2811 30.2781 45.2614 30.3055 45.2487 30.3364C45.2359 30.3673 45.2307 30.4009 45.2336 30.4342C45.2439 30.4965 45.2723 30.5845 45.2723 30.5845Z" fill="url(#paint19_linear_4799_3192)" stroke="url(#paint20_linear_4799_3192)" stroke-width="0.0586667"/>
<path fill-rule="evenodd" clip-rule="evenodd" d="M45.2678 30.7406C45.2888 30.6747 45.2985 30.6057 45.2964 30.5367C45.2743 30.4575 45.2345 30.3844 45.1804 30.3225C45.1527 30.3824 45.1396 30.448 45.1417 30.5139C45.1671 30.5976 45.21 30.6749 45.2678 30.7406Z" fill="url(#paint21_linear_4799_3192)" stroke="url(#paint22_linear_4799_3192)" stroke-width="0.0586667"/>
<path fill-rule="evenodd" clip-rule="evenodd" d="M45.2375 31.0224C45.2632 30.958 45.278 30.8899 45.2819 30.8207C45.2656 30.7408 45.2317 30.6657 45.1823 30.6008C45.15 30.6583 45.1314 30.7226 45.1286 30.7885C45.1477 30.8733 45.185 30.953 45.2375 31.0224Z" fill="url(#paint23_linear_4799_3192)" stroke="url(#paint24_linear_4799_3192)" stroke-width="0.0586667"/>
<path fill-rule="evenodd" clip-rule="evenodd" d="M45.1225 31.2591C45.1604 31.2012 45.1881 31.1376 45.2056 31.0706C45.2056 30.9884 45.1876 30.9072 45.1519 30.8331C45.1088 30.8831 45.0784 30.9426 45.0631 31.0068C45.0646 31.0942 45.0849 31.1802 45.1225 31.2591Z" fill="url(#paint25_linear_4799_3192)" stroke="url(#paint26_linear_4799_3192)" stroke-width="0.0586667"/>
<path fill-rule="evenodd" clip-rule="evenodd" d="M44.9548 31.4556C45.0064 31.4095 45.0496 31.355 45.083 31.2943C45.1045 31.2149 45.108 31.1316 45.0923 31.0508C45.0923 31.0508 44.9818 31.13 44.9605 31.1975C44.9404 31.2821 44.9385 31.3701 44.9548 31.4556Z" fill="url(#paint27_linear_4799_3192)" stroke="url(#paint28_linear_4799_3192)" stroke-width="0.0586667"/>
<path fill-rule="evenodd" clip-rule="evenodd" d="M44.7925 31.6441C44.8454 31.5995 44.891 31.5464 44.9264 31.4871C44.9503 31.4082 44.9556 31.3251 44.9429 31.2437C44.9429 31.2437 44.8303 31.317 44.8076 31.3845C44.7839 31.4689 44.7785 31.5575 44.7925 31.6441Z" fill="url(#paint29_linear_4799_3192)" stroke="url(#paint30_linear_4799_3192)" stroke-width="0.0586667"/>
<path fill-rule="evenodd" clip-rule="evenodd" d="M44.5969 31.7511C44.6589 31.7212 44.7153 31.6813 44.7645 31.6331C44.8074 31.563 44.8341 31.484 44.8418 31.4021C44.779 31.4223 44.7215 31.4572 44.6749 31.504C44.6315 31.5798 44.6051 31.6641 44.5969 31.7511Z" fill="url(#paint31_linear_4799_3192)" stroke="url(#paint32_linear_4799_3192)" stroke-width="0.0586667"/>
<path fill-rule="evenodd" clip-rule="evenodd" d="M45.2769 30.8083C45.2791 30.739 45.2925 30.6706 45.317 30.6059C45.364 30.5385 45.4258 30.4826 45.4974 30.4423C45.504 30.508 45.4951 30.5743 45.4717 30.6359C45.4196 30.7066 45.3534 30.7653 45.2769 30.8083Z" fill="url(#paint33_linear_4799_3192)" stroke="url(#paint34_linear_4799_3192)" stroke-width="0.0586667"/>
<path fill-rule="evenodd" clip-rule="evenodd" d="M45.2393 31.0538C45.2401 30.9847 45.2519 30.916 45.2744 30.8506C45.32 30.7822 45.3806 30.7248 45.4512 30.6827C45.4596 30.7482 45.4521 30.8148 45.4298 30.877C45.3796 30.9489 45.3147 31.0092 45.2393 31.0538Z" fill="url(#paint35_linear_4799_3192)" stroke="url(#paint36_linear_4799_3192)" stroke-width="0.0586667"/>
<path fill-rule="evenodd" clip-rule="evenodd" d="M45.1189 31.2884C45.1325 31.2207 45.157 31.1558 45.192 31.0963C45.2499 31.038 45.3206 30.9936 45.3982 30.9665C45.393 31.0325 45.3724 31.0963 45.3381 31.1528C45.2753 31.2129 45.2008 31.2591 45.1189 31.2884Z" fill="url(#paint37_linear_4799_3192)" stroke="url(#paint38_linear_4799_3192)" stroke-width="0.0586667"/>
<path fill-rule="evenodd" clip-rule="evenodd" d="M44.7816 31.6735C44.8145 31.6129 44.857 31.5582 44.9077 31.5115C44.9801 31.4728 45.0598 31.4507 45.1419 31.447C45.1188 31.5086 45.0815 31.5638 45.0323 31.6076C44.9544 31.6472 44.869 31.6697 44.7816 31.6735Z" fill="url(#paint39_linear_4799_3192)" stroke="url(#paint40_linear_4799_3192)" stroke-width="0.0586667"/>
<path fill-rule="evenodd" clip-rule="evenodd" d="M44.5754 31.7768C44.6227 31.7263 44.6784 31.684 44.7394 31.6514C44.8197 31.6319 44.9034 31.6306 44.9843 31.6477C44.9843 31.6477 44.9028 31.757 44.8375 31.7761C44.7513 31.7951 44.6617 31.7954 44.5754 31.7768Z" fill="url(#paint41_linear_4799_3192)" stroke="url(#paint42_linear_4799_3192)" stroke-width="0.0586667"/>
<path fill-rule="evenodd" clip-rule="evenodd" d="M43.6883 31.4858C43.6579 31.4237 43.6172 31.3672 43.5679 31.3186C43.4967 31.2771 43.4167 31.252 43.3345 31.2453C43.3563 31.308 43.3931 31.3645 43.4412 31.4103C43.5173 31.4527 43.6014 31.4785 43.6883 31.4858Z" fill="url(#paint43_linear_4799_3192)" stroke="url(#paint44_linear_4799_3192)" stroke-width="0.0586667"/>
<path fill-rule="evenodd" clip-rule="evenodd" d="M43.3574 30.5845C43.3037 30.5606 43.2585 30.5212 43.2271 30.4715C43.2151 30.4394 43.21 30.4052 43.2128 30.3711C43.2155 30.337 43.2258 30.3039 43.2428 30.2743C43.2608 30.2428 43.2713 30.2077 43.2736 30.1716C43.2795 30.2047 43.2969 30.2347 43.3223 30.2566C43.3484 30.2779 43.3691 30.3052 43.3825 30.336C43.3959 30.3669 43.402 30.4006 43.3997 30.4342C43.3857 30.4965 43.3574 30.5845 43.3574 30.5845Z" fill="url(#paint45_linear_4799_3192)" stroke="url(#paint46_linear_4799_3192)" stroke-width="0.0586667"/>
<path fill-rule="evenodd" clip-rule="evenodd" d="M43.3639 30.7406C43.3433 30.6746 43.3333 30.6057 43.3346 30.5367C43.3569 30.4574 43.3969 30.3842 43.4513 30.3225C43.4793 30.3823 43.4932 30.4479 43.4907 30.5139C43.4647 30.5973 43.4212 30.6745 43.3639 30.7406Z" fill="url(#paint47_linear_4799_3192)" stroke="url(#paint48_linear_4799_3192)" stroke-width="0.0586667"/>
<path fill-rule="evenodd" clip-rule="evenodd" d="M43.3925 31.0224C43.3668 30.958 43.3513 30.8899 43.3474 30.8207C43.3641 30.7408 43.3989 30.6657 43.4483 30.6008C43.4807 30.6582 43.4983 30.7226 43.5006 30.7885C43.4815 30.8733 43.4449 30.953 43.3925 31.0224Z" fill="url(#paint49_linear_4799_3192)" stroke="url(#paint50_linear_4799_3192)" stroke-width="0.0586667"/>
<path fill-rule="evenodd" clip-rule="evenodd" d="M43.5067 31.2591C43.4685 31.2014 43.4403 31.1377 43.4236 31.0706C43.4231 30.9885 43.4414 30.9073 43.4766 30.8331C43.5194 30.8835 43.5502 30.9428 43.5669 31.0068C43.5653 31.0943 43.5447 31.1803 43.5067 31.2591Z" fill="url(#paint51_linear_4799_3192)" stroke="url(#paint52_linear_4799_3192)" stroke-width="0.0586667"/>
<path fill-rule="evenodd" clip-rule="evenodd" d="M43.6763 31.4556C43.6252 31.4091 43.582 31.3546 43.5481 31.2943C43.5275 31.2148 43.5242 31.1316 43.5396 31.0508C43.5396 31.0508 43.6508 31.13 43.6706 31.1975C43.6907 31.2821 43.6926 31.3701 43.6763 31.4556Z" fill="url(#paint53_linear_4799_3192)" stroke="url(#paint54_linear_4799_3192)" stroke-width="0.0586667"/>
<path fill-rule="evenodd" clip-rule="evenodd" d="M43.8369 31.6441C43.7837 31.5995 43.7384 31.5464 43.7023 31.4871C43.6786 31.4082 43.673 31.3249 43.6865 31.2437C43.6865 31.2437 43.7984 31.317 43.8219 31.3845C43.8452 31.469 43.8501 31.5574 43.8369 31.6441Z" fill="url(#paint55_linear_4799_3192)" stroke="url(#paint56_linear_4799_3192)" stroke-width="0.0586667"/>
<path fill-rule="evenodd" clip-rule="evenodd" d="M44.0331 31.7511C43.9709 31.7211 43.9136 31.6812 43.8641 31.6331C43.8226 31.5626 43.7978 31.4836 43.791 31.4021C43.8539 31.4223 43.9106 31.4572 43.9572 31.504C43.9996 31.5801 44.0257 31.6643 44.0331 31.7511Z" fill="url(#paint57_linear_4799_3192)" stroke="url(#paint58_linear_4799_3192)" stroke-width="0.0586667"/>
<path fill-rule="evenodd" clip-rule="evenodd" d="M43.3514 30.8083C43.3492 30.739 43.3358 30.6706 43.3113 30.6059C43.264 30.5384 43.202 30.4825 43.1301 30.4423C43.1239 30.5081 43.1332 30.5744 43.1573 30.6359C43.2089 30.7067 43.275 30.7654 43.3514 30.8083Z" fill="url(#paint59_linear_4799_3192)" stroke="url(#paint60_linear_4799_3192)" stroke-width="0.0586667"/>
<path fill-rule="evenodd" clip-rule="evenodd" d="M43.3887 31.0538C43.3879 30.9846 43.3758 30.9159 43.3529 30.8506C43.3076 30.7821 43.2472 30.7247 43.1767 30.6827C43.1683 30.7482 43.1758 30.8148 43.1982 30.877C43.2483 30.9489 43.3132 31.0092 43.3887 31.0538Z" fill="url(#paint61_linear_4799_3192)" stroke="url(#paint62_linear_4799_3192)" stroke-width="0.0586667"/>
<path fill-rule="evenodd" clip-rule="evenodd" d="M43.5103 31.2884C43.4967 31.2208 43.4722 31.1559 43.4372 31.0963C43.379 31.038 43.3081 30.9937 43.2303 30.9665C43.2358 31.0325 43.2567 31.0963 43.2911 31.1528C43.3538 31.2131 43.4284 31.2593 43.5103 31.2884Z" fill="url(#paint63_linear_4799_3192)" stroke="url(#paint64_linear_4799_3192)" stroke-width="0.0586667"/>
<path fill-rule="evenodd" clip-rule="evenodd" d="M43.8494 31.6735C43.8161 31.6128 43.7731 31.5581 43.7219 31.5115C43.6496 31.4725 43.5691 31.4505 43.487 31.447C43.511 31.5083 43.5492 31.5633 43.598 31.6076C43.6762 31.6472 43.7618 31.6697 43.8494 31.6735Z" fill="url(#paint65_linear_4799_3192)" stroke="url(#paint66_linear_4799_3192)" stroke-width="0.0586667"/>
<path fill-rule="evenodd" clip-rule="evenodd" d="M44.0535 31.7768C44.0062 31.7263 43.9512 31.684 43.8902 31.6514C43.8101 31.6319 43.7266 31.6306 43.646 31.6477C43.646 31.6477 43.7275 31.757 43.7928 31.7761C43.8788 31.7949 43.9674 31.7952 44.0535 31.7768Z" fill="url(#paint67_linear_4799_3192)" stroke="url(#paint68_linear_4799_3192)" stroke-width="0.0586667"/>
<path fill-rule="evenodd" clip-rule="evenodd" d="M43.6412 29.5866L43.5817 29.6034C43.7467 30.0844 43.9123 30.5648 44.0766 31.0459L44.1446 31.0202C44.083 30.8215 44.0201 30.6219 43.957 30.4225C44.1365 30.3521 44.3333 30.3373 44.5213 30.38C44.5649 30.4024 44.6127 30.4141 44.6617 30.4141C44.7107 30.4141 44.7592 30.4024 44.8028 30.38C44.9297 30.3263 45.071 30.3173 45.2038 30.3543C45.2005 30.2558 45.1614 30.1618 45.0942 30.0896C44.9556 29.9385 44.9995 29.7882 45.009 29.6371C44.855 29.6115 44.7698 29.6767 44.6502 29.6686C44.542 29.672 44.4346 29.6525 44.3344 29.6114C44.1393 29.566 44.0559 29.5806 43.9914 29.6459C43.8901 29.6622 43.7869 29.6622 43.6856 29.6459C43.6702 29.6261 43.6566 29.6064 43.6412 29.5866Z" fill="#FEF8E8"/>
<path fill-rule="evenodd" clip-rule="evenodd" d="M44.3108 29.8981L44.3187 29.7272L44.4311 29.8981L44.6595 29.8724L44.4991 29.9663L44.6008 30.077L44.4039 30.0345L44.3093 30.1708L44.3022 30.0169L44.1231 29.9142L44.3108 29.8981Z" fill="#EE0033"/>
<path fill-rule="evenodd" clip-rule="evenodd" d="M42.3593 22.5186H46.3926V24.5213H42.3593V22.5186ZM42.4817 24.352H46.2673V24.4106H42.4817V24.352ZM42.4817 24.1613H46.2673V24.2207H42.4817V24.1613ZM42.4817 23.9706H46.2673V24.0293H42.4817V23.9706ZM42.4817 23.78H46.2673V23.8386H42.4817V23.78ZM42.4817 23.5893H46.2673V23.6487H42.4817V23.5893ZM42.4817 23.3986H46.2673V23.458H42.4817V23.3986ZM42.4817 23.2087H46.2673V23.2674H42.4817V23.2087ZM42.4817 23.0181H46.2673V23.0767H42.4817V23.0181ZM42.4817 22.8274H46.2673V22.886H42.4817V22.8274ZM42.4817 22.6367H46.2673V22.6954H42.4817V22.6367Z" fill="#FEF8E8"/>
<path fill-rule="evenodd" clip-rule="evenodd" d="M42.3743 22.5772H46.2916V24.456H42.3743V22.5772Z" fill="#FEF8E8"/>
</g>
<defs>
<linearGradient id="paint0_linear_4799_3192" x1="44.5" y1="0" x2="44.5" y2="88" gradientUnits="userSpaceOnUse">
<stop stop-color="#FF6C58"/>
<stop offset="1" stop-color="#C61F1B"/>
</linearGradient>
<linearGradient id="paint1_linear_4799_3192" x1="45.7176" y1="30.8454" x2="45.7176" y2="34.5041" gradientUnits="userSpaceOnUse">
<stop stop-color="#FF6C58"/>
<stop offset="1" stop-color="#C61F1B"/>
</linearGradient>
<linearGradient id="paint2_linear_4799_3192" x1="43.8794" y1="26.1017" x2="43.8794" y2="30.6417" gradientUnits="userSpaceOnUse">
<stop stop-color="#FF6C58"/>
<stop offset="1" stop-color="#C61F1B"/>
</linearGradient>
<linearGradient id="paint3_linear_4799_3192" x1="42.1116" y1="29.4478" x2="42.1116" y2="31.3127" gradientUnits="userSpaceOnUse">
<stop stop-color="#FF6C58"/>
<stop offset="1" stop-color="#C61F1B"/>
</linearGradient>
<linearGradient id="paint4_linear_4799_3192" x1="42.8227" y1="30.9504" x2="42.8227" y2="34.4264" gradientUnits="userSpaceOnUse">
<stop stop-color="#FF6C58"/>
<stop offset="1" stop-color="#C61F1B"/>
</linearGradient>
<linearGradient id="paint5_linear_4799_3192" x1="44.9096" y1="26.1017" x2="44.9096" y2="30.6417" gradientUnits="userSpaceOnUse">
<stop stop-color="#FF6C58"/>
<stop offset="1" stop-color="#C61F1B"/>
</linearGradient>
<linearGradient id="paint6_linear_4799_3192" x1="42.1019" y1="29.302" x2="42.1019" y2="30.6461" gradientUnits="userSpaceOnUse">
<stop stop-color="#FF6C58"/>
<stop offset="1" stop-color="#C61F1B"/>
</linearGradient>
<linearGradient id="paint7_linear_4799_3192" x1="46.7043" y1="29.4156" x2="46.7043" y2="30.792" gradientUnits="userSpaceOnUse">
<stop stop-color="#FF6C58"/>
<stop offset="1" stop-color="#C61F1B"/>
</linearGradient>
<linearGradient id="paint8_linear_4799_3192" x1="46.6728" y1="29.4244" x2="46.6728" y2="31.29" gradientUnits="userSpaceOnUse">
<stop stop-color="#FF6C58"/>
<stop offset="1" stop-color="#C61F1B"/>
</linearGradient>
<linearGradient id="paint9_linear_4799_3192" x1="42.8066" y1="30.9606" x2="42.8066" y2="34.441" gradientUnits="userSpaceOnUse">
<stop stop-color="#FF6C58"/>
<stop offset="1" stop-color="#C61F1B"/>
</linearGradient>
<linearGradient id="paint10_linear_4799_3192" x1="45.6862" y1="30.8325" x2="45.6862" y2="34.491" gradientUnits="userSpaceOnUse">
<stop stop-color="#FF6C58"/>
<stop offset="1" stop-color="#C61F1B"/>
</linearGradient>
<linearGradient id="paint11_linear_4799_3192" x1="44.4057" y1="24.7764" x2="44.4057" y2="25.4848" gradientUnits="userSpaceOnUse">
<stop stop-color="#FF6C58"/>
<stop offset="1" stop-color="#C61F1B"/>
</linearGradient>
<linearGradient id="paint12_linear_4799_3192" x1="44.3777" y1="22.0742" x2="44.3777" y2="23.0407" gradientUnits="userSpaceOnUse">
<stop stop-color="#FF6C58"/>
<stop offset="1" stop-color="#C61F1B"/>
</linearGradient>
<linearGradient id="paint13_linear_4799_3192" x1="44.3779" y1="24.0059" x2="44.3779" y2="24.9732" gradientUnits="userSpaceOnUse">
<stop stop-color="#FF6C58"/>
<stop offset="1" stop-color="#C61F1B"/>
</linearGradient>
<linearGradient id="paint14_linear_4799_3192" x1="44.4057" y1="25.5737" x2="44.4057" y2="26.2822" gradientUnits="userSpaceOnUse">
<stop stop-color="#FF6C58"/>
<stop offset="1" stop-color="#C61F1B"/>
</linearGradient>
<linearGradient id="paint15_linear_4799_3192" x1="44.4323" y1="25.3022" x2="44.4323" y2="25.7532" gradientUnits="userSpaceOnUse">
<stop stop-color="#FF6C58"/>
<stop offset="1" stop-color="#C61F1B"/>
</linearGradient>
<linearGradient id="paint16_linear_4799_3192" x1="44.3179" y1="29.0674" x2="44.3179" y2="32.4407" gradientUnits="userSpaceOnUse">
<stop stop-color="#FF6C58"/>
<stop offset="1" stop-color="#C61F1B"/>
</linearGradient>
<linearGradient id="paint17_linear_4799_3192" x1="45.1193" y1="31.2453" x2="45.1193" y2="31.4858" gradientUnits="userSpaceOnUse">
<stop stop-color="#FF6C58"/>
<stop offset="1" stop-color="#C61F1B"/>
</linearGradient>
<linearGradient id="paint18_linear_4799_3192" x1="45.1193" y1="31.2453" x2="45.1193" y2="31.4858" gradientUnits="userSpaceOnUse">
<stop stop-color="#FF6C58"/>
<stop offset="1" stop-color="#C61F1B"/>
</linearGradient>
<linearGradient id="paint19_linear_4799_3192" x1="45.3249" y1="30.1716" x2="45.3249" y2="30.5845" gradientUnits="userSpaceOnUse">
<stop stop-color="#FF6C58"/>
<stop offset="1" stop-color="#C61F1B"/>
</linearGradient>
<linearGradient id="paint20_linear_4799_3192" x1="45.3249" y1="30.1716" x2="45.3249" y2="30.5845" gradientUnits="userSpaceOnUse">
<stop stop-color="#FF6C58"/>
<stop offset="1" stop-color="#C61F1B"/>
</linearGradient>
<linearGradient id="paint21_linear_4799_3192" x1="45.2191" y1="30.3225" x2="45.2191" y2="30.7406" gradientUnits="userSpaceOnUse">
<stop stop-color="#FF6C58"/>
<stop offset="1" stop-color="#C61F1B"/>
</linearGradient>
<linearGradient id="paint22_linear_4799_3192" x1="45.2191" y1="30.3225" x2="45.2191" y2="30.7406" gradientUnits="userSpaceOnUse">
<stop stop-color="#FF6C58"/>
<stop offset="1" stop-color="#C61F1B"/>
</linearGradient>
<linearGradient id="paint23_linear_4799_3192" x1="45.2052" y1="30.6008" x2="45.2052" y2="31.0224" gradientUnits="userSpaceOnUse">
<stop stop-color="#FF6C58"/>
<stop offset="1" stop-color="#C61F1B"/>
</linearGradient>
<linearGradient id="paint24_linear_4799_3192" x1="45.2052" y1="30.6008" x2="45.2052" y2="31.0224" gradientUnits="userSpaceOnUse">
<stop stop-color="#FF6C58"/>
<stop offset="1" stop-color="#C61F1B"/>
</linearGradient>
<linearGradient id="paint25_linear_4799_3192" x1="45.1343" y1="30.8331" x2="45.1343" y2="31.2591" gradientUnits="userSpaceOnUse">
<stop stop-color="#FF6C58"/>
<stop offset="1" stop-color="#C61F1B"/>
</linearGradient>
<linearGradient id="paint26_linear_4799_3192" x1="45.1343" y1="30.8331" x2="45.1343" y2="31.2591" gradientUnits="userSpaceOnUse">
<stop stop-color="#FF6C58"/>
<stop offset="1" stop-color="#C61F1B"/>
</linearGradient>
<linearGradient id="paint27_linear_4799_3192" x1="45.0229" y1="31.0508" x2="45.0229" y2="31.4556" gradientUnits="userSpaceOnUse">
<stop stop-color="#FF6C58"/>
<stop offset="1" stop-color="#C61F1B"/>
</linearGradient>
<linearGradient id="paint28_linear_4799_3192" x1="45.0229" y1="31.0508" x2="45.0229" y2="31.4556" gradientUnits="userSpaceOnUse">
<stop stop-color="#FF6C58"/>
<stop offset="1" stop-color="#C61F1B"/>
</linearGradient>
<linearGradient id="paint29_linear_4799_3192" x1="44.8672" y1="31.2437" x2="44.8672" y2="31.6441" gradientUnits="userSpaceOnUse">
<stop stop-color="#FF6C58"/>
<stop offset="1" stop-color="#C61F1B"/>
</linearGradient>
<linearGradient id="paint30_linear_4799_3192" x1="44.8672" y1="31.2437" x2="44.8672" y2="31.6441" gradientUnits="userSpaceOnUse">
<stop stop-color="#FF6C58"/>
<stop offset="1" stop-color="#C61F1B"/>
</linearGradient>
<linearGradient id="paint31_linear_4799_3192" x1="44.7193" y1="31.4021" x2="44.7193" y2="31.7511" gradientUnits="userSpaceOnUse">
<stop stop-color="#FF6C58"/>
<stop offset="1" stop-color="#C61F1B"/>
</linearGradient>
<linearGradient id="paint32_linear_4799_3192" x1="44.7193" y1="31.4021" x2="44.7193" y2="31.7511" gradientUnits="userSpaceOnUse">
<stop stop-color="#FF6C58"/>
<stop offset="1" stop-color="#C61F1B"/>
</linearGradient>
<linearGradient id="paint33_linear_4799_3192" x1="45.3882" y1="30.4423" x2="45.3882" y2="30.8083" gradientUnits="userSpaceOnUse">
<stop stop-color="#FF6C58"/>
<stop offset="1" stop-color="#C61F1B"/>
</linearGradient>
<linearGradient id="paint34_linear_4799_3192" x1="45.3882" y1="30.4423" x2="45.3882" y2="30.8083" gradientUnits="userSpaceOnUse">
<stop stop-color="#FF6C58"/>
<stop offset="1" stop-color="#C61F1B"/>
</linearGradient>
<linearGradient id="paint35_linear_4799_3192" x1="45.3469" y1="30.6827" x2="45.3469" y2="31.0538" gradientUnits="userSpaceOnUse">
<stop stop-color="#FF6C58"/>
<stop offset="1" stop-color="#C61F1B"/>
</linearGradient>
<linearGradient id="paint36_linear_4799_3192" x1="45.3469" y1="30.6827" x2="45.3469" y2="31.0538" gradientUnits="userSpaceOnUse">
<stop stop-color="#FF6C58"/>
<stop offset="1" stop-color="#C61F1B"/>
</linearGradient>
<linearGradient id="paint37_linear_4799_3192" x1="45.2586" y1="30.9665" x2="45.2586" y2="31.2884" gradientUnits="userSpaceOnUse">
<stop stop-color="#FF6C58"/>
<stop offset="1" stop-color="#C61F1B"/>
</linearGradient>
<linearGradient id="paint38_linear_4799_3192" x1="45.2586" y1="30.9665" x2="45.2586" y2="31.2884" gradientUnits="userSpaceOnUse">
<stop stop-color="#FF6C58"/>
<stop offset="1" stop-color="#C61F1B"/>
</linearGradient>
<linearGradient id="paint39_linear_4799_3192" x1="44.9618" y1="31.447" x2="44.9618" y2="31.6735" gradientUnits="userSpaceOnUse">
<stop stop-color="#FF6C58"/>
<stop offset="1" stop-color="#C61F1B"/>
</linearGradient>
<linearGradient id="paint40_linear_4799_3192" x1="44.9618" y1="31.447" x2="44.9618" y2="31.6735" gradientUnits="userSpaceOnUse">
<stop stop-color="#FF6C58"/>
<stop offset="1" stop-color="#C61F1B"/>
</linearGradient>
<linearGradient id="paint41_linear_4799_3192" x1="44.7799" y1="31.6358" x2="44.7799" y2="31.7906" gradientUnits="userSpaceOnUse">
<stop stop-color="#FF6C58"/>
<stop offset="1" stop-color="#C61F1B"/>
</linearGradient>
<linearGradient id="paint42_linear_4799_3192" x1="44.7799" y1="31.6358" x2="44.7799" y2="31.7906" gradientUnits="userSpaceOnUse">
<stop stop-color="#FF6C58"/>
<stop offset="1" stop-color="#C61F1B"/>
</linearGradient>
<linearGradient id="paint43_linear_4799_3192" x1="43.5114" y1="31.2453" x2="43.5114" y2="31.4858" gradientUnits="userSpaceOnUse">
<stop stop-color="#FF6C58"/>
<stop offset="1" stop-color="#C61F1B"/>
</linearGradient>
<linearGradient id="paint44_linear_4799_3192" x1="43.5114" y1="31.2453" x2="43.5114" y2="31.4858" gradientUnits="userSpaceOnUse">
<stop stop-color="#FF6C58"/>
<stop offset="1" stop-color="#C61F1B"/>
</linearGradient>
<linearGradient id="paint45_linear_4799_3192" x1="43.3061" y1="30.1716" x2="43.3061" y2="30.5845" gradientUnits="userSpaceOnUse">
<stop stop-color="#FF6C58"/>
<stop offset="1" stop-color="#C61F1B"/>
</linearGradient>
<linearGradient id="paint46_linear_4799_3192" x1="43.3061" y1="30.1716" x2="43.3061" y2="30.5845" gradientUnits="userSpaceOnUse">
<stop stop-color="#FF6C58"/>
<stop offset="1" stop-color="#C61F1B"/>
</linearGradient>
<linearGradient id="paint47_linear_4799_3192" x1="43.4127" y1="30.3225" x2="43.4127" y2="30.7406" gradientUnits="userSpaceOnUse">
<stop stop-color="#FF6C58"/>
<stop offset="1" stop-color="#C61F1B"/>
</linearGradient>
<linearGradient id="paint48_linear_4799_3192" x1="43.4127" y1="30.3225" x2="43.4127" y2="30.7406" gradientUnits="userSpaceOnUse">
<stop stop-color="#FF6C58"/>
<stop offset="1" stop-color="#C61F1B"/>
</linearGradient>
<linearGradient id="paint49_linear_4799_3192" x1="43.424" y1="30.6008" x2="43.424" y2="31.0224" gradientUnits="userSpaceOnUse">
<stop stop-color="#FF6C58"/>
<stop offset="1" stop-color="#C61F1B"/>
</linearGradient>
<linearGradient id="paint50_linear_4799_3192" x1="43.424" y1="30.6008" x2="43.424" y2="31.0224" gradientUnits="userSpaceOnUse">
<stop stop-color="#FF6C58"/>
<stop offset="1" stop-color="#C61F1B"/>
</linearGradient>
<linearGradient id="paint51_linear_4799_3192" x1="43.4953" y1="30.8331" x2="43.4953" y2="31.2591" gradientUnits="userSpaceOnUse">
<stop stop-color="#FF6C58"/>
<stop offset="1" stop-color="#C61F1B"/>
</linearGradient>
<linearGradient id="paint52_linear_4799_3192" x1="43.4953" y1="30.8331" x2="43.4953" y2="31.2591" gradientUnits="userSpaceOnUse">
<stop stop-color="#FF6C58"/>
<stop offset="1" stop-color="#C61F1B"/>
</linearGradient>
<linearGradient id="paint53_linear_4799_3192" x1="43.6086" y1="31.0508" x2="43.6086" y2="31.4556" gradientUnits="userSpaceOnUse">
<stop stop-color="#FF6C58"/>
<stop offset="1" stop-color="#C61F1B"/>
</linearGradient>
<linearGradient id="paint54_linear_4799_3192" x1="43.6086" y1="31.0508" x2="43.6086" y2="31.4556" gradientUnits="userSpaceOnUse">
<stop stop-color="#FF6C58"/>
<stop offset="1" stop-color="#C61F1B"/>
</linearGradient>
<linearGradient id="paint55_linear_4799_3192" x1="43.7617" y1="31.2437" x2="43.7617" y2="31.6441" gradientUnits="userSpaceOnUse">
<stop stop-color="#FF6C58"/>
<stop offset="1" stop-color="#C61F1B"/>
</linearGradient>
<linearGradient id="paint56_linear_4799_3192" x1="43.7617" y1="31.2437" x2="43.7617" y2="31.6441" gradientUnits="userSpaceOnUse">
<stop stop-color="#FF6C58"/>
<stop offset="1" stop-color="#C61F1B"/>
</linearGradient>
<linearGradient id="paint57_linear_4799_3192" x1="43.912" y1="31.4021" x2="43.912" y2="31.7511" gradientUnits="userSpaceOnUse">
<stop stop-color="#FF6C58"/>
<stop offset="1" stop-color="#C61F1B"/>
</linearGradient>
<linearGradient id="paint58_linear_4799_3192" x1="43.912" y1="31.4021" x2="43.912" y2="31.7511" gradientUnits="userSpaceOnUse">
<stop stop-color="#FF6C58"/>
<stop offset="1" stop-color="#C61F1B"/>
</linearGradient>
<linearGradient id="paint59_linear_4799_3192" x1="43.2398" y1="30.4423" x2="43.2398" y2="30.8083" gradientUnits="userSpaceOnUse">
<stop stop-color="#FF6C58"/>
<stop offset="1" stop-color="#C61F1B"/>
</linearGradient>
<linearGradient id="paint60_linear_4799_3192" x1="43.2398" y1="30.4423" x2="43.2398" y2="30.8083" gradientUnits="userSpaceOnUse">
<stop stop-color="#FF6C58"/>
<stop offset="1" stop-color="#C61F1B"/>
</linearGradient>
<linearGradient id="paint61_linear_4799_3192" x1="43.281" y1="30.6827" x2="43.281" y2="31.0538" gradientUnits="userSpaceOnUse">
<stop stop-color="#FF6C58"/>
<stop offset="1" stop-color="#C61F1B"/>
</linearGradient>
<linearGradient id="paint62_linear_4799_3192" x1="43.281" y1="30.6827" x2="43.281" y2="31.0538" gradientUnits="userSpaceOnUse">
<stop stop-color="#FF6C58"/>
<stop offset="1" stop-color="#C61F1B"/>
</linearGradient>
<linearGradient id="paint63_linear_4799_3192" x1="43.3703" y1="30.9665" x2="43.3703" y2="31.2884" gradientUnits="userSpaceOnUse">
<stop stop-color="#FF6C58"/>
<stop offset="1" stop-color="#C61F1B"/>
</linearGradient>
<linearGradient id="paint64_linear_4799_3192" x1="43.3703" y1="30.9665" x2="43.3703" y2="31.2884" gradientUnits="userSpaceOnUse">
<stop stop-color="#FF6C58"/>
<stop offset="1" stop-color="#C61F1B"/>
</linearGradient>
<linearGradient id="paint65_linear_4799_3192" x1="43.6682" y1="31.447" x2="43.6682" y2="31.6735" gradientUnits="userSpaceOnUse">
<stop stop-color="#FF6C58"/>
<stop offset="1" stop-color="#C61F1B"/>
</linearGradient>
<linearGradient id="paint66_linear_4799_3192" x1="43.6682" y1="31.447" x2="43.6682" y2="31.6735" gradientUnits="userSpaceOnUse">
<stop stop-color="#FF6C58"/>
<stop offset="1" stop-color="#C61F1B"/>
</linearGradient>
<linearGradient id="paint67_linear_4799_3192" x1="43.8497" y1="31.6358" x2="43.8497" y2="31.7904" gradientUnits="userSpaceOnUse">
<stop stop-color="#FF6C58"/>
<stop offset="1" stop-color="#C61F1B"/>
</linearGradient>
<linearGradient id="paint68_linear_4799_3192" x1="43.8497" y1="31.6358" x2="43.8497" y2="31.7904" gradientUnits="userSpaceOnUse">
<stop stop-color="#FF6C58"/>
<stop offset="1" stop-color="#C61F1B"/>
</linearGradient>
<clipPath id="clip0_4799_3192">
<rect x="0.5" width="88" height="88" rx="44" fill="white"/>
</clipPath>
</defs>
</svg>
