<svg xmlns="http://www.w3.org/2000/svg" xmlns:xlink="http://www.w3.org/1999/xlink" width="120" height="120" viewBox="0 0 120 120">
  <defs>
    <linearGradient id="linear-gradient" x1="0.5" x2="0.5" y2="1" gradientUnits="objectBoundingBox">
      <stop offset="0" stop-color="#bf5af2"/>
      <stop offset="1" stop-color="#7635dc"/>
    </linearGradient>
  </defs>
  <g id="Group_42581" data-name="Group 42581" transform="translate(-687 -1636)">
    <rect id="Rectangle_13778" data-name="Rectangle 13778" width="120" height="120" rx="24" transform="translate(687 1636)" fill="url(#linear-gradient)"/>
    <g id="Group_42577" data-name="Group 42577" transform="translate(128.434 -114.957)">
      <path id="Path_84784" data-name="Path 84784" d="M633.432,2100.724c-.1-.013-1.178-.746-1.178-.746L592.807,2074.3s-.112-2.492.8-3.471a5.281,5.281,0,0,1,3.728-1.091l35.308,30.29A6.709,6.709,0,0,1,633.432,2100.724Z" transform="translate(-8.704 -258.932)" fill="#fff"/>
      <path id="Path_84790" data-name="Path 84790" d="M624.615,1836.114l-37.9-56.679s-.441-.832-.319-1.17a14.132,14.132,0,0,1,2.166-1.774,49.165,49.165,0,0,1,13.918-2.907,64.38,64.38,0,0,1,14.773.858c2.618.479,5.868,2.4,6.432,3.237,2.569,3.8,12.167,52.359,12.167,52.359Z" transform="translate(0.141 0.033)" fill="#fff"/>
      <path id="Path_84785" data-name="Path 84785" d="M624.88,2052.221c-.073-.011-1.068-.991-1.068-.991l-41.164-37.889a4.118,4.118,0,0,1-.434-.487.849.849,0,0,1-.085-.838,3.789,3.789,0,0,1,2.712-1.983,22.044,22.044,0,0,1,3.216-.172,2.989,2.989,0,0,1,1.512.516,8.618,8.618,0,0,1,1.288,1.337c5.811,6.883,28.076,33.4,33.247,39.559A6.6,6.6,0,0,1,624.88,2052.221Z" transform="translate(0 -210.525)" fill="#fff"/>
      <path id="Path_84786" data-name="Path 84786" d="M629.255,1986.538c-.2.085-.415-.2-.415-.2l-41.485-52.09a.957.957,0,0,1,0-1.149c.459-.512,3.936-2.911,3.936-2.911a1.736,1.736,0,0,1,1.03-.339,2.29,2.29,0,0,1,1.04.684s1.1,1.454,1.321,1.845,34.248,50.016,34.248,50.016.441.522.666.515.473.16,1.159-.515a10.173,10.173,0,0,1,4.563-2.62c2.634-.464,4.093-.171,5.653.707a5.839,5.839,0,0,1,3.243,4.086,7.87,7.87,0,0,1-.854,6.26,9.3,9.3,0,0,1-1.262,1.77c-.42.5-.5.484-.56.451s-.007-.057.189-.409a8.8,8.8,0,0,0,1.254-5.2,5.776,5.776,0,0,0-4.565-5.345,7.445,7.445,0,0,0-5.807,1.3,18.875,18.875,0,0,0-2.915,2.707C629.407,1986.425,629.452,1986.453,629.255,1986.538Z" transform="translate(-4.131 -145.181)" fill="#fff"/>
      <path id="Path_84787" data-name="Path 84787" d="M604.329,1876.884s-1.541-1.848-1.141-2.426c.6-.867,2.038-2.287,5.213-3.264a48.788,48.788,0,0,1,18.867-1.893c7.37.694,12.153,2.437,13.545,4.09a6.14,6.14,0,0,1,1.647,3.065c.13.562,12.6,54.228,12.616,54.271s.118.624-.7.143a7.953,7.953,0,0,0-4.957-.8,9.536,9.536,0,0,0-4.782,2.022c-.788.5-1.2,1.157-1.537,1.215-.746.127-.926-.119-.926-.119s-.475-.248-.582-.513,9.816-6.778,9.816-6.778.386-.19.393-.526-10.544-47.76-10.984-49.106-.535-1.5-1.234-1.942a28.753,28.753,0,0,0-14.266-3.4c-7.813.159-12.442.415-16.24,1.743a51.659,51.659,0,0,0-5.488,2.279C603.03,1875.214,604.329,1876.884,604.329,1876.884Z" transform="translate(-16.876 -96.619)" fill="#fff"/>
      <path id="Path_84788" data-name="Path 84788" d="M828.015,1940.132a1.989,1.989,0,0,1,1.1-.239l19.038-.024s1.219.061,1.427.618a7.112,7.112,0,0,1,.254,1.644l3.727,59.806s.193,1.2-.194,1.383-14.316-.177-14.507-.158-.882-.022-1.011-.185-.149-.389.194-.792a9.237,9.237,0,0,0,1.924-3.343,11.1,11.1,0,0,0,.311-5.217c-.065-.591-1.533-8.182-3.583-16.567-3.792-15.51-9.211-35.7-9.232-36C827.434,1940.6,827.6,1940.423,828.015,1940.132Z" transform="translate(-198.525 -153.919)" fill="#fff"/>
      <path id="Path_84789" data-name="Path 84789" d="M845.042,2211.217c.267-.117,3.707-.9,4.963,1.782.94,2-.045,4.317-.63,5.409-.159.3-.2.383-.292.384s-.239-.293-.239-.293l-3.8-6.729S844.775,2211.334,845.042,2211.217Z" transform="translate(-212.706 -372.399)" fill="#fff"/>
      <g id="Group_42583" data-name="Group 42583" transform="translate(612.304 1781.058)">
        <path id="path17226" d="M-11357.8,1371.527h5.491v3.155h-5.491Z" transform="translate(11361.153 -1371.133)" fill="#fff" fill-rule="evenodd"/>
        <path id="path17235" d="M-11218.39,1573.962c.031,0,.059.139.059.311s-.027.311-.059.311-.062-.139-.062-.311S-11218.423,1573.962-11218.39,1573.962Z" transform="translate(11224.546 -1569.579)" fill="#ffec00" stroke="#aa4fec" stroke-width="0.216" fill-rule="evenodd"/>
        <g id="Group_42578" data-name="Group 42578" transform="translate(0 0)">
          <path id="path17220" d="M-11215.134,1963.606l-1.489-4.451-2.177-.538Z" transform="translate(11224.888 -1946.656)" fill="#9c48e7" stroke="#9b48e7" stroke-linecap="round" stroke-linejoin="round" stroke-width="0.2" fill-rule="evenodd"/>
          <g id="Group_42584" data-name="Group 42584" transform="translate(0 5.492)">
            <path id="path17204" d="M-11287.87,1630.253l-1.436,4.468,1.436,1.723Z" transform="translate(11294.003 -1630.253)" fill="#9f4ae9" stroke="#a54dea" stroke-linecap="round" stroke-linejoin="round" stroke-width="0.2" fill-rule="evenodd"/>
            <path id="path17206" d="M-11527.3,1861.828l3.945,2.543,2.036-.941Z" transform="translate(11527.313 -1857.265)" fill="#9f4ae9" stroke="#a54dea" stroke-linecap="round" stroke-linejoin="round" stroke-width="0.2" fill-rule="evenodd"/>
            <path id="path17210" d="M-11429.434,1970.423l4.074-2.6-.1-2.14Z" transform="translate(11431.371 -1959.071)" fill="#9f4ae9" stroke="#a54dea" stroke-linecap="round" stroke-linejoin="round" stroke-width="0.2" fill-rule="evenodd"/>
            <path id="path17212" d="M-11218.044,1630.253l1.436,4.468-1.436,1.723Z" transform="translate(11224.146 -1630.253)" fill="#9f4ae9" stroke="#a54dea" stroke-linecap="round" stroke-linejoin="round" stroke-width="0.2" fill-rule="evenodd"/>
            <path id="path17214" d="M-11527.724,1851.91l4.688-.23,1.293,1.833Z" transform="translate(11527.724 -1847.316)" fill="#9f4ae9" stroke="#a54dea" stroke-linecap="round" stroke-linejoin="round" stroke-width="0.2" fill-rule="evenodd"/>
            <g id="Group_42580" data-name="Group 42580" transform="translate(6.233 4.519)">
              <path id="path17208" d="M-11201.725,1859.64l-4.693-.067-1.227,1.877Z" transform="translate(11207.718 -1859.573)" fill="#9f4ae9" stroke="#a54dea" stroke-linecap="round" stroke-linejoin="round" stroke-width="0.2" fill-rule="evenodd"/>
              <path id="path17216" d="M-11205.42,1860.208l-3.943,2.544-2.037-.941Z" transform="translate(11211.4 -1860.196)" fill="#9f4ae9" stroke="#a54dea" stroke-linecap="round" stroke-linejoin="round" stroke-width="0.2" fill-rule="evenodd"/>
            </g>
            <path id="path17218" d="M-11428.193,1971.464l1.77-4.346,2.209-.4Z" transform="translate(11430.155 -1960.092)" fill="#9f4ae9" stroke="#a54dea" stroke-linecap="round" stroke-linejoin="round" stroke-width="0.2" fill-rule="evenodd"/>
            <path id="path17222" d="M-11220.636,1962.648l-3.8-2.75.136-2.239Z" transform="translate(11230.414 -1951.208)" fill="#9f4ae9" stroke="#a54dea" stroke-linecap="round" stroke-linejoin="round" stroke-width="0.2" fill-rule="evenodd"/>
          </g>
          <path id="path17224" d="M-11240.593,1538.539a.484.484,0,0,1,.484.483.484.484,0,0,1-.484.483.485.485,0,0,1-.483-.483A.485.485,0,0,1-11240.593,1538.539Zm0,.207a.278.278,0,0,1,.277.276.278.278,0,0,1-.277.276.278.278,0,0,1-.276-.276A.278.278,0,0,1-11240.593,1538.746Z" transform="translate(11246.725 -1534.854)" fill="#aa4fec" stroke="#a84eeb" stroke-width="0.1" fill-rule="evenodd"/>
          <g id="Layer1399" transform="translate(2.799)">
            <path id="path17228" d="M-11385.667,1351.546h6.589v1.318h-.44v-.879h-5.71v.879h-.438v-1.318Z" transform="translate(11385.667 -1351.546)" fill="#a74eeb" fill-rule="evenodd"/>
            <path id="path17230" d="M-11385.667,1486.619h6.589V1485.3h-.44v.878h-5.71v-.878h-.438v1.318Z" transform="translate(11385.667 -1482.666)" fill="#a74eeb" fill-rule="evenodd"/>
          </g>
          <path id="path17233" d="M-11240.593,1593.7a.484.484,0,0,1,.484.483.484.484,0,0,1-.484.483.485.485,0,0,1-.483-.483A.485.485,0,0,1-11240.593,1593.7Zm0,.207a.278.278,0,0,1,.277.276.278.278,0,0,1-.277.276.278.278,0,0,1-.276-.276A.278.278,0,0,1-11240.593,1593.906Z" transform="translate(11246.725 -1588.928)" fill="#aa4fec" stroke="#a84eeb" stroke-width="0.1" fill-rule="evenodd"/>
          <path id="path17237" d="M-11218.17,1574.938c.136,0,.205.591-.013.615" transform="translate(11224.281 -1570.536)" fill="none" stroke="#a84eeb" stroke-width="0.1"/>
        </g>
        <path id="path17239" d="M-11218.4,1572.406c-.02.226,0,.451-.012.712" transform="translate(11224.504 -1568.054)" fill="none" stroke="#a84eeb" stroke-width="0.1"/>
        <path id="path17241" d="M-11337.4,1835.489a2.305,2.305,0,0,1,2.3,2.3,2.3,2.3,0,0,1-2.3,2.3,2.305,2.305,0,0,1-2.306-2.3A2.305,2.305,0,0,1-11337.4,1835.489Z" transform="translate(11343.415 -1825.953)" fill="#9e49e8" stroke="#fff" stroke-width="0.1" fill-rule="evenodd"/>
        <g id="Layer1400" transform="translate(6.365 11.042)">
          <path id="path17243" d="M-11179.366,1986.588a.871.871,0,0,1,.165-.228.745.745,0,0,1,.316-.1.556.556,0,0,1-.143.225A.834.834,0,0,1-11179.366,1986.588Z" transform="translate(11179.866 -1984.796)" fill="#fff" stroke="#9e49e8" stroke-width="0.1" fill-rule="evenodd"/>
          <g id="Layer1401" transform="translate(0 0)">
            <path id="path17245" d="M-11159.616,1912.495a.406.406,0,0,0,.177-.154.317.317,0,0,0-.022-.269.338.338,0,0,1-.042-.14.2.2,0,0,1-.066.116.283.283,0,0,0-.1.242C-11159.655,1912.375-11159.616,1912.495-11159.616,1912.495Z" transform="translate(11160.565 -1911.932)" fill="#fff" stroke="#9e49e8" stroke-width="0.1" fill-rule="evenodd"/>
            <path id="path17247" d="M-11165.588,1922.9a.83.83,0,0,0,.039-.278.751.751,0,0,0-.158-.292.578.578,0,0,0-.053.261A.833.833,0,0,0-11165.588,1922.9Z" transform="translate(11166.531 -1922.124)" fill="#fff" stroke="#9e49e8" stroke-width="0.1" fill-rule="evenodd"/>
            <path id="path17249" d="M-11166.479,1942.032a.874.874,0,0,0,.061-.275.739.739,0,0,0-.136-.3.572.572,0,0,0-.073.256A.831.831,0,0,0-11166.479,1942.032Z" transform="translate(11167.38 -1940.872)" fill="#fff" stroke="#9e49e8" stroke-width="0.1" fill-rule="evenodd"/>
            <path id="path17251" d="M-11170.972,1958.273a.87.87,0,0,0,.114-.257.748.748,0,0,0-.074-.324.563.563,0,0,0-.121.237A.832.832,0,0,0-11170.972,1958.273Z" transform="translate(11171.716 -1956.79)" fill="#fff" stroke="#9e49e8" stroke-width="0.1" fill-rule="evenodd"/>
            <path id="path17253" d="M-11179.367,1973.323a.836.836,0,0,0,.175-.22.733.733,0,0,0,.012-.332s-.15.108-.179.2A.842.842,0,0,0-11179.367,1973.323Z" transform="translate(11179.883 -1971.572)" fill="#fff" stroke="#9e49e8" stroke-width="0.1" fill-rule="evenodd"/>
            <path id="path17255" d="M-11190.236,1986.711a.851.851,0,0,0,.182-.214.748.748,0,0,0,.023-.332s-.154.1-.185.192A.823.823,0,0,0-11190.236,1986.711Z" transform="translate(11190.531 -1984.703)" fill="#fff" stroke="#9e49e8" stroke-width="0.1" fill-rule="evenodd"/>
            <path id="path17257" d="M-11203.35,1997.568a.859.859,0,0,0,.229-.161.735.735,0,0,0,.105-.315.563.563,0,0,0-.227.139A.836.836,0,0,0-11203.35,1997.568Z" transform="translate(11203.377 -1995.414)" fill="#fff" stroke="#9e49e8" stroke-width="0.1" fill-rule="evenodd"/>
            <path id="path17259" d="M-11156.253,1931.156a.859.859,0,0,1,.055-.276.745.745,0,0,1,.246-.223.58.58,0,0,1-.035.264A.841.841,0,0,1-11156.253,1931.156Z" transform="translate(11157.208 -1930.288)" fill="#fff" stroke="#9e49e8" stroke-width="0.1" fill-rule="evenodd"/>
            <path id="path17261" d="M-11158.808,1947.836a.884.884,0,0,1,.048-.277.754.754,0,0,1,.241-.229.569.569,0,0,1-.029.265A.834.834,0,0,1-11158.808,1947.836Z" transform="translate(11159.712 -1946.633)" fill="#fff" stroke="#9e49e8" stroke-width="0.1" fill-rule="evenodd"/>
            <path id="path17263" d="M-11167.139,1967.6a.843.843,0,0,1,.1-.262.738.738,0,0,1,.281-.177.577.577,0,0,1-.082.254A.844.844,0,0,1-11167.139,1967.6Z" transform="translate(11167.879 -1966.077)" fill="#fff" stroke="#9e49e8" stroke-width="0.1" fill-rule="evenodd"/>
            <path id="path17265" d="M-11190.6,2000.491a.855.855,0,0,1,.172-.221.751.751,0,0,1,.32-.088.552.552,0,0,1-.15.219A.834.834,0,0,1-11190.6,2000.491Z" transform="translate(11190.879 -1998.443)" fill="#fff" stroke="#9e49e8" stroke-width="0.1" fill-rule="evenodd"/>
            <path id="path17267" d="M-11204.7,2013.412a.862.862,0,0,1,.223-.171.754.754,0,0,1,.334-.005s-.111.149-.2.175A.838.838,0,0,1-11204.7,2013.412Z" transform="translate(11204.699 -2011.223)" fill="#fff" stroke="#9e49e8" stroke-width="0.1" fill-rule="evenodd"/>
          </g>
        </g>
        <g id="Layer1402" transform="translate(4.394 11.042)">
          <path id="path17271" d="M-11290.209,1986.588a.837.837,0,0,0-.164-.228.754.754,0,0,0-.318-.1.568.568,0,0,0,.145.225A.836.836,0,0,0-11290.209,1986.588Z" transform="translate(11290.968 -1984.796)" fill="#fff" stroke="#9e49e8" stroke-width="0.1" fill-rule="evenodd"/>
          <g id="Layer1403" transform="translate(0 0)">
            <path id="path17273" d="M-11298.952,1912.495a.405.405,0,0,1-.178-.154.317.317,0,0,1,.022-.269.324.324,0,0,0,.042-.14.2.2,0,0,0,.066.116.287.287,0,0,1,.105.242C-11298.914,1912.375-11298.952,1912.495-11298.952,1912.495Z" transform="translate(11299.26 -1911.932)" fill="#fff" stroke="#9e49e8" stroke-width="0.1" fill-rule="evenodd"/>
            <path id="path17275" d="M-11290.9,1922.9a.877.877,0,0,1-.04-.278.747.747,0,0,1,.159-.292.565.565,0,0,1,.053.261A.864.864,0,0,1-11290.9,1922.9Z" transform="translate(11291.217 -1922.124)" fill="#fff" stroke="#9e49e8" stroke-width="0.1" fill-rule="evenodd"/>
            <path id="path17277" d="M-11289.638,1942.032a.874.874,0,0,1-.061-.275.749.749,0,0,1,.137-.3.562.562,0,0,1,.072.256A.831.831,0,0,1-11289.638,1942.032Z" transform="translate(11289.994 -1940.872)" fill="#fff" stroke="#9e49e8" stroke-width="0.1" fill-rule="evenodd"/>
            <path id="path17279" d="M-11284.428,1958.273a.826.826,0,0,1-.113-.257.743.743,0,0,1,.072-.324.6.6,0,0,1,.123.237A.826.826,0,0,1-11284.428,1958.273Z" transform="translate(11284.94 -1956.79)" fill="#fff" stroke="#9e49e8" stroke-width="0.1" fill-rule="evenodd"/>
            <path id="path17281" d="M-11276.97,1973.323a.879.879,0,0,1-.175-.22.758.758,0,0,1-.011-.332s.151.108.178.2A.842.842,0,0,1-11276.97,1973.323Z" transform="translate(11277.712 -1971.572)" fill="#fff" stroke="#9e49e8" stroke-width="0.1" fill-rule="evenodd"/>
            <path id="path17283" d="M-11266.568,1986.711a.866.866,0,0,1-.184-.214.735.735,0,0,1-.021-.332s.152.1.184.192A.849.849,0,0,1-11266.568,1986.711Z" transform="translate(11267.531 -1984.703)" fill="#fff" stroke="#9e49e8" stroke-width="0.1" fill-rule="evenodd"/>
            <path id="path17285" d="M-11258.937,1997.568a.875.875,0,0,1-.23-.161.743.743,0,0,1-.1-.315.563.563,0,0,1,.227.139A.836.836,0,0,1-11258.937,1997.568Z" transform="translate(11260.167 -1995.414)" fill="#fff" stroke="#9e49e8" stroke-width="0.1" fill-rule="evenodd"/>
            <path id="path17287" d="M-11304.4,1931.156a.859.859,0,0,0-.055-.276.745.745,0,0,0-.247-.223.576.576,0,0,0,.037.264A.831.831,0,0,0-11304.4,1931.156Z" transform="translate(11304.701 -1930.288)" fill="#fff" stroke="#9e49e8" stroke-width="0.1" fill-rule="evenodd"/>
            <path id="path17289" d="M-11301.377,1947.836a.865.865,0,0,0-.049-.277.745.745,0,0,0-.24-.229.569.569,0,0,0,.029.265A.834.834,0,0,0-11301.377,1947.836Z" transform="translate(11301.729 -1946.633)" fill="#fff" stroke="#9e49e8" stroke-width="0.1" fill-rule="evenodd"/>
            <path id="path17291" d="M-11297.569,1967.6a.848.848,0,0,0-.1-.262.746.746,0,0,0-.282-.177.582.582,0,0,0,.083.254A.836.836,0,0,0-11297.569,1967.6Z" transform="translate(11298.086 -1966.077)" fill="#fff" stroke="#9e49e8" stroke-width="0.1" fill-rule="evenodd"/>
            <path id="path17293" d="M-11279.569,2000.491a.854.854,0,0,0-.174-.221.741.741,0,0,0-.32-.088.581.581,0,0,0,.151.219A.84.84,0,0,0-11279.569,2000.491Z" transform="translate(11280.548 -1998.443)" fill="#fff" stroke="#9e49e8" stroke-width="0.1" fill-rule="evenodd"/>
            <path id="path17295" d="M-11268.53,2013.412a.862.862,0,0,0-.223-.171.75.75,0,0,0-.333-.005s.111.149.2.175A.842.842,0,0,0-11268.53,2013.412Z" transform="translate(11269.788 -2011.223)" fill="#fff" stroke="#9e49e8" stroke-width="0.1" fill-rule="evenodd"/>
          </g>
        </g>
        <path id="path17299" d="M-11327.015,1846.084a2.1,2.1,0,0,1,2.1,2.1,2.1,2.1,0,0,1-2.1,2.1,2.1,2.1,0,0,1-2.1-2.1A2.1,2.1,0,0,1-11327.015,1846.084Z" transform="translate(11333.024 -1836.34)" fill="none"/>
        <path id="path17301" d="M-11309.364,1864.09a1.74,1.74,0,0,1,1.74,1.741,1.74,1.74,0,0,1-1.74,1.741,1.741,1.741,0,0,1-1.741-1.741A1.741,1.741,0,0,1-11309.364,1864.09Z" transform="translate(11315.373 -1853.991)" fill="none"/>
        <path id="path17311" d="M-11282.255,1899.482l-.081.023c.225.656.451,1.311.675,1.967l.093-.035c-.084-.271-.17-.543-.256-.815a1.311,1.311,0,0,1,.769-.058.419.419,0,0,0,.384,0,.831.831,0,0,1,.547-.035.558.558,0,0,0-.149-.361c-.189-.206-.13-.411-.117-.617-.21-.035-.326.054-.489.043a1.052,1.052,0,0,1-.431-.078c-.266-.062-.379-.042-.467.047a1.313,1.313,0,0,1-.417,0C-11282.215,1899.536-11282.234,1899.509-11282.255,1899.482Z" transform="translate(11287.344 -1889.238)" fill="#fff" fill-rule="evenodd"/>
        <path id="path17313" d="M-11247.842,1906.775l.011-.233.153.233.312-.035-.219.128.139.151-.269-.058-.129.186-.01-.21-.244-.14Z" transform="translate(11253.844 -1896.106)" fill="#9d48e7" fill-rule="evenodd"/>
        <path id="path17315" d="M-11358.213,1382.28h5.5v2.731h-5.5Zm.167,2.5h5.162v.08h-5.162Zm0-.26h5.162v.081h-5.162Zm0-.26h5.162v.08h-5.162Zm0-.26h5.162v.08h-5.162Zm0-.26h5.162v.081h-5.162Zm0-.26h5.162v.081h-5.162Zm0-.259h5.162v.08h-5.162Zm0-.26h5.162v.08h-5.162Zm0-.26h5.162v.08h-5.162Zm0-.26h5.162v.08h-5.162Z" transform="translate(11361.554 -1381.674)" fill="#fff" fill-rule="evenodd"/>
        <path id="path17317" d="M-11357.034,1386.371h5.342v2.562h-5.342Z" transform="translate(11360.397 -1385.685)" fill="#fff" fill-rule="evenodd"/>
      </g>
    </g>
  </g>
</svg>
