<svg xmlns="http://www.w3.org/2000/svg" xmlns:xlink="http://www.w3.org/1999/xlink" width="24" height="24" viewBox="0 0 24 24">
  <defs>
    <clipPath id="clip-path">
      <rect id="d90ae6b922288618e048f6f93f6f04c3" width="24" height="24" rx="8" transform="translate(762 269)" fill="#636366"/>
    </clipPath>
  </defs>
  <g id="Mask_Group_24208" data-name="Mask Group 24208" transform="translate(-762 -269)" clip-path="url(#clip-path)">
    <g id="gallery-add" transform="translate(760.604 267.604)">
      <path id="Path_78301" data-name="Path 78301" d="M10.047,12a3.07,3.07,0,1,1,3.07-3.07A3.068,3.068,0,0,1,10.047,12Zm0-4.465a1.4,1.4,0,1,0,1.4,1.4A1.4,1.4,0,0,0,10.047,7.535Z" fill="#636366"/>
      <path id="Path_78302" data-name="Path 78302" d="M16.744,25.4h-6.7c-6.061,0-8.651-2.59-8.651-8.651v-6.7C1.4,3.985,3.985,1.4,10.047,1.4h4.465a.837.837,0,0,1,0,1.674H10.047C4.9,3.07,3.07,4.9,3.07,10.047v6.7c0,5.146,1.831,6.977,6.977,6.977h6.7c5.146,0,6.977-1.831,6.977-6.977V11.163a.837.837,0,1,1,1.674,0v5.581C25.4,22.806,22.806,25.4,16.744,25.4Z" fill="#636366"/>
      <path id="Path_78303" data-name="Path 78303" d="M23.721,6.419h-6.14a.837.837,0,1,1,0-1.674h6.14a.837.837,0,0,1,0,1.674Z" fill="#636366"/>
      <path id="Path_78304" data-name="Path 78304" d="M20.651,9.488a.843.843,0,0,1-.837-.837V2.512a.837.837,0,1,1,1.674,0v6.14A.843.843,0,0,1,20.651,9.488Z" fill="#636366"/>
      <path id="Path_78305" data-name="Path 78305" d="M2.98,21.991a.838.838,0,0,1-.469-1.529l5.5-3.695a3.353,3.353,0,0,1,3.963.212l.368.324a1.645,1.645,0,0,0,2.054,0l4.644-3.985a3.333,3.333,0,0,1,4.242,0l1.82,1.563a.839.839,0,1,1-1.094,1.273l-1.82-1.563a1.645,1.645,0,0,0-2.054,0l-4.644,3.985a3.333,3.333,0,0,1-4.242,0l-.368-.324a1.66,1.66,0,0,0-1.931-.089L3.46,21.857a.977.977,0,0,1-.48.134Z" fill="#636366"/>
    </g>
  </g>
</svg>
