<svg width="16" height="16" viewBox="0 0 16 16" fill="none" xmlns="http://www.w3.org/2000/svg">
<path d="M9.76661 4.77078L12.4999 4.76692C12.5 4.76692 12.5 4.76692 12.5001 4.76692C12.7829 4.76696 13.0542 4.87934 13.2542 5.07934C13.4542 5.27938 13.5666 5.55069 13.5666 5.83359V12.1703C13.5666 12.4532 13.4542 12.7245 13.2542 12.9245C13.0541 13.1245 12.7828 13.2369 12.4999 13.2369H3.49994C2.91117 13.2369 2.43327 12.759 2.43327 12.1703V5.83359C2.43327 5.83359 2.43327 5.83359 2.43327 5.83359C2.43328 5.56589 2.53395 5.30799 2.71529 5.11107C2.89617 4.91464 3.14414 4.79322 3.41018 4.77075L3.50195 4.76693L6.23327 4.77078V5.33439C6.23327 5.75745 6.57596 6.10055 6.99902 6.10106L8.99902 6.10346C9.4228 6.10396 9.76661 5.76057 9.76661 5.33679V4.77078ZM8.5666 3.4335V3.57092V3.67092V3.77092V4.57092V4.67092V4.77092V4.90426H7.43327V4.77092V4.67092V4.57092V3.77092V3.67092V3.57092V3.4335H8.5666ZM6.23327 3.57078L3.50008 3.56692V3.56688L3.49722 3.56696L3.37455 3.57029L3.37455 3.57025L3.37161 3.57042C2.79357 3.6032 2.24999 3.85592 1.85237 4.27676C1.45475 4.69759 1.23323 5.25462 1.23327 5.83359C1.23327 5.83359 1.23327 5.83359 1.23327 5.8336V12.1703C1.23327 12.4679 1.2919 12.7627 1.40581 13.0377C1.51972 13.3127 1.68668 13.5626 1.89716 13.773C2.10764 13.9835 2.35752 14.1505 2.63252 14.2644C2.90753 14.3783 3.20227 14.4369 3.49994 14.4369H12.4999C12.7976 14.4369 13.0923 14.3783 13.3674 14.2644C13.6424 14.1505 13.8922 13.9835 14.1027 13.773C14.3132 13.5626 14.4802 13.3127 14.5941 13.0377C14.708 12.7627 14.7666 12.4679 14.7666 12.1703V5.83359C14.7666 5.53593 14.708 5.24118 14.5941 4.96617C14.4802 4.69117 14.3132 4.44129 14.1027 4.23081C13.8922 4.02033 13.6424 3.85337 13.3674 3.73946C13.0923 3.62555 12.7976 3.56692 12.4999 3.56692L12.4998 3.56692L9.76661 3.57078V2.99856C9.76661 2.57586 9.42448 2.23291 9.00178 2.2319L8.00018 2.2295L7.9997 2.2295L6.9981 2.2319C6.5754 2.23291 6.23327 2.57586 6.23327 2.99856V3.57078Z" fill="#D9251B" stroke="#D9251B" stroke-width="0.2"/>
<path d="M10.6666 13.6192V12.8573C10.6666 12.4532 10.5061 12.0656 10.2203 11.7798C9.93452 11.494 9.54693 11.3335 9.14279 11.3335H6.85708C6.45294 11.3335 6.06535 11.494 5.77958 11.7798C5.49381 12.0656 5.33327 12.4532 5.33327 12.8573V13.6192" stroke="#D9251B" stroke-width="1.2" stroke-linecap="round" stroke-linejoin="round"/>
<path d="M7.99994 10.0002C8.73632 10.0002 9.33327 9.40321 9.33327 8.66683C9.33327 7.93045 8.73632 7.3335 7.99994 7.3335C7.26356 7.3335 6.66661 7.93045 6.66661 8.66683C6.66661 9.40321 7.26356 10.0002 7.99994 10.0002Z" stroke="#D9251B" stroke-width="1.2" stroke-linecap="round" stroke-linejoin="round"/>
</svg>
