<svg xmlns="http://www.w3.org/2000/svg" xmlns:xlink="http://www.w3.org/1999/xlink" width="20" height="20" viewBox="0 0 20 20">
  <defs>
    <clipPath id="clip-path">
      <rect id="Rectangle_15627" data-name="Rectangle 15627" width="20" height="20" fill="#313949" stroke="#707070" stroke-width="1"/>
    </clipPath>
  </defs>
  <g id="Mask_Group_24367" data-name="Mask Group 24367" clip-path="url(#clip-path)">
    <g id="profile-2user" transform="translate(0.008 0.745)">
      <path id="Path_82846" data-name="Path 82846" d="M9.466,10.886H9.389a.555.555,0,0,0-.174,0A4.859,4.859,0,0,1,4.293,6.152,4.894,4.894,0,0,1,9.311,1.408,4.894,4.894,0,0,1,14.33,6.152,4.858,4.858,0,0,1,9.5,10.886ZM9.311,2.779A3.484,3.484,0,0,0,5.743,6.152,3.441,3.441,0,0,0,9.176,9.515a1.7,1.7,0,0,1,.309,0,3.458,3.458,0,0,0,3.394-3.363A3.484,3.484,0,0,0,9.311,2.779Z" transform="translate(-2.156 -1.408)" fill="#313949"/>
      <path id="Path_82847" data-name="Path 82847" d="M18.483,11.43a.282.282,0,0,1-.087-.009.759.759,0,0,1-.841-.6.674.674,0,0,1,.6-.759c.116-.009.242-.009.348-.009a2.576,2.576,0,0,0,2.514-2.513,2.588,2.588,0,0,0-2.659-2.513.738.738,0,0,1-.512-.195.658.658,0,0,1-.213-.481.711.711,0,0,1,.725-.685,4.011,4.011,0,0,1,4.109,3.884,3.982,3.982,0,0,1-3.955,3.884Z" transform="translate(-4.037 -1.834)" fill="#313949"/>
      <path id="Path_82848" data-name="Path 82848" d="M9.122,23.256a9.969,9.969,0,0,1-5.241-1.371A3.893,3.893,0,0,1,1.8,18.641a3.932,3.932,0,0,1,2.079-3.263,10.75,10.75,0,0,1,10.482,0,3.914,3.914,0,0,1,2.079,3.244,3.932,3.932,0,0,1-2.079,3.263A9.993,9.993,0,0,1,9.122,23.256ZM4.684,16.53a2.616,2.616,0,0,0-1.431,2.12,2.611,2.611,0,0,0,1.431,2.1,9.176,9.176,0,0,0,8.876,0,2.616,2.616,0,0,0,1.431-2.12,2.611,2.611,0,0,0-1.431-2.1A9.225,9.225,0,0,0,4.684,16.53Z" transform="translate(-1.803 -3.789)" fill="#313949"/>
      <path id="Path_82849" data-name="Path 82849" d="M20.546,21.782a.705.705,0,0,1-.706-.548.7.7,0,0,1,.561-.813,4.031,4.031,0,0,0,1.605-.667,1.768,1.768,0,0,0,.851-1.407,1.752,1.752,0,0,0-.841-1.4,4.165,4.165,0,0,0-1.586-.667.691.691,0,0,1-.551-.823.733.733,0,0,1,.87-.521,5.549,5.549,0,0,1,2.147.914,3.1,3.1,0,0,1,1.412,2.5,3.137,3.137,0,0,1-1.421,2.5,5.39,5.39,0,0,1-2.185.914.477.477,0,0,1-.155.018Z" transform="translate(-4.359 -3.961)" fill="#313949"/>
    </g>
  </g>
</svg>
