<svg xmlns="http://www.w3.org/2000/svg" width="20" height="20" viewBox="0 0 20 20">
  <g id="vuesax_outline_add-circle" data-name="vuesax/outline/add-circle" transform="translate(-108 -252)">
    <g id="add-circle" transform="translate(108 252)">
      <path id="Vector" d="M8.75,17.5A8.75,8.75,0,1,1,17.5,8.75,8.757,8.757,0,0,1,8.75,17.5Zm0-16.279A7.529,7.529,0,1,0,16.279,8.75,7.538,7.538,0,0,0,8.75,1.221Z" transform="translate(1.25 1.25)" fill="#fff"/>
      <path id="Vector-2" data-name="Vector" d="M8.75,1.5h-8A.755.755,0,0,1,0,.75.755.755,0,0,1,.75,0h8A.755.755,0,0,1,9.5.75.755.755,0,0,1,8.75,1.5Z" transform="translate(5.25 9.25)" fill="#fff"/>
      <path id="Vector-3" data-name="Vector" d="M.75,9.5A.755.755,0,0,1,0,8.75v-8A.755.755,0,0,1,.75,0,.755.755,0,0,1,1.5.75v8A.755.755,0,0,1,.75,9.5Z" transform="translate(9.25 5.25)" fill="#fff"/>
      <path id="Vector-4" data-name="Vector" d="M0,0H20V20H0Z" fill="none" opacity="0"/>
    </g>
  </g>
</svg>
