<svg id="Component_63_4" data-name="Component 63 – 4" xmlns="http://www.w3.org/2000/svg" xmlns:xlink="http://www.w3.org/1999/xlink" width="100" height="100" viewBox="0 0 100 100">
  <defs>
    <linearGradient id="linear-gradient" x1="0.5" x2="0.5" y2="1" gradientUnits="objectBoundingBox">
      <stop offset="0" stop-color="#5e2682"/>
      <stop offset="1" stop-color="#8f62b1"/>
    </linearGradient>
    <clipPath id="clip-path">
      <rect id="Rectangle_10648" data-name="Rectangle 10648" width="52" height="52" fill="#fff"/>
    </clipPath>
  </defs>
  <rect id="Rectangle_10599" data-name="Rectangle 10599" width="100" height="100" rx="24" fill="url(#linear-gradient)"/>
  <g id="Mask_Group_1336" data-name="Mask Group 1336" transform="translate(24 24)" clip-path="url(#clip-path)">
    <g id="web" transform="translate(-0.5)">
      <g id="Layer_2" data-name="Layer 2">
        <g id="Layer_1" data-name="Layer 1">
          <g id="web-2" data-name="web">
            <path id="Path_57367" data-name="Path 57367" d="M42.746,52H9.254A9.263,9.263,0,0,1,0,42.746V9.254A9.263,9.263,0,0,1,9.254,0H42.746A9.263,9.263,0,0,1,52,9.254V42.746A9.263,9.263,0,0,1,42.746,52ZM9.254,4.407A4.856,4.856,0,0,0,4.407,9.254V42.746a4.856,4.856,0,0,0,4.847,4.847H42.746a4.856,4.856,0,0,0,4.847-4.847V9.254a4.856,4.856,0,0,0-4.847-4.847Z" fill="#fff"/>
            <path id="Path_57368" data-name="Path 57368" d="M49.8,18.508H2.2a2.2,2.2,0,1,1,0-4.407H49.8a2.2,2.2,0,0,1,0,4.407Z" fill="#fff"/>
            <path id="Path_57369" data-name="Path 57369" d="M21.373,11.784H19.61a2.2,2.2,0,0,1,0-4.407h1.763a2.2,2.2,0,1,1,0,4.407Z" fill="#fff"/>
            <path id="Path_57370" data-name="Path 57370" d="M11.678,11.784H9.915a2.2,2.2,0,1,1,0-4.407h1.763a2.2,2.2,0,1,1,0,4.407Z" fill="#fff"/>
          </g>
        </g>
      </g>
    </g>
  </g>
</svg>
