<svg xmlns="http://www.w3.org/2000/svg" width="120" height="120" viewBox="0 0 120 120">
  <g id="Group_43662" data-name="Group 43662" transform="translate(-687 -1636)">
    <rect id="Rectangle_13778" data-name="Rectangle 13778" width="120" height="120" rx="24" transform="translate(687 1636)" fill="#fec136"/>
    <path id="Path_85451" data-name="Path 85451" d="M198.915,159.074a3.776,3.776,0,0,0-3.248-2.6l-20.526-1.866-8.114-18.988a3.776,3.776,0,0,0-6.95,0l-8.114,18.988-20.526,1.866a3.784,3.784,0,0,0-2.146,6.612l15.517,13.6-4.577,20.147a3.775,3.775,0,0,0,5.622,4.083l17.7-10.58,17.694,10.58a3.778,3.778,0,0,0,5.622-4.083l-4.577-20.147,15.517-13.607A3.774,3.774,0,0,0,198.915,159.074Zm0,0" transform="translate(583.447 1528.605)" fill="#fff"/>
  </g>
</svg>
