<svg id="Component_1141_2" data-name="Component 1141 – 2" xmlns="http://www.w3.org/2000/svg" xmlns:xlink="http://www.w3.org/1999/xlink" width="28" height="28" viewBox="0 0 28 28">
  <defs>
    <clipPath id="clip-path">
      <rect id="Rectangle_16161" data-name="Rectangle 16161" width="28" height="28" transform="translate(1612 10975)" fill="#fff" stroke="#707070" stroke-width="1"/>
    </clipPath>
  </defs>
  <g id="Mask_Group_24483" data-name="Mask Group 24483" transform="translate(-1612 -10975)" clip-path="url(#clip-path)">
    <g id="Group_42660" data-name="Group 42660" transform="translate(1612.707 10972.823)">
      <path id="Path_84882" data-name="Path 84882" d="M26.273,25.488,22.7,21.773a.392.392,0,0,0-.517-.041l-.683-.713a6.031,6.031,0,0,0-.662-7.474q-.185-.191-.387-.363a10.426,10.426,0,0,0-1.309-3.559,10.2,10.2,0,0,0-8.634-5.086q-.091-.006-.183-.006h-.022c-.067,0-.128,0-.169.006h-.022A10.219,10.219,0,0,0,1.483,9.622a10.716,10.716,0,0,0,0,10.869,10.205,10.205,0,0,0,8.637,5.09c.063.005.13.005.2.005h.007A10.083,10.083,0,0,0,16.333,23.6c.121.008.242.018.363.018a5.715,5.715,0,0,0,3.315-1.065l.665.691a.412.412,0,0,0,.031.526l3.568,3.716a1.078,1.078,0,0,0,1.547.016l.437-.436a1.133,1.133,0,0,0,.015-1.579Zm-5.91-4.33a3.847,3.847,0,0,0-7.338,0,5.183,5.183,0,0,1-.712-5.933.1.1,0,0,0,.005-.009,5.121,5.121,0,0,1,.874-1.169,4.938,4.938,0,0,1,7.076.072A5.187,5.187,0,0,1,20.363,21.158Zm-18.3-1.291a9.8,9.8,0,0,1-1.24-4.4H4.882a18.967,18.967,0,0,0,.584,4.4Zm0-9.619h3.4a18.983,18.983,0,0,0-.584,4.4H.82a9.769,9.769,0,0,1,1.242-4.4Zm9.655,4.4h-1v-4.4h3.6a16.625,16.625,0,0,1,.4,1.878,5.753,5.753,0,0,0-2.093,1.335,5.911,5.911,0,0,0-.911,1.186Zm-.405.822a6.035,6.035,0,0,0-.023,4.4h-.57v-4.4Zm-.592-6.044V5.392c1.318.255,2.564,1.754,3.357,4.033ZM9.913,5.392V9.426H6.556C7.348,7.144,8.593,5.645,9.913,5.392Zm0,4.856v4.4H5.694a17.943,17.943,0,0,1,.616-4.4ZM5.694,15.47H9.913v4.4H6.31a17.894,17.894,0,0,1-.616-4.4Zm4.219,5.22v4.036c-1.32-.253-2.566-1.751-3.356-4.036Zm.806,4.034V20.689h.967a5.957,5.957,0,0,0,.86,1.156,5.758,5.758,0,0,0,.725.631A4.11,4.11,0,0,1,10.719,24.723ZM15.508,11.9q-.132-.833-.343-1.651h3.4a9.541,9.541,0,0,1,.922,2.25,5.728,5.728,0,0,0-3.978-.6Zm2.546-2.473H14.925A9.3,9.3,0,0,0,12.831,5.7,9.427,9.427,0,0,1,18.054,9.426ZM7.795,5.7A9.281,9.281,0,0,0,5.708,9.426H2.575A9.432,9.432,0,0,1,7.795,5.7ZM2.572,20.69H5.708A9.277,9.277,0,0,0,7.8,24.42a9.44,9.44,0,0,1-5.225-3.73Zm10.27,3.722a7.085,7.085,0,0,0,1.113-1.488,5.727,5.727,0,0,0,1.2.482,9.267,9.267,0,0,1-2.316,1.006Zm3.8-1.61a4.9,4.9,0,0,1-2.95-1.026,3.053,3.053,0,0,1,6,0,4.892,4.892,0,0,1-3,1.025h-.052Zm4.117-.872c.084-.084.16-.175.237-.263l.606.632-.363.362-.6-.624C20.68,22,20.722,21.968,20.761,21.93Zm4.933,4.55-.437.437a.283.283,0,0,1-.407,0l-3.286-3.422.848-.848L25.7,26.064a.3.3,0,0,1,0,.416Z" transform="translate(0)" fill="#eef2f4" stroke="#eef2f4" stroke-width="1"/>
      <path id="Path_84883" data-name="Path 84883" d="M37.89,28.4a1.691,1.691,0,1,0,1.691,1.691A1.693,1.693,0,0,0,37.89,28.4Zm0,2.561a.869.869,0,1,1,.869-.87A.87.87,0,0,1,37.89,30.957Z" transform="translate(-21.206 -13.748)" fill="#eef2f4" stroke="#eef2f4" stroke-width="1"/>
    </g>
  </g>
</svg>
