<svg id="Component_1109_7" data-name="Component 1109 – 7" xmlns="http://www.w3.org/2000/svg" xmlns:xlink="http://www.w3.org/1999/xlink" width="28" height="28" viewBox="0 0 28 28">
  <defs>
    <clipPath id="clip-path">
      <rect id="Rectangle_15366" data-name="Rectangle 15366" width="28" height="28" fill="#eef2f4" stroke="#fff" stroke-width="1"/>
    </clipPath>
  </defs>
  <g id="Mask_Group_24224" data-name="Mask Group 24224" clip-path="url(#clip-path)">
    <g id="medal-star" transform="translate(0 0.136)">
      <path id="Path_78349" data-name="Path 78349" d="M15.592,21.764a8.519,8.519,0,0,1-1.533-.13,10.059,10.059,0,1,1,3.027.013,9.052,9.052,0,0,1-1.494.117Zm0-18.191A8.107,8.107,0,0,0,14.358,19.7a6.862,6.862,0,0,0,2.417,0A8.106,8.106,0,0,0,15.592,3.573Z" transform="translate(-1.592 -1.624)" fill="#eef2f4"/>
      <path id="Path_78350" data-name="Path 78350" d="M8.407,29.352a2.488,2.488,0,0,1-.533-.065A2.243,2.243,0,0,1,6.185,27.6l-.455-1.91a.339.339,0,0,0-.247-.247l-2.144-.507a2.261,2.261,0,0,1-1.663-1.585,2.294,2.294,0,0,1,.585-2.235l5.067-5.067a.964.964,0,0,1,1.494.143A8.14,8.14,0,0,0,14.371,19.7a6.862,6.862,0,0,0,2.417,0,8.136,8.136,0,0,0,5.574-3.508.952.952,0,0,1,.715-.429.979.979,0,0,1,.78.286l5.067,5.067a2.294,2.294,0,0,1,.585,2.235,2.261,2.261,0,0,1-1.663,1.585l-2.144.507a.34.34,0,0,0-.247.247L25,27.6a2.269,2.269,0,0,1-3.95.936l-5.457-6.276-5.457,6.289A2.253,2.253,0,0,1,8.407,29.352ZM7.913,18.23,3.638,22.5a.3.3,0,0,0-.078.325.289.289,0,0,0,.234.221l2.144.507a2.243,2.243,0,0,1,1.689,1.689l.455,1.91a.333.333,0,0,0,.247.247.327.327,0,0,0,.325-.1l4.976-5.73A10.093,10.093,0,0,1,7.913,18.23Zm9.641,3.326,4.976,5.717a.309.309,0,0,0,.338.117.329.329,0,0,0,.247-.247l.455-1.91a2.243,2.243,0,0,1,1.689-1.689l2.144-.507a.327.327,0,0,0,.156-.546l-4.275-4.275a10.126,10.126,0,0,1-5.73,3.339Z" transform="translate(-1.592 -1.624)" fill="#eef2f4"/>
      <path id="Path_78351" data-name="Path 78351" d="M18.049,16.748a2.363,2.363,0,0,1-1.221-.377l-1.234-.741-1.234.728a1.849,1.849,0,0,1-2.144.091,1.83,1.83,0,0,1-.559-2.066l.312-1.338-1.039-.962a1.869,1.869,0,0,1-.585-1.884A1.841,1.841,0,0,1,11.916,9l1.39-.234.663-1.455a1.859,1.859,0,0,1,1.624-1.156,1.859,1.859,0,0,1,1.624,1.169l.767,1.533,1.286.156a1.875,1.875,0,0,1,1.572,1.2,1.869,1.869,0,0,1-.585,1.884L19.18,13.175l.338,1.208a1.83,1.83,0,0,1-.559,2.066A1.447,1.447,0,0,1,18.049,16.748ZM12.488,10.9l.9.9a1.925,1.925,0,0,1,.494,1.689l-.247,1.039,1.039-.611a1.893,1.893,0,0,1,1.858,0l1.039.611-.234-1.039a1.907,1.907,0,0,1,.481-1.689l.9-.9-1.13-.195a1.933,1.933,0,0,1-1.338-.987l-.65-1.273-.65,1.3a1.919,1.919,0,0,1-1.325.987l-1.13.169Z" transform="translate(-1.592 -1.624)" fill="#eef2f4"/>
    </g>
  </g>
</svg>
