<svg id="Component_1114_23" data-name="Component 1114 – 23" xmlns="http://www.w3.org/2000/svg" xmlns:xlink="http://www.w3.org/1999/xlink" width="28" height="28" viewBox="0 0 28 28">
  <defs>
    <clipPath id="clip-path">
      <rect id="Rectangle_15979" data-name="Rectangle 15979" width="28" height="28" transform="translate(1567 7335)" fill="#eef2f4" stroke="#eef2f4" stroke-width="0.8"/>
    </clipPath>
  </defs>
  <g id="Mask_Group_24429" data-name="Mask Group 24429" transform="translate(-1567 -7335)" clip-path="url(#clip-path)">
    <g id="Group_41702" data-name="Group 41702" transform="translate(-0.457 0.314)">
      <g id="Group_41701" data-name="Group 41701" transform="translate(1569.68 7334.686)">
        <g id="Group_41699" data-name="Group 41699" transform="translate(0 4.476)">
          <path id="Path_83455" data-name="Path 83455" d="M1518.989,7362.713l2.129,2.325v11.215a2.129,2.129,0,0,0,.453.986,6.537,6.537,0,0,0,1.387,1.294c.7.483,1.128.685,1.337,1.475a48.6,48.6,0,0,1,0,5.543h-1.684v-5.543a2.759,2.759,0,0,0-.842-1.019c-.661-.538-1.044-.43-1.8-1.135a3.131,3.131,0,0,1-.885-1.6C1519.014,7375.785,1518.989,7362.713,1518.989,7362.713Z" transform="translate(-1518.989 -7362.713)" fill="#fff"/>
          <path id="Path_83456" data-name="Path 83456" d="M1519.3,7376.142l1.769,1.688.269,8.86a2.131,2.131,0,0,0,.452.986,6.548,6.548,0,0,0,1.387,1.294c.7.483,1.128.684,1.337,1.475a48.59,48.59,0,0,1,0,5.542h-1.684v-5.542a2.752,2.752,0,0,0-.842-1.019c-.661-.538-1.044-.43-1.8-1.135a3.13,3.13,0,0,1-.885-1.6C1519.23,7386.222,1519.3,7376.142,1519.3,7376.142Z" transform="translate(-1516.309 -7373.15)" fill="#fff"/>
          <path id="Path_83457" data-name="Path 83457" d="M1519.3,7387.879l2.038,1.928v6.006a2.128,2.128,0,0,0,.452.986,6.522,6.522,0,0,0,1.387,1.294c.7.483,1.128.685,1.337,1.475a48.589,48.589,0,0,1,0,5.542h-1.684v-5.542a2.753,2.753,0,0,0-.842-1.019c-.661-.538-1.044-.431-1.8-1.135a3.13,3.13,0,0,1-.885-1.6C1519.23,7395.345,1519.3,7387.879,1519.3,7387.879Z" transform="translate(-1513.413 -7382.273)" fill="#fff"/>
        </g>
        <g id="Group_41700" data-name="Group 41700" transform="translate(12.365 4.476)">
          <path id="Path_83458" data-name="Path 83458" d="M1524.387,7362.713l-2.129,2.325v11.215a2.131,2.131,0,0,1-.452.986,6.537,6.537,0,0,1-1.387,1.294c-.7.483-1.128.685-1.337,1.475a48.6,48.6,0,0,0,0,5.543h1.684v-5.543a2.759,2.759,0,0,1,.842-1.019c.661-.538,1.044-.43,1.8-1.135a3.13,3.13,0,0,0,.884-1.6C1524.361,7375.785,1524.387,7362.713,1524.387,7362.713Z" transform="translate(-1513.197 -7362.713)" fill="#fff"/>
          <path id="Path_83459" data-name="Path 83459" d="M1524.573,7376.142l-1.769,1.688-.269,8.86a2.128,2.128,0,0,1-.452.986,6.548,6.548,0,0,1-1.387,1.294c-.7.483-1.128.684-1.336,1.475a48.59,48.59,0,0,0,0,5.542h1.684v-5.542a2.755,2.755,0,0,1,.842-1.019c.661-.538,1.044-.43,1.8-1.135a3.13,3.13,0,0,0,.885-1.6C1524.639,7386.222,1524.573,7376.142,1524.573,7376.142Z" transform="translate(-1516.371 -7373.15)" fill="#fff"/>
          <path id="Path_83460" data-name="Path 83460" d="M1524.573,7387.879l-2.038,1.928v6.006a2.125,2.125,0,0,1-.452.986,6.522,6.522,0,0,1-1.387,1.294c-.7.483-1.128.685-1.336,1.475a48.589,48.589,0,0,0,0,5.542h1.684v-5.542a2.756,2.756,0,0,1,.842-1.019c.661-.538,1.044-.431,1.8-1.135a3.13,3.13,0,0,0,.885-1.6C1524.639,7395.345,1524.573,7387.879,1524.573,7387.879Z" transform="translate(-1519.266 -7382.273)" fill="#fff"/>
        </g>
        <path id="path17751" d="M-9795.689-597.934l-2.326,1.686.891,2.74-2.328-1.691-2.331,1.691.892-2.74-2.322-1.686h2.872l.89-2.738.887,2.738Z" transform="translate(9811.816 601.671)" fill="#fff" fill-rule="evenodd"/>
      </g>
    </g>
  </g>
</svg>
