<svg id="Component_1117_2" data-name="Component 1117 – 2" xmlns="http://www.w3.org/2000/svg" xmlns:xlink="http://www.w3.org/1999/xlink" width="28" height="28" viewBox="0 0 28 28">
  <defs>
    <clipPath id="clip-path">
      <rect id="Rectangle_15273" data-name="Rectangle 15273" width="28" height="28" transform="translate(0 0)" fill="#eef2f4" stroke="#eef2f4" stroke-width="1.8"/>
    </clipPath>
  </defs>
  <g id="Mask_Group_24232" data-name="Mask Group 24232" clip-path="url(#clip-path)">
    <g id="Group_36084" data-name="Group 36084" transform="translate(0 4)">
      <path id="Path_78381" data-name="Path 78381" d="M13232.084,2892.393h8.328" transform="translate(-13222.676 -2875.097)" fill="none" stroke="#eef2f4" stroke-linecap="round" stroke-width="1.8"/>
      <g id="Group_36082" data-name="Group 36082">
        <path id="Path_78378" data-name="Path 78378" d="M13183.7,2785.194a2.342,2.342,0,0,0,2.446,1.121c1.713-.279,3.5-3.2,5.417-3.364a4.666,4.666,0,0,1,2.981.611" transform="translate(-13180.973 -2780.746)" fill="none" stroke="#eef2f4" stroke-linecap="round" stroke-linejoin="round" stroke-width="1.8"/>
        <path id="Path_78379" data-name="Path 78379" d="M13177.546,2813.592l3.013-5.962,3.137,5.962" transform="translate(-13175.667 -2802.037)" fill="none" stroke="#eef2f4" stroke-linecap="round" stroke-linejoin="round" stroke-width="1.8"/>
        <g id="Path_78380" data-name="Path 78380" transform="translate(1.063 -4.871)" fill="none">
          <path d="M8.877,17.18c.033,1.473-2.185,4.243-4.892,4.243S-1.063,19.438-1.063,17.3,8.844,15.707,8.877,17.18Z" stroke="none"/>
          <path d="M 3.47248363494873 17.6839656829834 C 2.217707633972168 17.6839656829834 1.383810520172119 17.80880165100098 0.896486759185791 17.9285888671875 C 1.041482448577881 18.22402191162109 1.280092716217041 18.51814842224121 1.591793537139893 18.77561569213867 C 2.243293762207031 19.31377601623535 3.115403652191162 19.6224250793457 3.984513521194458 19.6224250793457 C 4.679983615875244 19.6224250793457 5.45737361907959 19.26636505126953 6.117373466491699 18.64554595947266 C 6.360626697540283 18.4167308807373 6.549742698669434 18.18935394287109 6.693368434906006 17.98375129699707 C 5.957692623138428 17.82833480834961 4.832688331604004 17.6839656829834 3.47248363494873 17.6839656829834 M 3.472486972808838 15.88396453857422 C 6.085280418395996 15.88396453857422 8.859125137329102 16.40130615234375 8.876503944396973 17.17957496643066 C 8.909403800964355 18.65250587463379 6.691343784332275 21.42242431640625 3.984513521194458 21.42242431640625 C 1.277673721313477 21.42242431640625 -1.0634765625 19.43810653686523 -1.0634765625 17.30313491821289 C -1.0634765625 16.29624938964844 1.140379905700684 15.88396453857422 3.472486972808838 15.88396453857422 Z" stroke="none" fill="#eef2f4"/>
        </g>
        <path id="Path_78382" data-name="Path 78382" d="M13262.261,2767.117v17.246" transform="translate(-13248.687 -2767.117)" fill="none" stroke="#eef2f4" stroke-width="1.8"/>
      </g>
      <g id="Group_36083" data-name="Group 36083" transform="translate(13.575)">
        <path id="Path_78378-2" data-name="Path 78378" d="M13194.547,2785.194a2.345,2.345,0,0,1-2.449,1.121c-1.71-.279-3.494-3.2-5.415-3.364a4.656,4.656,0,0,0-2.98.611" transform="translate(-13183.702 -2780.746)" fill="none" stroke="#eef2f4" stroke-linecap="round" stroke-linejoin="round" stroke-width="1.8"/>
        <path id="Path_78379-2" data-name="Path 78379" d="M13183.7,2813.592l-3.014-5.962-3.135,5.962" transform="translate(-13172.001 -2802.037)" fill="none" stroke="#eef2f4" stroke-linecap="round" stroke-linejoin="round" stroke-width="1.8"/>
        <g id="Path_78380-2" data-name="Path 78380" transform="translate(4.698 -4.871)" fill="none">
          <path d="M-1.063,17.18c-.033,1.473,2.185,4.243,4.892,4.243S8.877,19.438,8.877,17.3-1.03,15.707-1.063,17.18Z" stroke="none"/>
          <path d="M 4.340607166290283 17.6839656829834 C 2.980526447296143 17.6839656829834 1.855645179748535 17.82832527160645 1.120016574859619 17.98374366760254 C 1.263642311096191 18.18934631347656 1.45276403427124 18.4167308807373 1.696017265319824 18.64554595947266 C 2.356007099151611 19.26636505126953 3.133407115936279 19.6224250793457 3.828877210617065 19.6224250793457 C 4.697987079620361 19.6224250793457 5.570096969604492 19.31377601623535 6.221597194671631 18.77561569213867 C 6.533298015594482 18.51814842224121 6.771903038024902 18.22403335571289 6.916898250579834 17.92859840393066 C 6.429562091827393 17.80881500244141 5.59563684463501 17.68398475646973 4.340746879577637 17.6839656829834 L 4.340607166290283 17.6839656829834 M 4.340903282165527 15.88396453857422 C 6.67301082611084 15.88399696350098 8.876867294311523 16.29624938964844 8.876867294311523 17.30313491821289 C 8.876867294311523 19.43810653686523 6.535717010498047 21.42242431640625 3.828877210617065 21.42242431640625 C 1.122036933898926 21.42242431640625 -1.096013069152832 18.65250587463379 -1.063113212585449 17.17957496643066 C -1.045734405517578 16.40130615234375 1.728110790252686 15.88392639160156 4.340903282165527 15.88396453857422 Z" stroke="none" fill="#eef2f4"/>
        </g>
        <path id="Path_78382-2" data-name="Path 78382" d="M13262.261,2767.117v17.246" transform="translate(-13262.261 -2767.117)" fill="none" stroke="#eef2f4" stroke-width="1.8"/>
      </g>
      <path id="Path_78383" data-name="Path 78383" d="M13203.635,2909.1h15.606" transform="translate(-13198.154 -2889.5)" fill="none" stroke="#eef2f4" stroke-linecap="round" stroke-width="1.8"/>
    </g>
  </g>
</svg>
