<svg xmlns="http://www.w3.org/2000/svg" width="28.492" height="28.507" viewBox="0 0 28.492 28.507">
  <g id="Component_1134_2" data-name="Component 1134 – 2" transform="translate(0.253 0.25)">
    <path id="Path_84838" data-name="Path 84838" d="M20.658,14.662A4.664,4.664,0,1,0,25.322,10,4.669,4.669,0,0,0,20.658,14.662Zm8.4,0a3.732,3.732,0,1,1-3.732-3.73A3.735,3.735,0,0,1,29.054,14.662ZM6.664,19.325A4.662,4.662,0,1,0,2,14.662,4.669,4.669,0,0,0,6.664,19.325Zm0-8.392a3.73,3.73,0,1,1-3.732,3.73A3.735,3.735,0,0,1,6.664,10.932Z" transform="translate(-2 -6.271)" fill="#eef2f4" stroke="#eef2f4" stroke-width="0.5"/>
    <path id="Path_84839" data-name="Path 84839" d="M6.932,11.993v1.865a.466.466,0,0,0,.466.466h2.8a.466.466,0,0,0,.466-.466V11.993h.466a.467.467,0,0,0,.291-.83L9.088,9.3a.467.467,0,0,0-.583,0L6.175,11.163a.466.466,0,0,0,.291.83Zm2.8,1.4H7.865v-1.4H9.73ZM8.8,10.26l1,.8h-2ZM18.122,9.2a.467.467,0,0,1-.466-.466h-.932a1.4,1.4,0,0,0,.932,1.313v.552h.932v-.552a1.4,1.4,0,0,0-.466-2.712.466.466,0,1,1,.466-.466h.932a1.4,1.4,0,0,0-.932-1.313V5h-.932v.552a1.4,1.4,0,0,0,.466,2.712.467.467,0,0,1,0,.932Z" transform="translate(-4.135 -3.602)" fill="#eef2f4"/>
    <path id="Path_84840" data-name="Path 84840" d="M15.993,10.4a4.2,4.2,0,1,0-4.2-4.2A4.2,4.2,0,0,0,15.993,10.4Zm0-7.463A3.265,3.265,0,1,1,12.728,6.2,3.269,3.269,0,0,1,15.993,2.933Zm7.929,5.131V9H22.99a.466.466,0,0,0-.466.466v1.866a.466.466,0,0,0,.466.466h.933v.933a.466.466,0,0,0,.466.466h1.866a.466.466,0,0,0,.466-.466V11.8h.933a.466.466,0,0,0,.466-.466V9.463A.466.466,0,0,0,27.654,9h-.933V8.064a.466.466,0,0,0-.466-.466H24.389A.466.466,0,0,0,23.923,8.064Zm.933,1.4V8.53h.933v.933a.466.466,0,0,0,.466.466h.933v.933h-.933a.466.466,0,0,0-.466.466v.933h-.933v-.933a.466.466,0,0,0-.466-.466h-.933V9.929h.933A.466.466,0,0,0,24.855,9.463ZM29.963,21.29a1.347,1.347,0,0,0-2.347-.628l-.139.161.032-.191a1.18,1.18,0,0,0-2.308-.479l-.319,1.275-1.2,2.393-.763.255.21-.364a1.34,1.34,0,0,0-2.293-1.373q-.846,1.194-1.689,2.388h0c-.991,1.394-.918,3-.848,4.543.011.244.022.488.029.731l.933-.026c-.007-.248-.018-.5-.029-.748-.066-1.454-.128-2.828.677-3.961L21.6,22.877a.409.409,0,0,1,.333-.172.4.4,0,0,1,.347.193.392.392,0,0,1,.031.371l-1,1.729a1.4,1.4,0,0,0-.188.7v.556h.933V25.7a.465.465,0,0,1,.063-.233l.1-.172,2.106-.7.015.007.007-.015,1.271-.424a1.4,1.4,0,0,0,.571-.4l2.134-2.49a.416.416,0,0,1,.545-.076.414.414,0,0,1,.109.583l-2.684,3.835a.477.477,0,0,1-.074.083L24.373,27.31c-.124.108-.266.219-.417.336-.715.559-1.6,1.254-1.529,2.3l.93-.067c-.039-.545.605-1.049,1.174-1.494.164-.128.32-.251.456-.369l1.849-1.617a1.363,1.363,0,0,0,.224-.25l2.683-3.833a1.339,1.339,0,0,0,.22-1.022ZM25.48,23.153a.453.453,0,0,1-.173.126l-.37.124.8-1.6a.461.461,0,0,0,.035-.1l.331-1.325a.247.247,0,0,1,.483.1L26.3,22.193ZM4.926,26.144a1.4,1.4,0,0,0,.225.252L7,28.012c.135.118.292.241.456.369.569.445,1.214.948,1.174,1.494l.93.067c.075-1.041-.815-1.737-1.529-2.3-.15-.117-.293-.229-.417-.336L5.767,25.7a.478.478,0,0,1-.076-.084L3.008,21.777a.414.414,0,0,1,.109-.582.416.416,0,0,1,.545.075L5.8,23.759a1.409,1.409,0,0,0,.588.406l1.255.419.007.014.014-.007,2.106.7.1.172a.466.466,0,0,1,.063.233v.556h.933V25.7a1.408,1.408,0,0,0-.188-.7l-.986-1.7a.407.407,0,0,1,.7-.417l1.69,2.389c.805,1.133.743,2.506.676,3.96-.011.25-.023.5-.029.748l.933.026c.007-.243.018-.486.029-.731.07-1.548.143-3.148-.84-4.531l-1.7-2.4a1.34,1.34,0,0,0-2.279,1.4l.2.339L8.3,23.821,7.1,21.428l-.319-1.276a1.18,1.18,0,0,0-2.308.48l.032.191-.139-.161A1.349,1.349,0,0,0,2.6,20.418a1.347,1.347,0,0,0-.356,1.894ZM5.4,20.479a.247.247,0,0,1,.484-.1L6.212,21.7a.488.488,0,0,0,.035.1l.8,1.6L6.7,23.285a.464.464,0,0,1-.19-.133l-.822-.959Zm7.331,2.511h6.53a.466.466,0,0,0,.466-.466V19.258a3.268,3.268,0,0,0-1.941-2.982,2.8,2.8,0,1,0-3.58,0,3.268,3.268,0,0,0-1.941,2.982v3.265A.466.466,0,0,0,12.728,22.99Zm3.265-5.275.422,1.055-.422.844-.422-.844Zm0-1.722a1.862,1.862,0,0,1-1.853-1.741,3.2,3.2,0,0,1,3.706,0A1.862,1.862,0,0,1,15.993,15.993Zm0-3.732A1.857,1.857,0,0,1,17.467,13a4.17,4.17,0,0,0-2.949,0A1.857,1.857,0,0,1,15.993,12.262Zm-2.8,7a2.328,2.328,0,0,1,2.1-2.309l-.667,1.669a.468.468,0,0,0,.016.382l.933,1.866a.466.466,0,0,0,.834,0L17.343,19a.466.466,0,0,0,.016-.382l-.667-1.669a2.328,2.328,0,0,1,2.1,2.309v2.8h-5.6Z" transform="translate(-2 -2)" fill="#eef2f4" stroke="#eef2f4" stroke-width="0.5"/>
  </g>
</svg>
