<svg xmlns="http://www.w3.org/2000/svg" width="28.378" height="28.717" viewBox="0 0 28.378 28.717">
  <g id="Component_1140_2" data-name="Component 1140 – 2" transform="translate(0.35 0.358)">
    <path id="Path_84880" data-name="Path 84880" d="M35.455,68.115l-2.9-1.681V64.367a.447.447,0,0,0-.446-.448h-9.74l.016-3.291a.447.447,0,0,0-.444-.451h0a.447.447,0,0,0-.446.446l-.016,3.3H11.692a.447.447,0,0,0-.446.448v2.238h-2.8A.447.447,0,0,0,8,67.054v6.52a.447.447,0,0,0,.446.448h6.491a.447.447,0,0,0,.446-.448v-6.52a.447.447,0,0,0-.446-.448h-2.8v-1.79h9.333l-.007,1.455a4.05,4.05,0,1,0,.893,0l.007-1.452h9.3v1.618l-2.9,1.681a.449.449,0,0,0-.223.388v3.622a.449.449,0,0,0,.223.388l3.122,1.811a.445.445,0,0,0,.446,0l3.122-1.811a.449.449,0,0,0,.223-.388V68.5a.449.449,0,0,0-.223-.388ZM14.491,73.126h-5.6V67.5h5.6Zm10.588-2.812a3.159,3.159,0,1,1-3.159-3.173A3.17,3.17,0,0,1,25.079,70.314Zm9.707,1.552-2.676,1.552-2.676-1.552v-3.1l2.676-1.552,2.676,1.552Z" transform="translate(-8 -46.384)" fill="#eef2f4" stroke="#eef2f4" stroke-width="0.7"/>
    <g id="Group_42659" data-name="Group 42659" transform="translate(6.566)">
      <path id="Path_84881" data-name="Path 84881" d="M14.061,21.818a.485.485,0,0,0,.485-.485v-.97a.485.485,0,0,0-.244-.421L7.513,16.064a.484.484,0,0,0-.481,0L.244,19.943A.485.485,0,0,0,0,20.364v.97a.485.485,0,0,0,.485.485H.97v4.849a.971.971,0,0,0-.97.97v1.455a.485.485,0,0,0,.485.485H14.061a.485.485,0,0,0,.485-.485V27.636a.971.971,0,0,0-.97-.97V21.818Zm-.485,6.788H.97v-.97H13.576ZM1.939,26.667V21.818h.97v4.849Zm1.939,0V21.818H5.818v4.849Zm2.909,0V21.818h.97v4.849Zm1.939,0V21.818h1.939v4.849Zm2.909,0V21.818h.97v4.849ZM.97,20.848v-.2l6.3-3.6,6.3,3.6v.2Z" transform="translate(0 -16)" fill="#eef2f4" stroke="#eef2f4" stroke-width="0.7"/>
    </g>
  </g>
</svg>
