<svg xmlns="http://www.w3.org/2000/svg" width="29.03" height="28.834" viewBox="0 0 29.03 28.834">
  <g id="Component_1143_5" data-name="Component 1143 – 5" transform="translate(0.516 0.431)">
    <path id="Path_85004" data-name="Path 85004" d="M2.8,25.667H7.129A5.591,5.591,0,0,0,11.668,28h4.667a5.591,5.591,0,0,0,4.54-2.333H25.2a1.4,1.4,0,0,0,1.4-1.4V11.14a1.867,1.867,0,0,0,.511-3.4L23.335,5.417V2.332A.934.934,0,0,0,22.4,1.4H20.535a.934.934,0,0,0-.933.933V3.12L14.98.275a1.858,1.858,0,0,0-1.956,0L.889,7.742A1.862,1.862,0,0,0,1.4,11.135V24.266a1.4,1.4,0,0,0,1.4,1.4Zm13.534,1.4H11.668A4.672,4.672,0,0,1,7,22.4c0-4.878,5.012-7.178,5.693-7.467h2.615C15.99,15.222,21,17.522,21,22.4A4.672,4.672,0,0,1,16.335,27.067Zm-.89-14.934h-2.97a5.147,5.147,0,0,0-1.85-2.366,2.97,2.97,0,0,1,1.511-.434,3.134,3.134,0,0,1,2,.8.467.467,0,0,0,.538.088A4.363,4.363,0,0,1,16.335,9.8a1.9,1.9,0,0,1,1.012.255,2.942,2.942,0,0,0-1.9,2.079Zm.89.933a.467.467,0,0,1,0,.933H11.668a.467.467,0,1,1,0-.933ZM25.2,24.733H21.42a5.554,5.554,0,0,0,.516-2.333,8.315,8.315,0,0,0-3.2-6.424,12.568,12.568,0,0,0-1.729-1.223,1.391,1.391,0,0,0-.6-2.613,2.443,2.443,0,0,1,1.656-1.354.67.67,0,0,0,.3-1.083,2.633,2.633,0,0,0-2.032-.836,5.034,5.034,0,0,0-1.787.388A4.015,4.015,0,0,0,12.135,8.4a4.007,4.007,0,0,0-2.389.836.668.668,0,0,0,.054,1.1,4.541,4.541,0,0,1,1.677,1.816,1.39,1.39,0,0,0-.481,2.6,12.568,12.568,0,0,0-1.729,1.223,8.315,8.315,0,0,0-3.2,6.424,5.561,5.561,0,0,0,.516,2.333H2.8a.467.467,0,0,1-.467-.467V11.13a1.844,1.844,0,0,0,.512-.208L14,4.057l11.155,6.865a1.869,1.869,0,0,0,.512.216V24.266A.467.467,0,0,1,25.2,24.733Zm-4.667-22.4H22.4V4.843L20.535,3.694V2.332ZM1.073,9.821a.936.936,0,0,1,.306-1.284L13.512,1.07a.933.933,0,0,1,.979,0L26.625,8.537a.935.935,0,0,1,.306,1.285.954.954,0,0,1-1.284.305l-11.4-7.015a.467.467,0,0,0-.489,0l-11.4,7.015a.936.936,0,0,1-1.285-.305Z" transform="translate(-0.002 0.003)" fill="#eef2f4" stroke="#eef2f4" stroke-width="0.8"/>
    <path id="Path_85005" data-name="Path 85005" d="M27.791,41.372V39.458a1.39,1.39,0,0,1,.778.455.465.465,0,0,0,.737-.568,2.36,2.36,0,0,0-1.515-.839v-.04a.465.465,0,1,0-.93,0V38.5A2.024,2.024,0,0,0,25,40.327c0,1.087.96,1.479,1.861,1.746v1.914a1.39,1.39,0,0,1-.778-.455.465.465,0,0,0-.737.568,2.36,2.36,0,0,0,1.515.839v.04a.465.465,0,0,0,.93,0v-.038a2.024,2.024,0,0,0,1.861-1.823C29.652,42.031,28.692,41.639,27.791,41.372ZM25.93,40.327c0-.4.4-.74.93-.871V41.1C26.273,40.9,25.93,40.7,25.93,40.327Zm1.861,3.663V42.348c.588.195.93.4.93.77C28.722,43.514,28.326,43.858,27.791,43.989Z" transform="translate(-13.326 -20.232)" fill="#eef2f4" stroke="#eef2f4" stroke-width="0.8"/>
  </g>
</svg>
