<svg xmlns="http://www.w3.org/2000/svg" width="29.75" height="28.471" viewBox="0 0 29.75 28.471">
  <g id="Component_1143_6" data-name="Component 1143 – 6" transform="translate(0.881 0.85)">
    <g id="Group_42769" data-name="Group 42769">
      <g id="Group_42759" data-name="Group 42759" transform="translate(0 0)">
        <g id="Group_42746" data-name="Group 42746" transform="translate(8.173)">
          <path id="Path_84919" data-name="Path 84919" d="M24.4,26.031V24.7a3.927,3.927,0,0,1-3.1,1.807A3.927,3.927,0,0,1,18.2,24.7v1.331l.137.1A4.911,4.911,0,0,0,21.3,27.172a4.811,4.811,0,0,0,2.963-1.046Z" transform="translate(-15.497 -12.17)" fill="none" stroke="#eef2f4" stroke-width="1.7"/>
          <path id="Path_84920" data-name="Path 84920" d="M13.106,7.953c.137.547.547.912.866.821.046,0,.091-.046.137-.046.729,1.96,2.188,3.647,3.921,3.647s3.191-1.687,3.921-3.647a.167.167,0,0,0,.137.046c.319.091.729-.274.866-.821s0-1.049-.319-1.14h-.182V6.586c-.775.821-2.325,1.277-4.377,1.277s-3.6-.456-4.377-1.277v.228h-.182c-.41.046-.593.593-.41,1.14Zm0-4.058h.046a12.715,12.715,0,0,1,4.833-.866,12.754,12.754,0,0,1,4.833.821l.091.046.821-1.322C24.185,1.844,23,.613,23,.613s-2.428-2.09-4.924-2.09S13.015.613,13.015.613s-1.185,1.231-.729,1.96Z" transform="translate(-12.181 1.476)" fill="none" stroke="#eef2f4" stroke-width="1.7"/>
          <path id="Path_84921" data-name="Path 84921" d="M24.1,9.267a10.445,10.445,0,0,0-9.3,0l.137,1.266h8.982ZM19.45,13.51c2.188,0,4.058-.823,4.422-2.406H15.028C15.393,12.687,17.262,13.51,19.45,13.51Z" transform="translate(-13.647 -3.179)" fill="none" stroke="#eef2f4" stroke-width="1.7"/>
        </g>
        <path id="Path_84954" data-name="Path 84954" d="M-2169.338,368.7s-7.116-1.173-5.5-4.947,1.582-3.523,5.082-4.964a29.186,29.186,0,0,1,5.567-1.865c.387-.06.895,1.185,3.081,1.185s2.839-1.266,3.229-1.185a34.729,34.729,0,0,1,7.04,2.462c3.149,1.558,3.019,3.1,3.442,4.367s.594,2.759-.559,3.326-8.417,3.083-12.9,2.83A54.135,54.135,0,0,1-2169.338,368.7Z" transform="translate(2175.076 -343.154)" fill="none" stroke="#eef2f4" stroke-width="1.7"/>
      </g>
    </g>
  </g>
</svg>
