<svg id="Component_1138_1" data-name="Component 1138 – 1" xmlns="http://www.w3.org/2000/svg" xmlns:xlink="http://www.w3.org/1999/xlink" width="28" height="28" viewBox="0 0 28 28">
  <defs>
    <clipPath id="clip-path">
      <rect id="Rectangle_16157" data-name="Rectangle 16157" width="28" height="28" transform="translate(312 176)" fill="#fff" stroke="#eef2f4" stroke-width="1.5"/>
    </clipPath>
  </defs>
  <g id="Mask_Group_24481" data-name="Mask Group 24481" transform="translate(-312 -176)" clip-path="url(#clip-path)">
    <g id="Group_42657" data-name="Group 42657" transform="translate(0.052 0.453)">
      <path id="Path_84872" data-name="Path 84872" d="M2080.216,12269.781s-3.053-2.506-2.074-5.742,4.894-2.914,6.5-2.906,4.982,0,4.982,0a1.042,1.042,0,0,1-.374.926,1,1,0,0,1-.832.221,3.474,3.474,0,0,1,.728,0c.053.051.015.9-.349,1.088s-.378.15-.378.15.4.01.452,0,.107.863-.452,1.045-.414.121-.414.121.632-.049.582,0-.143.873-.582,1.135-7.288.219-7.288.219a9.194,9.194,0,0,1,.16,2.363A2.241,2.241,0,0,1,2080.216,12269.781Z" transform="translate(-1765 -12079.482)" fill="none" stroke="#eef2f4" stroke-width="1.5"/>
      <path id="Path_84873" data-name="Path 84873" d="M2.268,8.661S-.785,6.156.194,2.919,5.088,0,6.689.012s4.982,0,4.982,0A1.043,1.043,0,0,1,11.3.939a1,1,0,0,1-.832.22,3.482,3.482,0,0,1,.728,0c.053.051.015.9-.349,1.089s-.378.149-.378.149.4.011.452,0,.107.864-.452,1.046-.414.12-.414.12.632-.049.582,0-.143.873-.582,1.136-7.288.218-7.288.218a9.2,9.2,0,0,1,.16,2.365A2.239,2.239,0,0,1,2.268,8.661Z" transform="translate(313.748 198.047) rotate(-76)" fill="none" stroke="#eef2f4" stroke-width="1.5"/>
      <path id="Path_84874" data-name="Path 84874" d="M2.268,8.661S-.785,6.156.194,2.919,5.088,0,6.689.012s4.982,0,4.982,0A1.043,1.043,0,0,1,11.3.939a1,1,0,0,1-.832.22,3.482,3.482,0,0,1,.728,0c.053.051.015.9-.349,1.089s-.378.149-.378.149.4.011.452,0,.107.864-.452,1.046-.414.12-.414.12.632-.049.582,0-.143.873-.582,1.136-7.288.218-7.288.218a9.2,9.2,0,0,1,.16,2.365A2.239,2.239,0,0,1,2.268,8.661Z" transform="matrix(-0.755, -0.656, 0.656, -0.755, 329.487, 202.945)" fill="none" stroke="#eef2f4" stroke-width="1.5"/>
      <path id="Path_84875" data-name="Path 84875" d="M2.268,8.661S-.785,6.156.194,2.919,5.088,0,6.689.012s4.982,0,4.982,0A1.043,1.043,0,0,1,11.3.939a1,1,0,0,1-.832.22,3.482,3.482,0,0,1,.728,0c.053.051.015.9-.349,1.089s-.378.149-.378.149.4.011.452,0,.107.864-.452,1.046-.414.12-.414.12.632-.049.582,0-.143.873-.582,1.136-7.288.218-7.288.218a9.2,9.2,0,0,1,.16,2.365A2.239,2.239,0,0,1,2.268,8.661Z" transform="translate(340.192 188.692) rotate(143)" fill="none" stroke="#eef2f4" stroke-width="1.5"/>
      <path id="Path_84876" data-name="Path 84876" d="M2.268,8.661S-.785,6.156.194,2.919,5.088,0,6.689.012s4.982,0,4.982,0A1.043,1.043,0,0,1,11.3.939a1,1,0,0,1-.832.22,3.482,3.482,0,0,1,.728,0c.053.051.015.9-.349,1.089s-.378.149-.378.149.4.011.452,0,.107.864-.452,1.046-.414.12-.414.12.632-.049.582,0-.143.873-.582,1.136-7.288.218-7.288.218a9.2,9.2,0,0,1,.16,2.365A2.239,2.239,0,0,1,2.268,8.661Z" transform="translate(329.738 175.548) rotate(69)" fill="none" stroke="#eef2f4" stroke-width="1.5"/>
    </g>
  </g>
</svg>
