<svg xmlns="http://www.w3.org/2000/svg" xmlns:xlink="http://www.w3.org/1999/xlink" width="28" height="28" viewBox="0 0 28 28">
  <defs>
    <clipPath id="clip-path">
      <rect id="Rectangle_16151" data-name="Rectangle 16151" width="28" height="28" transform="translate(1703 11234)" fill="#fff" stroke="#707070" stroke-width="1"/>
    </clipPath>
    <clipPath id="clip-path-2">
      <path id="Path_84868" data-name="Path 84868" d="M1.186,1.436H8.254s6,0,6.783.509c4.176,2.69,5.269,5.513,2.851,10.252a9.55,9.55,0,0,1-2.39,3.385c-1.784,1.755-4.973,3.693-7.916,3.35-4.591-.535-8.691-5.51-8.691-5.51a24.011,24.011,0,0,1-.917-6.058C-2.025,4.334,1.186,1.436,1.186,1.436Z" transform="translate(2.025 0.311)" fill="#fff"/>
    </clipPath>
  </defs>
  <g id="Mask_Group_24478" data-name="Mask Group 24478" transform="translate(-1703 -11234)" clip-path="url(#clip-path)">
    <g id="Component_1136_2" data-name="Component 1136 – 2" transform="translate(1705.256 11234.873)">
      <g id="Group_42648" data-name="Group 42648" transform="translate(0 14.706)">
        <path id="Path_84835" data-name="Path 84835" d="M36.528,73.12a1.911,1.911,0,0,0-2.543-.077l-3.907,3a2.862,2.862,0,0,1-.729.4,1.832,1.832,0,0,0-1.633-2.669H23.074A4.317,4.317,0,0,0,20.136,72.2a3.8,3.8,0,0,0-2.064.4V71.1a.4.4,0,0,0-.4-.4H14.438a.4.4,0,0,0-.4.4V81.627a.4.4,0,0,0,.4.4h3.229a.4.4,0,0,0,.4-.4v-.839l6.589,1.3A7.937,7.937,0,0,0,31.4,80.316l5.06-4.339a1.92,1.92,0,0,0,.064-2.857Zm-19.264,8.1h-2.42V71.5h2.42Zm18.673-5.859L30.876,79.7a7.133,7.133,0,0,1-6.058,1.593l-6.746-1.332v-6.4a2.931,2.931,0,0,1,2-.551,3.573,3.573,0,0,1,2.5,1.421.4.4,0,0,0,.314.15h4.831a1.024,1.024,0,0,1,0,2.048H22.884a.4.4,0,0,0,0,.809h5.443a3.709,3.709,0,0,0,2.242-.758l3.922-3.008a1.112,1.112,0,1,1,1.444,1.692Z" transform="translate(-14.034 -70.695)" stroke="#eef2f4" stroke-width="1"/>
      </g>
      <g id="Mask_Group_24476" data-name="Mask Group 24476" transform="translate(2.309 -1.747)" clip-path="url(#clip-path-2)">
        <g id="Group_42655" data-name="Group 42655" transform="translate(-2.728 3.602)">
          <path id="Path_84863" data-name="Path 84863" d="M264.609,188.868l1.8-4.825a1.265,1.265,0,0,1,1.384-.868,1.2,1.2,0,0,1,1.021,1.376l-1.65,6.635a8.566,8.566,0,0,1-3,4.441l-2.852,2.04v1.2a.521.521,0,0,1-.521.521H256.01v-3.024a6.06,6.06,0,0,1,2.961-5.433l3.912-2.511a1.2,1.2,0,0,1,1.513,1.83l-2.635,2.078" transform="translate(-243.149 -174.493)" fill="none" stroke="#eef2f4" stroke-linecap="round" stroke-linejoin="round" stroke-miterlimit="10" stroke-width="1.7"/>
          <path id="Path_84864" data-name="Path 84864" d="M17.062,183.053l-2.635-2.078a1.2,1.2,0,0,1,1.513-1.83l3.912,2.511a6.06,6.06,0,0,1,2.961,5.433v3.024H18.032a.521.521,0,0,1-.521-.521v-1.2l-2.852-2.04a8.565,8.565,0,0,1-3-4.441l-1.651-6.635a1.2,1.2,0,0,1,1.021-1.376,1.265,1.265,0,0,1,1.384.868l1.8,4.825m10.986-.854H19.792a.521.521,0,0,1-.521-.521V175.42a2.048,2.048,0,0,1,2.048-2.048h3.008a2.048,2.048,0,0,1,2.048,2.048v2.795a.521.521,0,0,1-.521.521H25.2" transform="translate(-10 -165.215)" fill="none" stroke="#eef2f4" stroke-linecap="round" stroke-linejoin="round" stroke-miterlimit="10" stroke-width="1.7"/>
          <circle id="Ellipse_2352" data-name="Ellipse 2352" cx="2.417" cy="2.417" r="2.417" transform="translate(10.421 3.294)" fill="none" stroke="#eef2f4" stroke-linecap="round" stroke-linejoin="round" stroke-miterlimit="10" stroke-width="1.7"/>
          <path id="Path_84865" data-name="Path 84865" d="M303.737,110.181h3.126a2.048,2.048,0,0,1,2.048,2.048v2.76a.555.555,0,0,1-.555.555H304.8" transform="translate(-288.404 -105.34)" fill="none" stroke="#eef2f4" stroke-linecap="round" stroke-linejoin="round" stroke-miterlimit="10" stroke-width="1.7"/>
          <circle id="Ellipse_2353" data-name="Ellipse 2353" cx="2.417" cy="2.417" r="2.417" transform="translate(14.537)" fill="none" stroke="#eef2f4" stroke-linecap="round" stroke-linejoin="round" stroke-miterlimit="10" stroke-width="1.7"/>
          <path id="Path_84866" data-name="Path 84866" d="M113.126,115.544h-3.557a.555.555,0,0,1-.555-.555v-2.76a2.048,2.048,0,0,1,2.048-2.048h3.2" transform="translate(-103.844 -105.34)" fill="none" stroke="#eef2f4" stroke-linecap="round" stroke-linejoin="round" stroke-miterlimit="10" stroke-width="1.7"/>
          <circle id="Ellipse_2354" data-name="Ellipse 2354" cx="2.417" cy="2.417" r="2.417" transform="translate(6.305)" fill="none" stroke="#eef2f4" stroke-linecap="round" stroke-linejoin="round" stroke-miterlimit="10" stroke-width="1.7"/>
          <path id="Path_84867" data-name="Path 84867" d="M256,276.273h0" transform="translate(-243.162 -262.766)" fill="none" stroke="#eef2f4" stroke-linecap="round" stroke-linejoin="round" stroke-miterlimit="10" stroke-width="1.7"/>
        </g>
      </g>
    </g>
  </g>
</svg>
