<svg id="Component_1142_15" data-name="Component 1142 – 15" xmlns="http://www.w3.org/2000/svg" xmlns:xlink="http://www.w3.org/1999/xlink" width="28" height="28" viewBox="0 0 28 28">
  <defs>
    <clipPath id="clip-path">
      <rect id="Rectangle_16246" data-name="Rectangle 16246" width="28" height="28" transform="translate(1711 13494)" fill="#eef2f4" stroke="#eef2f4" stroke-width="1"/>
    </clipPath>
    <clipPath id="clip-path-2">
      <path id="Path_84998" data-name="Path 84998" d="M5.636,1.367C2.914,1.241-.6,6.95-.6,6.95v6.473a2.641,2.641,0,0,0,.663,1.342,2.726,2.726,0,0,0,1.417.53h6.66a10.437,10.437,0,0,1,.242-3.8A9.041,9.041,0,0,1,9.477,9.365c.186-.348-.16-2.5,0-3.275A3.964,3.964,0,0,0,5.636,1.367Z" transform="translate(0.599 -1.365)" fill="#eef2f4"/>
    </clipPath>
  </defs>
  <g id="Mask_Group_24489" data-name="Mask Group 24489" transform="translate(-1711 -13494)" clip-path="url(#clip-path)">
    <g id="Group_42819" data-name="Group 42819" transform="translate(49.992 -40.858)">
      <g id="user-friends" transform="translate(1669.179 13542.853)">
        <path id="Path_82844" data-name="Path 82844" d="M14.626,8.226A2.925,2.925,0,1,0,11.7,5.3,2.926,2.926,0,0,0,14.626,8.226Zm0-4.875a1.95,1.95,0,1,1-1.95,1.95A1.952,1.952,0,0,1,14.626,3.35ZM5.851,8.226A3.413,3.413,0,1,0,2.438,4.813,3.411,3.411,0,0,0,5.851,8.226Zm0-5.851A2.438,2.438,0,1,1,3.413,4.813,2.441,2.441,0,0,1,5.851,2.375Zm2.441,6.46c-1.018,0-1.271.366-2.441.366S4.427,8.835,3.41,8.835A3.358,3.358,0,0,0,.6,10.264,3.492,3.492,0,0,0,0,12.223v1.365a1.463,1.463,0,0,0,1.463,1.463h8.776A1.463,1.463,0,0,0,11.7,13.589V12.223a3.492,3.492,0,0,0-.6-1.959A3.358,3.358,0,0,0,8.291,8.835Zm2.435,4.754a.489.489,0,0,1-.488.488H1.463a.489.489,0,0,1-.488-.488V12.223A2.532,2.532,0,0,1,1.4,10.81a2.385,2.385,0,0,1,2-1c.835,0,1.134.366,2.444.366S7.459,9.81,8.291,9.81a2.385,2.385,0,0,1,2,1,2.532,2.532,0,0,1,.43,1.414v1.365ZM19,10.087A2.8,2.8,0,0,0,16.662,8.9c-.847,0-1.06.3-2.035.3s-1.188-.3-2.035-.3a2.972,2.972,0,0,0-1.161.247,2.938,2.938,0,0,1,.616.811,2,2,0,0,1,.545-.079,20.314,20.314,0,0,0,2.035.3,20.313,20.313,0,0,0,2.035-.3,1.826,1.826,0,0,1,1.536.762,1.939,1.939,0,0,1,.332,1.088v1.134a.244.244,0,0,1-.244.244h-5.61a4.372,4.372,0,0,1-.049.975h5.655A1.219,1.219,0,0,0,19.5,12.857V11.721A2.911,2.911,0,0,0,19,10.087Z" transform="translate(0 -1.4)" fill="#eef2f4" stroke="#eef2f4" stroke-width="0.5"/>
      </g>
      <g id="Mask_Group_24488" data-name="Mask Group 24488" transform="translate(1660.008 13542.711)" clip-path="url(#clip-path-2)">
        <g id="user-friends-2" data-name="user-friends" transform="translate(1.334 0.234)">
          <path id="Path_82844-2" data-name="Path 82844" d="M4.875,8.226A2.925,2.925,0,1,1,7.8,5.3,2.926,2.926,0,0,1,4.875,8.226Zm0-4.875A1.95,1.95,0,1,0,6.826,5.3,1.952,1.952,0,0,0,4.875,3.35Zm8.776,4.875a3.413,3.413,0,1,1,3.413-3.413A3.411,3.411,0,0,1,13.651,8.226Zm0-5.851a2.438,2.438,0,1,0,2.438,2.438A2.441,2.441,0,0,0,13.651,2.375ZM11.21,8.835c1.018,0,1.271.366,2.441.366s1.423-.366,2.441-.366A3.358,3.358,0,0,1,18.9,10.264a3.492,3.492,0,0,1,.6,1.959v1.365a1.463,1.463,0,0,1-1.463,1.463H9.263A1.463,1.463,0,0,1,7.8,13.589V12.223a3.492,3.492,0,0,1,.6-1.959A3.358,3.358,0,0,1,11.21,8.835ZM8.776,13.589a.489.489,0,0,0,.488.488h8.776a.489.489,0,0,0,.488-.488V12.223a2.532,2.532,0,0,0-.43-1.414,2.385,2.385,0,0,0-2-1c-.835,0-1.134.366-2.444.366S12.042,9.81,11.21,9.81a2.385,2.385,0,0,0-2,1,2.532,2.532,0,0,0-.43,1.414v1.365ZM.5,10.087A2.8,2.8,0,0,1,2.84,8.9c.847,0,1.06.3,2.035.3s1.188-.3,2.035-.3a2.972,2.972,0,0,1,1.161.247,2.938,2.938,0,0,0-.616.811,2,2,0,0,0-.545-.079,20.314,20.314,0,0,1-2.035.3,20.314,20.314,0,0,1-2.035-.3,1.826,1.826,0,0,0-1.536.762,1.939,1.939,0,0,0-.332,1.088v1.134a.244.244,0,0,0,.244.244h5.61a4.371,4.371,0,0,0,.049.975H1.219A1.219,1.219,0,0,1,0,12.857V11.721A2.911,2.911,0,0,1,.5,10.087Z" transform="translate(0 -1.4)" fill="#eef2f4" stroke="#eef2f4" stroke-width="0.5"/>
          <g id="layer1" transform="translate(9.751 9.705)">
            <g id="g19710">
              <path id="path19657-0" d="M-5921.509,1545.979a1.049,1.049,0,0,1-.518.319.862.862,0,0,1-.4.014.65.65,0,0,1-.345-.191.657.657,0,0,1-.162-.394.919.919,0,0,1,.073-.424,1.2,1.2,0,0,1,.5-.576.974.974,0,0,0-.5.193.977.977,0,0,0-.322.432.981.981,0,0,0-.042.538.981.981,0,0,0,.253.477.981.981,0,0,0,.718.294.985.985,0,0,0,.7-.327l.311.311.2-.2Z" transform="translate(5923.261 -1544.727)" fill="#eef2f4" stroke="#eef2f4" stroke-width="0.5"/>
              <path id="path19683-5" d="M-5902.291,1555.6l.234.234-1.052,1.052.238.24,1.052-1.052.184.185.274-.273-.46-.46a.6.6,0,0,1-.171-.008.607.607,0,0,1-.159-.056Z" transform="translate(5903.108 -1555.207)" fill="#eef2f4" stroke="#eef2f4" stroke-width="0.5"/>
            </g>
          </g>
        </g>
      </g>
    </g>
  </g>
</svg>
