<svg id="Component_1107_66" data-name="Component 1107 – 66" xmlns="http://www.w3.org/2000/svg" xmlns:xlink="http://www.w3.org/1999/xlink" width="28" height="28" viewBox="0 0 28 28">
  <defs>
    <clipPath id="clip-path">
      <rect id="Rectangle_15620" data-name="Rectangle 15620" width="28" height="28" transform="translate(0 0.235)" fill="#fff" stroke="#fff" stroke-width="0.7"/>
    </clipPath>
    <clipPath id="clip-path-2">
      <rect id="Rectangle_15989" data-name="Rectangle 15989" width="28" height="28" transform="translate(1973 307)" fill="#fff" stroke="#707070" stroke-width="1"/>
    </clipPath>
  </defs>
  <g id="Mask_Group_24365" data-name="Mask Group 24365" transform="translate(0 -0.235)" clip-path="url(#clip-path)">
    <g id="Mask_Group_24436" data-name="Mask Group 24436" transform="translate(-1973 -306.855)" clip-path="url(#clip-path-2)">
      <g id="user-friends" transform="translate(1973 308.8)">
        <path id="Path_83731" data-name="Path 83731" d="M8.4,11.2A4.9,4.9,0,1,0,3.5,6.3,4.9,4.9,0,0,0,8.4,11.2Zm3.36,1.4H11.4a6.765,6.765,0,0,1-5.994,0H5.04A5.041,5.041,0,0,0,0,17.64V18.9A2.1,2.1,0,0,0,2.1,21H14.7a2.1,2.1,0,0,0,2.1-2.1V17.64A5.041,5.041,0,0,0,11.76,12.6ZM21,11.2A4.2,4.2,0,1,0,16.8,7,4.2,4.2,0,0,0,21,11.2Zm2.1,1.4h-.166a5.517,5.517,0,0,1-3.868,0H18.9a4.859,4.859,0,0,0-2.437.674A6.4,6.4,0,0,1,18.2,17.64v1.68c0,.1-.022.188-.026.28H25.9A2.1,2.1,0,0,0,28,17.5,4.9,4.9,0,0,0,23.1,12.6Z" fill="#fff"/>
        <g id="layer1" transform="translate(10.865 15.717)">
          <g id="g19710">
            <path id="path19657-0" d="M-5922.609,1546.451a1.446,1.446,0,0,0,.713.439,1.194,1.194,0,0,0,.547.02.894.894,0,0,0,.475-.263.909.909,0,0,0,.224-.543,1.284,1.284,0,0,0-.1-.584,1.649,1.649,0,0,0-.685-.794,1.34,1.34,0,0,1,.694.266,1.338,1.338,0,0,1,.444.6,1.341,1.341,0,0,1,.058.741,1.353,1.353,0,0,1-.349.656,1.355,1.355,0,0,1-.99.4,1.351,1.351,0,0,1-.968-.451l-.427.428-.276-.276Z" transform="translate(5923.25 -1544.727)" fill="#484e5d" stroke="#484e5d" stroke-width="0.2"/>
            <path id="path19683-5" d="M-5901.827,1555.65l-.322.322,1.447,1.448-.327.33-1.449-1.449-.254.254-.376-.376.633-.634a.81.81,0,0,0,.236-.011.8.8,0,0,0,.219-.077Z" transform="translate(5903.753 -1555.113)" fill="#484e5d" stroke="#484e5d" stroke-width="0.2"/>
          </g>
        </g>
      </g>
    </g>
  </g>
</svg>
