<svg id="Quản_lý_tổ_chức_đảng" data-name="Quản lý tổ chức đảng" xmlns="http://www.w3.org/2000/svg" xmlns:xlink="http://www.w3.org/1999/xlink" width="28" height="28" viewBox="0 0 28 28">
  <defs>
    <clipPath id="clip-path">
      <rect id="Rectangle_13943" data-name="Rectangle 13943" width="28" height="28" fill="#eef2f4" stroke="#fff" stroke-width="1"/>
    </clipPath>
  </defs>
  <g id="Quản_lý_tổ_chức_đảng-2" data-name="Quản lý tổ chức đảng" clip-path="url(#clip-path)">
    <g id="hierarchy-square-2" transform="translate(0 0)">
      <path id="Path_76977" data-name="Path 76977" d="M10.158,19.73a.984.984,0,0,1-.977-.977v-5.47a.977.977,0,1,1,1.953,0v5.47A.984.984,0,0,1,10.158,19.73Z" transform="translate(-1.628 -1.628)" fill="#eef2f4"/>
      <path id="Path_76978" data-name="Path 76978" d="M10.353,13.87a3.516,3.516,0,1,1,3.516-3.516A3.518,3.518,0,0,1,10.353,13.87Zm0-5.079a1.563,1.563,0,1,0,1.563,1.563,1.567,1.567,0,0,0-1.563-1.563Z" transform="translate(-1.628 -1.628)" fill="#eef2f4"/>
      <path id="Path_76979" data-name="Path 76979" d="M10.158,24.419A3.321,3.321,0,1,1,13.479,21.1,3.318,3.318,0,0,1,10.158,24.419Zm0-4.688A1.367,1.367,0,1,0,11.526,21.1a1.367,1.367,0,0,0-1.367-1.367Z" transform="translate(-1.628 -1.628)" fill="#eef2f4"/>
      <path id="Path_76980" data-name="Path 76980" d="M21.1,24.419A3.321,3.321,0,1,1,24.419,21.1,3.318,3.318,0,0,1,21.1,24.419Zm0-4.688A1.367,1.367,0,1,0,22.465,21.1,1.367,1.367,0,0,0,21.1,19.73Z" transform="translate(-1.628 -1.628)" fill="#eef2f4"/>
      <path id="Path_76981" data-name="Path 76981" d="M20.447,19.756a.977.977,0,0,1-.925-.651,3.692,3.692,0,0,0-3.49-2.474h-.013l-2.683.013h-.013a4.14,4.14,0,0,1-4.011-3.1.974.974,0,0,1,1.888-.482A2.189,2.189,0,0,0,13.323,14.7h.013l2.683-.013h.026a5.67,5.67,0,0,1,5.34,3.79.983.983,0,0,1-.6,1.25,3.207,3.207,0,0,1-.339.026Z" transform="translate(-1.628 -1.628)" fill="#eef2f4"/>
      <path id="Path_76982" data-name="Path 76982" d="M19.535,29.628H11.721c-7.072,0-10.093-3.021-10.093-10.093V11.721c0-7.072,3.021-10.093,10.093-10.093h7.814c7.072,0,10.093,3.021,10.093,10.093v7.814C29.628,26.607,26.607,29.628,19.535,29.628ZM11.721,3.581c-6,0-8.14,2.136-8.14,8.14v7.814c0,6,2.136,8.14,8.14,8.14h7.814c6,0,8.14-2.136,8.14-8.14V11.721c0-6-2.136-8.14-8.14-8.14Z" transform="translate(-1.628 -1.628)" fill="#eef2f4"/>
    </g>
  </g>
</svg>
