<svg id="Component_1108_20" data-name="Component 1108 – 20" xmlns="http://www.w3.org/2000/svg" xmlns:xlink="http://www.w3.org/1999/xlink" width="28" height="28" viewBox="0 0 28 28">
  <defs>
    <clipPath id="clip-path">
      <rect id="Rectangle_15951" data-name="Rectangle 15951" width="28" height="28" transform="translate(1965 516)" fill="#fff" stroke="#707070" stroke-width="1"/>
    </clipPath>
    <clipPath id="clip-path-2">
      <path id="Path_83297" data-name="Path 83297" d="M1992.756,500.678s1.119,4.891.093,6.173-1.434.893-1.88,2.869a4.033,4.033,0,0,0,.134,2.889h-7.493a11.108,11.108,0,0,1-.394-4.562,57.113,57.113,0,0,1,1.325-7.37,13.847,13.847,0,0,1,4.394-.953A9.02,9.02,0,0,1,1992.756,500.678Z" transform="translate(-1983.165 -499.725)" fill="#fff"/>
    </clipPath>
  </defs>
  <g id="Mask_Group_24419" data-name="Mask Group 24419" transform="translate(-1965 -516)" clip-path="url(#clip-path)">
    <g id="Group_41604" data-name="Group 41604" transform="translate(6.835 8.003)">
      <g id="user-friends" transform="translate(1966.789 520.61)">
        <path id="Path_82844" data-name="Path 82844" d="M14.092,7.976a2.818,2.818,0,1,0-2.818-2.818A2.819,2.819,0,0,0,14.092,7.976Zm0-.939Zm-8.455.939A3.288,3.288,0,1,0,2.349,4.688,3.287,3.287,0,0,0,5.637,7.976ZM3.288,4.688Zm4.7,3.875c-.981,0-1.224.352-2.352.352s-1.371-.352-2.352-.352A3.236,3.236,0,0,0,.575,9.94,3.364,3.364,0,0,0,0,11.828v1.315a1.41,1.41,0,0,0,1.409,1.409H9.865a1.41,1.41,0,0,0,1.409-1.409V11.828A3.364,3.364,0,0,0,10.7,9.94a3.236,3.236,0,0,0-2.71-1.377Zm-6.579,5.05Zm16.9-3.843a2.7,2.7,0,0,0-2.258-1.148c-.816,0-1.022.294-1.961.294s-1.145-.294-1.961-.294c-.388,0-.5.144-.857.294a4.178,4.178,0,0,1,1.11,2.184,6.452,6.452,0,0,1,0,2.513h5.231a1.174,1.174,0,0,0,1.174-1.174v-1.1A2.8,2.8,0,0,0,18.311,9.77Z" transform="translate(0 -1.4)" fill="#fff" stroke="#fff" stroke-width="0.7"/>
      </g>
      <g id="Mask_Group_24418" data-name="Mask Group 24418" transform="translate(1958.165 520.372)" clip-path="url(#clip-path-2)">
        <g id="user-friends-2" data-name="user-friends" transform="translate(0.896 0.237)">
          <path id="Path_82844-2" data-name="Path 82844" d="M4.7,7.976A2.818,2.818,0,1,1,7.516,5.158,2.819,2.819,0,0,1,4.7,7.976ZM2.818,5.158ZM13.153,7.976a3.288,3.288,0,1,1,3.288-3.288A3.287,3.287,0,0,1,13.153,7.976Zm0-5.637A2.349,2.349,0,1,0,15.5,4.688,2.352,2.352,0,0,0,13.153,2.339ZM10.8,8.564c.981,0,1.224.352,2.352.352s1.371-.352,2.352-.352a3.236,3.236,0,0,1,2.71,1.377,3.364,3.364,0,0,1,.575,1.888v1.315a1.41,1.41,0,0,1-1.409,1.409H8.925a1.41,1.41,0,0,1-1.409-1.409V11.828A3.364,3.364,0,0,1,8.091,9.94,3.236,3.236,0,0,1,10.8,8.564Zm-2.346,4.58a.471.471,0,0,0,.47.47H17.38a.471.471,0,0,0,.47-.47V11.828a2.439,2.439,0,0,0-.414-1.362A2.3,2.3,0,0,0,15.507,9.5c-.8,0-1.092.352-2.355.352S11.6,9.5,10.8,9.5a2.3,2.3,0,0,0-1.929.963,2.439,2.439,0,0,0-.414,1.362v1.315ZM.479,9.77A2.7,2.7,0,0,1,2.736,8.622c.816,0,1.022.294,1.961.294s1.145-.294,1.961-.294a2.863,2.863,0,0,1,1.119.238,2.831,2.831,0,0,0-.593.781,20.12,20.12,0,0,0-.561,3.972H1.174A1.174,1.174,0,0,1,0,12.439v-1.1A2.8,2.8,0,0,1,.479,9.77Z" transform="translate(0 -1.4)" fill="#fff" stroke="#fff" stroke-width="0.7"/>
        </g>
      </g>
      <path id="Path_83298" data-name="Path 83298" d="M-89.111,0l-1.3,2.66-2.908.422,2.1,2.051-.5,2.9,2.6-1.367,2.6,1.367-.5-2.9,2.1-2.051-2.908-.422Z" transform="translate(2061.494 510.231)" fill="none" stroke="#fff" stroke-linecap="round" stroke-linejoin="round" stroke-miterlimit="10" stroke-width="1.5"/>
      <path id="Path_83299" data-name="Path 83299" d="M-63.444-100.061l1.851.973-.354-2.061,1.5-1.461-2.07-.3-.925-1.876-.926,1.876-2.07.3,1.5,1.461-.354,2.061Z" transform="translate(2044.627 619.032)" fill="none" stroke="#fff" stroke-linecap="round" stroke-linejoin="round" stroke-miterlimit="10" stroke-width="1.5"/>
      <path id="Path_83300" data-name="Path 83300" d="M-63.444-100.061l1.851.973-.354-2.061,1.5-1.461-2.07-.3-.925-1.876-.926,1.876-2.07.3,1.5,1.461-.354,2.061Z" transform="translate(2027.681 619.032)" fill="none" stroke="#fff" stroke-linecap="round" stroke-linejoin="round" stroke-miterlimit="10" stroke-width="1.5"/>
      <path id="Path_83301" data-name="Path 83301" d="M-1.68,1.678,1.369-.5,4.181,1.678l-1.093,3.5H-.9Z" transform="translate(1971.165 511.997)" fill="#fff"/>
      <path id="Path_83302" data-name="Path 83302" d="M-1.68,1.678,1.369-.5,4.181,1.678,2.435,2.733l.654,2.443L1.122,3.637-.9,5.175l.48-2.443Z" transform="translate(1980.165 515.197)" fill="#fff"/>
      <path id="Path_83303" data-name="Path 83303" d="M-1.68,1.678,1.369-.5,4.181,1.678,2.435,2.733l.654,2.443L1.122,3.637-.9,5.175l.48-2.443Z" transform="translate(1962.922 515.197)" fill="#fff"/>
    </g>
  </g>
</svg>
