<svg id="Component_1113_2" data-name="Component 1113 – 2" xmlns="http://www.w3.org/2000/svg" width="28.1" height="26.351" viewBox="0 0 28.1 26.351">
  <path id="Path_78420" data-name="Path 78420" d="M22.75,1.749H0V24.483l13.1-.006a7.022,7.022,0,0,1-.83-2.5c-.022-1.042-.9-4.4,3.185-7.89s9.6-1.326,10.4-.709A26.145,26.145,0,0,1,28,15.413V1.749Z" transform="translate(0 -1.749)" fill="#fff"/>
  <path id="Path_78421" data-name="Path 78421" d="M111.828,135.035a7.035,7.035,0,1,0,7.035,7.035A7.035,7.035,0,0,0,111.828,135.035Zm0,12.311a5.276,5.276,0,0,1-.879-10.473v5.561l3.932,3.932A5.242,5.242,0,0,1,111.828,147.346Zm5.2-4.421a5.262,5.262,0,0,1-.909,2.193v0l-3.416-3.416v-4.836A5.262,5.262,0,0,1,117.032,142.925Z" transform="translate(-90.863 -122.853)" fill="#fff" stroke="#fff" stroke-linecap="round" stroke-linejoin="round" stroke-width="0.2"/>
  <g id="Group_41844" data-name="Group 41844" transform="translate(-1 -2.749)">
    <path id="Path_83729" data-name="Path 83729" d="M3601.558-5434.841l4.16-5.732,2.392,2.745,5.172-7.238h4.1" transform="translate(-3597 5452.249)" fill="none" stroke="#0a0b0b" stroke-width="1.5"/>
    <path id="Path_83730" data-name="Path 83730" d="M3600.727-5445.066h6.128" transform="translate(-3597 5452.249)" fill="none" stroke="#0a0b0b" stroke-width="1.5"/>
  </g>
</svg>
