<svg id="Component_1142_16" data-name="Component 1142 – 16" xmlns="http://www.w3.org/2000/svg" xmlns:xlink="http://www.w3.org/1999/xlink" width="28" height="28" viewBox="0 0 28 28">
  <defs>
    <clipPath id="clip-path">
      <rect id="Rectangle_16246" data-name="Rectangle 16246" width="28" height="28" transform="translate(1711 13494)" fill="#eef2f4" stroke="#eef2f4" stroke-width="1"/>
    </clipPath>
  </defs>
  <g id="Mask_Group_24489" data-name="Mask Group 24489" transform="translate(-1711 -13494)" clip-path="url(#clip-path)">
    <g id="Group_42819" data-name="Group 42819" transform="translate(42.53 -43.981)">
      <g id="user-friends" transform="translate(1669.179 13542.853)">
        <path id="Path_82844" data-name="Path 82844" d="M19.8,10.64a3.96,3.96,0,1,0-3.96-3.96A3.961,3.961,0,0,0,19.8,10.64Zm0-6.6a2.64,2.64,0,1,1-2.64,2.64A2.642,2.642,0,0,1,19.8,4.04ZM7.92,10.64A4.62,4.62,0,1,0,3.3,6.02,4.618,4.618,0,0,0,7.92,10.64Zm0-7.92a3.3,3.3,0,1,1-3.3,3.3A3.3,3.3,0,0,1,7.92,2.72Zm3.3,8.745c-1.378,0-1.72.5-3.3.5s-1.926-.5-3.3-.5A4.546,4.546,0,0,0,.809,13.4,4.727,4.727,0,0,0,0,16.052V17.9a1.981,1.981,0,0,0,1.98,1.98H13.86a1.981,1.981,0,0,0,1.98-1.98V16.052a4.727,4.727,0,0,0-.809-2.652A4.546,4.546,0,0,0,11.224,11.465Zm3.3,6.435a.662.662,0,0,1-.66.66H1.98a.662.662,0,0,1-.66-.66V16.052A3.427,3.427,0,0,1,1.9,14.138a3.228,3.228,0,0,1,2.71-1.353c1.13,0,1.535.5,3.308.5s2.178-.5,3.3-.5a3.228,3.228,0,0,1,2.71,1.353,3.427,3.427,0,0,1,.582,1.914V17.9Zm11.208-4.74a3.792,3.792,0,0,0-3.172-1.613c-1.147,0-1.436.413-2.756.413s-1.609-.413-2.756-.413a4.023,4.023,0,0,0-1.572.334,3.978,3.978,0,0,1,.833,1.1,2.707,2.707,0,0,1,.738-.107,27.5,27.5,0,0,0,2.756.413,27.5,27.5,0,0,0,2.756-.413A2.472,2.472,0,0,1,24.635,13.9a2.625,2.625,0,0,1,.45,1.473V16.91a.331.331,0,0,1-.33.33H17.16a5.918,5.918,0,0,1-.066,1.32H24.75a1.65,1.65,0,0,0,1.65-1.65V15.372A3.941,3.941,0,0,0,25.728,13.161Z" transform="translate(0 -1.4)" fill="#eef2f4" stroke="#eef2f4" stroke-width="0.5"/>
      </g>
    </g>
  </g>
</svg>
