<svg xmlns="http://www.w3.org/2000/svg" width="28.5" height="26.601" viewBox="0 0 28.5 26.601">
  <g id="Component_1113_2" data-name="Component 1113 – 2" transform="translate(0.25 0.25)">
    <path id="Path_78420" data-name="Path 78420" d="M22.75,1.749H0V24.483H12.25V22.734H1.88V3.5H26.25v9.618H28V1.749Z" transform="translate(0 -1.749)" fill="#eef2f4" stroke="#eef2f4" stroke-linecap="round" stroke-linejoin="round" stroke-width="0.5"/>
    <path id="Path_78421" data-name="Path 78421" d="M111.828,135.035a7.035,7.035,0,1,0,7.035,7.035A7.035,7.035,0,0,0,111.828,135.035Zm0,12.311a5.276,5.276,0,0,1-.879-10.473v5.561l3.932,3.932A5.242,5.242,0,0,1,111.828,147.346Zm5.2-4.421a5.262,5.262,0,0,1-.909,2.193v0l-3.416-3.416v-4.836A5.262,5.262,0,0,1,117.032,142.925Zm-15.645-8.293,2.621,2.62,5.621-7.494h3.957V128H108.75l-4.931,6.576-2.655-2.656-5,7,1.432,1.022ZM96,128h7.035v1.759H96Z" transform="translate(-90.863 -122.853)" fill="#eef2f4" stroke="#eef2f4" stroke-linecap="round" stroke-linejoin="round" stroke-width="0.2"/>
  </g>
</svg>
