<svg id="Component_1139_2" data-name="Component 1139 – 2" xmlns="http://www.w3.org/2000/svg" xmlns:xlink="http://www.w3.org/1999/xlink" width="28" height="28" viewBox="0 0 28 28">
  <defs>
    <clipPath id="clip-path">
      <rect id="Rectangle_16160" data-name="Rectangle 16160" width="28" height="28" transform="translate(1665 10966)" fill="#eef2f4" stroke="#707070" stroke-width="1"/>
    </clipPath>
  </defs>
  <g id="Mask_Group_24482" data-name="Mask Group 24482" transform="translate(-1665 -10966)" clip-path="url(#clip-path)">
    <g id="_3dcube" data-name="3dcube" transform="translate(1663.371 10964.36)">
      <path id="Path_84877" data-name="Path 84877" d="M15.635,15.961a3.594,3.594,0,0,1-1.668-.417L5.485,10.971a2.473,2.473,0,0,1,0-4.3L13.967,2.1a3.494,3.494,0,0,1,3.322,0l8.482,4.573a2.473,2.473,0,0,1,0,4.3L17.29,15.544A3.358,3.358,0,0,1,15.635,15.961Zm0-12.339a1.544,1.544,0,0,0-.743.2L6.423,8.378a.488.488,0,0,0-.235.443.459.459,0,0,0,.235.43l8.482,4.573a1.552,1.552,0,0,0,1.472,0L24.86,9.251a.513.513,0,0,0,.235-.43.459.459,0,0,0-.235-.43L16.378,3.818a1.544,1.544,0,0,0-.743-.2Z" fill="#eef2f4"/>
      <path id="Path_84878" data-name="Path 84878" d="M12.743,29.6a2.447,2.447,0,0,1-1.081-.261l-7.9-3.935a3.868,3.868,0,0,1-2.137-3.466V14.489a2.419,2.419,0,0,1,3.5-2.163l7.9,3.935a3.854,3.854,0,0,1,2.137,3.466v7.453a2.4,2.4,0,0,1-1.147,2.059,2.377,2.377,0,0,1-1.277.365ZM4.052,14.02a.566.566,0,0,0-.248.065.466.466,0,0,0-.221.4v7.453a1.914,1.914,0,0,0,1.055,1.72l7.883,3.948a.482.482,0,0,0,.456-.013.466.466,0,0,0,.221-.4V19.739a1.914,1.914,0,0,0-1.055-1.72L4.261,14.072a.447.447,0,0,0-.208-.052Z" fill="#eef2f4"/>
      <path id="Path_84879" data-name="Path 84879" d="M18.528,29.6a2.377,2.377,0,0,1-1.277-.365A2.4,2.4,0,0,1,16.1,27.179V19.726a3.868,3.868,0,0,1,2.137-3.466l7.883-3.948a2.419,2.419,0,0,1,3.5,2.163v7.453a3.868,3.868,0,0,1-2.137,3.466l-7.883,3.948a2.283,2.283,0,0,1-1.081.261ZM27.218,14.02a.447.447,0,0,0-.208.052L19.127,18.02a1.9,1.9,0,0,0-1.055,1.72v7.453a.466.466,0,0,0,.221.4.448.448,0,0,0,.456.013l7.883-3.948a1.914,1.914,0,0,0,1.055-1.72V14.489a.466.466,0,0,0-.221-.4.565.565,0,0,0-.248-.065Z" fill="#eef2f4"/>
    </g>
  </g>
</svg>
