<svg id="Component_1135_2" data-name="Component 1135 – 2" xmlns="http://www.w3.org/2000/svg" xmlns:xlink="http://www.w3.org/1999/xlink" width="28" height="28" viewBox="0 0 28 28">
  <defs>
    <clipPath id="clip-path">
      <rect id="Rectangle_16148" data-name="Rectangle 16148" width="28" height="28" transform="translate(1688 12997)" fill="#eef2f4" stroke="#707070" stroke-width="1"/>
    </clipPath>
  </defs>
  <g id="Mask_Group_24474" data-name="Mask Group 24474" transform="translate(-1688 -12997)" clip-path="url(#clip-path)">
    <g id="Group_42651" data-name="Group 42651" transform="translate(1688.995 12998)">
      <path id="Path_84852" data-name="Path 84852" d="M13.848,6.721a3.361,3.361,0,1,1,3.361-3.361,3.365,3.365,0,0,1-3.361,3.361Zm0-5.6a2.24,2.24,0,1,0,2.24,2.24A2.243,2.243,0,0,0,13.848,1.12ZM6.566,26.886a.56.56,0,0,1-.56-.56V16.243a.56.56,0,1,1,1.12,0V26.326A.56.56,0,0,1,6.566,26.886Z" transform="translate(0.12)" fill="#eef2f4" stroke="#eef2f4" stroke-width="1"/>
      <path id="Path_84853" data-name="Path 84853" d="M17.879,26.044a.56.56,0,0,1-.56-.56V23.819A6.139,6.139,0,0,1,18.354,20.4l.358-.538a4.985,4.985,0,0,0,.849-2.869c-.08-4.257-.85-6.934-2.426-8.425a1.665,1.665,0,0,0-1.156-.449h-1.3a3.915,3.915,0,0,0-3.262,1.746l-.58.87a2.806,2.806,0,0,1-1.077.951L6.515,13.313a.706.706,0,0,0-.147,1.164.685.685,0,0,0,.561.165l1.8-.258a1.679,1.679,0,0,0,.877-.406l2.5-2.214a1.118,1.118,0,0,1,1.865.837V25.484a.56.56,0,0,1-1.12,0V12.6l-2.5,2.214a2.8,2.8,0,0,1-1.461.677l-1.8.258A1.825,1.825,0,0,1,6.013,12.31l3.241-1.624a1.688,1.688,0,0,0,.646-.57l.58-.87A5.033,5.033,0,0,1,14.676,7h1.3a2.781,2.781,0,0,1,1.926.755c1.808,1.712,2.691,4.641,2.777,9.217a6.1,6.1,0,0,1-1.037,3.512l-.358.538a5.022,5.022,0,0,0-.847,2.8v1.666a.562.562,0,0,1-.561.56Z" transform="translate(0 0.842)" fill="#eef2f4" stroke="#eef2f4" stroke-width="1"/>
    </g>
  </g>
</svg>
