<svg id="Component_1145_2" data-name="Component 1145 – 2" xmlns="http://www.w3.org/2000/svg" xmlns:xlink="http://www.w3.org/1999/xlink" width="28" height="28" viewBox="0 0 28 28">
  <defs>
    <clipPath id="clip-path">
      <path id="Path_85029" data-name="Path 85029" d="M0-682.665H28v28H0Z" transform="translate(0 682.665)"/>
    </clipPath>
  </defs>
  <g id="Group_42832" data-name="Group 42832" clip-path="url(#clip-path)">
    <path id="Path_85019" data-name="Path 85019" d="M-127.864,0h-2.188a3.281,3.281,0,0,0-3.281,3.281V4.375h8.75V3.281A3.281,3.281,0,0,0-127.864,0Z" transform="translate(134.153 22.805)" fill="none" stroke="#eef2f4" stroke-linecap="round" stroke-linejoin="round" stroke-miterlimit="10" stroke-width="1.7"/>
    <path id="Path_85020" data-name="Path 85020" d="M-127.864,0h-2.188a3.281,3.281,0,0,0-3.281,3.281V4.375h8.75V3.281A3.281,3.281,0,0,0-127.864,0Z" transform="translate(142.958 6.289)" fill="none" stroke="#eef2f4" stroke-linecap="round" stroke-linejoin="round" stroke-miterlimit="10" stroke-width="1.7"/>
    <path id="Path_85021" data-name="Path 85021" d="M-127.864,0h-2.188a3.281,3.281,0,0,0-3.281,3.281V4.375h8.75V3.281A3.281,3.281,0,0,0-127.864,0Z" transform="translate(151.763 22.805)" fill="none" stroke="#eef2f4" stroke-linecap="round" stroke-linejoin="round" stroke-miterlimit="10" stroke-width="1.7"/>
    <path id="Path_85022" data-name="Path 85022" d="M-127.864-63.932A2.734,2.734,0,0,1-130.6-61.2a2.734,2.734,0,0,1-2.734-2.734,2.734,2.734,0,0,1,2.734-2.734A2.734,2.734,0,0,1-127.864-63.932Z" transform="translate(135.794 84.002)" fill="none" stroke="#eef2f4" stroke-linecap="round" stroke-linejoin="round" stroke-miterlimit="10" stroke-width="1.7"/>
    <path id="Path_85023" data-name="Path 85023" d="M-127.864-63.932A2.734,2.734,0,0,1-130.6-61.2a2.734,2.734,0,0,1-2.734-2.734,2.734,2.734,0,0,1,2.734-2.734A2.734,2.734,0,0,1-127.864-63.932Z" transform="translate(144.599 67.487)" fill="none" stroke="#eef2f4" stroke-linecap="round" stroke-linejoin="round" stroke-miterlimit="10" stroke-width="1.7"/>
    <path id="Path_85024" data-name="Path 85024" d="M-127.864-63.932A2.734,2.734,0,0,1-130.6-61.2a2.734,2.734,0,0,1-2.734-2.734,2.734,2.734,0,0,1,2.734-2.734A2.734,2.734,0,0,1-127.864-63.932Z" transform="translate(153.403 84.002)" fill="none" stroke="#eef2f4" stroke-linecap="round" stroke-linejoin="round" stroke-miterlimit="10" stroke-width="1.7"/>
    <path id="Path_85025" data-name="Path 85025" d="M0-117.635v-5.031" transform="translate(14 133.33)" fill="none" stroke="#eef2f4" stroke-linecap="round" stroke-linejoin="round" stroke-miterlimit="10" stroke-width="1.7"/>
    <path id="Path_85026" data-name="Path 85026" d="M-76.719-38.359a1.641,1.641,0,0,1-1.641,1.641A1.641,1.641,0,0,1-80-38.359,1.641,1.641,0,0,1-78.359-40,1.641,1.641,0,0,1-76.719-38.359Z" transform="translate(92.359 55.695)" fill="none" stroke="#eef2f4" stroke-linecap="round" stroke-linejoin="round" stroke-miterlimit="10" stroke-width="1.7"/>
    <path id="Path_85027" data-name="Path 85027" d="M-108.149,0l-4.626,1.437" transform="translate(120.582 17.823)" fill="none" stroke="#eef2f4" stroke-linecap="round" stroke-linejoin="round" stroke-miterlimit="10" stroke-width="1.7"/>
    <path id="Path_85028" data-name="Path 85028" d="M-108.149-33.587l-4.626-1.437" transform="translate(128.342 52.847)" fill="none" stroke="#eef2f4" stroke-linecap="round" stroke-linejoin="round" stroke-miterlimit="10" stroke-width="1.7"/>
  </g>
</svg>
