<svg id="Component_1107_66" data-name="Component 1107 – 66" xmlns="http://www.w3.org/2000/svg" xmlns:xlink="http://www.w3.org/1999/xlink" width="28" height="28" viewBox="0 0 28 28">
  <defs>
    <clipPath id="clip-path">
      <rect id="Rectangle_15620" data-name="Rectangle 15620" width="28" height="28" transform="translate(0 0.235)" fill="#fff" stroke="#fff" stroke-width="0.7"/>
    </clipPath>
  </defs>
  <g id="Mask_Group_24365" data-name="Mask Group 24365" transform="translate(0 -0.235)" clip-path="url(#clip-path)">
    <g id="user-friends" transform="translate(0.49 4.389)">
      <path id="Path_82844" data-name="Path 82844" d="M20.14,10.8a4.028,4.028,0,1,0-4.028-4.028A4.029,4.029,0,0,0,20.14,10.8Zm0-6.713a2.685,2.685,0,1,1-2.685,2.685A2.688,2.688,0,0,1,20.14,4.085ZM8.056,10.8a4.7,4.7,0,1,0-4.7-4.7A4.7,4.7,0,0,0,8.056,10.8Zm0-8.056A3.357,3.357,0,1,1,4.7,6.1,3.361,3.361,0,0,1,8.056,2.743Zm3.361,8.9c-1.4,0-1.75.5-3.361.5s-1.959-.5-3.361-.5A4.624,4.624,0,0,0,.822,13.606,4.808,4.808,0,0,0,0,16.3v1.88A2.015,2.015,0,0,0,2.014,20.2H14.1a2.015,2.015,0,0,0,2.014-2.014V16.3a4.808,4.808,0,0,0-.822-2.7,4.624,4.624,0,0,0-3.873-1.968Zm3.352,6.546a.673.673,0,0,1-.671.671H2.014a.673.673,0,0,1-.671-.671V16.3a3.486,3.486,0,0,1,.592-1.947,3.284,3.284,0,0,1,2.757-1.376c1.15,0,1.561.5,3.365.5s2.215-.5,3.361-.5a3.284,3.284,0,0,1,2.757,1.376,3.486,3.486,0,0,1,.592,1.947v1.88Zm11.4-4.821a3.857,3.857,0,0,0-3.227-1.641c-1.166,0-1.46.42-2.8.42s-1.636-.42-2.8-.42a4.092,4.092,0,0,0-1.6.34,4.046,4.046,0,0,1,.848,1.116,2.753,2.753,0,0,1,.751-.109c.915,0,1.259.42,2.8.42s1.888-.42,2.8-.42a2.514,2.514,0,0,1,2.115,1.049,2.67,2.67,0,0,1,.457,1.5v1.561a.337.337,0,0,1-.336.336H17.455a6.019,6.019,0,0,1-.067,1.343h7.788a1.678,1.678,0,0,0,1.678-1.678V15.611A4.009,4.009,0,0,0,26.17,13.362Z" transform="translate(0 -1.4)" fill="#fff" stroke="#fff" stroke-width="0.7"/>
      <g id="layer1" transform="translate(10.375 13.363)">
        <g id="g19710">
          <path id="path19657-0" d="M-5922.609,1546.451a1.446,1.446,0,0,0,.713.439,1.194,1.194,0,0,0,.547.02.894.894,0,0,0,.475-.263.909.909,0,0,0,.224-.543,1.284,1.284,0,0,0-.1-.584,1.649,1.649,0,0,0-.685-.794,1.34,1.34,0,0,1,.694.266,1.338,1.338,0,0,1,.444.6,1.341,1.341,0,0,1,.058.741,1.353,1.353,0,0,1-.349.656,1.355,1.355,0,0,1-.99.4,1.351,1.351,0,0,1-.968-.451l-.427.428-.276-.276Z" transform="translate(5923.25 -1544.727)" fill="#fff" stroke="#fff" stroke-width="0.2"/>
          <path id="path19683-5" d="M-5901.827,1555.65l-.322.322,1.447,1.448-.327.33-1.449-1.449-.254.254-.376-.376.633-.634a.81.81,0,0,0,.236-.011.8.8,0,0,0,.219-.077Z" transform="translate(5903.753 -1555.113)" fill="#fff" stroke="#fff" stroke-width="0.2"/>
        </g>
      </g>
    </g>
  </g>
</svg>
