<svg id="Component_1110_31" data-name="Component 1110 – 31" xmlns="http://www.w3.org/2000/svg" xmlns:xlink="http://www.w3.org/1999/xlink" width="28" height="28" viewBox="0 0 28 28">
  <defs>
    <clipPath id="clip-path">
      <rect id="Rectangle_15365" data-name="Rectangle 15365" width="28" height="28" transform="translate(0 0)" fill="#fff" stroke="#fff" stroke-width="1"/>
    </clipPath>
  </defs>
  <g id="Mask_Group_24221" data-name="Mask Group 24221" transform="translate(0 0)" clip-path="url(#clip-path)">
    <g id="ranking-1" transform="translate(0.207 0)">
      <path id="Path_78339" data-name="Path 78339" d="M11.124,29.19H2.566a.969.969,0,0,1-.962-.962v-7.7A3.526,3.526,0,0,1,5.132,17h5.992a.969.969,0,0,1,.962.962V28.228A.969.969,0,0,1,11.124,29.19Zm-.962-1.925Z" transform="translate(-1.604 -1.19)" fill="#fff"/>
      <path id="Path_78340" data-name="Path 78340" d="M19.67,29.19H11.111a.969.969,0,0,1-.962-.962V15.4a3.526,3.526,0,0,1,3.528-3.528H17.1A3.526,3.526,0,0,1,20.632,15.4V28.228A.961.961,0,0,1,19.67,29.19Zm-.949-1.925Z" transform="translate(-1.604 -1.19)" fill="#fff"/>
      <path id="Path_78341" data-name="Path 78341" d="M28.228,29.19H19.67a.969.969,0,0,1-.962-.962V21.812a.969.969,0,0,1,.962-.962h5.992a3.526,3.526,0,0,1,3.528,3.528v3.849A.969.969,0,0,1,28.228,29.19Zm-7.6-1.925Z" transform="translate(-1.604 -1.19)" fill="#fff"/>
      <path id="Path_78342" data-name="Path 78342" d="M17.577,10.714a2.244,2.244,0,0,1-1.129-.346L15.4,9.739l-1.039.616a1.73,1.73,0,0,1-2,.077,1.725,1.725,0,0,1-.539-1.925l.244-1.065-.872-.872A1.726,1.726,0,0,1,10.648,4.8,1.746,1.746,0,0,1,12.111,3.67l1.116-.192.629-1.257a1.647,1.647,0,0,1,3.054,0l.629,1.257,1.116.192A1.729,1.729,0,0,1,20.117,4.8a1.752,1.752,0,0,1-.539,1.771l-.872.872.244,1.065a1.748,1.748,0,0,1-.539,1.937,1.3,1.3,0,0,1-.834.269Z" transform="translate(-1.604 -1.19)" fill="#fff"/>
    </g>
  </g>
</svg>
