<svg id="Component_1129_4" data-name="Component 1129 – 4" xmlns="http://www.w3.org/2000/svg" xmlns:xlink="http://www.w3.org/1999/xlink" width="28" height="28" viewBox="0 0 28 28">
  <defs>
    <clipPath id="clip-path">
      <rect id="Rectangle_16098" data-name="Rectangle 16098" width="28" height="28" transform="translate(1655 9621)" fill="#eef2f4" stroke="#707070" stroke-width="1"/>
    </clipPath>
  </defs>
  <g id="Mask_Group_24465" data-name="Mask Group 24465" transform="translate(-1655 -9621)" clip-path="url(#clip-path)">
    <g id="address-card" transform="translate(1655 9622.556)">
      <path id="Path_84804" data-name="Path 84804" d="M24.889,1.556H3.111A3.114,3.114,0,0,0,0,4.667V20.222a3.114,3.114,0,0,0,3.111,3.111H24.889A3.114,3.114,0,0,0,28,20.222V4.667A3.114,3.114,0,0,0,24.889,1.556Zm1.556,18.667a1.56,1.56,0,0,1-1.556,1.556H3.111a1.56,1.56,0,0,1-1.556-1.556V4.667A1.56,1.56,0,0,1,3.111,3.111H24.889a1.56,1.56,0,0,1,1.556,1.556ZM22.944,14H17.5a.39.39,0,0,0-.389.389v.778a.39.39,0,0,0,.389.389h5.444a.39.39,0,0,0,.389-.389v-.778A.39.39,0,0,0,22.944,14Zm0-3.111H17.5a.39.39,0,0,0-.389.389v.778a.39.39,0,0,0,.389.389h5.444a.39.39,0,0,0,.389-.389v-.778A.39.39,0,0,0,22.944,10.889Zm0-3.111H17.5a.39.39,0,0,0-.389.389v.778a.39.39,0,0,0,.389.389h5.444a.39.39,0,0,0,.389-.389V8.167A.39.39,0,0,0,22.944,7.778ZM10.111,14a3.889,3.889,0,1,0-3.889-3.889A3.888,3.888,0,0,0,10.111,14Zm0-6.222a2.333,2.333,0,1,1-2.333,2.333A2.334,2.334,0,0,1,10.111,7.778Zm2.275,7c-.948,0-1.186.34-2.275.34s-1.327-.34-2.275-.34A3.106,3.106,0,0,0,5.221,16.11a3.254,3.254,0,0,0-.554,1.823v1.123a.39.39,0,0,0,.389.389h.778a.39.39,0,0,0,.389-.389V17.933a1.706,1.706,0,0,1,.292-.953,1.573,1.573,0,0,1,1.327-.642,17.236,17.236,0,0,0,2.275.34,17.517,17.517,0,0,0,2.275-.34,1.586,1.586,0,0,1,1.327.642,1.706,1.706,0,0,1,.292.953v1.123a.39.39,0,0,0,.389.389h.778a.39.39,0,0,0,.389-.389V17.933a3.254,3.254,0,0,0-.554-1.823,3.148,3.148,0,0,0-2.625-1.332Z" fill="#eef2f4" stroke="#eef2f4" stroke-width="0.4"/>
    </g>
  </g>
</svg>
