<svg id="Component_1108_18" data-name="Component 1108 – 18" xmlns="http://www.w3.org/2000/svg" xmlns:xlink="http://www.w3.org/1999/xlink" width="28" height="28" viewBox="0 0 28 28">
  <defs>
    <clipPath id="clip-path">
      <rect id="Rectangle_15397" data-name="Rectangle 15397" width="28" height="28" transform="translate(0 0)" fill="#eef2f4" stroke="#fff" stroke-width="1"/>
    </clipPath>
  </defs>
  <g id="Mask_Group_24286" data-name="Mask Group 24286" transform="translate(0 0)" clip-path="url(#clip-path)">
    <g id="folder-2" transform="translate(0 0)">
      <path id="Path_80490" data-name="Path 80490" d="M22.14,29.628H9.116c-5.743,0-7.488-1.745-7.488-7.488V9.116c0-5.743,1.745-7.488,7.488-7.488H11.07a4.027,4.027,0,0,1,3.907,1.953l1.953,2.6c.43.573.495.651,1.3.651H22.14c5.743,0,7.488,1.745,7.488,7.488V22.14C29.628,27.883,27.883,29.628,22.14,29.628ZM9.116,27.674h0Z" transform="translate(-1.628 -1.628)" fill="#eef2f4"/>
      <path id="Path_80491" data-name="Path 80491" d="M26.047,9.286a.984.984,0,0,1-.977-.977v-1.8c0-2.058-.873-2.93-2.93-2.93H10.419a.977.977,0,1,1,0-1.953H22.14c3.152,0,4.884,1.732,4.884,4.884v1.8A.984.984,0,0,1,26.047,9.286Z" transform="translate(-1.628 -1.628)" fill="#eef2f4"/>
    </g>
    <g id="layer1" transform="translate(6.909 9.788)">
      <g id="g19710">
        <path id="path19657-0" d="M-5920.272,1552.74a6.722,6.722,0,0,0,3.319,2.04,5.535,5.535,0,0,0,2.538.094,4.144,4.144,0,0,0,2.208-1.223,4.243,4.243,0,0,0,1.043-2.522,6.016,6.016,0,0,0-.468-2.714,7.664,7.664,0,0,0-3.184-3.688,6.216,6.216,0,0,1,3.224,1.234,6.217,6.217,0,0,1,2.065,2.769,6.239,6.239,0,0,1,.267,3.443,6.246,6.246,0,0,1-1.621,3.051,6.288,6.288,0,0,1-4.6,1.88,6.281,6.281,0,0,1-4.5-2.095l-1.986,1.988-1.284-1.282Z" transform="translate(5923.248 -1544.727)" fill="#0a0b0b"/>
        <path id="path19683-5" d="M-5897.152,1556.352l-1.5,1.5,6.725,6.729-1.518,1.535-6.734-6.735-1.179,1.182-1.75-1.747,2.945-2.946a3.731,3.731,0,0,0,1.1-.051,3.794,3.794,0,0,0,1.013-.357Z" transform="translate(5906.105 -1553.859)" fill="#0a0b0b"/>
      </g>
    </g>
  </g>
</svg>
