<svg id="Component_1112_3" data-name="Component 1112 – 3" xmlns="http://www.w3.org/2000/svg" xmlns:xlink="http://www.w3.org/1999/xlink" width="28" height="28" viewBox="0 0 28 28">
  <defs>
    <clipPath id="clip-path">
      <rect id="Rectangle_15958" data-name="Rectangle 15958" width="28" height="28" transform="translate(104 633)" fill="#fff"/>
    </clipPath>
  </defs>
  <g id="Mask_Group_24425" data-name="Mask Group 24425" transform="translate(-104 -633)" clip-path="url(#clip-path)">
    <g id="Group_34951" data-name="Group 34951" transform="translate(35.38 -563.33)">
      <path id="Path_77179" data-name="Path 77179" d="M206.392,0H195.154A2.354,2.354,0,0,0,192.8,2.354V7.89l1.835.912.917-1.834a2.248,2.248,0,1,1,4.022,2.011l-1.634,3.269a4.033,4.033,0,0,1-.118,1.4c1.4-.069,4.848.009,8.571-.114a2.355,2.355,0,0,0,2.354-2.354V2.355A2.355,2.355,0,0,0,206.392,0Z" transform="translate(-114.34 1199.434)" fill="#fff"/>
      <g id="Group_34949" data-name="Group 34949" transform="translate(69.408 1201.06)">
        <path id="Path_77178" data-name="Path 77178" d="M12.741,41.324a1.873,1.873,0,0,0,.019-1.149l1.8-3.594a.724.724,0,1,0-1.3-.648L11.73,39,8.3,37.292a8.978,8.978,0,0,0-2.188-.9,4.213,4.213,0,0,0-.87-.081H4.6a3.155,3.155,0,1,0-2.3-.992,3.146,3.146,0,0,0,2.3.992,4.783,4.783,0,0,0-1.123.141A4.6,4.6,0,0,0,0,40.911v2.327a2.279,2.279,0,0,0,1.551,2.157v4.048a.724.724,0,0,0,.724.724H6.929a.724.724,0,0,0,.724-.724V41.306l2.318,1.159a1.984,1.984,0,0,0,2.767-1.133l0-.008Zm0,0" transform="translate(0 -30)" fill="#fff"/>
        <g id="Group_34952" data-name="Group 34952" transform="translate(-3092.029 15.065)">
          <path id="Path_77181" data-name="Path 77181" d="M2.162,34.523a1.261,1.261,0,1,0-.892-.369,1.261,1.261,0,0,0,.892.369Zm.865.36H2.934a1.741,1.741,0,0,1-1.543,0H1.3A1.3,1.3,0,0,0,0,36.18V36.5a.541.541,0,0,0,.541.541H3.784a.541.541,0,0,0,.541-.541V36.18A1.3,1.3,0,0,0,3.027,34.883Z" transform="translate(3114.129 -32)" fill="#fff"/>
          <path id="Path_77182" data-name="Path 77182" d="M2.164,34.525a1.262,1.262,0,1,0-.893-.37,1.263,1.263,0,0,0,.893.37Zm.866.361H2.937a1.743,1.743,0,0,1-1.544,0H1.3a1.3,1.3,0,0,0-1.3,1.3v.325a.541.541,0,0,0,.541.541H3.788a.541.541,0,0,0,.541-.541v-.325A1.3,1.3,0,0,0,3.03,34.886Z" transform="translate(3108.68 -32)" fill="#fff"/>
          <path id="Path_77183" data-name="Path 77183" d="M2.09,34.438a1.218,1.218,0,1,0-.862-.357,1.219,1.219,0,0,0,.862.357Zm.836.348h-.09a1.683,1.683,0,0,1-1.491,0h-.09A1.254,1.254,0,0,0,0,36.04v.313a.522.522,0,0,0,.522.522H3.657a.522.522,0,0,0,.522-.522V36.04A1.254,1.254,0,0,0,2.926,34.786Z" transform="translate(3103.68 -31.826)" fill="#fff"/>
        </g>
      </g>
      <g id="layer1" transform="translate(87.434 1200.969)">
        <g id="g19710" transform="translate(0)">
          <path id="path19657-0" d="M-5922.111,1547.789a2.568,2.568,0,0,0,1.268.78,2.113,2.113,0,0,0,.97.036,1.584,1.584,0,0,0,.844-.467,1.623,1.623,0,0,0,.4-.964,2.3,2.3,0,0,0-.179-1.037,2.926,2.926,0,0,0-1.217-1.409,2.375,2.375,0,0,1,1.232.472,2.38,2.38,0,0,1,.789,1.058,2.384,2.384,0,0,1,.1,1.315,2.385,2.385,0,0,1-.62,1.166,2.4,2.4,0,0,1-1.757.718,2.4,2.4,0,0,1-1.719-.8l-.759.76-.491-.49Z" transform="translate(5923.249 -1544.727)" fill="#0a0b0b"/>
          <path id="path19683-5" d="M-5900.831,1555.8l-.572.572,2.569,2.571-.58.587-2.573-2.573-.451.452-.668-.668,1.125-1.126a1.421,1.421,0,0,0,.42-.02,1.453,1.453,0,0,0,.387-.136Z" transform="translate(5904.252 -1554.846)" fill="#0a0b0b"/>
        </g>
      </g>
    </g>
  </g>
</svg>
