<svg xmlns="http://www.w3.org/2000/svg" width="28.216" height="29" viewBox="0 0 28.216 29">
  <g id="Component_1116_3" data-name="Component 1116 – 3" transform="translate(0.5 0.5)">
    <path id="Path_83719" data-name="Path 83719" d="M55.211,11.122a.662.662,0,0,0-.193-.524l-3.253-2.6V6.709a2.193,2.193,0,0,0-2.191-2.191H47.423L42.024.2h0a.544.544,0,0,0-.834,0h0l-5.4,4.321H33.637a2.193,2.193,0,0,0-2.191,2.191V7.994l-3.253,2.6a.662.662,0,0,0-.193.524.531.531,0,0,0,0,.054V25.535A2.541,2.541,0,0,0,30.6,28H52.611a2.541,2.541,0,0,0,2.6-2.467V11.176a.519.519,0,0,0,0-.054ZM51.765,9.329,53.9,11.037l-2.134,1.708ZM41.606,1.2l4.149,3.321h-8.3ZM32.489,6.709a1.15,1.15,0,0,1,1.149-1.149H49.575a1.15,1.15,0,0,1,1.149,1.149v6.869l-9.117,7.3-9.117-7.3Zm-1.042,2.62v3.415l-2.134-1.708ZM29.04,25.535V12.153l8.48,6.787-8.329,7.206A1.314,1.314,0,0,1,29.04,25.535ZM52.611,26.96H30.6a1.68,1.68,0,0,1-.623-.118l8.368-7.24,2.841,2.274h0a.52.52,0,0,0,.407.2h.02a.52.52,0,0,0,.407-.2h0L44.865,19.6l8.368,7.24a1.68,1.68,0,0,1-.623.118Zm1.561-1.425a1.314,1.314,0,0,1-.151.61L45.692,18.94l8.48-6.787ZM36.244,10.49H47.023a.521.521,0,1,0,0-1.042H36.244a.521.521,0,1,0,0,1.042Zm11.3,2.614a.521.521,0,0,0-.521-.521H36.244a.521.521,0,1,0,0,1.042H47.023a.521.521,0,0,0,.521-.521Z" transform="translate(-27.998 -0.002)" fill="#eef2f4" stroke="#eef2f4" stroke-width="1"/>
  </g>
</svg>
