<svg id="Component_1114_10" data-name="Component 1114 – 10" xmlns="http://www.w3.org/2000/svg" width="28" height="28" viewBox="0 0 28 28">
  <g id="vuesax_outline_home-2" data-name="vuesax/outline/home-2">
    <g id="home-2">
      <path id="Vector" d="M19.617,25.477H5.883A5.892,5.892,0,0,1,0,19.581v-8.79A6.527,6.527,0,0,1,2.277,6.153L8.67,1.17A6.164,6.164,0,0,1,15.656,1l7.33,5.136A6.481,6.481,0,0,1,25.5,10.957v8.636A5.89,5.89,0,0,1,19.617,25.477ZM9.761,2.57C2.526,8.217,1.779,9.723,1.779,10.791v8.79a4.116,4.116,0,0,0,4.1,4.116H19.617a4.105,4.105,0,0,0,4.1-4.1V10.957A4.707,4.707,0,0,0,21.966,7.6l-7.33-5.136A4.414,4.414,0,0,0,9.761,2.57Z" transform="translate(1.25 1.273)" fill="#fff"/>
      <path id="Vector-2" data-name="Vector" d="M0,0H28V28H0Z" fill="none" opacity="0"/>
    </g>
  </g>
  <g id="layer1" transform="translate(6.547 9.086)">
    <g id="g19710" transform="translate(0)">
      <path id="path19657-0" d="M-5920.121,1553.15a7.065,7.065,0,0,0,3.489,2.144,5.814,5.814,0,0,0,2.667.1,4.357,4.357,0,0,0,2.321-1.285,4.458,4.458,0,0,0,1.1-2.651,6.33,6.33,0,0,0-.492-2.853,8.051,8.051,0,0,0-3.347-3.876,6.533,6.533,0,0,1,3.389,1.3,6.541,6.541,0,0,1,2.172,2.91,6.564,6.564,0,0,1,.279,3.618,6.56,6.56,0,0,1-1.7,3.207,6.606,6.606,0,0,1-4.833,1.976,6.6,6.6,0,0,1-4.727-2.2l-2.088,2.09-1.35-1.348Z" transform="translate(5923.249 -1544.727)" fill="#fff"/>
      <path id="path19683-5" d="M-5896.849,1556.4l-1.573,1.573,7.068,7.072-1.6,1.613-7.079-7.079-1.239,1.242-1.838-1.837,3.1-3.1a3.919,3.919,0,0,0,1.156-.054,3.982,3.982,0,0,0,1.064-.376Z" transform="translate(5906.259 -1553.778)" fill="#fff"/>
    </g>
  </g>
</svg>
