<svg id="Component_1114" data-name="Component 1114" xmlns="http://www.w3.org/2000/svg" width="28" height="28" viewBox="0 0 28 28">
  <g id="vuesax_outline_home-2" data-name="vuesax/outline/home-2">
    <g id="home-2">
      <path id="Exclusion_6" data-name="Exclusion 6" d="M.617,1356.476H-13.118a5.9,5.9,0,0,1-5.882-5.9v-8.789a6.546,6.546,0,0,1,2.277-4.638l6.393-4.983A5.9,5.9,0,0,1-6.71,1331a5.887,5.887,0,0,1,3.365,1l7.33,5.136a6.487,6.487,0,0,1,2.515,4.816v8.636A5.89,5.89,0,0,1,.617,1356.476Zm-10.881-6.858h0a6.621,6.621,0,0,0,4.726,2.2h.147a6.626,6.626,0,0,0,3.864-1.265l1.134,1.134,1.595-1.614-1.159-1.16A6.623,6.623,0,0,0,1,1346.638a6.6,6.6,0,0,0-.279-3.618,6.58,6.58,0,0,0-2.172-2.91,6.57,6.57,0,0,0-3.389-1.3,8.026,8.026,0,0,1,3.346,3.876A6.351,6.351,0,0,1-1,1345.541a4.728,4.728,0,0,1-.515,1.817l-4.35-4.352,1.573-1.573-.941-.94a3.955,3.955,0,0,1-1.065.375,3.873,3.873,0,0,1-.757.074,3.971,3.971,0,0,1-.4-.02l-3.1,3.1,1.838,1.837,1.239-1.242,4.372,4.371a4.611,4.611,0,0,1-1.318.494,5.268,5.268,0,0,1-1.088.111,6.224,6.224,0,0,1-1.579-.21,7.081,7.081,0,0,1-3.489-2.144l-3.127,3.126,1.35,1.348,2.088-2.089Z" transform="translate(20.25 -1329.727)" fill="#fff"/>
      <path id="Vector" d="M0,0H28V28H0Z" fill="none" opacity="0"/>
    </g>
  </g>
</svg>
