<svg xmlns="http://www.w3.org/2000/svg" xmlns:xlink="http://www.w3.org/1999/xlink" width="16" height="16" viewBox="0 0 16 16">
  <defs>
    <clipPath id="clip-path">
      <rect id="Rectangle_13765" data-name="Rectangle 13765" width="16" height="16" fill="#313949" stroke="#707070" stroke-width="1"/>
    </clipPath>
  </defs>
  <g id="Mask_Group_24113" data-name="Mask Group 24113" clip-path="url(#clip-path)">
    <g id="filter-add" transform="translate(0.5 -0.117)">
      <path id="Path_68408" data-name="Path 68408" d="M16.759,18.44a4.058,4.058,0,0,1-3.475-1.97,3.959,3.959,0,0,1-.583-2.088,4.057,4.057,0,1,1,8.115,0,4.074,4.074,0,0,1-4.057,4.057Zm0-7.008a2.95,2.95,0,0,0-2.951,2.951,2.857,2.857,0,0,0,.428,1.512,2.947,2.947,0,0,0,2.523,1.439,2.966,2.966,0,0,0,2.951-2.951A2.95,2.95,0,0,0,16.759,11.432Z" transform="translate(-6.189 -4.424)" fill="#313949"/>
      <path id="Path_68409" data-name="Path 68409" d="M19.2,16.712H16.583a.553.553,0,1,1,0-1.107H19.2a.553.553,0,0,1,0,1.107Z" transform="translate(-7.318 -6.215)" fill="#313949"/>
      <path id="Path_68410" data-name="Path 68410" d="M18.558,17.392A.557.557,0,0,1,18,16.839V14.228a.553.553,0,1,1,1.107,0v2.619a.546.546,0,0,1-.553.546Z" transform="translate(-7.987 -5.56)" fill="#313949"/>
      <path id="Path_68411" data-name="Path 68411" d="M9.028,17.256A2.1,2.1,0,0,1,8,16.99a2.018,2.018,0,0,1-1.048-1.778V11.266a2.334,2.334,0,0,0-.48-1.217l-2.8-2.943a3.06,3.06,0,0,1-.826-1.874V3.513A2.06,2.06,0,0,1,4.89,1.4h9.841a2.043,2.043,0,0,1,2.043,2.043V5.076a3.374,3.374,0,0,1-.9,2.1L14.546,8.352a.568.568,0,0,1-.494.125,2.534,2.534,0,0,0-.634-.074,2.95,2.95,0,0,0-2.951,2.951,2.9,2.9,0,0,0,.428,1.52,2.825,2.825,0,0,0,.922.944.564.564,0,0,1,.266.472v.251a2.2,2.2,0,0,1-.944,1.748l-1.018.657A2.076,2.076,0,0,1,9.028,17.256ZM4.9,2.5A.966.966,0,0,0,3.96,3.513V5.231a1.982,1.982,0,0,0,.516,1.107l2.84,2.988a3.432,3.432,0,0,1,.752,1.948V15.22a.928.928,0,0,0,.48.811.972.972,0,0,0,.981-.007l1.033-.664a1.115,1.115,0,0,0,.413-.76A4.071,4.071,0,0,1,9.36,11.376a4.065,4.065,0,0,1,4.662-4.013L15.114,6.4a2.3,2.3,0,0,0,.561-1.306V3.454a.938.938,0,0,0-.937-.937H4.9Z" transform="translate(-2.847 -1.395)" fill="#313949"/>
    </g>
  </g>
</svg>
